G04 DipTrace 2.3.0.1*
%IN58744_REV1_BottomSilk.gbr*%
%MOIN*%
%ADD20C,0.02*%
%ADD23C,0.03*%
%ADD31C,0.0216*%
%ADD35C,0.0154*%
%ADD36C,0.0124*%
%FSLAX44Y44*%
G04*
G70*
G90*
G75*
G01*
%LNBotSilk*%
%LPD*%
X41244Y8372D2*
D23*
G02X41244Y6872I1000J-750D01*
G01*
Y8372D2*
Y6872D1*
X46744Y44122D2*
D20*
X46994Y46122D1*
X47744Y44122D2*
X47369Y46122D1*
X54014Y74736D2*
D31*
X53879Y74804D1*
X53678Y75004D1*
Y73599D1*
X53178Y74669D2*
Y74736D1*
X53111Y74871D1*
X53045Y74937D1*
X52910Y75004D1*
X52642D1*
X52509Y74937D1*
X52443Y74871D1*
X52375Y74736D1*
Y74603D1*
X52443Y74468D1*
X52576Y74269D1*
X53246Y73599D1*
X52308D1*
X51876Y75005D2*
X51340Y73599D1*
X50805Y75005D1*
X50373D2*
Y73599D1*
X49904D1*
X49703Y73667D1*
X49568Y73800D1*
X49501Y73934D1*
X49435Y74134D1*
Y74470D1*
X49501Y74671D1*
X49568Y74804D1*
X49703Y74939D1*
X49904Y75005D1*
X50373D1*
X47998Y74671D2*
X48065Y74804D1*
X48199Y74939D1*
X48332Y75005D1*
X48600D1*
X48735Y74939D1*
X48868Y74804D1*
X48936Y74671D1*
X49002Y74470D1*
Y74134D1*
X48936Y73934D1*
X48868Y73800D1*
X48735Y73667D1*
X48600Y73599D1*
X48332D1*
X48199Y73667D1*
X48065Y73800D1*
X47998Y73934D1*
X46205Y74736D2*
X46070Y74804D1*
X45869Y75004D1*
Y73599D1*
X45369Y74669D2*
Y74736D1*
X45302Y74871D1*
X45236Y74937D1*
X45101Y75004D1*
X44833D1*
X44700Y74937D1*
X44634Y74871D1*
X44566Y74736D1*
Y74603D1*
X44634Y74468D1*
X44767Y74269D1*
X45437Y73599D1*
X44499D1*
X42994D2*
X43531Y75005D1*
X44067Y73599D1*
X43866Y74068D2*
X43196D1*
X41768Y70301D2*
X40994D1*
X55723Y70904D2*
Y69698D1*
X56325Y70300D2*
X55119D1*
X43925Y7163D2*
D35*
Y6302D1*
X44355Y6732D2*
X43494D1*
X40797D2*
X40244D1*
X40715Y7928D2*
D36*
Y7124D1*
X40256D1*
X39512Y7928D2*
X40009D1*
Y7124D1*
X39512D1*
X40009Y7545D2*
X39703D1*
X39265Y7928D2*
Y7124D1*
X38997D1*
X38882Y7163D1*
X38805Y7239D1*
X38767Y7316D1*
X38729Y7430D1*
Y7622D1*
X38767Y7737D1*
X38805Y7813D1*
X38882Y7890D1*
X38997Y7928D1*
X39265D1*
X48167Y13295D2*
X47823D1*
X47708Y13334D1*
X47669Y13372D1*
X47631Y13448D1*
Y13525D1*
X47669Y13601D1*
X47708Y13640D1*
X47823Y13678D1*
X48167D1*
Y12874D1*
X47899Y13295D2*
X47631Y12874D1*
X46887Y13678D2*
X47384D1*
Y12874D1*
X46887D1*
X47384Y13295D2*
X47078D1*
X46104Y13563D2*
X46180Y13640D1*
X46295Y13678D1*
X46448D1*
X46563Y13640D1*
X46640Y13563D1*
Y13487D1*
X46601Y13410D1*
X46563Y13372D1*
X46487Y13334D1*
X46257Y13257D1*
X46180Y13219D1*
X46142Y13180D1*
X46104Y13104D1*
Y12989D1*
X46180Y12913D1*
X46295Y12874D1*
X46448D1*
X46563Y12913D1*
X46640Y12989D1*
X45435Y44735D2*
D35*
Y43922D1*
X45387Y43779D1*
X45291Y43730D1*
X45196D1*
X45578Y44400D2*
X45244D1*
X44887Y44735D2*
Y43730D1*
Y44209D2*
X44743Y44353D1*
X44647Y44400D1*
X44504D1*
X44409Y44353D1*
X44361Y44209D1*
Y43730D1*
X44052Y44113D2*
X43479D1*
Y44209D1*
X43526Y44305D1*
X43574Y44353D1*
X43670Y44400D1*
X43813D1*
X43909Y44353D1*
X44005Y44256D1*
X44052Y44113D1*
Y44018D1*
X44005Y43874D1*
X43909Y43779D1*
X43813Y43730D1*
X43670D1*
X43574Y43779D1*
X43479Y43874D1*
X43170Y44400D2*
Y43730D1*
Y44113D2*
X43121Y44256D1*
X43026Y44353D1*
X42930Y44400D1*
X42786D1*
X42477D2*
Y43730D1*
Y44209D2*
X42334Y44353D1*
X42238Y44400D1*
X42095D1*
X41999Y44353D1*
X41951Y44209D1*
Y43730D1*
Y44209D2*
X41808Y44353D1*
X41711Y44400D1*
X41569D1*
X41473Y44353D1*
X41424Y44209D1*
Y43730D1*
X41115Y44735D2*
X41068Y44688D1*
X41019Y44735D1*
X41068Y44784D1*
X41115Y44735D1*
X41068Y44400D2*
Y43730D1*
X40184Y44256D2*
X40232Y44353D1*
X40375Y44400D1*
X40519D1*
X40663Y44353D1*
X40710Y44256D1*
X40663Y44161D1*
X40567Y44113D1*
X40328Y44065D1*
X40232Y44018D1*
X40184Y43922D1*
Y43874D1*
X40232Y43779D1*
X40375Y43730D1*
X40519D1*
X40663Y43779D1*
X40710Y43874D1*
X39732Y44735D2*
Y43922D1*
X39684Y43779D1*
X39588Y43730D1*
X39493D1*
X39875Y44400D2*
X39540D1*
X38945D2*
X39040Y44353D1*
X39136Y44256D1*
X39184Y44113D1*
Y44018D1*
X39136Y43874D1*
X39040Y43779D1*
X38945Y43730D1*
X38802D1*
X38705Y43779D1*
X38610Y43874D1*
X38562Y44018D1*
Y44113D1*
X38610Y44256D1*
X38705Y44353D1*
X38802Y44400D1*
X38945D1*
X38253D2*
Y43730D1*
Y44113D2*
X38204Y44256D1*
X38109Y44353D1*
X38013Y44400D1*
X37869D1*
M02*
