  0
SECTION
  2
HEADER
  9
$ACADVER
  1
AC1018
  9
$ACADMAINTVER
 70
     0
  9
$DWGCODEPAGE
  3
ANSI_1252
  9
$INSBASE
 10
0.0
 20
0.0
 30
0.0
  9
$EXTMIN
 10
-64.5
 20
-55.0
 30
0.0
  9
$EXTMAX
 10
75.5751881224
 20
61.0
 30
0.0
  9
$LIMMIN
 10
0.0
 20
0.0
  9
$LIMMAX
 10
420.0
 20
297.0
  9
$ORTHOMODE
 70
     0
  9
$REGENMODE
 70
     1
  9
$FILLMODE
 70
     1
  9
$QTEXTMODE
 70
     0
  9
$MIRRTEXT
 70
     1
  9
$LTSCALE
 40
1.0
  9
$ATTMODE
 70
     1
  9
$TEXTSIZE
 40
3.5
  9
$TRACEWID
 40
1.0
  9
$TEXTSTYLE
  7
Standard
  9
$CLAYER
  8
0
  9
$CELTYPE
  6
ByLayer
  9
$CECOLOR
 62
   256
  9
$CELTSCALE
 40
1.0
  9
$DISPSILH
 70
     0
  9
$DIMSCALE
 40
1.0
  9
$DIMASZ
 40
3.302
  9
$DIMEXO
 40
1.0
  9
$DIMDLI
 40
3.75
  9
$DIMRND
 40
0.0
  9
$DIMDLE
 40
0.0
  9
$DIMEXE
 40
1.0
  9
$DIMTP
 40
0.0
  9
$DIMTM
 40
0.0
  9
$DIMTXT
 40
3.5
  9
$DIMCEN
 40
2.5
  9
$DIMTSZ
 40
0.0
  9
$DIMTOL
 70
     0
  9
$DIMLIM
 70
     0
  9
$DIMTIH
 70
     1
  9
$DIMTOH
 70
     1
  9
$DIMSE1
 70
     0
  9
$DIMSE2
 70
     0
  9
$DIMTAD
 70
     1
  9
$DIMZIN
 70
     0
  9
$DIMBLK
  1

  9
$DIMASO
 70
     1
  9
$DIMSHO
 70
     1
  9
$DIMPOST
  1

  9
$DIMAPOST
  1

  9
$DIMALT
 70
     0
  9
$DIMALTD
 70
     3
  9
$DIMALTF
 40
0.0393700787
  9
$DIMLFAC
 40
1.0
  9
$DIMTOFL
 70
     1
  9
$DIMTVP
 40
0.0
  9
$DIMTIX
 70
     0
  9
$DIMSOXD
 70
     0
  9
$DIMSAH
 70
     0
  9
$DIMBLK1
  1

  9
$DIMBLK2
  1

  9
$DIMSTYLE
  2
ISO-25
  9
$DIMCLRD
 70
     0
  9
$DIMCLRE
 70
     0
  9
$DIMCLRT
 70
     0
  9
$DIMTFAC
 40
1.0
  9
$DIMGAP
 40
1.524
  9
$DIMJUST
 70
     0
  9
$DIMSD1
 70
     0
  9
$DIMSD2
 70
     0
  9
$DIMTOLJ
 70
     0
  9
$DIMTZIN
 70
     0
  9
$DIMALTZ
 70
     0
  9
$DIMALTTZ
 70
     0
  9
$DIMUPT
 70
     0
  9
$DIMDEC
 70
     2
  9
$DIMTDEC
 70
     2
  9
$DIMALTU
 70
     2
  9
$DIMALTTD
 70
     3
  9
$DIMTXSTY
  7
Standard
  9
$DIMAUNIT
 70
     0
  9
$DIMADEC
 70
     2
  9
$DIMALTRND
 40
0.0
  9
$DIMAZIN
 70
     0
  9
$DIMDSEP
 70
    44
  9
$DIMATFIT
 70
     3
  9
$DIMFRAC
 70
     0
  9
$DIMLDRBLK
  1

  9
$DIMLUNIT
 70
     2
  9
$DIMLWD
 70
    -2
  9
$DIMLWE
 70
    -2
  9
$DIMTMOVE
 70
     0
  9
$LUNITS
 70
     2
  9
$LUPREC
 70
     2
  9
$SKETCHINC
 40
1.0
  9
$FILLETRAD
 40
10.0
  9
$AUNITS
 70
     0
  9
$AUPREC
 70
     2
  9
$MENU
  1
.
  9
$ELEVATION
 40
0.0
  9
$PELEVATION
 40
0.0
  9
$THICKNESS
 40
0.0
  9
$LIMCHECK
 70
     0
  9
$CHAMFERA
 40
10.0
  9
$CHAMFERB
 40
10.0
  9
$CHAMFERC
 40
20.0
  9
$CHAMFERD
 40
0.0
  9
$SKPOLY
 70
     0
  9
$TDCREATE
 40
2456534.766539167
  9
$TDUCREATE
 40
2456534.933205833
  9
$TDUPDATE
 40
2456534.766552523
  9
$TDUUPDATE
 40
2456534.93321919
  9
$TDINDWG
 40
0.0000000116
  9
$TDUSRTIMER
 40
0.0000000116
  9
$USRTIMER
 70
     1
  9
$ANGBASE
 50
0.0
  9
$ANGDIR
 70
     0
  9
$PDMODE
 70
     0
  9
$PDSIZE
 40
-1.0
  9
$PLINEWID
 40
0.0
  9
$SPLFRAME
 70
     0
  9
$SPLINETYPE
 70
     6
  9
$SPLINESEGS
 70
     8
  9
$HANDSEED
  5
141
  9
$SURFTAB1
 70
     6
  9
$SURFTAB2
 70
     6
  9
$SURFTYPE
 70
     6
  9
$SURFU
 70
     6
  9
$SURFV
 70
     6
  9
$UCSBASE
  2

  9
$UCSNAME
  2

  9
$UCSORG
 10
0.0
 20
0.0
 30
0.0
  9
$UCSXDIR
 10
1.0
 20
0.0
 30
0.0
  9
$UCSYDIR
 10
0.0
 20
1.0
 30
0.0
  9
$UCSORTHOREF
  2

  9
$UCSORTHOVIEW
 70
     0
  9
$UCSORGTOP
 10
0.0
 20
0.0
 30
0.0
  9
$UCSORGBOTTOM
 10
0.0
 20
0.0
 30
0.0
  9
$UCSORGLEFT
 10
0.0
 20
0.0
 30
0.0
  9
$UCSORGRIGHT
 10
0.0
 20
0.0
 30
0.0
  9
$UCSORGFRONT
 10
0.0
 20
0.0
 30
0.0
  9
$UCSORGBACK
 10
0.0
 20
0.0
 30
0.0
  9
$PUCSBASE
  2

  9
$PUCSNAME
  2

  9
$PUCSORG
 10
0.0
 20
0.0
 30
0.0
  9
$PUCSXDIR
 10
1.0
 20
0.0
 30
0.0
  9
$PUCSYDIR
 10
0.0
 20
1.0
 30
0.0
  9
$PUCSORTHOREF
  2

  9
$PUCSORTHOVIEW
 70
     0
  9
$PUCSORGTOP
 10
0.0
 20
0.0
 30
0.0
  9
$PUCSORGBOTTOM
 10
0.0
 20
0.0
 30
0.0
  9
$PUCSORGLEFT
 10
0.0
 20
0.0
 30
0.0
  9
$PUCSORGRIGHT
 10
0.0
 20
0.0
 30
0.0
  9
$PUCSORGFRONT
 10
0.0
 20
0.0
 30
0.0
  9
$PUCSORGBACK
 10
0.0
 20
0.0
 30
0.0
  9
$USERI1
 70
     0
  9
$USERI2
 70
     0
  9
$USERI3
 70
     0
  9
$USERI4
 70
     0
  9
$USERI5
 70
     0
  9
$USERR1
 40
0.0
  9
$USERR2
 40
0.0
  9
$USERR3
 40
0.0
  9
$USERR4
 40
0.0
  9
$USERR5
 40
0.0
  9
$WORLDVIEW
 70
     1
  9
$SHADEDGE
 70
     3
  9
$SHADEDIF
 70
    70
  9
$TILEMODE
 70
     1
  9
$MAXACTVP
 70
    64
  9
$PINSBASE
 10
0.0
 20
0.0
 30
0.0
  9
$PLIMCHECK
 70
     0
  9
$PEXTMIN
 10
1.0000000000E+20
 20
1.0000000000E+20
 30
1.0000000000E+20
  9
$PEXTMAX
 10
-1.0000000000E+20
 20
-1.0000000000E+20
 30
-1.0000000000E+20
  9
$PLIMMIN
 10
0.0
 20
0.0
  9
$PLIMMAX
 10
420.0
 20
297.0
  9
$UNITMODE
 70
     0
  9
$VISRETAIN
 70
     1
  9
$PLINEGEN
 70
     0
  9
$PSLTSCALE
 70
     1
  9
$TREEDEPTH
 70
  3020
  9
$CMLSTYLE
  2
Standard
  9
$CMLJUST
 70
     0
  9
$CMLSCALE
 40
20.0
  9
$PROXYGRAPHICS
 70
     1
  9
$MEASUREMENT
 70
     1
  9
$CELWEIGHT
370
    -1
  9
$ENDCAPS
280
     0
  9
$JOINSTYLE
280
     0
  9
$LWDISPLAY
290
     1
  9
$INSUNITS
 70
     4
  9
$HYPERLINKBASE
  1

  9
$STYLESHEET
  1

  9
$XEDIT
290
     1
  9
$CEPSNTYPE
380
     0
  9
$PSTYLEMODE
290
     1
  9
$FINGERPRINTGUID
  2
{09D9BD2C-EB4D-490D-9407-A50368741635}
  9
$VERSIONGUID
  2
{FAEB1C32-E019-11D5-929B-00C0DF256EC4}
  9
$EXTNAMES
290
     1
  9
$PSVPSCALE
 40
0.0
  9
$OLESTARTUP
290
     0
  9
$SORTENTS
280
   127
  9
$INDEXCTL
280
     0
  9
$HIDETEXT
280
     1
  9
$XCLIPFRAME
290
     0
  9
$HALOGAP
280
     0
  9
$OBSCOLOR
 70
   257
  9
$OBSLTYPE
280
     0
  9
$INTERSECTIONDISPLAY
280
     0
  9
$INTERSECTIONCOLOR
 70
   257
  9
$DIMASSOC
280
     2
  9
$PROJECTNAME
  1

  0
ENDSEC
  0
SECTION
  2
CLASSES
  0
CLASS
  1
ACDBDICTIONARYWDFLT
  2
AcDbDictionaryWithDefault
  3
ObjectDBX Classes
 90
        0
 91
        4
280
     0
281
     0
  0
CLASS
  1
VISUALSTYLE
  2
AcDbVisualStyle
  3
ObjectDBX Classes
 90
     4095
 91
        4
280
     0
281
     0
  0
CLASS
  1
MATERIAL
  2
AcDbMaterial
  3
ObjectDBX Classes
 90
     1153
 91
        4
280
     0
281
     0
  0
ENDSEC
  0
SECTION
  2
TABLES
  0
TABLE
  2
VPORT
  5
8
330
0
100
AcDbSymbolTable
 70
     1
  0
VPORT
  5
29
330
8
100
AcDbSymbolTableRecord
100
AcDbViewportTableRecord
  2
*Active
 70
     0
 10
0.0
 20
0.0
 11
1.0
 21
1.0
 12
5.5375940612
 22
3.0
 13
0.0
 23
0.0
 14
10.0
 24
10.0
 15
10.0
 25
10.0
 16
0.0
 26
0.0
 36
1.0
 17
0.0
 27
0.0
 37
0.0
 40
118.32
 41
1.2075447252
 42
50.0
 43
0.0
 44
0.0
 50
0.0
 51
0.0
 71
     0
 72
   100
 73
     1
 74
     3
 75
     0
 76
     0
 77
     0
 78
     0
281
     0
 65
     1
110
0.0
120
0.0
130
0.0
111
1.0
121
0.0
131
0.0
112
0.0
122
1.0
132
0.0
 79
     0
146
0.0
  0
ENDTAB
  0
TABLE
  2
LTYPE
  5
5
330
0
100
AcDbSymbolTable
 70
     6
  0
LTYPE
  5
14
330
5
100
AcDbSymbolTableRecord
100
AcDbLinetypeTableRecord
  2
ByBlock
 70
     0
  3

 72
    65
 73
     0
 40
0.0
  0
LTYPE
  5
15
330
5
100
AcDbSymbolTableRecord
100
AcDbLinetypeTableRecord
  2
ByLayer
 70
     0
  3

 72
    65
 73
     0
 40
0.0
  0
LTYPE
  5
16
330
5
100
AcDbSymbolTableRecord
100
AcDbLinetypeTableRecord
  2
Continuous
 70
     0
  3
Solid line
 72
    65
 73
     0
 40
0.0
  0
LTYPE
  5
3F
330
5
100
AcDbSymbolTableRecord
100
AcDbLinetypeTableRecord
  2
HIDDEN
 70
     0
  3
Hidden __ __ __ __ __ __ __ __ __ __ __ __ __ __
 72
    65
 73
     2
 40
1.905
 49
1.27
 74
     0
 49
-0.635
 74
     0
  0
LTYPE
  5
40
330
5
100
AcDbSymbolTableRecord
100
AcDbLinetypeTableRecord
  2
PHANTOM
 70
     0
  3
Phantom ______  __  __  ______  __  __  ______
 72
    65
 73
     6
 40
12.7
 49
6.35
 74
     0
 49
-1.27
 74
     0
 49
1.27
 74
     0
 49
-1.27
 74
     0
 49
1.27
 74
     0
 49
-1.27
 74
     0
  0
LTYPE
  5
41
330
5
100
AcDbSymbolTableRecord
100
AcDbLinetypeTableRecord
  2
CENTER
 70
     0
  3
Center ____ _ ____ _ ____ _ ____ _ ____ _ ____
 72
    65
 73
     4
 40
10.16
 49
6.35
 74
     0
 49
-1.27
 74
     0
 49
1.27
 74
     0
 49
-1.27
 74
     0
  0
LTYPE
  5
42
330
5
100
AcDbSymbolTableRecord
100
AcDbLinetypeTableRecord
  2
CENTERX2
 70
     0
  3
Center (2x) ________  __  ________  __  _____
 72
    65
 73
     4
 40
20.32
 49
12.7
 74
     0
 49
-2.54
 74
     0
 49
2.54
 74
     0
 49
-2.54
 74
     0
  0
LTYPE
  5
43
330
5
100
AcDbSymbolTableRecord
100
AcDbLinetypeTableRecord
  2
DOT2
 70
     0
  3
Dot (.5x) ........................................
 72
    65
 73
     2
 40
0.635
 49
0.0
 74
     0
 49
-0.635
 74
     0
  0
ENDTAB
  0
TABLE
  2
LAYER
  5
2
330
0
100
AcDbSymbolTable
 70
     1
  0
LAYER
  5
10
330
2
100
AcDbSymbolTableRecord
100
AcDbLayerTableRecord
  2
0
 70
     0
 62
     7
  6
Continuous
370
    -3
390
F
  0
ENDTAB
  0
TABLE
  2
STYLE
  5
3
330
0
100
AcDbSymbolTable
 70
     1
  0
STYLE
  5
11
330
3
100
AcDbSymbolTableRecord
100
AcDbTextStyleTableRecord
  2
Standard
 70
     0
 40
0.0
 41
1.0
 50
0.0
 71
     0
 42
3.5
  3
txt
  4

  0
ENDTAB
  0
TABLE
  2
VIEW
  5
6
330
0
100
AcDbSymbolTable
 70
     0
  0
ENDTAB
  0
TABLE
  2
UCS
  5
7
330
0
100
AcDbSymbolTable
 70
     0
  0
ENDTAB
  0
TABLE
  2
APPID
  5
9
330
0
100
AcDbSymbolTable
 70
     1
  0
APPID
  5
12
330
9
100
AcDbSymbolTableRecord
100
AcDbRegAppTableRecord
  2
ACAD
 70
     0
  0
ENDTAB
  0
TABLE
  2
DIMSTYLE
  5
A
330
0
100
AcDbSymbolTable
 70
     1
100
AcDbDimStyleTable
  0
DIMSTYLE
105
27
330
A
100
AcDbSymbolTableRecord
100
AcDbDimStyleTableRecord
  2
ISO-25
 70
     0
 41
2.5
 42
0.625
 43
3.75
 44
1.25
 73
     0
 74
     0
 77
     1
 78
     8
140
2.5
141
2.5
143
0.0393700787
147
0.625
171
     3
172
     1
178
     0
271
     2
272
     2
274
     3
278
    44
283
     0
284
     8
340
11
  0
ENDTAB
  0
TABLE
  2
BLOCK_RECORD
  5
1
330
0
100
AcDbSymbolTable
 70
     1
  0
BLOCK_RECORD
  5
1F
330
1
100
AcDbSymbolTableRecord
100
AcDbBlockTableRecord
  2
*Model_Space
340
22
  0
BLOCK_RECORD
  5
1B
330
1
100
AcDbSymbolTableRecord
100
AcDbBlockTableRecord
  2
*Paper_Space
340
1E
  0
BLOCK_RECORD
  5
23
330
1
100
AcDbSymbolTableRecord
100
AcDbBlockTableRecord
  2
*Paper_Space0
340
26
  0
ENDTAB
  0
ENDSEC
  0
SECTION
  2
BLOCKS
  0
BLOCK
  5
20
330
1F
100
AcDbEntity
  8
0
100
AcDbBlockBegin
  2
*Model_Space
 70
     0
 10
0.0
 20
0.0
 30
0.0
  3
*Model_Space
  1

  0
ENDBLK
  5
21
330
1F
100
AcDbEntity
  8
0
100
AcDbBlockEnd
  0
BLOCK
  5
1C
330
1B
100
AcDbEntity
 67
     1
  8
0
100
AcDbBlockBegin
  2
*Paper_Space
 70
     0
 10
0.0
 20
0.0
 30
0.0
  3
*Paper_Space
  1

  0
ENDBLK
  5
1D
330
1B
100
AcDbEntity
 67
     1
  8
0
100
AcDbBlockEnd
  0
BLOCK
  5
24
330
23
100
AcDbEntity
  8
0
100
AcDbBlockBegin
  2
*Paper_Space0
 70
     0
 10
0.0
 20
0.0
 30
0.0
  3
*Paper_Space0
  1

  0
ENDBLK
  5
25
330
23
100
AcDbEntity
  8
0
100
AcDbBlockEnd
  0
ENDSEC
  0
SECTION
  2
ENTITIES
  0
LWPOLYLINE
  5
44
330
1F
100
AcDbEntity
  8
0
  6
Continuous
 62
     7
100
AcDbPolyline
 90
      118
 70
   128
 43
0.0
 10
-36.6115868092
 20
24.5967019682
 10
-36.5572315884
 20
24.5985932212
 10
-36.5056949454
 20
24.6033213535
 10
-36.4560495553
 20
24.6118319918
 10
-36.4092410447
 20
24.6236523228
 10
-36.3652694135
 20
24.6387823465
 10
-36.3236618484
 20
24.6572220628
 10
-36.2844183496
 20
24.679444285
 10
-36.247538917
 20
24.7045033866
 10
-36.213969177
 20
24.7333449942
 10
-36.1851275695
 20
24.7664419209
 10
-36.1610140943
 20
24.8037941668
 10
-36.140683125
 20
24.8449289186
 10
-36.1250802882
 20
24.8903189895
 10
-36.1142055837
 20
24.9399643795
 10
-36.1075861983
 20
24.9933922755
 10
-36.1052221321
 20
25.0510754907
 10
-36.1052221321
 20
25.0510754907
 10
-36.1104230778
 20
25.1248343559
 10
-36.1264987279
 20
25.1919738358
 10
-36.1529762692
 20
25.2529667436
 10
-36.1903285151
 20
25.3073402661
 10
-36.2352457728
 20
25.3574584694
 10
-36.2858367893
 20
25.4037941668
 10
-36.3416287515
 20
25.4472929847
 10
-36.4026216593
 20
25.4870092968
 10
-36.4678698863
 20
25.5248343559
 10
-36.5354821794
 20
25.5602953488
 10
-36.6064041652
 20
25.594337902
 10
-36.6801630305
 20
25.626016389
 10
-36.8248438815
 20
25.691264616
 10
-36.9581772149
 20
25.7617137885
 10
-37.0191701227
 20
25.8000116609
 10
-37.0749620848
 20
25.8411464126
 10
-37.1250802882
 20
25.8851180439
 10
-37.1704703591
 20
25.9319265545
 10
-37.2078226049
 20
25.9829903843
 10
-37.2343001463
 20
26.0402007862
 10
-37.2503757964
 20
26.1030849469
 10
-37.2555767421
 20
26.1721156798
 10
-37.2555767421
 20
26.1721156798
 10
-37.2508486097
 20
26.2392551597
 10
-37.237609839
 20
26.3106499587
 10
-37.2267351345
 20
26.3470565781
 10
-37.2116051109
 20
26.3820447578
 10
-37.1931653945
 20
26.4156144978
 10
-37.1704703591
 20
26.4482386112
 10
-37.1435200045
 20
26.4789714717
 10
-37.1113687042
 20
26.5068674528
 10
-37.0749620848
 20
26.5319265545
 10
-37.0333545198
 20
26.5541487767
 10
-36.9856003827
 20
26.572588493
 10
-36.9312268603
 20
26.5863000769
 10
-36.8697611392
 20
26.5938650888
 10
-36.8012032196
 20
26.5967019682
 10
-36.8012032196
 20
26.5967019682
 10
-36.1964750872
 20
26.5967019682
 10
-36.1964750872
 20
26.5967019682
 10
-36.8012032196
 20
26.5967019682
 10
-36.8012032196
 20
26.5967019682
 10
-36.8697611392
 20
26.5938650888
 10
-36.9312268603
 20
26.5863000769
 10
-36.9856003827
 20
26.572588493
 10
-37.0333545198
 20
26.5541487767
 10
-37.0749620848
 20
26.5319265545
 10
-37.1113687042
 20
26.5068674528
 10
-37.1435200045
 20
26.4789714717
 10
-37.1704703591
 20
26.4482386112
 10
-37.1931653945
 20
26.4156144978
 10
-37.2116051109
 20
26.3820447578
 10
-37.2267351345
 20
26.3470565781
 10
-37.237609839
 20
26.3106499587
 10
-37.2508486097
 20
26.2392551597
 10
-37.2555767421
 20
26.1721156798
 10
-37.2555767421
 20
26.1721156798
 10
-37.2503757964
 20
26.1030849469
 10
-37.2343001463
 20
26.0402007862
 10
-37.2078226049
 20
25.9829903843
 10
-37.1704703591
 20
25.9319265545
 10
-37.1250802882
 20
25.8851180439
 10
-37.0749620848
 20
25.8411464126
 10
-37.0191701227
 20
25.8000116609
 10
-36.9581772149
 20
25.7617137885
 10
-36.8248438815
 20
25.691264616
 10
-36.6801630305
 20
25.626016389
 10
-36.6064041652
 20
25.594337902
 10
-36.5354821794
 20
25.5602953488
 10
-36.4678698863
 20
25.5248343559
 10
-36.4026216593
 20
25.4870092968
 10
-36.3416287515
 20
25.4472929847
 10
-36.2858367893
 20
25.4037941668
 10
-36.2352457728
 20
25.3574584694
 10
-36.1903285151
 20
25.3073402661
 10
-36.1529762692
 20
25.2529667436
 10
-36.1264987279
 20
25.1919738358
 10
-36.1104230778
 20
25.1248343559
 10
-36.1052221321
 20
25.0510754907
 10
-36.1052221321
 20
25.0510754907
 10
-36.1075861983
 20
24.9933922755
 10
-36.1142055837
 20
24.9399643795
 10
-36.1250802882
 20
24.8903189895
 10
-36.140683125
 20
24.8449289186
 10
-36.1610140943
 20
24.8037941668
 10
-36.1851275695
 20
24.7664419209
 10
-36.213969177
 20
24.7333449942
 10
-36.247538917
 20
24.7045033866
 10
-36.2844183496
 20
24.679444285
 10
-36.3236618484
 20
24.6572220628
 10
-36.3652694135
 20
24.6387823465
 10
-36.4092410447
 20
24.6236523228
 10
-36.4560495553
 20
24.6118319918
 10
-36.5056949454
 20
24.6033213535
 10
-36.5572315884
 20
24.5985932212
 10
-36.6116051109
 20
24.5967019682
 10
-36.6116051109
 20
24.5967019682
 10
-37.2815814702
 20
24.5967019682
 10
-37.2815814702
 20
24.5967019682
 10
-36.6116051109
 20
24.5967019682
  0
LWPOLYLINE
  5
45
330
1F
100
AcDbEntity
  8
0
  6
Continuous
 62
     7
100
AcDbPolyline
 90
      132
 70
   128
 43
0.0
 10
-34.3174934387
 20
25.0118319918
 10
-34.3364278059
 20
24.9555672164
 10
-34.3581772149
 20
24.9026121337
 10
-34.3827635033
 20
24.8534395569
 10
-34.4111322976
 20
24.8080494859
 10
-34.4423379714
 20
24.7654962944
 10
-34.4763805246
 20
24.7267256089
 10
-34.5137327704
 20
24.6917374292
 10
-34.554394709
 20
24.6600589422
 10
-34.5974207137
 20
24.6321629611
 10
-34.6428107846
 20
24.6080494859
 10
-34.6900921085
 20
24.5872457034
 10
-34.7392646853
 20
24.5706972401
 10
-34.7908013283
 20
24.5574584694
 10
-34.8447020376
 20
24.5484750178
 10
-34.9004939997
 20
24.542801259
 10
-34.9581772149
 20
24.540910006
 10
-34.9581772149
 20
24.540910006
 10
-35.0286263874
 20
24.5442196987
 10
-35.0967114938
 20
24.5532031502
 10
-35.1619597208
 20
24.5688059871
 10
-35.2243710683
 20
24.5900825829
 10
-35.2834727231
 20
24.6170329375
 10
-35.3383190588
 20
24.6496570509
 10
-35.3889100754
 20
24.6865364836
 10
-35.4352457728
 20
24.7290896751
 10
-35.4768533378
 20
24.7763709989
 10
-35.5137327704
 20
24.827907642
 10
-35.5463568839
 20
24.8841724174
 10
-35.574252865
 20
24.9446925119
 10
-35.5964750872
 20
25.0089951124
 10
-35.6120779241
 20
25.0766074056
 10
-35.6215341889
 20
25.1470565781
 10
-35.6248438815
 20
25.2208154434
 10
-35.6248438815
 20
25.2208154434
 10
-35.6215341889
 20
25.2945743086
 10
-35.6120779241
 20
25.3650234812
 10
-35.5964750872
 20
25.4326357743
 10
-35.574252865
 20
25.4969383748
 10
-35.5463568839
 20
25.5574584694
 10
-35.5137327704
 20
25.6137232448
 10
-35.4768533378
 20
25.6652598878
 10
-35.4352457728
 20
25.7125412117
 10
-35.3889100754
 20
25.7550944032
 10
-35.3383190588
 20
25.7924466491
 10
-35.2834727231
 20
25.8245979493
 10
-35.2243710683
 20
25.8515483039
 10
-35.1619597208
 20
25.8732977129
 10
-35.0967114938
 20
25.8884277365
 10
-35.0286263874
 20
25.8978840013
 10
-34.9581772149
 20
25.9007208807
 10
-34.9581772149
 20
25.9007208807
 10
-34.8640873804
 20
25.8950471219
 10
-34.7747256782
 20
25.8784986585
 10
-34.6900921085
 20
25.8510754907
 10
-34.6101866711
 20
25.8123048051
 10
-34.5728344253
 20
25.7891369564
 10
-34.5387918721
 20
25.764550668
 10
-34.5075861983
 20
25.7376003134
 10
-34.4796902172
 20
25.709231519
 10
-34.4551039288
 20
25.6789714717
 10
-34.4333545198
 20
25.6468201715
 10
-34.4149148035
 20
25.6127776183
 10
-34.3993119666
 20
25.5768438122
 10
-34.3993119666
 20
25.5768438122
 10
-35.1898557019
 20
25.1390187531
 10
-35.1898557019
 20
25.1390187531
 10
-34.3993119666
 20
25.5768438122
 10
-34.3993119666
 20
25.5768438122
 10
-34.4149148035
 20
25.6127776183
 10
-34.4333545198
 20
25.6468201715
 10
-34.4551039288
 20
25.6789714717
 10
-34.4796902172
 20
25.709231519
 10
-34.5075861983
 20
25.7376003134
 10
-34.5387918721
 20
25.764550668
 10
-34.5728344253
 20
25.7891369564
 10
-34.6101866711
 20
25.8123048051
 10
-34.6900921085
 20
25.8510754907
 10
-34.7747256782
 20
25.8784986585
 10
-34.8640873804
 20
25.8950471219
 10
-34.9581772149
 20
25.9007208807
 10
-34.9581772149
 20
25.9007208807
 10
-35.0286263874
 20
25.8978840013
 10
-35.0967114938
 20
25.8884277365
 10
-35.1619597208
 20
25.8732977129
 10
-35.2243710683
 20
25.8515483039
 10
-35.2834727231
 20
25.8245979493
 10
-35.3383190588
 20
25.7924466491
 10
-35.3889100754
 20
25.7550944032
 10
-35.4352457728
 20
25.7125412117
 10
-35.4768533378
 20
25.6652598878
 10
-35.5137327704
 20
25.6137232448
 10
-35.5463568839
 20
25.5574584694
 10
-35.574252865
 20
25.4969383748
 10
-35.5964750872
 20
25.4326357743
 10
-35.6120779241
 20
25.3650234812
 10
-35.6215341889
 20
25.2945743086
 10
-35.6248438815
 20
25.2208154434
 10
-35.6248438815
 20
25.2208154434
 10
-35.6215341889
 20
25.1470565781
 10
-35.6120779241
 20
25.0766074056
 10
-35.5964750872
 20
25.0089951124
 10
-35.574252865
 20
24.9446925119
 10
-35.5463568839
 20
24.8841724174
 10
-35.5137327704
 20
24.827907642
 10
-35.4768533378
 20
24.7763709989
 10
-35.4352457728
 20
24.7290896751
 10
-35.3889100754
 20
24.6865364836
 10
-35.3383190588
 20
24.6496570509
 10
-35.2834727231
 20
24.6170329375
 10
-35.2243710683
 20
24.5900825829
 10
-35.1619597208
 20
24.5688059871
 10
-35.0967114938
 20
24.5532031502
 10
-35.0286263874
 20
24.5442196987
 10
-34.9581772149
 20
24.540910006
 10
-34.9581772149
 20
24.540910006
 10
-34.9004939997
 20
24.542801259
 10
-34.8447020376
 20
24.5484750178
 10
-34.7908013283
 20
24.5574584694
 10
-34.7392646853
 20
24.5706972401
 10
-34.6900921085
 20
24.5872457034
 10
-34.6428107846
 20
24.6080494859
 10
-34.5974207137
 20
24.6321629611
 10
-34.554394709
 20
24.6600589422
 10
-34.5137327704
 20
24.6917374292
 10
-34.4763805246
 20
24.7267256089
 10
-34.4423379714
 20
24.7654962944
 10
-34.4111322976
 20
24.8080494859
 10
-34.3827635033
 20
24.8534395569
 10
-34.3581772149
 20
24.9026121337
 10
-34.3364278059
 20
24.9555672164
 10
-34.3175152763
 20
25.0118319918
  0
LWPOLYLINE
  5
46
330
1F
100
AcDbEntity
  8
0
  6
Continuous
 62
     7
100
AcDbPolyline
 90
      132
 70
   128
 43
0.0
 10
-32.5019061565
 20
25.0118319918
 10
-32.520824969
 20
24.9555672164
 10
-32.542574378
 20
24.9026121337
 10
-32.5671606664
 20
24.8534395569
 10
-32.5955294607
 20
24.8080494859
 10
-32.6267351345
 20
24.7654962944
 10
-32.6607776877
 20
24.7267256089
 10
-32.6981299335
 20
24.6917374292
 10
-32.7387918721
 20
24.6600589422
 10
-32.7818178768
 20
24.6321629611
 10
-32.8272079477
 20
24.6080494859
 10
-32.8744892716
 20
24.5872457034
 10
-32.9236618484
 20
24.5706972401
 10
-32.9751984915
 20
24.5574584694
 10
-33.0290992007
 20
24.5484750178
 10
-33.0848911629
 20
24.542801259
 10
-33.142574378
 20
24.540910006
 10
-33.142574378
 20
24.540910006
 10
-33.2130235506
 20
24.5442196987
 10
-33.281108657
 20
24.5532031502
 10
-33.3463568839
 20
24.5688059871
 10
-33.4087682314
 20
24.5900825829
 10
-33.4678698863
 20
24.6170329375
 10
-33.522716222
 20
24.6496570509
 10
-33.5733072385
 20
24.6865364836
 10
-33.6196429359
 20
24.7290896751
 10
-33.6612505009
 20
24.7763709989
 10
-33.6981299335
 20
24.827907642
 10
-33.730754047
 20
24.8841724174
 10
-33.7586500281
 20
24.9446925119
 10
-33.7808722503
 20
25.0089951124
 10
-33.7964750872
 20
25.0766074056
 10
-33.805931352
 20
25.1470565781
 10
-33.8092410447
 20
25.2208154434
 10
-33.8092410447
 20
25.2208154434
 10
-33.805931352
 20
25.2945743086
 10
-33.7964750872
 20
25.3650234812
 10
-33.7808722503
 20
25.4326357743
 10
-33.7586500281
 20
25.4969383748
 10
-33.730754047
 20
25.5574584694
 10
-33.6981299335
 20
25.6137232448
 10
-33.6612505009
 20
25.6652598878
 10
-33.6196429359
 20
25.7125412117
 10
-33.5733072385
 20
25.7550944032
 10
-33.522716222
 20
25.7924466491
 10
-33.4678698863
 20
25.8245979493
 10
-33.4087682314
 20
25.8515483039
 10
-33.3463568839
 20
25.8732977129
 10
-33.281108657
 20
25.8884277365
 10
-33.2130235506
 20
25.8978840013
 10
-33.142574378
 20
25.9007208807
 10
-33.142574378
 20
25.9007208807
 10
-33.0484845435
 20
25.8950471219
 10
-32.9591228414
 20
25.8784986585
 10
-32.8744892716
 20
25.8510754907
 10
-32.7945838343
 20
25.8123048051
 10
-32.7572315884
 20
25.7891369564
 10
-32.7231890352
 20
25.764550668
 10
-32.6919833614
 20
25.7376003134
 10
-32.6640873804
 20
25.709231519
 10
-32.6395010919
 20
25.6789714717
 10
-32.617751683
 20
25.6468201715
 10
-32.5993119666
 20
25.6127776183
 10
-32.5837091298
 20
25.5768438122
 10
-32.5837091298
 20
25.5768438122
 10
-33.374252865
 20
25.1390187531
 10
-33.374252865
 20
25.1390187531
 10
-32.5837091298
 20
25.5768438122
 10
-32.5837091298
 20
25.5768438122
 10
-32.5993119666
 20
25.6127776183
 10
-32.617751683
 20
25.6468201715
 10
-32.6395010919
 20
25.6789714717
 10
-32.6640873804
 20
25.709231519
 10
-32.6919833614
 20
25.7376003134
 10
-32.7231890352
 20
25.764550668
 10
-32.7572315884
 20
25.7891369564
 10
-32.7945838343
 20
25.8123048051
 10
-32.8744892716
 20
25.8510754907
 10
-32.9591228414
 20
25.8784986585
 10
-33.0484845435
 20
25.8950471219
 10
-33.142574378
 20
25.9007208807
 10
-33.142574378
 20
25.9007208807
 10
-33.2130235506
 20
25.8978840013
 10
-33.281108657
 20
25.8884277365
 10
-33.3463568839
 20
25.8732977129
 10
-33.4087682314
 20
25.8515483039
 10
-33.4678698863
 20
25.8245979493
 10
-33.522716222
 20
25.7924466491
 10
-33.5733072385
 20
25.7550944032
 10
-33.6196429359
 20
25.7125412117
 10
-33.6612505009
 20
25.6652598878
 10
-33.6981299335
 20
25.6137232448
 10
-33.730754047
 20
25.5574584694
 10
-33.7586500281
 20
25.4969383748
 10
-33.7808722503
 20
25.4326357743
 10
-33.7964750872
 20
25.3650234812
 10
-33.805931352
 20
25.2945743086
 10
-33.8092410447
 20
25.2208154434
 10
-33.8092410447
 20
25.2208154434
 10
-33.805931352
 20
25.1470565781
 10
-33.7964750872
 20
25.0766074056
 10
-33.7808722503
 20
25.0089951124
 10
-33.7586500281
 20
24.9446925119
 10
-33.730754047
 20
24.8841724174
 10
-33.6981299335
 20
24.827907642
 10
-33.6612505009
 20
24.7763709989
 10
-33.6196429359
 20
24.7290896751
 10
-33.5733072385
 20
24.6865364836
 10
-33.522716222
 20
24.6496570509
 10
-33.4678698863
 20
24.6170329375
 10
-33.4087682314
 20
24.5900825829
 10
-33.3463568839
 20
24.5688059871
 10
-33.281108657
 20
24.5532031502
 10
-33.2130235506
 20
24.5442196987
 10
-33.142574378
 20
24.540910006
 10
-33.142574378
 20
24.540910006
 10
-33.0848911629
 20
24.542801259
 10
-33.0290992007
 20
24.5484750178
 10
-32.9751984915
 20
24.5574584694
 10
-32.9236618484
 20
24.5706972401
 10
-32.8744892716
 20
24.5872457034
 10
-32.8272079477
 20
24.6080494859
 10
-32.7818178768
 20
24.6321629611
 10
-32.7387918721
 20
24.6600589422
 10
-32.6981299335
 20
24.6917374292
 10
-32.6607776877
 20
24.7267256089
 10
-32.6267351345
 20
24.7654962944
 10
-32.5955294607
 20
24.8080494859
 10
-32.5671606664
 20
24.8534395569
 10
-32.542574378
 20
24.9026121337
 10
-32.520824969
 20
24.9555672164
 10
-32.5019124395
 20
25.0118319918
  0
LWPOLYLINE
  5
47
330
1F
100
AcDbEntity
  8
0
  6
Continuous
 62
     7
100
AcDbPolyline
 90
      116
 70
   128
 43
0.0
 10
-30.0981253386
 20
26.4146688713
 10
-30.1023852527
 20
26.445874545
 10
-30.1094774513
 20
26.4813355379
 10
-30.1189337161
 20
26.5177421573
 10
-30.130754047
 20
26.5517847105
 10
-30.1454112574
 20
26.5815719446
 10
-30.1647966002
 20
26.6056854197
 10
-30.1879644489
 20
26.6217610699
 10
-30.2153876168
 20
26.6269620155
 10
-30.2153876168
 20
26.6269620155
 10
-30.2461204773
 20
26.6208154434
 10
-30.2730708319
 20
26.6023757271
 10
-30.2957658674
 20
26.5758981857
 10
-30.3151512101
 20
26.5437468855
 10
-30.3316996735
 20
26.5082858926
 10
-30.3463568839
 20
26.4699880202
 10
-30.3586500281
 20
26.4331085876
 10
-30.3690519194
 20
26.4014301006
 10
-30.3690519194
 20
26.4014301006
 10
-30.8461204773
 20
24.835945467
 10
-30.8461204773
 20
24.835945467
 10
-30.8763805246
 20
24.7480022046
 10
-30.9085318248
 20
24.6662055143
 10
-30.9246074749
 20
24.6316901479
 10
-30.9392646853
 20
24.6075766727
 10
-30.9539218957
 20
24.5924466491
 10
-30.9671606664
 20
24.5877185167
 10
-30.9671606664
 20
24.5877185167
 10
-30.9808722503
 20
24.5924466491
 10
-30.9950566475
 20
24.6075766727
 10
-31.0101866711
 20
24.6316901479
 10
-31.0262623213
 20
24.6662055143
 10
-31.0569951818
 20
24.7480022046
 10
-31.0848911629
 20
24.835945467
 10
-31.0848911629
 20
24.835945467
 10
-31.5619597208
 20
26.4014301006
 10
-31.5619597208
 20
26.4014301006
 10
-31.5728344253
 20
26.435945467
 10
-31.5851275695
 20
26.4732977129
 10
-31.5997847799
 20
26.511122772
 10
-31.617751683
 20
26.5465837649
 10
-31.6385554655
 20
26.5782622519
 10
-31.6617233142
 20
26.6037941668
 10
-31.6882008555
 20
26.6212882566
 10
-31.7189337161
 20
26.6269620155
 10
-31.7189337161
 20
26.6269620155
 10
-31.7463568839
 20
26.6217610699
 10
-31.7695247326
 20
26.6056854197
 10
-31.7889100754
 20
26.5815719446
 10
-31.804040099
 20
26.5517847105
 10
-31.81586043
 20
26.5177421573
 10
-31.8253166948
 20
26.4813355379
 10
-31.8319360801
 20
26.445874545
 10
-31.8366642125
 20
26.4146688713
 10
-31.8366642125
 20
26.4146688713
 10
-32.0621961274
 20
24.5877185167
 10
-32.0621961274
 20
24.5877185167
 10
-31.8366642125
 20
26.4146688713
 10
-31.8366642125
 20
26.4146688713
 10
-31.8319360801
 20
26.445874545
 10
-31.8253166948
 20
26.4813355379
 10
-31.81586043
 20
26.5177421573
 10
-31.804040099
 20
26.5517847105
 10
-31.7889100754
 20
26.5815719446
 10
-31.7695247326
 20
26.6056854197
 10
-31.7463568839
 20
26.6217610699
 10
-31.7189337161
 20
26.6269620155
 10
-31.7189337161
 20
26.6269620155
 10
-31.6882008555
 20
26.6212882566
 10
-31.6617233142
 20
26.6037941668
 10
-31.6385554655
 20
26.5782622519
 10
-31.617751683
 20
26.5465837649
 10
-31.5997847799
 20
26.511122772
 10
-31.5851275695
 20
26.4732977129
 10
-31.5728344253
 20
26.435945467
 10
-31.5619597208
 20
26.4014301006
 10
-31.5619597208
 20
26.4014301006
 10
-31.0848911629
 20
24.835945467
 10
-31.0848911629
 20
24.835945467
 10
-31.0569951818
 20
24.7480022046
 10
-31.0262623213
 20
24.6662055143
 10
-31.0101866711
 20
24.6316901479
 10
-30.9950566475
 20
24.6075766727
 10
-30.9808722503
 20
24.5924466491
 10
-30.9671606664
 20
24.5877185167
 10
-30.9671606664
 20
24.5877185167
 10
-30.9539218957
 20
24.5924466491
 10
-30.9392646853
 20
24.6075766727
 10
-30.9246074749
 20
24.6316901479
 10
-30.9085318248
 20
24.6662055143
 10
-30.8763805246
 20
24.7480022046
 10
-30.8461204773
 20
24.835945467
 10
-30.8461204773
 20
24.835945467
 10
-30.3690519194
 20
26.4014301006
 10
-30.3690519194
 20
26.4014301006
 10
-30.3586500281
 20
26.4331085876
 10
-30.3463568839
 20
26.4699880202
 10
-30.3316996735
 20
26.5082858926
 10
-30.3151512101
 20
26.5437468855
 10
-30.2957658674
 20
26.5758981857
 10
-30.2730708319
 20
26.6023757271
 10
-30.2461204773
 20
26.6208154434
 10
-30.2153876168
 20
26.6269620155
 10
-30.2153876168
 20
26.6269620155
 10
-30.1879644489
 20
26.6217610699
 10
-30.1647966002
 20
26.6056854197
 10
-30.1454112574
 20
26.5815719446
 10
-30.130754047
 20
26.5517847105
 10
-30.1189337161
 20
26.5177421573
 10
-30.1094774513
 20
26.4813355379
 10
-30.1023852527
 20
26.445874545
 10
-30.0981299335
 20
26.4146688713
 10
-30.0981299335
 20
26.4146688713
 10
-29.8725980187
 20
24.5877185167
 10
-29.8725980187
 20
24.5877185167
 10
-30.0981299335
 20
26.4146688713
  0
LWPOLYLINE
  5
48
330
1F
100
AcDbEntity
  8
0
  6
Continuous
 62
     7
100
AcDbPolyline
 90
      132
 70
   128
 43
0.0
 10
-28.1444638968
 20
25.0118319918
 10
-28.1633781605
 20
24.9555672164
 10
-28.1851275695
 20
24.9026121337
 10
-28.2097138579
 20
24.8534395569
 10
-28.2380826522
 20
24.8080494859
 10
-28.269288326
 20
24.7654962944
 10
-28.3033308792
 20
24.7267256089
 10
-28.340683125
 20
24.6917374292
 10
-28.3813450636
 20
24.6600589422
 10
-28.4243710683
 20
24.6321629611
 10
-28.4697611392
 20
24.6080494859
 10
-28.5170424631
 20
24.5872457034
 10
-28.5662150399
 20
24.5706972401
 10
-28.617751683
 20
24.5574584694
 10
-28.6716523922
 20
24.5484750178
 10
-28.7274443544
 20
24.542801259
 10
-28.7851275695
 20
24.540910006
 10
-28.7851275695
 20
24.540910006
 10
-28.8555767421
 20
24.5442196987
 10
-28.9236618484
 20
24.5532031502
 10
-28.9889100754
 20
24.5688059871
 10
-29.0513214229
 20
24.5900825829
 10
-29.1104230778
 20
24.6170329375
 10
-29.1652694135
 20
24.6496570509
 10
-29.21586043
 20
24.6865364836
 10
-29.2621961274
 20
24.7290896751
 10
-29.3038036924
 20
24.7763709989
 10
-29.340683125
 20
24.827907642
 10
-29.3733072385
 20
24.8841724174
 10
-29.4012032196
 20
24.9446925119
 10
-29.4234254418
 20
25.0089951124
 10
-29.4390282787
 20
25.0766074056
 10
-29.4484845435
 20
25.1470565781
 10
-29.4517942361
 20
25.2208154434
 10
-29.4517942361
 20
25.2208154434
 10
-29.4484845435
 20
25.2945743086
 10
-29.4390282787
 20
25.3650234812
 10
-29.4234254418
 20
25.4326357743
 10
-29.4012032196
 20
25.4969383748
 10
-29.3733072385
 20
25.5574584694
 10
-29.340683125
 20
25.6137232448
 10
-29.3038036924
 20
25.6652598878
 10
-29.2621961274
 20
25.7125412117
 10
-29.21586043
 20
25.7550944032
 10
-29.1652694135
 20
25.7924466491
 10
-29.1104230778
 20
25.8245979493
 10
-29.0513214229
 20
25.8515483039
 10
-28.9889100754
 20
25.8732977129
 10
-28.9236618484
 20
25.8884277365
 10
-28.8555767421
 20
25.8978840013
 10
-28.7851275695
 20
25.9007208807
 10
-28.7851275695
 20
25.9007208807
 10
-28.691037735
 20
25.8950471219
 10
-28.6016760328
 20
25.8784986585
 10
-28.5170424631
 20
25.8510754907
 10
-28.4371370257
 20
25.8123048051
 10
-28.3997847799
 20
25.7891369564
 10
-28.3657422267
 20
25.764550668
 10
-28.3345365529
 20
25.7376003134
 10
-28.3066405718
 20
25.709231519
 10
-28.2820542834
 20
25.6789714717
 10
-28.2603048744
 20
25.6468201715
 10
-28.2418651581
 20
25.6127776183
 10
-28.2262623213
 20
25.5768438122
 10
-28.2262623213
 20
25.5768438122
 10
-29.0168060565
 20
25.1390187531
 10
-29.0168060565
 20
25.1390187531
 10
-28.2262623213
 20
25.5768438122
 10
-28.2262623213
 20
25.5768438122
 10
-28.2418651581
 20
25.6127776183
 10
-28.2603048744
 20
25.6468201715
 10
-28.2820542834
 20
25.6789714717
 10
-28.3066405718
 20
25.709231519
 10
-28.3345365529
 20
25.7376003134
 10
-28.3657422267
 20
25.764550668
 10
-28.3997847799
 20
25.7891369564
 10
-28.4371370257
 20
25.8123048051
 10
-28.5170424631
 20
25.8510754907
 10
-28.6016760328
 20
25.8784986585
 10
-28.691037735
 20
25.8950471219
 10
-28.7851275695
 20
25.9007208807
 10
-28.7851275695
 20
25.9007208807
 10
-28.8555767421
 20
25.8978840013
 10
-28.9236618484
 20
25.8884277365
 10
-28.9889100754
 20
25.8732977129
 10
-29.0513214229
 20
25.8515483039
 10
-29.1104230778
 20
25.8245979493
 10
-29.1652694135
 20
25.7924466491
 10
-29.21586043
 20
25.7550944032
 10
-29.2621961274
 20
25.7125412117
 10
-29.3038036924
 20
25.6652598878
 10
-29.340683125
 20
25.6137232448
 10
-29.3733072385
 20
25.5574584694
 10
-29.4012032196
 20
25.4969383748
 10
-29.4234254418
 20
25.4326357743
 10
-29.4390282787
 20
25.3650234812
 10
-29.4484845435
 20
25.2945743086
 10
-29.4517942361
 20
25.2208154434
 10
-29.4517942361
 20
25.2208154434
 10
-29.4484845435
 20
25.1470565781
 10
-29.4390282787
 20
25.0766074056
 10
-29.4234254418
 20
25.0089951124
 10
-29.4012032196
 20
24.9446925119
 10
-29.3733072385
 20
24.8841724174
 10
-29.340683125
 20
24.827907642
 10
-29.3038036924
 20
24.7763709989
 10
-29.2621961274
 20
24.7290896751
 10
-29.21586043
 20
24.6865364836
 10
-29.1652694135
 20
24.6496570509
 10
-29.1104230778
 20
24.6170329375
 10
-29.0513214229
 20
24.5900825829
 10
-28.9889100754
 20
24.5688059871
 10
-28.9236618484
 20
24.5532031502
 10
-28.8555767421
 20
24.5442196987
 10
-28.7851275695
 20
24.540910006
 10
-28.7851275695
 20
24.540910006
 10
-28.7274443544
 20
24.542801259
 10
-28.6716523922
 20
24.5484750178
 10
-28.617751683
 20
24.5574584694
 10
-28.5662150399
 20
24.5706972401
 10
-28.5170424631
 20
24.5872457034
 10
-28.4697611392
 20
24.6080494859
 10
-28.4243710683
 20
24.6321629611
 10
-28.3813450636
 20
24.6600589422
 10
-28.340683125
 20
24.6917374292
 10
-28.3033308792
 20
24.7267256089
 10
-28.269288326
 20
24.7654962944
 10
-28.2380826522
 20
24.8080494859
 10
-28.2097138579
 20
24.8534395569
 10
-28.1851275695
 20
24.9026121337
 10
-28.1633781605
 20
24.9555672164
 10
-28.1444656309
 20
25.0118319918
  0
LWPOLYLINE
  5
49
330
1F
100
AcDbEntity
  8
0
  6
Continuous
 62
     7
100
AcDbPolyline
 90
       76
 70
   128
 43
0.0
 10
-26.6555696726
 20
24.5967019682
 10
-26.7435200045
 20
24.6009572873
 10
-26.8305176404
 20
24.6132504316
 10
-26.9165696499
 20
24.6335814008
 10
-27.0021488461
 20
24.6619501952
 10
-27.0848911629
 20
24.6988296278
 10
-27.1629053473
 20
24.7432740722
 10
-27.2366642125
 20
24.7952835285
 10
-27.3061677586
 20
24.8548579966
 10
-27.3699975458
 20
24.9224702897
 10
-27.4272079477
 20
24.9971747814
 10
-27.4782717775
 20
25.079444285
 10
-27.5231890352
 20
25.1688059871
 10
-27.5595956546
 20
25.2652598878
 10
-27.5856003827
 20
25.3688059871
 10
-27.6012032196
 20
25.479444285
 10
-27.6064041652
 20
25.5967019682
 10
-27.6064041652
 20
25.5967019682
 10
-27.6021488461
 20
25.6865364836
 10
-27.5893828886
 20
25.7763709989
 10
-27.5676334796
 20
25.8662055143
 10
-27.5378462456
 20
25.9560400297
 10
-27.4995483733
 20
26.0435104788
 10
-27.4527398626
 20
26.1267256089
 10
-27.3983663402
 20
26.2047397933
 10
-27.3354821794
 20
26.2780258453
 10
-27.2645601936
 20
26.3456381384
 10
-27.1856003827
 20
26.4066310462
 10
-27.0995483733
 20
26.4610045687
 10
-27.0054585388
 20
26.5082858926
 10
-26.9038036924
 20
26.5470565781
 10
-26.7945838343
 20
26.574479746
 10
-26.6782717775
 20
26.5910282093
 10
-26.554394709
 20
26.5967019682
 10
-26.554394709
 20
26.5967019682
 10
-26.4725980187
 20
26.5967019682
 10
-26.4725980187
 20
26.5967019682
 10
-26.554394709
 20
26.5967019682
 10
-26.554394709
 20
26.5967019682
 10
-26.6782717775
 20
26.5910282093
 10
-26.7945838343
 20
26.574479746
 10
-26.9038036924
 20
26.5470565781
 10
-27.0054585388
 20
26.5082858926
 10
-27.0995483733
 20
26.4610045687
 10
-27.1856003827
 20
26.4066310462
 10
-27.2645601936
 20
26.3456381384
 10
-27.3354821794
 20
26.2780258453
 10
-27.3983663402
 20
26.2047397933
 10
-27.4527398626
 20
26.1267256089
 10
-27.4995483733
 20
26.0435104788
 10
-27.5378462456
 20
25.9560400297
 10
-27.5676334796
 20
25.8662055143
 10
-27.5893828886
 20
25.7763709989
 10
-27.6021488461
 20
25.6865364836
 10
-27.6064041652
 20
25.5967019682
 10
-27.6064041652
 20
25.5967019682
 10
-27.6012032196
 20
25.479444285
 10
-27.5856003827
 20
25.3688059871
 10
-27.5595956546
 20
25.2652598878
 10
-27.5231890352
 20
25.1688059871
 10
-27.4782717775
 20
25.079444285
 10
-27.4272079477
 20
24.9971747814
 10
-27.3699975458
 20
24.9224702897
 10
-27.3061677586
 20
24.8548579966
 10
-27.2366642125
 20
24.7952835285
 10
-27.1629053473
 20
24.7432740722
 10
-27.0848911629
 20
24.6988296278
 10
-27.0021488461
 20
24.6619501952
 10
-26.9165696499
 20
24.6335814008
 10
-26.8305176404
 20
24.6132504316
 10
-26.7435200045
 20
24.6009572873
 10
-26.6555767421
 20
24.5967019682
 10
-26.6555767421
 20
24.5967019682
 10
-26.4725980187
 20
24.5967019682
 10
-26.4725980187
 20
24.5967019682
 10
-26.6555767421
 20
24.5967019682
  0
LWPOLYLINE
  5
4A
330
1F
100
AcDbEntity
  8
0
  6
Continuous
 62
     7
100
AcDbPolyline
 90
      100
 70
   128
 43
0.0
 10
-25.9302705526
 20
26.414196058
 10
-25.9298084205
 20
26.4487114245
 10
-25.9279171676
 20
26.4789714717
 10
-25.9246074749
 20
26.5059218264
 10
-25.9203521558
 20
26.5286168618
 10
-25.9085318248
 20
26.5659691077
 10
-25.8924561747
 20
26.5924466491
 10
-25.8740164584
 20
26.6099407389
 10
-25.8551039288
 20
26.6203426301
 10
-25.8352457728
 20
26.6255435758
 10
-25.81586043
 20
26.6269620155
 10
-25.81586043
 20
26.6269620155
 10
-25.796002274
 20
26.6245979493
 10
-25.7766169312
 20
26.6165601242
 10
-25.7562859619
 20
26.6023757271
 10
-25.7354821794
 20
26.5801535048
 10
-25.7123143307
 20
26.5489478311
 10
-25.6848911629
 20
26.5068674528
 10
-25.6697611392
 20
26.4808627247
 10
-25.6532126759
 20
26.4510754907
 10
-25.6352457728
 20
26.4165601242
 10
-25.6163332432
 20
26.3777894386
 10
-25.6163332432
 20
26.3777894386
 10
-24.8418651581
 20
24.7796806916
 10
-24.8418651581
 20
24.7796806916
 10
-24.8243710683
 20
24.7442196987
 10
-24.8087682314
 20
24.7130140249
 10
-24.794111021
 20
24.6860636703
 10
-24.7813450636
 20
24.6633686349
 10
-24.7581772149
 20
24.627907642
 10
-24.7373734324
 20
24.6028485403
 10
-24.7175152763
 20
24.5877185167
 10
-24.6981299335
 20
24.5801535048
 10
-24.6768533378
 20
24.5782622519
 10
-24.6522670494
 20
24.5773166254
 10
-24.6522670494
 20
24.5773166254
 10
-24.6361913993
 20
24.5787350651
 10
-24.6210613756
 20
24.5834631975
 10
-24.6073497917
 20
24.5933922755
 10
-24.5950566475
 20
24.6094679256
 10
-24.5846547562
 20
24.6345270273
 10
-24.5770897444
 20
24.6699880202
 10
-24.574252865
 20
24.6922102424
 10
-24.5718887988
 20
24.7182149706
 10
-24.5709431723
 20
24.7470565781
 10
-24.5704703591
 20
24.7796806916
 10
-24.5704703591
 20
24.7796806916
 10
-24.5704703591
 20
26.5967019682
 10
-24.5704703591
 20
26.5967019682
 10
-24.5704703591
 20
24.7796806916
 10
-24.5704703591
 20
24.7796806916
 10
-24.5709431723
 20
24.7470565781
 10
-24.5718887988
 20
24.7182149706
 10
-24.574252865
 20
24.6922102424
 10
-24.5770897444
 20
24.6699880202
 10
-24.5846547562
 20
24.6345270273
 10
-24.5950566475
 20
24.6094679256
 10
-24.6073497917
 20
24.5933922755
 10
-24.6210613756
 20
24.5834631975
 10
-24.6361913993
 20
24.5787350651
 10
-24.6522670494
 20
24.5773166254
 10
-24.6522670494
 20
24.5773166254
 10
-24.6768533378
 20
24.5782622519
 10
-24.6981299335
 20
24.5801535048
 10
-24.7175152763
 20
24.5877185167
 10
-24.7373734324
 20
24.6028485403
 10
-24.7581772149
 20
24.627907642
 10
-24.7813450636
 20
24.6633686349
 10
-24.794111021
 20
24.6860636703
 10
-24.8087682314
 20
24.7130140249
 10
-24.8243710683
 20
24.7442196987
 10
-24.8418651581
 20
24.7796806916
 10
-24.8418651581
 20
24.7796806916
 10
-25.6163332432
 20
26.3777894386
 10
-25.6163332432
 20
26.3777894386
 10
-25.6352457728
 20
26.4165601242
 10
-25.6532126759
 20
26.4510754907
 10
-25.6697611392
 20
26.4808627247
 10
-25.6848911629
 20
26.5068674528
 10
-25.7123143307
 20
26.5489478311
 10
-25.7354821794
 20
26.5801535048
 10
-25.7562859619
 20
26.6023757271
 10
-25.7766169312
 20
26.6165601242
 10
-25.796002274
 20
26.6245979493
 10
-25.81586043
 20
26.6269620155
 10
-25.81586043
 20
26.6269620155
 10
-25.8352457728
 20
26.6255435758
 10
-25.8551039288
 20
26.6203426301
 10
-25.8740164584
 20
26.6099407389
 10
-25.8924561747
 20
26.5924466491
 10
-25.9085318248
 20
26.5659691077
 10
-25.9203521558
 20
26.5286168618
 10
-25.9246074749
 20
26.5059218264
 10
-25.9279171676
 20
26.4789714717
 10
-25.9298084205
 20
26.4487114245
 10
-25.9302812338
 20
26.414196058
 10
-25.9302812338
 20
26.414196058
 10
-25.9302812338
 20
24.6071038595
 10
-25.9302812338
 20
24.6071038595
 10
-25.9302812338
 20
26.414196058
  0
LWPOLYLINE
  5
4B
330
1F
100
AcDbEntity
  8
0
  6
Continuous
 62
     7
100
AcDbPolyline
 90
       76
 70
   128
 43
0.0
 10
-23.0243653059
 20
24.5967019682
 10
-23.1123143307
 20
24.6009572873
 10
-23.1993119666
 20
24.6132504316
 10
-23.2853639761
 20
24.6335814008
 10
-23.3709431723
 20
24.6619501952
 10
-23.4536854891
 20
24.6988296278
 10
-23.5316996735
 20
24.7432740722
 10
-23.6054585388
 20
24.7952835285
 10
-23.6749620848
 20
24.8548579966
 10
-23.7387918721
 20
24.9224702897
 10
-23.796002274
 20
24.9971747814
 10
-23.8470661038
 20
25.079444285
 10
-23.8919833614
 20
25.1688059871
 10
-23.9283899808
 20
25.2652598878
 10
-23.954394709
 20
25.3688059871
 10
-23.9699975458
 20
25.479444285
 10
-23.9751984915
 20
25.5967019682
 10
-23.9751984915
 20
25.5967019682
 10
-23.9709431723
 20
25.6865364836
 10
-23.9581772149
 20
25.7763709989
 10
-23.9364278059
 20
25.8662055143
 10
-23.9066405718
 20
25.9560400297
 10
-23.8683426995
 20
26.0435104788
 10
-23.8215341889
 20
26.1267256089
 10
-23.7671606664
 20
26.2047397933
 10
-23.7042765057
 20
26.2780258453
 10
-23.6333545198
 20
26.3456381384
 10
-23.554394709
 20
26.4066310462
 10
-23.4683426995
 20
26.4610045687
 10
-23.374252865
 20
26.5082858926
 10
-23.2725980187
 20
26.5470565781
 10
-23.1633781605
 20
26.574479746
 10
-23.0470661038
 20
26.5910282093
 10
-22.9231890352
 20
26.5967019682
 10
-22.9231890352
 20
26.5967019682
 10
-22.8413923449
 20
26.5967019682
 10
-22.8413923449
 20
26.5967019682
 10
-22.9231890352
 20
26.5967019682
 10
-22.9231890352
 20
26.5967019682
 10
-23.0470661038
 20
26.5910282093
 10
-23.1633781605
 20
26.574479746
 10
-23.2725980187
 20
26.5470565781
 10
-23.374252865
 20
26.5082858926
 10
-23.4683426995
 20
26.4610045687
 10
-23.554394709
 20
26.4066310462
 10
-23.6333545198
 20
26.3456381384
 10
-23.7042765057
 20
26.2780258453
 10
-23.7671606664
 20
26.2047397933
 10
-23.8215341889
 20
26.1267256089
 10
-23.8683426995
 20
26.0435104788
 10
-23.9066405718
 20
25.9560400297
 10
-23.9364278059
 20
25.8662055143
 10
-23.9581772149
 20
25.7763709989
 10
-23.9709431723
 20
25.6865364836
 10
-23.9751984915
 20
25.5967019682
 10
-23.9751984915
 20
25.5967019682
 10
-23.9699975458
 20
25.479444285
 10
-23.954394709
 20
25.3688059871
 10
-23.9283899808
 20
25.2652598878
 10
-23.8919833614
 20
25.1688059871
 10
-23.8470661038
 20
25.079444285
 10
-23.796002274
 20
24.9971747814
 10
-23.7387918721
 20
24.9224702897
 10
-23.6749620848
 20
24.8548579966
 10
-23.6054585388
 20
24.7952835285
 10
-23.5316996735
 20
24.7432740722
 10
-23.4536854891
 20
24.6988296278
 10
-23.3709431723
 20
24.6619501952
 10
-23.2853639761
 20
24.6335814008
 10
-23.1993119666
 20
24.6132504316
 10
-23.1123143307
 20
24.6009572873
 10
-23.0243710683
 20
24.5967019682
 10
-23.0243710683
 20
24.5967019682
 10
-22.8413923449
 20
24.5967019682
 10
-22.8413923449
 20
24.5967019682
 10
-23.0243710683
 20
24.5967019682
  0
LWPOLYLINE
  5
4C
330
1F
100
AcDbEntity
  8
0
  6
Continuous
 62
     7
100
AcDbPolyline
 90
       68
 70
   128
 43
0.0
 10
-20.538777113
 20
25.1338178074
 10
-20.5359549927
 20
25.1976475947
 10
-20.5269715411
 20
25.2591133157
 10
-20.5123143307
 20
25.3172693441
 10
-20.4915105482
 20
25.372588493
 10
-20.4655058201
 20
25.4245979493
 10
-20.4343001463
 20
25.4728248996
 10
-20.3983663402
 20
25.5167965308
 10
-20.3577044016
 20
25.5569856561
 10
-20.3123143307
 20
25.5933922755
 10
-20.2631417539
 20
25.6255435758
 10
-20.2101866711
 20
25.6529667436
 10
-20.1534490825
 20
25.6766074056
 10
-20.0929289879
 20
25.6950471219
 10
-20.0300448272
 20
25.7087587058
 10
-19.9638509737
 20
25.7163237176
 10
-19.8948202409
 20
25.719160597
 10
-19.8948202409
 20
25.719160597
 10
-19.825789508
 20
25.7167965308
 10
-19.7595956546
 20
25.7087587058
 10
-19.6962386806
 20
25.6959927483
 10
-19.6352457728
 20
25.6780258453
 10
-19.5775625577
 20
25.6553308098
 10
-19.5241346617
 20
25.6283804552
 10
-19.4749620848
 20
25.5967019682
 10
-19.4295720139
 20
25.5602953488
 10
-19.3884372622
 20
25.5201062235
 10
-19.3520306428
 20
25.4761345923
 10
-19.320824969
 20
25.427907642
 10
-19.2938746144
 20
25.3758981857
 10
-19.2721252054
 20
25.3205790368
 10
-19.2569951818
 20
25.2614773819
 10
-19.247538917
 20
25.1995388476
 10
-19.2447020376
 20
25.1338178074
 10
-19.2447020376
 20
25.1338178074
 10
-19.2484845435
 20
25.0539123701
 10
-19.2603048744
 20
24.9810991313
 10
-19.2796902172
 20
24.9153780911
 10
-19.3071133851
 20
24.8562764363
 10
-19.3402103118
 20
24.8033213535
 10
-19.3770897444
 20
24.7560400297
 10
-19.4182244962
 20
24.7134868382
 10
-19.4636145671
 20
24.6766074056
 10
-19.5123143307
 20
24.6449289186
 10
-19.5629053473
 20
24.6179785639
 10
-19.6168060565
 20
24.5957563417
 10
-19.6725980187
 20
24.5782622519
 10
-19.7293356073
 20
24.5654962944
 10
-19.7846547562
 20
24.5565128429
 10
-19.8385554655
 20
24.550839084
 10
-19.8915105482
 20
24.5489478311
 10
-19.8915105482
 20
24.5489478311
 10
-19.9444656309
 20
24.550839084
 10
-19.9988391534
 20
24.5565128429
 10
-20.0541583023
 20
24.5654962944
 10
-20.110895891
 20
24.5782622519
 10
-20.1666878532
 20
24.5957563417
 10
-20.2201157492
 20
24.6179785639
 10
-20.2711795789
 20
24.6449289186
 10
-20.3198793425
 20
24.6766074056
 10
-20.3652694135
 20
24.7134868382
 10
-20.4064041652
 20
24.7560400297
 10
-20.4437564111
 20
24.8033213535
 10
-20.4768533378
 20
24.8562764363
 10
-20.5038036924
 20
24.9153780911
 10
-20.5231890352
 20
24.9810991313
 10
-20.5350093662
 20
25.0539123701
 10
-20.5387918721
 20
25.1338178074
  0
LWPOLYLINE
  5
4D
330
1F
100
AcDbEntity
  8
0
  6
Continuous
 62
     7
100
AcDbPolyline
 90
       63
 70
   128
 43
0.0
 10
-20.3766077757
 20
26.1896097696
 10
-20.3737800518
 20
26.2463473583
 10
-20.364323787
 20
26.2983568145
 10
-20.3496665766
 20
26.3465837649
 10
-20.3283899808
 20
26.3900825829
 10
-20.3023852527
 20
26.4297988949
 10
-20.2735436451
 20
26.4657327011
 10
-20.2418651581
 20
26.4974111881
 10
-20.2073497917
 20
26.5253071691
 10
-20.1699975458
 20
26.5498934576
 10
-20.1312268603
 20
26.5706972401
 10
-20.091037735
 20
26.5881913299
 10
-20.0489573567
 20
26.6023757271
 10
-19.9662150399
 20
26.6208154434
 10
-19.889146482
 20
26.6269620155
 10
-19.889146482
 20
26.6269620155
 10
-19.8120779241
 20
26.6208154434
 10
-19.7293356073
 20
26.6023757271
 10
-19.6872552291
 20
26.5881913299
 10
-19.647538917
 20
26.5706972401
 10
-19.6092410447
 20
26.5498934576
 10
-19.5728344253
 20
26.5253071691
 10
-19.5387918721
 20
26.4974111881
 10
-19.5080590116
 20
26.4657327011
 10
-19.4801630305
 20
26.4297988949
 10
-19.4551039288
 20
26.3900825829
 10
-19.4347729596
 20
26.3465837649
 10
-19.4201157492
 20
26.2983568145
 10
-19.4111322976
 20
26.2463473583
 10
-19.4082954182
 20
26.1896097696
 10
-19.4082954182
 20
26.1896097696
 10
-19.4106594844
 20
26.1323993677
 10
-19.4182244962
 20
26.079444285
 10
-19.4309904536
 20
26.0293260817
 10
-19.4489573567
 20
25.9834631975
 10
-19.4707067657
 20
25.9413828193
 10
-19.4957658674
 20
25.9026121337
 10
-19.5236618484
 20
25.867623954
 10
-19.5553403354
 20
25.8364182803
 10
-19.5898557019
 20
25.8089951124
 10
-19.6267351345
 20
25.7853544505
 10
-19.6664514466
 20
25.7650234812
 10
-19.7085318248
 20
25.7484750178
 10
-19.752503456
 20
25.7357090604
 10
-19.7969479005
 20
25.7267256089
 10
-19.8428107846
 20
25.72105185
 10
-19.889146482
 20
25.719160597
 10
-19.889146482
 20
25.719160597
 10
-19.9354821794
 20
25.72105185
 10
-19.9813450636
 20
25.7267256089
 10
-20.0267351345
 20
25.7357090604
 10
-20.0716523922
 20
25.7484750178
 10
-20.1146783969
 20
25.7650234812
 10
-20.1553403354
 20
25.7853544505
 10
-20.1931653945
 20
25.8089951124
 10
-20.2281535742
 20
25.8364182803
 10
-20.2603048744
 20
25.867623954
 10
-20.289146482
 20
25.9026121337
 10
-20.3142055837
 20
25.9413828193
 10
-20.3364278059
 20
25.9834631975
 10
-20.3539218957
 20
26.0293260817
 10
-20.3666878532
 20
26.079444285
 10
-20.374252865
 20
26.1323993677
  0
LWPOLYLINE
  5
4E
330
1F
100
AcDbEntity
  8
0
  6
Continuous
 62
     7
100
AcDbPolyline
 90
       64
 70
   128
 43
0.0
 10
-20.3766077757
 20
26.1896097696
 10
-20.374252865
 20
26.1323993677
 10
-20.3666878532
 20
26.079444285
 10
-20.3539218957
 20
26.0293260817
 10
-20.3364278059
 20
25.9834631975
 10
-20.3142055837
 20
25.9413828193
 10
-20.289146482
 20
25.9026121337
 10
-20.2603048744
 20
25.867623954
 10
-20.2281535742
 20
25.8364182803
 10
-20.1931653945
 20
25.8089951124
 10
-20.1553403354
 20
25.7853544505
 10
-20.1146783969
 20
25.7650234812
 10
-20.0716523922
 20
25.7484750178
 10
-20.0267351345
 20
25.7357090604
 10
-19.9813450636
 20
25.7267256089
 10
-19.9354821794
 20
25.72105185
 10
-19.889146482
 20
25.719160597
 10
-19.889146482
 20
25.719160597
 10
-19.8428107846
 20
25.72105185
 10
-19.7969479005
 20
25.7267256089
 10
-19.752503456
 20
25.7357090604
 10
-19.7085318248
 20
25.7484750178
 10
-19.6664514466
 20
25.7650234812
 10
-19.6267351345
 20
25.7853544505
 10
-19.5898557019
 20
25.8089951124
 10
-19.5553403354
 20
25.8364182803
 10
-19.5236618484
 20
25.867623954
 10
-19.4957658674
 20
25.9026121337
 10
-19.4707067657
 20
25.9413828193
 10
-19.4489573567
 20
25.9834631975
 10
-19.4309904536
 20
26.0293260817
 10
-19.4182244962
 20
26.079444285
 10
-19.4106594844
 20
26.1323993677
 10
-19.4082954182
 20
26.1896097696
 10
-19.4082954182
 20
26.1896097696
 10
-19.4111322976
 20
26.2463473583
 10
-19.4201157492
 20
26.2983568145
 10
-19.4347729596
 20
26.3465837649
 10
-19.4551039288
 20
26.3900825829
 10
-19.4801630305
 20
26.4297988949
 10
-19.5080590116
 20
26.4657327011
 10
-19.5387918721
 20
26.4974111881
 10
-19.5728344253
 20
26.5253071691
 10
-19.6092410447
 20
26.5498934576
 10
-19.647538917
 20
26.5706972401
 10
-19.6872552291
 20
26.5881913299
 10
-19.7293356073
 20
26.6023757271
 10
-19.8120779241
 20
26.6208154434
 10
-19.889146482
 20
26.6269620155
 10
-19.889146482
 20
26.6269620155
 10
-19.9662150399
 20
26.6208154434
 10
-20.0489573567
 20
26.6023757271
 10
-20.091037735
 20
26.5881913299
 10
-20.1312268603
 20
26.5706972401
 10
-20.1699975458
 20
26.5498934576
 10
-20.2073497917
 20
26.5253071691
 10
-20.2418651581
 20
26.4974111881
 10
-20.2735436451
 20
26.4657327011
 10
-20.3023852527
 20
26.4297988949
 10
-20.3283899808
 20
26.3900825829
 10
-20.3496665766
 20
26.3465837649
 10
-20.364323787
 20
26.2983568145
 10
-20.3737800518
 20
26.2463473583
 10
-20.3766169312
 20
26.1896097696
  0
LWPOLYLINE
  5
4F
330
1F
100
AcDbEntity
  8
0
  6
Continuous
 62
     7
100
AcDbPolyline
 90
       68
 70
   128
 43
0.0
 10
-20.538777113
 20
25.1338178074
 10
-20.5350093662
 20
25.0539123701
 10
-20.5231890352
 20
24.9810991313
 10
-20.5038036924
 20
24.9153780911
 10
-20.4768533378
 20
24.8562764363
 10
-20.4437564111
 20
24.8033213535
 10
-20.4064041652
 20
24.7560400297
 10
-20.3652694135
 20
24.7134868382
 10
-20.3198793425
 20
24.6766074056
 10
-20.2711795789
 20
24.6449289186
 10
-20.2201157492
 20
24.6179785639
 10
-20.1666878532
 20
24.5957563417
 10
-20.110895891
 20
24.5782622519
 10
-20.0541583023
 20
24.5654962944
 10
-19.9988391534
 20
24.5565128429
 10
-19.9444656309
 20
24.550839084
 10
-19.8915105482
 20
24.5489478311
 10
-19.8915105482
 20
24.5489478311
 10
-19.8385554655
 20
24.550839084
 10
-19.7846547562
 20
24.5565128429
 10
-19.7293356073
 20
24.5654962944
 10
-19.6725980187
 20
24.5782622519
 10
-19.6168060565
 20
24.5957563417
 10
-19.5629053473
 20
24.6179785639
 10
-19.5123143307
 20
24.6449289186
 10
-19.4636145671
 20
24.6766074056
 10
-19.4182244962
 20
24.7134868382
 10
-19.3770897444
 20
24.7560400297
 10
-19.3402103118
 20
24.8033213535
 10
-19.3071133851
 20
24.8562764363
 10
-19.2796902172
 20
24.9153780911
 10
-19.2603048744
 20
24.9810991313
 10
-19.2484845435
 20
25.0539123701
 10
-19.2447020376
 20
25.1338178074
 10
-19.2447020376
 20
25.1338178074
 10
-19.247538917
 20
25.1995388476
 10
-19.2569951818
 20
25.2614773819
 10
-19.2721252054
 20
25.3205790368
 10
-19.2938746144
 20
25.3758981857
 10
-19.320824969
 20
25.427907642
 10
-19.3520306428
 20
25.4761345923
 10
-19.3884372622
 20
25.5201062235
 10
-19.4295720139
 20
25.5602953488
 10
-19.4749620848
 20
25.5967019682
 10
-19.5241346617
 20
25.6283804552
 10
-19.5775625577
 20
25.6553308098
 10
-19.6352457728
 20
25.6780258453
 10
-19.6962386806
 20
25.6959927483
 10
-19.7595956546
 20
25.7087587058
 10
-19.825789508
 20
25.7167965308
 10
-19.8948202409
 20
25.719160597
 10
-19.8948202409
 20
25.719160597
 10
-19.9638509737
 20
25.7163237176
 10
-20.0300448272
 20
25.7087587058
 10
-20.0929289879
 20
25.6950471219
 10
-20.1534490825
 20
25.6766074056
 10
-20.2101866711
 20
25.6529667436
 10
-20.2631417539
 20
25.6255435758
 10
-20.3123143307
 20
25.5933922755
 10
-20.3577044016
 20
25.5569856561
 10
-20.3983663402
 20
25.5167965308
 10
-20.4343001463
 20
25.4728248996
 10
-20.4655058201
 20
25.4245979493
 10
-20.4915105482
 20
25.372588493
 10
-20.5123143307
 20
25.3172693441
 10
-20.5269715411
 20
25.2591133157
 10
-20.5359549927
 20
25.1976475947
 10
-20.5387918721
 20
25.1338178074
  0
LWPOLYLINE
  5
50
330
1F
100
AcDbEntity
  8
0
  6
Continuous
 62
     7
100
AcDbPolyline
 90
       44
 70
   128
 43
0.0
 10
-17.6054537296
 20
26.2175057507
 10
-17.5799266239
 20
26.2780258453
 10
-17.5586500281
 20
26.3286168618
 10
-17.5416287515
 20
26.3697516136
 10
-17.5288627941
 20
26.4004844741
 10
-17.5194065293
 20
26.4250707625
 10
-17.512787144
 20
26.4463473583
 10
-17.509004638
 20
26.4643142613
 10
-17.5075861983
 20
26.4789714717
 10
-17.5075861983
 20
26.4789714717
 10
-17.5104230778
 20
26.5068674528
 10
-17.5194065293
 20
26.5305081148
 10
-17.5340637397
 20
26.550839084
 10
-17.5548675222
 20
26.5673875474
 10
-17.5808722503
 20
26.5801535048
 10
-17.6106594844
 20
26.5896097696
 10
-17.6451748508
 20
26.5948107152
 10
-17.6839455364
 20
26.5967019682
 10
-17.6839455364
 20
26.5967019682
 10
-18.6971843071
 20
26.5967019682
 10
-18.6971843071
 20
26.5967019682
 10
-17.6839455364
 20
26.5967019682
 10
-17.6839455364
 20
26.5967019682
 10
-17.6451748508
 20
26.5948107152
 10
-17.6106594844
 20
26.5896097696
 10
-17.5808722503
 20
26.5801535048
 10
-17.5548675222
 20
26.5673875474
 10
-17.5340637397
 20
26.550839084
 10
-17.5194065293
 20
26.5305081148
 10
-17.5104230778
 20
26.5068674528
 10
-17.5075861983
 20
26.4789714717
 10
-17.5075861983
 20
26.4789714717
 10
-17.509004638
 20
26.4643142613
 10
-17.512787144
 20
26.4463473583
 10
-17.5194065293
 20
26.4250707625
 10
-17.5288627941
 20
26.4004844741
 10
-17.5416287515
 20
26.3697516136
 10
-17.5586500281
 20
26.3286168618
 10
-17.5799266239
 20
26.2780258453
 10
-17.6054585388
 20
26.2175057507
 10
-17.6054585388
 20
26.2175057507
 10
-18.3279171676
 20
24.5967019682
 10
-18.3279171676
 20
24.5967019682
 10
-17.6054585388
 20
26.2175057507
  0
LWPOLYLINE
  5
51
330
1F
100
AcDbEntity
  8
0
  6
Continuous
 62
     7
100
AcDbPolyline
 90
      120
 70
   128
 43
0.0
 10
-15.8390253782
 20
25.3394915663
 10
-15.7808722503
 20
25.424125136
 10
-15.7312268603
 20
25.501193694
 10
-15.6886736688
 20
25.5749525592
 10
-15.6527398626
 20
25.6482386112
 10
-15.6243710683
 20
25.722943103
 10
-15.604040099
 20
25.7985932212
 10
-15.5917469548
 20
25.8799170982
 10
-15.5874916357
 20
25.9702244268
 10
-15.5874916357
 20
25.9702244268
 10
-15.5903285151
 20
26.0331085876
 10
-15.5993119666
 20
26.0950471219
 10
-15.613969177
 20
26.1555672164
 10
-15.6347729596
 20
26.2151416845
 10
-15.6607776877
 20
26.2723520864
 10
-15.6919833614
 20
26.3262527956
 10
-15.7279171676
 20
26.3768438122
 10
-15.7685791061
 20
26.424125136
 10
-15.813969177
 20
26.467623954
 10
-15.8640873804
 20
26.5068674528
 10
-15.9189337161
 20
26.5413828193
 10
-15.9780353709
 20
26.5711700533
 10
-16.0409195317
 20
26.5957563417
 10
-16.1075861983
 20
26.6132504316
 10
-16.1775625577
 20
26.6236523228
 10
-16.2508486097
 20
26.6269620155
 10
-16.2508486097
 20
26.6269620155
 10
-16.312787144
 20
26.624125136
 10
-16.374252865
 20
26.6156144978
 10
-16.4361913993
 20
26.6009572873
 10
-16.4976571203
 20
26.5810991313
 10
-16.5572315884
 20
26.5560400297
 10
-16.6134963638
 20
26.5257799824
 10
-16.6669242598
 20
26.4907918027
 10
-16.7165696499
 20
26.4506026774
 10
-16.762432534
 20
26.4056854197
 10
-16.804040099
 20
26.3555672164
 10
-16.8409195317
 20
26.3002480675
 10
-16.8735436451
 20
26.2397279729
 10
-16.9000211865
 20
26.1749525592
 10
-16.9184609028
 20
26.1063946396
 10
-16.9298084205
 20
26.0335814008
 10
-16.9335909265
 20
25.9569856561
 10
-16.9335909265
 20
25.9569856561
 10
-16.9269715411
 20
25.8510754907
 10
-16.9075861983
 20
25.7413828193
 10
-16.8919833614
 20
25.6865364836
 10
-16.8721252054
 20
25.6340542141
 10
-16.8470661038
 20
25.5829903843
 10
-16.817751683
 20
25.5338178074
 10
-16.7827635033
 20
25.4870092968
 10
-16.742574378
 20
25.4435104788
 10
-16.6962386806
 20
25.4028485403
 10
-16.6447020376
 20
25.3654962944
 10
-16.586073196
 20
25.332872181
 10
-16.520824969
 20
25.3059218264
 10
-16.4480117302
 20
25.2855908571
 10
-16.3685791061
 20
25.2709336467
 10
-16.3685791061
 20
25.2709336467
 10
-16.4480117302
 20
25.2855908571
 10
-16.520824969
 20
25.3059218264
 10
-16.586073196
 20
25.332872181
 10
-16.6447020376
 20
25.3654962944
 10
-16.6962386806
 20
25.4028485403
 10
-16.742574378
 20
25.4435104788
 10
-16.7827635033
 20
25.4870092968
 10
-16.817751683
 20
25.5338178074
 10
-16.8470661038
 20
25.5829903843
 10
-16.8721252054
 20
25.6340542141
 10
-16.8919833614
 20
25.6865364836
 10
-16.9075861983
 20
25.7413828193
 10
-16.9269715411
 20
25.8510754907
 10
-16.9335909265
 20
25.9569856561
 10
-16.9335909265
 20
25.9569856561
 10
-16.9298084205
 20
26.0335814008
 10
-16.9184609028
 20
26.1063946396
 10
-16.9000211865
 20
26.1749525592
 10
-16.8735436451
 20
26.2397279729
 10
-16.8409195317
 20
26.3002480675
 10
-16.804040099
 20
26.3555672164
 10
-16.762432534
 20
26.4056854197
 10
-16.7165696499
 20
26.4506026774
 10
-16.6669242598
 20
26.4907918027
 10
-16.6134963638
 20
26.5257799824
 10
-16.5572315884
 20
26.5560400297
 10
-16.4976571203
 20
26.5810991313
 10
-16.4361913993
 20
26.6009572873
 10
-16.374252865
 20
26.6156144978
 10
-16.312787144
 20
26.624125136
 10
-16.2508486097
 20
26.6269620155
 10
-16.2508486097
 20
26.6269620155
 10
-16.1775625577
 20
26.6236523228
 10
-16.1075861983
 20
26.6132504316
 10
-16.0409195317
 20
26.5957563417
 10
-15.9780353709
 20
26.5711700533
 10
-15.9189337161
 20
26.5413828193
 10
-15.8640873804
 20
26.5068674528
 10
-15.813969177
 20
26.467623954
 10
-15.7685791061
 20
26.424125136
 10
-15.7279171676
 20
26.3768438122
 10
-15.6919833614
 20
26.3262527956
 10
-15.6607776877
 20
26.2723520864
 10
-15.6347729596
 20
26.2151416845
 10
-15.613969177
 20
26.1555672164
 10
-15.5993119666
 20
26.0950471219
 10
-15.5903285151
 20
26.0331085876
 10
-15.5874916357
 20
25.9702244268
 10
-15.5874916357
 20
25.9702244268
 10
-15.5917469548
 20
25.8799170982
 10
-15.604040099
 20
25.7985932212
 10
-15.6243710683
 20
25.722943103
 10
-15.6527398626
 20
25.6482386112
 10
-15.6886736688
 20
25.5749525592
 10
-15.7312268603
 20
25.501193694
 10
-15.7808722503
 20
25.424125136
 10
-15.8390282787
 20
25.3394915663
 10
-15.8390282787
 20
25.3394915663
 10
-16.3747256782
 20
24.5877185167
 10
-16.3747256782
 20
24.5877185167
 10
-15.8390282787
 20
25.3394915663
  0
LWPOLYLINE
  5
52
330
1F
100
AcDbEntity
  8
0
  6
Continuous
 62
     7
100
AcDbPolyline
 90
      156
 70
   128
 43
0.0
 10
-14.9416252971
 20
24.5877185167
 10
-14.9893828886
 20
24.5896097696
 10
-15.0272079477
 20
24.5948107152
 10
-15.0565223685
 20
24.6033213535
 10
-15.0759077113
 20
24.6156144978
 10
-15.0886736688
 20
24.6307445214
 10
-15.0976571203
 20
24.647765798
 10
-15.1033308792
 20
24.6671511408
 10
-15.1052221321
 20
24.6889005498
 10
-15.1052221321
 20
24.6889005498
 10
-15.1042765057
 20
24.6988296278
 10
-15.1019124395
 20
24.7087587058
 10
-15.0948202409
 20
24.7201062235
 10
-15.0806358437
 20
24.7347634339
 10
-15.0588864347
 20
24.7541487767
 10
-15.0300448272
 20
24.7787350651
 10
-15.0120779241
 20
24.7938650888
 10
-14.9908013283
 20
24.8113591786
 10
-14.9662150399
 20
24.8307445214
 10
-14.9383190588
 20
24.8524939304
 10
-14.9383190588
 20
24.8524939304
 10
-14.2196429359
 20
25.4146688713
 10
-14.2196429359
 20
25.4146688713
 10
-14.1477753236
 20
25.4747161526
 10
-14.077326151
 20
25.5371275001
 10
-14.0111322976
 20
25.60426698
 10
-13.9529762692
 20
25.677553032
 10
-13.9042765057
 20
25.7584040959
 10
-13.8664514466
 20
25.845874545
 10
-13.8522670494
 20
25.8931558689
 10
-13.8418651581
 20
25.9423284457
 10
-13.835718586
 20
25.994337902
 10
-13.8338273331
 20
26.0487114245
 10
-13.8338273331
 20
26.0487114245
 10
-13.8371370257
 20
26.122943103
 10
-13.8470661038
 20
26.1915010226
 10
-13.8640873804
 20
26.2543851833
 10
-13.8877280423
 20
26.3115955852
 10
-13.9165696499
 20
26.3640778547
 10
-13.9491937633
 20
26.4113591786
 10
-13.986073196
 20
26.4539123701
 10
-14.0267351345
 20
26.491264616
 10
-14.0702339525
 20
26.5243615427
 10
-14.1165696499
 20
26.5522575238
 10
-14.1652694135
 20
26.5758981857
 10
-14.2163332432
 20
26.594337902
 10
-14.2683426995
 20
26.6085222992
 10
-14.320824969
 20
26.6189241904
 10
-14.3728344253
 20
26.6250707625
 10
-14.4253166948
 20
26.6269620155
 10
-14.4253166948
 20
26.6269620155
 10
-14.481108657
 20
26.6250707625
 10
-14.5373734324
 20
26.6189241904
 10
-14.5936382078
 20
26.6085222992
 10
-14.6508486097
 20
26.594337902
 10
-14.7066405718
 20
26.5754253725
 10
-14.7595956546
 20
26.5517847105
 10
-14.8097138579
 20
26.5234159162
 10
-14.8569951818
 20
26.4898461762
 10
-14.9004939997
 20
26.4510754907
 10
-14.9397374986
 20
26.4071038595
 10
-14.9747256782
 20
26.3569856561
 10
-15.0054585388
 20
26.3016665072
 10
-15.0305176404
 20
26.2406735994
 10
-15.0484845435
 20
26.1740069327
 10
-15.0588864347
 20
26.101193694
 10
-15.0626689406
 20
26.0222338831
 10
-15.0626689406
 20
26.0222338831
 10
-15.057467995
 20
25.9480022046
 10
-15.0413923449
 20
25.8756617791
 10
-15.0149148035
 20
25.80426698
 10
-14.9775625577
 20
25.7347634339
 10
-14.930754047
 20
25.669515207
 10
-14.8759077113
 20
25.6113591786
 10
-14.8130235506
 20
25.5602953488
 10
-14.7421015648
 20
25.5158509044
 10
-14.7421015648
 20
25.5158509044
 10
-14.8130235506
 20
25.5602953488
 10
-14.8759077113
 20
25.6113591786
 10
-14.930754047
 20
25.669515207
 10
-14.9775625577
 20
25.7347634339
 10
-15.0149148035
 20
25.80426698
 10
-15.0413923449
 20
25.8756617791
 10
-15.057467995
 20
25.9480022046
 10
-15.0626689406
 20
26.0222338831
 10
-15.0626689406
 20
26.0222338831
 10
-15.0588864347
 20
26.101193694
 10
-15.0484845435
 20
26.1740069327
 10
-15.0305176404
 20
26.2406735994
 10
-15.0054585388
 20
26.3016665072
 10
-14.9747256782
 20
26.3569856561
 10
-14.9397374986
 20
26.4071038595
 10
-14.9004939997
 20
26.4510754907
 10
-14.8569951818
 20
26.4898461762
 10
-14.8097138579
 20
26.5234159162
 10
-14.7595956546
 20
26.5517847105
 10
-14.7066405718
 20
26.5754253725
 10
-14.6508486097
 20
26.594337902
 10
-14.5936382078
 20
26.6085222992
 10
-14.5373734324
 20
26.6189241904
 10
-14.481108657
 20
26.6250707625
 10
-14.4253166948
 20
26.6269620155
 10
-14.4253166948
 20
26.6269620155
 10
-14.3728344253
 20
26.6250707625
 10
-14.320824969
 20
26.6189241904
 10
-14.2683426995
 20
26.6085222992
 10
-14.2163332432
 20
26.594337902
 10
-14.1652694135
 20
26.5758981857
 10
-14.1165696499
 20
26.5522575238
 10
-14.0702339525
 20
26.5243615427
 10
-14.0267351345
 20
26.491264616
 10
-13.986073196
 20
26.4539123701
 10
-13.9491937633
 20
26.4113591786
 10
-13.9165696499
 20
26.3640778547
 10
-13.8877280423
 20
26.3115955852
 10
-13.8640873804
 20
26.2543851833
 10
-13.8470661038
 20
26.1915010226
 10
-13.8371370257
 20
26.122943103
 10
-13.8338273331
 20
26.0487114245
 10
-13.8338273331
 20
26.0487114245
 10
-13.835718586
 20
25.994337902
 10
-13.8418651581
 20
25.9423284457
 10
-13.8522670494
 20
25.8931558689
 10
-13.8664514466
 20
25.845874545
 10
-13.9042765057
 20
25.7584040959
 10
-13.9529762692
 20
25.677553032
 10
-14.0111322976
 20
25.60426698
 10
-14.077326151
 20
25.5371275001
 10
-14.1477753236
 20
25.4747161526
 10
-14.2196429359
 20
25.4146688713
 10
-14.2196429359
 20
25.4146688713
 10
-14.9383190588
 20
24.8524939304
 10
-14.9383190588
 20
24.8524939304
 10
-14.9662150399
 20
24.8307445214
 10
-14.9908013283
 20
24.8113591786
 10
-15.0120779241
 20
24.7938650888
 10
-15.0300448272
 20
24.7787350651
 10
-15.0588864347
 20
24.7541487767
 10
-15.0806358437
 20
24.7347634339
 10
-15.0948202409
 20
24.7201062235
 10
-15.1019124395
 20
24.7087587058
 10
-15.1042765057
 20
24.6988296278
 10
-15.1052221321
 20
24.6889005498
 10
-15.1052221321
 20
24.6889005498
 10
-15.1033308792
 20
24.6671511408
 10
-15.0976571203
 20
24.647765798
 10
-15.0886736688
 20
24.6307445214
 10
-15.0759077113
 20
24.6156144978
 10
-15.0565223685
 20
24.6033213535
 10
-15.0272079477
 20
24.5948107152
 10
-14.9893828886
 20
24.5896097696
 10
-14.9416287515
 20
24.5877185167
 10
-14.9416287515
 20
24.5877185167
 10
-13.8338273331
 20
24.5877185167
 10
-13.8338273331
 20
24.5877185167
 10
-14.9416287515
 20
24.5877185167
  0
LWPOLYLINE
  5
53
330
1F
100
AcDbEntity
  8
0
  6
Continuous
 62
     7
100
AcDbPolyline
 90
       70
 70
   128
 43
0.0
 10
-13.2631361485
 20
25.9342906207
 10
-13.2607776877
 20
26.0080494859
 10
-13.2527398626
 20
26.0789714717
 10
-13.2404467184
 20
26.1465837649
 10
-13.2224798153
 20
26.2118319918
 10
-13.1997847799
 20
26.2732977129
 10
-13.1714159856
 20
26.330980928
 10
-13.1383190588
 20
26.3839360108
 10
-13.1000211865
 20
26.4326357743
 10
-13.0569951818
 20
26.4766074056
 10
-13.0092410447
 20
26.5153780911
 10
-12.9572315884
 20
26.5484750178
 10
-12.9004939997
 20
26.5763709989
 10
-12.8395010919
 20
26.5985932212
 10
-12.7737800518
 20
26.614196058
 10
-12.7038036924
 20
26.6236523228
 10
-12.6290992007
 20
26.6269620155
 10
-12.6290992007
 20
26.6269620155
 10
-12.5548675222
 20
26.6236523228
 10
-12.4848911629
 20
26.6137232448
 10
-12.4191701227
 20
26.5976475947
 10
-12.3581772149
 20
26.574479746
 10
-12.3014396262
 20
26.5461109517
 10
-12.24943017
 20
26.5125412117
 10
-12.2016760328
 20
26.4742433394
 10
-12.1586500281
 20
26.4307445214
 10
-12.1203521558
 20
26.3829903843
 10
-12.0872552291
 20
26.3305081148
 10
-12.0588864347
 20
26.2732977129
 10
-12.0361913993
 20
26.2118319918
 10
-12.0182244962
 20
26.1465837649
 10
-12.0054585388
 20
26.0789714717
 10
-11.9978935269
 20
26.0080494859
 10
-11.9955294607
 20
25.9342906207
 10
-11.9955294607
 20
25.9342906207
 10
-11.9955294607
 20
25.2543851833
 10
-11.9955294607
 20
25.2543851833
 10
-11.9978935269
 20
25.1806263181
 10
-12.0054585388
 20
25.109231519
 10
-12.0182244962
 20
25.0406735994
 10
-12.0361913993
 20
24.9749525592
 10
-12.0588864347
 20
24.9125412117
 10
-12.0872552291
 20
24.8543851833
 10
-12.1203521558
 20
24.8004844741
 10
-12.1586500281
 20
24.750839084
 10
-12.2016760328
 20
24.7059218264
 10
-12.24943017
 20
24.6666783275
 10
-12.3014396262
 20
24.6316901479
 10
-12.3581772149
 20
24.6023757271
 10
-12.4191701227
 20
24.5787350651
 10
-12.4848911629
 20
24.5621866018
 10
-12.5548675222
 20
24.5517847105
 10
-12.6290992007
 20
24.5484750178
 10
-12.6290992007
 20
24.5484750178
 10
-12.7038036924
 20
24.5517847105
 10
-12.7737800518
 20
24.5621866018
 10
-12.8395010919
 20
24.5787350651
 10
-12.9004939997
 20
24.6023757271
 10
-12.9572315884
 20
24.6316901479
 10
-13.0092410447
 20
24.6666783275
 10
-13.0569951818
 20
24.7059218264
 10
-13.1000211865
 20
24.750839084
 10
-13.1383190588
 20
24.8004844741
 10
-13.1714159856
 20
24.8543851833
 10
-13.1997847799
 20
24.9125412117
 10
-13.2224798153
 20
24.9749525592
 10
-13.2404467184
 20
25.0406735994
 10
-13.2527398626
 20
25.109231519
 10
-13.2607776877
 20
25.1806263181
 10
-13.2631417539
 20
25.2543851833
  0
LWPOLYLINE
  5
54
330
1F
100
AcDbEntity
  8
0
  6
Continuous
 62
     7
100
AcDbPolyline
 90
       72
 70
   128
 43
0.0
 10
-13.2631361485
 20
25.9342906207
 10
-13.2631417539
 20
25.2543851833
 10
-13.2631417539
 20
25.2543851833
 10
-13.2607776877
 20
25.1806263181
 10
-13.2527398626
 20
25.109231519
 10
-13.2404467184
 20
25.0406735994
 10
-13.2224798153
 20
24.9749525592
 10
-13.1997847799
 20
24.9125412117
 10
-13.1714159856
 20
24.8543851833
 10
-13.1383190588
 20
24.8004844741
 10
-13.1000211865
 20
24.750839084
 10
-13.0569951818
 20
24.7059218264
 10
-13.0092410447
 20
24.6666783275
 10
-12.9572315884
 20
24.6316901479
 10
-12.9004939997
 20
24.6023757271
 10
-12.8395010919
 20
24.5787350651
 10
-12.7737800518
 20
24.5621866018
 10
-12.7038036924
 20
24.5517847105
 10
-12.6290992007
 20
24.5484750178
 10
-12.6290992007
 20
24.5484750178
 10
-12.5548675222
 20
24.5517847105
 10
-12.4848911629
 20
24.5621866018
 10
-12.4191701227
 20
24.5787350651
 10
-12.3581772149
 20
24.6023757271
 10
-12.3014396262
 20
24.6316901479
 10
-12.24943017
 20
24.6666783275
 10
-12.2016760328
 20
24.7059218264
 10
-12.1586500281
 20
24.750839084
 10
-12.1203521558
 20
24.8004844741
 10
-12.0872552291
 20
24.8543851833
 10
-12.0588864347
 20
24.9125412117
 10
-12.0361913993
 20
24.9749525592
 10
-12.0182244962
 20
25.0406735994
 10
-12.0054585388
 20
25.109231519
 10
-11.9978935269
 20
25.1806263181
 10
-11.9955294607
 20
25.2543851833
 10
-11.9955294607
 20
25.2543851833
 10
-11.9955294607
 20
25.9342906207
 10
-11.9955294607
 20
25.9342906207
 10
-11.9978935269
 20
26.0080494859
 10
-12.0054585388
 20
26.0789714717
 10
-12.0182244962
 20
26.1465837649
 10
-12.0361913993
 20
26.2118319918
 10
-12.0588864347
 20
26.2732977129
 10
-12.0872552291
 20
26.3305081148
 10
-12.1203521558
 20
26.3829903843
 10
-12.1586500281
 20
26.4307445214
 10
-12.2016760328
 20
26.4742433394
 10
-12.24943017
 20
26.5125412117
 10
-12.3014396262
 20
26.5461109517
 10
-12.3581772149
 20
26.574479746
 10
-12.4191701227
 20
26.5976475947
 10
-12.4848911629
 20
26.6137232448
 10
-12.5548675222
 20
26.6236523228
 10
-12.6290992007
 20
26.6269620155
 10
-12.6290992007
 20
26.6269620155
 10
-12.7038036924
 20
26.6236523228
 10
-12.7737800518
 20
26.614196058
 10
-12.8395010919
 20
26.5985932212
 10
-12.9004939997
 20
26.5763709989
 10
-12.9572315884
 20
26.5484750178
 10
-13.0092410447
 20
26.5153780911
 10
-13.0569951818
 20
26.4766074056
 10
-13.1000211865
 20
26.4326357743
 10
-13.1383190588
 20
26.3839360108
 10
-13.1714159856
 20
26.330980928
 10
-13.1997847799
 20
26.2732977129
 10
-13.2224798153
 20
26.2118319918
 10
-13.2404467184
 20
26.1465837649
 10
-13.2527398626
 20
26.0789714717
 10
-13.2607776877
 20
26.0080494859
 10
-13.2631417539
 20
25.9342906207
  0
LWPOLYLINE
  5
55
330
1F
100
AcDbEntity
  8
0
  6
Continuous
 62
     7
100
AcDbPolyline
 90
      152
 70
   128
 43
0.0
 10
-9.5898509026
 20
25.9995388476
 10
-9.5879644489
 20
26.0506026774
 10
-9.5818178768
 20
26.1026121337
 10
-9.572361612
 20
26.1560400297
 10
-9.5586500281
 20
26.2099407389
 10
-9.540683125
 20
26.2638414481
 10
-9.5175152763
 20
26.3153780911
 10
-9.4900921085
 20
26.3650234812
 10
-9.457467995
 20
26.4127776183
 10
-9.4191701227
 20
26.4572220628
 10
-9.3756713047
 20
26.4978840013
 10
-9.3260259146
 20
26.5342906207
 10
-9.2711795789
 20
26.5664419209
 10
-9.2097138579
 20
26.5929194623
 10
-9.1416287515
 20
26.6118319918
 10
-9.0664514466
 20
26.6231795096
 10
-8.9851275695
 20
26.6269620155
 10
-8.9851275695
 20
26.6269620155
 10
-8.922716222
 20
26.6245979493
 10
-8.8636145671
 20
26.6165601242
 10
-8.8078226049
 20
26.6037941668
 10
-8.7548675222
 20
26.5858272637
 10
-8.7052221321
 20
26.5636050415
 10
-8.6598320612
 20
26.5380731266
 10
-8.6186973094
 20
26.509231519
 10
-8.5818178768
 20
26.4766074056
 10
-8.5487209501
 20
26.4406735994
 10
-8.5189337161
 20
26.4019029138
 10
-8.4938746144
 20
26.3598225356
 10
-8.4721252054
 20
26.3149052779
 10
-8.4551039288
 20
26.267623954
 10
-8.4428107846
 20
26.2189241904
 10
-8.4352457728
 20
26.1688059871
 10
-8.4328817066
 20
26.1172693441
 10
-8.4328817066
 20
26.1172693441
 10
-8.435718586
 20
26.0567492495
 10
-8.4437564111
 20
26.0000116609
 10
-8.4569951818
 20
25.9461109517
 10
-8.4759077113
 20
25.8959927483
 10
-8.5000211865
 20
25.8487114245
 10
-8.5293356073
 20
25.8052126065
 10
-8.564323787
 20
25.7650234812
 10
-8.6045129123
 20
25.7281440486
 10
-8.6489573567
 20
25.6950471219
 10
-8.6971843071
 20
25.6666783275
 10
-8.7491937633
 20
25.6425648524
 10
-8.8049857255
 20
25.6227066963
 10
-8.8640873804
 20
25.6075766727
 10
-8.9269715411
 20
25.5967019682
 10
-8.9936382078
 20
25.5900825829
 10
-9.0636145671
 20
25.5877185167
 10
-9.0636145671
 20
25.5877185167
 10
-9.1581772149
 20
25.5877185167
 10
-9.1581772149
 20
25.5877185167
 10
-8.9619597208
 20
25.5877185167
 10
-8.9619597208
 20
25.5877185167
 10
-8.8976571203
 20
25.5858272637
 10
-8.8366642125
 20
25.5801535048
 10
-8.7794538106
 20
25.5702244268
 10
-8.7255531014
 20
25.5565128429
 10
-8.6754348981
 20
25.5390187531
 10
-8.6286263874
 20
25.5177421573
 10
-8.5856003827
 20
25.4926830557
 10
-8.5458840707
 20
25.4633686349
 10
-8.5104230778
 20
25.4302717082
 10
-8.479217404
 20
25.3924466491
 10
-8.4532126759
 20
25.350839084
 10
-8.4314632669
 20
25.3045033866
 10
-8.4149148035
 20
25.2534395569
 10
-8.4030944726
 20
25.1981204079
 10
-8.396002274
 20
25.1385459398
 10
-8.3936382078
 20
25.0747161526
 10
-8.3936382078
 20
25.0747161526
 10
-8.3936382078
 20
24.5877185167
 10
-8.3936382078
 20
24.5877185167
 10
-8.3936382078
 20
25.0747161526
 10
-8.3936382078
 20
25.0747161526
 10
-8.396002274
 20
25.1385459398
 10
-8.4030944726
 20
25.1981204079
 10
-8.4149148035
 20
25.2534395569
 10
-8.4314632669
 20
25.3045033866
 10
-8.4532126759
 20
25.350839084
 10
-8.479217404
 20
25.3924466491
 10
-8.5104230778
 20
25.4302717082
 10
-8.5458840707
 20
25.4633686349
 10
-8.5856003827
 20
25.4926830557
 10
-8.6286263874
 20
25.5177421573
 10
-8.6754348981
 20
25.5390187531
 10
-8.7255531014
 20
25.5565128429
 10
-8.7794538106
 20
25.5702244268
 10
-8.8366642125
 20
25.5801535048
 10
-8.8976571203
 20
25.5858272637
 10
-8.9619597208
 20
25.5877185167
 10
-8.9619597208
 20
25.5877185167
 10
-9.1581772149
 20
25.5877185167
 10
-9.1581772149
 20
25.5877185167
 10
-9.0636145671
 20
25.5877185167
 10
-9.0636145671
 20
25.5877185167
 10
-8.9936382078
 20
25.5900825829
 10
-8.9269715411
 20
25.5967019682
 10
-8.8640873804
 20
25.6075766727
 10
-8.8049857255
 20
25.6227066963
 10
-8.7491937633
 20
25.6425648524
 10
-8.6971843071
 20
25.6666783275
 10
-8.6489573567
 20
25.6950471219
 10
-8.6045129123
 20
25.7281440486
 10
-8.564323787
 20
25.7650234812
 10
-8.5293356073
 20
25.8052126065
 10
-8.5000211865
 20
25.8487114245
 10
-8.4759077113
 20
25.8959927483
 10
-8.4569951818
 20
25.9461109517
 10
-8.4437564111
 20
26.0000116609
 10
-8.435718586
 20
26.0567492495
 10
-8.4328817066
 20
26.1172693441
 10
-8.4328817066
 20
26.1172693441
 10
-8.4352457728
 20
26.1688059871
 10
-8.4428107846
 20
26.2189241904
 10
-8.4551039288
 20
26.267623954
 10
-8.4721252054
 20
26.3149052779
 10
-8.4938746144
 20
26.3598225356
 10
-8.5189337161
 20
26.4019029138
 10
-8.5487209501
 20
26.4406735994
 10
-8.5818178768
 20
26.4766074056
 10
-8.6186973094
 20
26.509231519
 10
-8.6598320612
 20
26.5380731266
 10
-8.7052221321
 20
26.5636050415
 10
-8.7548675222
 20
26.5858272637
 10
-8.8078226049
 20
26.6037941668
 10
-8.8636145671
 20
26.6165601242
 10
-8.922716222
 20
26.6245979493
 10
-8.9851275695
 20
26.6269620155
 10
-8.9851275695
 20
26.6269620155
 10
-9.0664514466
 20
26.6231795096
 10
-9.1416287515
 20
26.6118319918
 10
-9.2097138579
 20
26.5929194623
 10
-9.2711795789
 20
26.5664419209
 10
-9.3260259146
 20
26.5342906207
 10
-9.3756713047
 20
26.4978840013
 10
-9.4191701227
 20
26.4572220628
 10
-9.457467995
 20
26.4127776183
 10
-9.4900921085
 20
26.3650234812
 10
-9.5175152763
 20
26.3153780911
 10
-9.540683125
 20
26.2638414481
 10
-9.5586500281
 20
26.2099407389
 10
-9.572361612
 20
26.1560400297
 10
-9.5818178768
 20
26.1026121337
 10
-9.5879644489
 20
26.0506026774
 10
-9.5898557019
 20
25.9995388476
 10
-9.5898557019
 20
25.9995388476
 10
-9.5898557019
 20
24.5877185167
 10
-9.5898557019
 20
24.5877185167
 10
-9.5898557019
 20
25.9995388476
  0
LWPOLYLINE
  5
56
330
1F
100
AcDbEntity
  8
0
  6
Continuous
 62
     7
100
AcDbPolyline
 90
        8
 70
   128
 43
0.0
 10
-7.1595944464
 20
26.5967019682
 10
-7.5421015648
 20
26.5967019682
 10
-7.5421015648
 20
26.5967019682
 10
-7.1595956546
 20
26.5967019682
 10
-7.1595956546
 20
26.5967019682
 10
-7.1595956546
 20
24.5967019682
 10
-7.1595956546
 20
24.5967019682
 10
-7.1595956546
 20
26.5967019682
  0
SPLINE
  5
57
330
1F
100
AcDbEntity
  8
0
  6
Continuous
 62
     7
370
    15
100
AcDbSpline
210
0.0
220
0.0
230
1.0
 70
     8
 71
     3
 72
     9
 73
     5
 74
     0
 42
0.00000001
 43
0.00000001
 12
1.0
 22
0.0
 32
0.0
 13
1.0
 23
0.0
 33
0.0
 40
0.0
 40
0.0
 40
0.0
 40
0.0
 40
0.5587381073858897
 40
1.0
 40
1.0
 40
1.0
 40
1.0
 10
34.13953658741551
 20
37.77189984417346
 30
0.0
 10
32.66419216952804
 20
39.33448146051136
 30
0.0
 10
28.08853075960892
 20
39.42927313118705
 30
0.0
 10
26.14677604061681
 20
35.55279966050626
 30
0.0
 10
26.53629241036722
 20
33.93162603821806
 30
0.0
  0
SPLINE
  5
59
330
1F
100
AcDbEntity
  8
0
  6
Continuous
 62
     7
370
    15
100
AcDbSpline
210
0.0
220
0.0
230
1.0
 70
     8
 71
     3
 72
     8
 73
     4
 74
     0
 42
0.00000001
 43
0.00000001
 12
1.0
 22
0.0
 32
0.0
 13
1.0
 23
0.0
 33
0.0
 40
0.0
 40
0.0
 40
0.0
 40
0.0
 40
1.0
 40
1.0
 40
1.0
 40
1.0
 10
26.53629241036722
 20
33.93162603821806
 30
0.0
 10
27.92041071232647
 20
36.54072120004898
 30
0.0
 10
30.13445274771025
 20
37.54236666267533
 30
0.0
 10
33.17841851651857
 20
36.93656242609709
 30
0.0
  0
LWPOLYLINE
  5
5B
330
1F
100
AcDbEntity
  8
0
  6
Continuous
 62
     7
370
    15
100
AcDbPolyline
 90
       31
 70
   128
 43
0.0
 10
35.5364288332
 20
25.5968184055
 10
35.2957659614
 20
25.0847050729
 10
35.0034445499
 20
24.6413976053
 10
34.6683905102
 20
24.2804322099
 10
34.3008345766
 20
24.0128308134
 10
33.911999915
 20
23.8467645121
 10
33.5137594286
 20
23.7873040706
 10
33.1182732232
 20
23.8362650886
 10
32.7376173039
 20
23.9921525619
 10
32.3834148393
 20
24.2502065321
 10
32.0664812528
 20
24.6025474295
 10
31.7964939784
 20
25.038416673
 10
31.581696964
 20
25.5445051783
 10
31.4286489461
 20
26.1053597456
 10
31.3420231818
 20
26.7038549162
 10
31.3244647523
 20
27.3217158917
 10
31.376509797
 20
27.9400765467
 10
31.4965691421
 20
28.5400554985
 10
31.6809768261
 20
29.1033326419
 10
31.9241020378
 20
29.6127085459
 10
32.2185210511
 20
30.0526296313
 10
32.555243905
 20
30.4096630927
 10
32.9239889087
 20
30.6729070633
 10
33.3134965885
 20
30.8343234991
 10
33.711873491
 20
30.8889836171
 10
34.1069553448
 20
30.8352183934
 10
34.4866784917
 20
30.6746695266
 10
34.8394482447
 20
30.412239309
 10
35.1544929278
 20
30.0559409369
 10
35.4221927839
 20
29.6166538314
 10
35.6343737104
 20
29.1077914397
  0
LWPOLYLINE
  5
5D
330
1F
100
AcDbEntity
  8
0
  6
Continuous
 62
     7
370
    15
100
AcDbPolyline
 90
       44
 70
   128
 43
0.0
 10
35.9627899344
 20
29.2041772788
 10
35.819897135
 20
30.1148335378
 10
35.6152751199
 20
30.9770586422
 10
35.3525783896
 20
31.7754534571
 10
35.0364986451
 20
32.4957588416
 10
34.6726809951
 20
33.1251103133
 10
34.2676231362
 20
33.652267805
 10
33.8285593052
 20
34.0678164095
 10
33.3633310773
 20
34.3643345279
 10
32.8802473178
 20
34.5365264173
 10
32.3879357874
 20
34.5813167716
 10
31.8951890527
 20
34.4979056457
 10
31.4108074528
 20
34.2877827425
 10
30.9434419276
 20
33.954700807
 10
30.501439514
 20
33.504608603
 10
30.0926942697
 20
32.94554467
 10
29.7245062872
 20
32.2874937566
 10
29.4034513161
 20
31.5422084951
 10
29.1352633217
 20
30.7229995025
 10
28.9247320776
 20
29.8444976562
 10
28.7756176215
 20
28.9223927896
 10
28.6905831022
 20
27.9731534758
 10
28.6711472158
 20
27.0137329026
 10
28.7176570827
 20
26.0612660925
 10
28.8292820477
 20
25.1327638758
 10
29.0040285156
 20
24.2448090805
 10
29.2387755561
 20
23.4132603677
 10
29.5293306431
 20
22.652968999
 10
29.8705045319
 20
21.9775135969
 10
30.2562039383
 20
21.398957634
 10
30.6795403629
 20
20.9276339816
 10
31.1329531181
 20
20.5719603679
 10
31.6083443601
 20
20.3382890388
 10
32.0972237148
 20
20.2307933085
 10
32.5908599134
 20
20.2513930252
 10
33.0804367312
 20
20.3997202827
 10
33.557210443
 20
20.6731259916
 10
34.0126659839
 20
21.0667271912
 10
34.4386690266
 20
21.573494258
 10
34.8276112583
 20
22.1843764528
 10
35.1725462635
 20
22.8884635655
 10
35.4673135853
 20
23.673180768
 10
35.7066487496
 20
24.5245131983
 10
35.8862772874
 20
25.4272562621
  0
SPLINE
  5
5E
330
1F
100
AcDbEntity
  8
0
  6
Continuous
 62
     7
370
    15
100
AcDbSpline
210
0.0
220
0.0
230
1.0
 70
     8
 71
     3
 72
    10
 73
     6
 74
     0
 42
0.00000001
 43
0.00000001
 12
1.0
 22
0.0
 32
0.0
 13
1.0
 23
0.0
 33
0.0
 40
0.0
 40
0.0
 40
0.0
 40
0.0
 40
0.3354324141253838
 40
0.7219693283043858
 40
1.0
 40
1.0
 40
1.0
 40
1.0
 10
43.16314512244968
 20
37.93164076102677
 30
0.0
 10
42.29974782079852
 20
38.78080366268249
 30
0.0
 10
39.73313688686605
 20
39.85263184592699
 30
0.0
 10
35.92588428465798
 20
37.50441248617725
 30
0.0
 10
35.59913779797191
 20
35.66343439200995
 30
0.0
 10
35.72979204582611
 20
34.22021584991084
 30
0.0
  0
SPLINE
  5
60
330
1F
100
AcDbEntity
  8
0
  6
Continuous
 62
     7
370
    15
100
AcDbSpline
210
0.0
220
0.0
230
1.0
 70
     8
 71
     3
 72
     8
 73
     4
 74
     0
 42
0.00000001
 43
0.00000001
 12
1.0
 22
0.0
 32
0.0
 13
1.0
 23
0.0
 33
0.0
 40
0.0
 40
0.0
 40
0.0
 40
0.0
 40
1.0
 40
1.0
 40
1.0
 40
1.0
 10
35.72979204582611
 20
34.22021584991084
 30
0.0
 10
37.16615251616489
 20
36.93387500369571
 30
0.0
 10
39.33352835928428
 20
37.88150449776057
 30
0.0
 10
42.23191957518428
 20
37.06310433210546
 30
0.0
  0
LWPOLYLINE
  5
62
330
1F
100
AcDbEntity
  8
0
  6
Continuous
 62
     7
370
    15
100
AcDbPolyline
 90
       26
 70
   128
 43
0.0
 10
42.9675525867
 20
25.0347387141
 10
42.6350706986
 20
24.7058450065
 10
42.2714851489
 20
24.4689798326
 10
41.8884702105
 20
24.3317486342
 10
41.4983240093
 20
24.2985577317
 10
41.1135736474
 20
24.3704728431
 10
40.7465729729
 20
24.5451848651
 10
40.4091059141
 20
24.8170840151
 10
40.1120081121
 20
25.1774399548
 10
39.8648190021
 20
25.61468211
 10
39.6754755145
 20
26.1147711873
 10
39.5500572293
 20
26.6616499578
 10
39.4925911695
 20
27.2377588348
 10
39.5049224977
 20
27.8245996897
 10
39.5866552704
 20
28.4033298038
 10
39.7351651515
 20
28.9553668837
 10
39.9456836764
 20
29.462985716
 10
40.2114513609
 20
29.909887301
 10
40.5239347403
 20
30.2817221931
 10
40.873100368
 20
30.5665512433
 10
41.2477369764
 20
30.7552289507
 10
41.6358154572
 20
30.8416971122
 10
42.0248751004
 20
30.8231793443
 10
42.4024236921
 20
30.7002702293
 10
42.7563386238
 20
30.4769162236
 10
43.075256134
 20
30.1602889422
  0
LWPOLYLINE
  5
64
330
1F
100
AcDbEntity
  8
0
  6
Continuous
 62
     7
370
    15
100
AcDbPolyline
 90
       41
 70
   128
 43
0.0
 10
43.1686561277
 20
30.3284513813
 10
42.9935413128
 20
31.1276514437
 10
42.7672078475
 20
31.8581729068
 10
42.4938701528
 20
32.5064131643
 10
42.1786178875
 20
33.0603017197
 10
41.8273211766
 20
33.5095249434
 10
41.4465213075
 20
33.8457181166
 10
41.0433089281
 20
34.0626211862
 10
40.6251920167
 20
34.1561953288
 10
40.1999560798
 20
34.124698156
 10
39.7755191829
 20
33.9687161579
 10
39.3597845135
 20
33.6911537827
 10
38.9604932196
 20
33.2971793544
 10
38.5850802673
 20
32.7941288366
 10
38.240535998
 20
32.1913692342
 10
37.9332759657
 20
31.5001241755
 10
37.669021477
 20
30.7332649239
 10
37.4526930577
 20
29.90507071
 10
37.2883188306
 20
29.0309628459
 10
37.1789595107
 20
28.1272175747
 10
37.1266514128
 20
27.2106630002
 10
37.1323685349
 20
26.2983657404
 10
37.1960044219
 20
25.4073131404
 10
37.3163741477
 20
24.5540969611
 10
37.4912363793
 20
23.7546044341
 10
37.7173351109
 20
23.0237224345
 10
37.9904602923
 20
22.3750602818
 10
38.305526222
 20
21.8206963284
 10
38.6566662444
 20
21.3709530561
 10
39.0373419899
 20
21.034204867
 10
39.4404651216
 20
20.8167221491
 10
39.8585293232
 20
20.7225545189
 10
40.2837500697
 20
20.7534554158
 10
40.7082095783
 20
20.9088494525
 10
41.1240042406
 20
21.1858431292
 10
41.5233917914
 20
21.579278711
 10
41.8989354724
 20
22.0818302679
 10
42.2436425079
 20
22.684140086
 10
42.5510943131
 20
23.374992912
 10
42.8155660105
 20
24.1415247861
 10
43.0321330298
 20
24.9694625737
  0
CIRCLE
  5
6D
330
1F
100
AcDbEntity
  8
0
  6
Continuous
 62
     7
370
    15
100
AcDbCircle
 10
0.6026456739
 20
-36.6220480971
 30
0.0
 40
1.750000000000003
  0
CIRCLE
  5
6E
330
1F
100
AcDbEntity
  8
0
  6
Continuous
 62
     7
370
    15
100
AcDbCircle
 10
28.8114450711
 20
-49.4775386194
 30
0.0
 40
1.750000000000007
  0
LINE
  5
D0
330
1F
100
AcDbEntity
  8
0
  6
Continuous
 62
     7
370
    15
100
AcDbLine
 10
33.1784185165
 20
36.9365624261
 30
0.0
 11
34.1395365874
 21
37.7718998442
 31
0.0
  0
LINE
  5
D1
330
1F
100
AcDbEntity
  8
0
  6
Continuous
 62
     7
370
    15
100
AcDbLine
 10
35.6343737104
 20
29.1077914397
 30
0.0
 11
35.9627899344
 21
29.2041772788
 31
0.0
  0
LINE
  5
D2
330
1F
100
AcDbEntity
  8
0
  6
Continuous
 62
     7
370
    15
100
AcDbLine
 10
35.8862772874
 20
25.4272562621
 30
0.0
 11
35.5364288332
 21
25.5968184055
 31
0.0
  0
LINE
  5
D3
330
1F
100
AcDbEntity
  8
0
  6
Continuous
 62
     7
370
    15
100
AcDbLine
 10
42.2319195752
 20
37.0631043321
 30
0.0
 11
43.1631451224
 21
37.931640761
 31
0.0
  0
LINE
  5
D4
330
1F
100
AcDbEntity
  8
0
  6
Continuous
 62
     7
370
    15
100
AcDbLine
 10
43.0321330298
 20
24.9694625737
 30
0.0
 11
42.9675525867
 21
25.0347387141
 31
0.0
  0
LINE
  5
D5
330
1F
100
AcDbEntity
  8
0
  6
Continuous
 62
     7
370
    15
100
AcDbLine
 10
43.075256134
 20
30.1602889422
 30
0.0
 11
43.1686561277
 21
30.3284513813
 31
0.0
  0
LINE
  5
D6
330
1F
100
AcDbEntity
  8
0
  6
Continuous
 62
     7
370
    15
100
AcDbLine
 10
-3.5112231878
 20
0.7707450988
 30
0.0
 11
-0.1936772466
 21
8.0504352658
 31
0.0
  0
LINE
  5
D7
330
1F
100
AcDbEntity
  8
0
  6
Continuous
 62
     7
370
    15
100
AcDbLine
 10
-1.184213303
 20
10.6997442929
 30
0.0
 11
-1.6391939385
 21
10.9070909142
 31
0.0
  0
LINE
  5
D8
330
1F
100
AcDbEntity
  8
0
  6
Continuous
 62
     7
370
    15
100
AcDbLine
 10
-2.963848452
 20
10.411822886
 30
0.0
 11
-7.1107808786
 21
1.3122101772
 31
0.0
  0
LINE
  5
D9
330
1F
100
AcDbEntity
  8
0
  6
Continuous
 62
     7
370
    15
100
AcDbLine
 10
-6.6155128503
 20
-0.0124443363
 30
0.0
 11
-6.1605322149
 21
-0.2197909576
 31
0.0
  0
LINE
  5
DA
330
1F
100
AcDbEntity
  8
0
  6
Continuous
 62
     7
370
    15
100
AcDbLine
 10
75.5751881224
 20
-11.0682888555
 30
0.0
 11
75.5751881224
 21
-10.9233574831
 31
0.0
  0
LINE
  5
DB
330
1F
100
AcDbEntity
  8
0
  6
Continuous
 62
     7
370
    15
100
AcDbLine
 10
62.6356646356
 20
-50.3175459412
 30
0.0
 11
71.0732516662
 21
-31.8029509883
 31
0.0
  0
LINE
  5
DC
330
1F
100
AcDbEntity
  8
0
  6
Continuous
 62
     7
370
    15
100
AcDbLine
 10
31.6854428711
 20
-55.0
 30
0.0
 11
55.3559744686
 21
-55.0
 31
0.0
  0
LINE
  5
DD
330
1F
100
AcDbEntity
  8
0
  6
Continuous
 62
     7
370
    15
100
AcDbLine
 10
28.2879948988
 20
-54.2432767136
 30
0.0
 11
28.3678969298
 21
-54.279690167
 31
0.0
  0
LINE
  5
DE
330
1F
100
AcDbEntity
  8
0
  6
Continuous
 62
     7
370
    15
100
AcDbLine
 10
24.3258506731
 20
-43.6460406054
 30
0.0
 11
27.9020442492
 21
-35.7988000027
 31
0.0
  0
LINE
  5
DF
330
1F
100
AcDbEntity
  8
0
  6
Continuous
 62
     7
370
    15
100
AcDbLine
 10
31.8760077898
 20
-34.312995918
 30
0.0
 11
38.4732270037
 21
-37.3195219273
 31
0.0
  0
LINE
  5
E0
330
1F
100
AcDbEntity
  8
0
  6
Continuous
 62
     7
370
    15
100
AcDbLine
 10
41.1225360307
 20
-36.3289858708
 30
0.0
 11
46.6172214959
 21
-24.2719990317
 31
0.0
  0
LINE
  5
E1
330
1F
100
AcDbEntity
  8
0
  6
Continuous
 62
     7
370
    15
100
AcDbLine
 10
46.6172214959
 20
-24.2719990317
 30
0.0
 11
47.9821634022
 21
-24.8940388957
 31
0.0
  0
LINE
  5
E2
330
1F
100
AcDbEntity
  8
0
  6
Continuous
 62
     7
370
    15
100
AcDbLine
 10
50.6314724293
 20
-23.9035028392
 30
0.0
 11
53.9490183706
 21
-16.6238126722
 31
0.0
  0
LINE
  5
E3
330
1F
100
AcDbEntity
  8
0
  6
Continuous
 62
     7
370
    15
100
AcDbLine
 10
52.9584823141
 20
-13.9745036452
 30
0.0
 11
51.5935404078
 21
-13.3524637812
 31
0.0
  0
LINE
  5
E4
330
1F
100
AcDbEntity
  8
0
  6
Continuous
 62
     7
370
    15
100
AcDbLine
 10
56.0976898166
 20
1.353832085
 30
0.0
 11
44.0407029774
 21
6.8485175502
 31
0.0
  0
LINE
  5
E5
330
1F
100
AcDbEntity
  8
0
  6
Continuous
 62
     7
370
    15
100
AcDbLine
 10
44.0407029774
 20
6.8485175502
 30
0.0
 11
44.6627428414
 21
8.2134594565
 31
0.0
  0
LINE
  5
E6
330
1F
100
AcDbEntity
  8
0
  6
Continuous
 62
     7
370
    15
100
AcDbLine
 10
43.672206785
 20
10.8627684836
 30
0.0
 11
36.392516618
 21
14.1803144248
 31
0.0
  0
LINE
  5
E7
330
1F
100
AcDbEntity
  8
0
  6
Continuous
 62
     7
370
    15
100
AcDbLine
 10
33.7432075909
 20
13.1897783684
 30
0.0
 11
33.1211677269
 21
11.8248364621
 31
0.0
  0
LINE
  5
E8
330
1F
100
AcDbEntity
  8
0
  6
Continuous
 62
     7
370
    15
100
AcDbLine
 10
33.1211677269
 20
11.8248364621
 30
0.0
 11
21.0641808878
 21
17.3195219273
 31
0.0
  0
LINE
  5
E9
330
1F
100
AcDbEntity
  8
0
  6
Continuous
 62
     7
370
    15
100
AcDbLine
 10
18.4148718607
 20
16.3289858708
 30
0.0
 11
12.9201863956
 21
4.2719990317
 31
0.0
  0
LINE
  5
EA
330
1F
100
AcDbEntity
  8
0
  6
Continuous
 62
     7
370
    15
100
AcDbLine
 10
12.9201863956
 20
4.2719990317
 30
0.0
 11
11.5552444892
 21
4.8940388957
 31
0.0
  0
LINE
  5
EB
330
1F
100
AcDbEntity
  8
0
  6
Continuous
 62
     7
370
    15
100
AcDbLine
 10
8.9059354622
 20
3.9035028392
 30
0.0
 11
5.5883895209
 21
-3.3761873278
 31
0.0
  0
LINE
  5
EC
330
1F
100
AcDbEntity
  8
0
  6
Continuous
 62
     7
370
    15
100
AcDbLine
 10
6.5789255774
 20
-6.0254963548
 30
0.0
 11
7.9438674837
 21
-6.6475362188
 31
0.0
  0
LINE
  5
ED
330
1F
100
AcDbEntity
  8
0
  6
Continuous
 62
     7
370
    15
100
AcDbLine
 10
7.9438674837
 20
-6.6475362188
 30
0.0
 11
2.4491820185
 21
-18.7045230579
 31
0.0
  0
LINE
  5
EE
330
1F
100
AcDbEntity
  8
0
  6
Continuous
 62
     7
370
    15
100
AcDbLine
 10
-15.8858825847
 20
-34.1120809357
 30
0.0
 11
-2.650688311
 21
-40.1437064633
 31
0.0
  0
LINE
  5
EF
330
1F
100
AcDbEntity
  8
0
  6
Continuous
 62
     7
370
    15
100
AcDbLine
 10
-64.5
 20
60.0
 30
0.0
 11
-64.5
 21
49.0
 31
0.0
  0
LINE
  5
F0
330
1F
100
AcDbEntity
  8
0
  6
Continuous
 62
     7
370
    15
100
AcDbLine
 10
-50.5
 20
61.0
 30
0.0
 11
-63.5
 21
61.0
 31
0.0
  0
LINE
  5
F1
330
1F
100
AcDbEntity
  8
0
  6
Continuous
 62
     7
370
    15
100
AcDbLine
 10
-49.5
 20
55.0
 30
0.0
 11
-49.5
 21
60.0
 31
0.0
  0
LINE
  5
F2
330
1F
100
AcDbEntity
  8
0
  6
Continuous
 62
     7
370
    15
100
AcDbLine
 10
-35.36
 20
44.0
 30
0.0
 11
-33.775
 21
44.0
 31
0.0
  0
LINE
  5
F3
330
1F
100
AcDbEntity
  8
0
  6
Continuous
 62
     7
370
    15
100
AcDbLine
 10
-35.86
 20
39.5
 30
0.0
 11
-35.86
 21
43.5
 31
0.0
  0
LINE
  5
F4
330
1F
100
AcDbEntity
  8
0
  6
Continuous
 62
     7
370
    15
100
AcDbLine
 10
-33.775
 20
39.0
 30
0.0
 11
-35.36
 21
39.0
 31
0.0
  0
LINE
  5
F5
330
1F
100
AcDbEntity
  8
0
  6
Continuous
 62
     7
370
    15
100
AcDbLine
 10
-30.725
 20
34.0
 30
0.0
 11
-33.275
 21
34.0
 31
0.0
  0
LINE
  5
F6
330
1F
100
AcDbEntity
  8
0
  6
Continuous
 62
     7
370
    15
100
AcDbLine
 10
-28.64
 20
39.0
 30
0.0
 11
-30.225
 21
39.0
 31
0.0
  0
LINE
  5
F7
330
1F
100
AcDbEntity
  8
0
  6
Continuous
 62
     7
370
    15
100
AcDbLine
 10
-28.14
 20
43.5
 30
0.0
 11
-28.14
 21
39.5
 31
0.0
  0
LINE
  5
F8
330
1F
100
AcDbEntity
  8
0
  6
Continuous
 62
     7
370
    15
100
AcDbLine
 10
-30.225
 20
44.0
 30
0.0
 11
-28.64
 21
44.0
 31
0.0
  0
LINE
  5
F9
330
1F
100
AcDbEntity
  8
0
  6
Continuous
 62
     7
370
    15
100
AcDbLine
 10
-14.5
 20
60.0
 30
0.0
 11
-14.5
 21
55.0
 31
0.0
  0
LINE
  5
FA
330
1F
100
AcDbEntity
  8
0
  6
Continuous
 62
     7
370
    15
100
AcDbLine
 10
-13.5
 20
61.0
 30
0.0
 11
-4.45
 21
61.0
 31
0.0
  0
LINE
  5
FB
330
1F
100
AcDbEntity
  8
0
  6
Continuous
 62
     7
370
    15
100
AcDbLine
 10
-3.45
 20
60.0
 30
0.0
 11
-3.45
 21
35.0
 31
0.0
  0
LINE
  5
FC
330
1F
100
AcDbEntity
  8
0
  6
Continuous
 62
     7
370
    15
100
AcDbLine
 10
-3.45
 20
35.0
 30
0.0
 11
3.45
 21
35.0
 31
0.0
  0
LINE
  5
FD
330
1F
100
AcDbEntity
  8
0
  6
Continuous
 62
     7
370
    15
100
AcDbLine
 10
3.45
 20
35.0
 30
0.0
 11
3.45
 21
54.0
 31
0.0
  0
LINE
  5
FE
330
1F
100
AcDbEntity
  8
0
  6
Continuous
 62
     7
370
    15
100
AcDbLine
 10
16.225
 20
55.0
 30
0.0
 11
16.225
 21
44.0
 31
0.0
  0
LINE
  5
FF
330
1F
100
AcDbEntity
  8
0
  6
Continuous
 62
     7
370
    15
100
AcDbLine
 10
16.225
 20
44.0
 30
0.0
 11
14.64
 21
44.0
 31
0.0
  0
LINE
  5
100
330
1F
100
AcDbEntity
  8
0
  6
Continuous
 62
     7
370
    15
100
AcDbLine
 10
14.14
 20
43.5
 30
0.0
 11
14.14
 21
39.5
 31
0.0
  0
LINE
  5
101
330
1F
100
AcDbEntity
  8
0
  6
Continuous
 62
     7
370
    15
100
AcDbLine
 10
14.64
 20
39.0
 30
0.0
 11
16.225
 21
39.0
 31
0.0
  0
LINE
  5
102
330
1F
100
AcDbEntity
  8
0
  6
Continuous
 62
     7
370
    15
100
AcDbLine
 10
16.725
 20
34.0
 30
0.0
 11
19.275
 21
34.0
 31
0.0
  0
LINE
  5
103
330
1F
100
AcDbEntity
  8
0
  6
Continuous
 62
     7
370
    15
100
AcDbLine
 10
19.775
 20
39.0
 30
0.0
 11
21.36
 21
39.0
 31
0.0
  0
LINE
  5
104
330
1F
100
AcDbEntity
  8
0
  6
Continuous
 62
     7
370
    15
100
AcDbLine
 10
21.86
 20
39.5
 30
0.0
 11
21.86
 21
43.5
 31
0.0
  0
LINE
  5
105
330
1F
100
AcDbEntity
  8
0
  6
Continuous
 62
     7
370
    15
100
AcDbLine
 10
21.36
 20
44.0
 30
0.0
 11
19.775
 21
44.0
 31
0.0
  0
LINE
  5
106
330
1F
100
AcDbEntity
  8
0
  6
Continuous
 62
     7
370
    15
100
AcDbLine
 10
19.775
 20
44.0
 30
0.0
 11
19.775
 21
55.0
 31
0.0
  0
LINE
  5
107
330
1F
100
AcDbEntity
  8
0
  6
Continuous
 62
     7
370
    15
100
AcDbLine
 10
62.6880909173
 20
26.2300325404
 30
0.0
 11
40.3002818622
 21
54.6192231671
 31
0.0
  0
LINE
  5
108
330
1F
100
AcDbEntity
  8
0
  6
Continuous
 62
     7
370
    15
100
AcDbLine
 10
3.4397180749
 20
-21.353832085
 30
0.0
 11
10.0369372888
 21
-24.3603580943
 31
0.0
  0
LINE
  5
109
330
1F
100
AcDbEntity
  8
0
  6
Continuous
 62
     7
370
    15
100
AcDbLine
 10
39.5150668156
 20
55.0
 30
0.0
 11
19.775
 21
55.0
 31
0.0
  0
LINE
  5
10A
330
1F
100
AcDbEntity
  8
0
  6
Continuous
 62
     7
370
    15
100
AcDbLine
 10
16.225
 20
39.0
 30
0.0
 11
16.225
 21
34.5
 31
0.0
  0
LINE
  5
10B
330
1F
100
AcDbEntity
  8
0
  6
Continuous
 62
     7
370
    15
100
AcDbLine
 10
19.775
 20
34.5
 30
0.0
 11
19.775
 21
39.0
 31
0.0
  0
LINE
  5
10C
330
1F
100
AcDbEntity
  8
0
  6
Continuous
 62
     7
370
    15
100
AcDbLine
 10
-33.775
 20
55.0
 30
0.0
 11
-49.5
 21
55.0
 31
0.0
  0
LINE
  5
10D
330
1F
100
AcDbEntity
  8
0
  6
Continuous
 62
     7
370
    15
100
AcDbLine
 10
-30.225
 20
39.0
 30
0.0
 11
-30.225
 21
34.5
 31
0.0
  0
LINE
  5
10E
330
1F
100
AcDbEntity
  8
0
  6
Continuous
 62
     7
370
    15
100
AcDbLine
 10
-30.225
 20
55.0
 30
0.0
 11
-30.225
 21
44.0
 31
0.0
  0
LINE
  5
10F
330
1F
100
AcDbEntity
  8
0
  6
Continuous
 62
     7
370
    15
100
AcDbLine
 10
-33.775
 20
34.5
 30
0.0
 11
-33.775
 21
39.0
 31
0.0
  0
LINE
  5
110
330
1F
100
AcDbEntity
  8
0
  6
Continuous
 62
     7
370
    15
100
AcDbLine
 10
-33.775
 20
44.0
 30
0.0
 11
-33.775
 21
55.0
 31
0.0
  0
LINE
  5
111
330
1F
100
AcDbEntity
  8
0
  6
Continuous
 62
     7
370
    15
100
AcDbLine
 10
16.225
 20
55.0
 30
0.0
 11
4.45
 21
55.0
 31
0.0
  0
LINE
  5
112
330
1F
100
AcDbEntity
  8
0
  6
Continuous
 62
     7
370
    15
100
AcDbLine
 10
-14.5
 20
55.0
 30
0.0
 11
-30.225
 21
55.0
 31
0.0
  0
LINE
  5
113
330
1F
100
AcDbEntity
  8
0
  6
Continuous
 62
     7
370
    15
100
AcDbLine
 10
11.5227413734
 20
-28.3343216349
 30
0.0
 11
7.9465477973
 21
-36.1815622376
 31
0.0
  0
LINE
  5
114
330
1F
100
AcDbEntity
  8
0
  6
Continuous
 62
     7
370
    15
100
AcDbLine
 10
51.5935404078
 20
-13.3524637812
 30
0.0
 11
57.088225873
 21
-1.2954769421
 31
0.0
  0
ARC
  5
115
330
1F
100
AcDbEntity
  8
0
  6
Continuous
 62
     7
370
    15
100
AcDbCircle
 10
-2.0135997883
 20
8.8798217511
 30
0.0
 40
2.000000000000001
100
AcDbArc
 50
335.5
 51
65.5
  0
ARC
  5
116
330
1F
100
AcDbEntity
  8
0
  6
Continuous
 62
     7
370
    15
100
AcDbCircle
 10
-2.0538871811
 20
9.9971296433
 30
0.0
 40
0.9999999999999996
100
AcDbArc
 50
65.5
 51
155.5
  0
ARC
  5
117
330
1F
100
AcDbEntity
  8
0
  6
Continuous
 62
     7
370
    15
100
AcDbCircle
 10
-6.2008196077
 20
0.8975169346
 30
0.0
 40
1.0
100
AcDbArc
 50
155.5
 51
245.5
  0
ARC
  5
118
330
1F
100
AcDbEntity
  8
0
  6
Continuous
 62
     7
370
    15
100
AcDbCircle
 10
-5.3311457296
 20
1.6001315841
 30
0.0
 40
2.000000000000003
100
AcDbArc
 50
245.5
 51
335.5
  0
ARC
  5
119
330
1F
100
AcDbEntity
  8
0
  6
Continuous
 62
     7
370
    15
100
AcDbCircle
 10
15.5751881224
 20
-10.9233574831
 30
0.0
 40
60.00000000000005
100
AcDbArc
 50
0.0
 51
38.2594281832
  0
ARC
  5
11A
330
1F
100
AcDbEntity
  8
0
  6
Continuous
 62
     7
370
    15
100
AcDbCircle
 10
25.5751881224
 20
-11.0682888555
 30
0.0
 40
50.00000000000007
100
AcDbArc
 50
335.5
 51
0.0
  0
ARC
  5
11B
330
1F
100
AcDbEntity
  8
0
  6
Continuous
 62
     7
370
    15
100
AcDbCircle
 10
55.3559744686
 20
-47.0
 30
0.0
 40
8.000000000000043
100
AcDbArc
 50
270.0
 51
335.5
  0
ARC
  5
11C
330
1F
100
AcDbEntity
  8
0
  6
Continuous
 62
     7
370
    15
100
AcDbCircle
 10
31.6854428711
 20
-47.0
 30
0.0
 40
7.99999999999996
100
AcDbArc
 50
245.5
 51
270.0
  0
ARC
  5
11D
330
1F
100
AcDbEntity
  8
0
  6
Continuous
 62
     7
370
    15
100
AcDbCircle
 10
31.6055408401
 20
-46.9635865466
 30
0.0
 40
8.000000000000018
100
AcDbArc
 50
155.5
 51
245.5
  0
ARC
  5
11E
330
1F
100
AcDbEntity
  8
0
  6
Continuous
 62
     7
370
    15
100
AcDbCircle
 10
30.6319280618
 20
-37.0428797306
 30
0.0
 40
2.999999999999998
100
AcDbArc
 50
65.5
 51
155.5
  0
ARC
  5
11F
330
1F
100
AcDbEntity
  8
0
  6
Continuous
 62
     7
370
    15
100
AcDbCircle
 10
39.302613489
 20
-35.4995993855
 30
0.0
 40
1.999999999999982
100
AcDbArc
 50
245.5
 51
335.5
  0
ARC
  5
120
330
1F
100
AcDbEntity
  8
0
  6
Continuous
 62
     7
370
    15
100
AcDbCircle
 10
48.8115498876
 20
-23.0741163539
 30
0.0
 40
1.999999999999988
100
AcDbArc
 50
245.5
 51
335.5
  0
ARC
  5
121
330
1F
100
AcDbEntity
  8
0
  6
Continuous
 62
     7
370
    15
100
AcDbCircle
 10
52.1290958288
 20
-15.7944261869
 30
0.0
 40
1.99999999999999
100
AcDbArc
 50
335.5
 51
65.5
  0
ARC
  5
122
330
1F
100
AcDbEntity
  8
0
  6
Continuous
 62
     7
370
    15
100
AcDbCircle
 10
55.2683033312
 20
-0.4660904568
 30
0.0
 40
2.000000000000016
100
AcDbArc
 50
335.5
 51
65.5
  0
ARC
  5
123
330
1F
100
AcDbEntity
  8
0
  6
Continuous
 62
     7
370
    15
100
AcDbCircle
 10
42.8428202997
 20
9.0428459418
 30
0.0
 40
2.0
100
AcDbArc
 50
335.5
 51
65.5
  0
ARC
  5
124
330
1F
100
AcDbEntity
  8
0
  6
Continuous
 62
     7
370
    15
100
AcDbCircle
 10
35.5631301327
 20
12.3603918831
 30
0.0
 40
2.000000000000002
100
AcDbArc
 50
65.5
 51
155.5
  0
ARC
  5
125
330
1F
100
AcDbEntity
  8
0
  6
Continuous
 62
     7
370
    15
100
AcDbCircle
 10
20.2347944025
 20
15.4995993855
 30
0.0
 40
1.999999999999995
100
AcDbArc
 50
65.5
 51
155.5
  0
ARC
  5
126
330
1F
100
AcDbEntity
  8
0
  6
Continuous
 62
     7
370
    15
100
AcDbCircle
 10
10.7258580039
 20
3.0741163539
 30
0.0
 40
2.000000000000005
100
AcDbArc
 50
65.5
 51
155.5
  0
ARC
  5
127
330
1F
100
AcDbEntity
  8
0
  6
Continuous
 62
     7
370
    15
100
AcDbCircle
 10
7.4083120627
 20
-4.2055738131
 30
0.0
 40
2.000000000000002
100
AcDbArc
 50
155.5
 51
245.5
  0
ARC
  5
128
330
1F
100
AcDbEntity
  8
0
  6
Continuous
 62
     7
370
    15
100
AcDbCircle
 10
4.2691045602
 20
-19.5339095432
 30
0.0
 40
2.000000000000004
100
AcDbArc
 50
155.5
 51
245.5
  0
ARC
  5
129
330
1F
100
AcDbEntity
  8
0
  6
Continuous
 62
     7
370
    15
100
AcDbCircle
 10
8.7928575608
 20
-27.0902419069
 30
0.0
 40
3.0
100
AcDbArc
 50
335.5
 51
65.5
  0
ARC
  5
12A
330
1F
100
AcDbEntity
  8
0
  6
Continuous
 62
     7
370
    15
100
AcDbCircle
 10
0.6668576303
 20
-32.8640162963
 30
0.0
 40
8.00000000000001
100
AcDbArc
 50
245.5
 51
335.5
  0
ARC
  5
12B
330
1F
100
AcDbEntity
  8
0
  6
Continuous
 62
     7
370
    15
100
AcDbCircle
 10
-12.5683366434
 20
-26.8323907687
 30
0.0
 40
7.999999999999988
100
AcDbArc
 50
191.2738178142
 51
245.5
  0
ARC
  5
12C
330
1F
100
AcDbEntity
  8
0
  6
Continuous
 62
     7
370
    15
100
AcDbCircle
 10
-158.8381354947
 20
-55.9904780037
 30
0.0
 40
141.1477391957778
100
AcDbArc
 50
11.2738178142
 51
48.0590401552
  0
ARC
  5
12D
330
1F
100
AcDbEntity
  8
0
  6
Continuous
 62
     7
370
    15
100
AcDbCircle
 10
-63.5
 20
60.0
 30
0.0
 40
1.0
100
AcDbArc
 50
90.0
 51
180.0
  0
ARC
  5
12E
330
1F
100
AcDbEntity
  8
0
  6
Continuous
 62
     7
370
    15
100
AcDbCircle
 10
-50.5
 20
60.0
 30
0.0
 40
1.000000000000021
100
AcDbArc
 50
0.0
 51
90.0
  0
ARC
  5
12F
330
1F
100
AcDbEntity
  8
0
  6
Continuous
 62
     7
370
    15
100
AcDbCircle
 10
-35.36
 20
43.5
 30
0.0
 40
0.5000000000000071
100
AcDbArc
 50
90.0
 51
180.0
  0
ARC
  5
130
330
1F
100
AcDbEntity
  8
0
  6
Continuous
 62
     7
370
    15
100
AcDbCircle
 10
-35.36
 20
39.5
 30
0.0
 40
0.4999999999999929
100
AcDbArc
 50
180.0
 51
270.0
  0
ARC
  5
131
330
1F
100
AcDbEntity
  8
0
  6
Continuous
 62
     7
370
    15
100
AcDbCircle
 10
-33.275
 20
34.5
 30
0.0
 40
0.5
100
AcDbArc
 50
180.0
 51
270.0
  0
ARC
  5
132
330
1F
100
AcDbEntity
  8
0
  6
Continuous
 62
     7
370
    15
100
AcDbCircle
 10
-30.725
 20
34.5
 30
0.0
 40
0.5000000000000213
100
AcDbArc
 50
270.0
 51
0.0
  0
ARC
  5
133
330
1F
100
AcDbEntity
  8
0
  6
Continuous
 62
     7
370
    15
100
AcDbCircle
 10
-28.64
 20
39.5
 30
0.0
 40
0.5000000000000142
100
AcDbArc
 50
270.0
 51
0.0
  0
ARC
  5
134
330
1F
100
AcDbEntity
  8
0
  6
Continuous
 62
     7
370
    15
100
AcDbCircle
 10
-28.64
 20
43.5
 30
0.0
 40
0.5000000000000213
100
AcDbArc
 50
0.0
 51
90.0
  0
ARC
  5
135
330
1F
100
AcDbEntity
  8
0
  6
Continuous
 62
     7
370
    15
100
AcDbCircle
 10
-13.5
 20
60.0
 30
0.0
 40
1.000000000000004
100
AcDbArc
 50
90.0
 51
180.0
  0
ARC
  5
136
330
1F
100
AcDbEntity
  8
0
  6
Continuous
 62
     7
370
    15
100
AcDbCircle
 10
-4.45
 20
60.0
 30
0.0
 40
1.0
100
AcDbArc
 50
0.0
 51
90.0
  0
ARC
  5
137
330
1F
100
AcDbEntity
  8
0
  6
Continuous
 62
     7
370
    15
100
AcDbCircle
 10
4.45
 20
54.0
 30
0.0
 40
1.000000000000021
100
AcDbArc
 50
90.0
 51
180.0
  0
ARC
  5
138
330
1F
100
AcDbEntity
  8
0
  6
Continuous
 62
     7
370
    15
100
AcDbCircle
 10
14.64
 20
43.5
 30
0.0
 40
0.5000000000000142
100
AcDbArc
 50
90.0
 51
180.0
  0
ARC
  5
139
330
1F
100
AcDbEntity
  8
0
  6
Continuous
 62
     7
370
    15
100
AcDbCircle
 10
14.64
 20
39.5
 30
0.0
 40
0.5000000000000018
100
AcDbArc
 50
180.0
 51
270.0
  0
ARC
  5
13A
330
1F
100
AcDbEntity
  8
0
  6
Continuous
 62
     7
370
    15
100
AcDbCircle
 10
16.725
 20
34.5
 30
0.0
 40
0.5000000000000071
100
AcDbArc
 50
180.0
 51
270.0
  0
ARC
  5
13B
330
1F
100
AcDbEntity
  8
0
  6
Continuous
 62
     7
370
    15
100
AcDbCircle
 10
19.275
 20
34.5
 30
0.0
 40
0.5000000000000071
100
AcDbArc
 50
270.0
 51
0.0
  0
ARC
  5
13C
330
1F
100
AcDbEntity
  8
0
  6
Continuous
 62
     7
370
    15
100
AcDbCircle
 10
21.36
 20
39.5
 30
0.0
 40
0.4999999999999964
100
AcDbArc
 50
270.0
 51
0.0
  0
ARC
  5
13D
330
1F
100
AcDbEntity
  8
0
  6
Continuous
 62
     7
370
    15
100
AcDbCircle
 10
21.36
 20
43.5
 30
0.0
 40
0.5000000000000142
100
AcDbArc
 50
0.0
 51
90.0
  0
ARC
  5
13E
330
1F
100
AcDbEntity
  8
0
  6
Continuous
 62
     7
370
    15
100
AcDbCircle
 10
39.5150668156
 20
54.0
 30
0.0
 40
1.000000000000037
100
AcDbArc
 50
38.2594281832
 51
90.0
  0
ENDSEC
  0
SECTION
  2
OBJECTS
  0
DICTIONARY
  5
C
330
0
100
AcDbDictionary
281
     1
  3
ACAD_GROUP
350
D
  3
ACAD_LAYOUT
350
1A
  3
ACAD_MATERIAL
350
3B
  3
ACAD_MLEADERSTYLE
350
140
  3
ACAD_MLINESTYLE
350
17
  3
ACAD_PLOTSETTINGS
350
19
  3
ACAD_PLOTSTYLENAME
350
E
  3
ACAD_TABLESTYLE
350
13F
  0
DICTIONARY
  5
D
102
{ACAD_REACTORS
330
C
102
}
330
C
100
AcDbDictionary
281
     1
  0
DICTIONARY
  5
1A
102
{ACAD_REACTORS
330
C
102
}
330
C
100
AcDbDictionary
281
     1
  3
Layout1
350
1E
  3
Layout2
350
26
  3
Model
350
22
  0
DICTIONARY
  5
3B
102
{ACAD_REACTORS
330
C
102
}
330
C
100
AcDbDictionary
281
     1
  3
ByBlock
350
3D
  3
ByLayer
350
3C
  3
Global
350
3E
  0
DICTIONARY
  5
140
102
{ACAD_REACTORS
330
C
102
}
330
C
100
AcDbDictionary
281
     1
  0
DICTIONARY
  5
17
102
{ACAD_REACTORS
330
C
102
}
330
C
100
AcDbDictionary
281
     1
  3
Standard
350
18
  0
DICTIONARY
  5
19
102
{ACAD_REACTORS
330
C
102
}
330
C
100
AcDbDictionary
281
     1
  0
ACDBDICTIONARYWDFLT
  5
E
102
{ACAD_REACTORS
330
C
102
}
330
C
100
AcDbDictionary
281
     1
  3
Normal
350
F
100
AcDbDictionaryWithDefault
340
F
  0
DICTIONARY
  5
13F
102
{ACAD_REACTORS
330
C
102
}
330
C
100
AcDbDictionary
281
     1
  0
LAYOUT
  5
1E
102
{ACAD_REACTORS
330
1A
102
}
330
1A
100
AcDbPlotSettings
  1

  2
none_device
  4

  6

 40
0.0
 41
0.0
 42
0.0
 43
0.0
 44
0.0
 45
0.0
 46
0.0
 47
0.0
 48
0.0
 49
0.0
140
0.0
141
0.0
142
1.0
143
1.0
 70
   688
 72
     0
 73
     0
 74
     5
  7

 75
    16
 76
     0
 77
     2
 78
   300
147
1.0
148
0.0
149
0.0
100
AcDbLayout
  1
Layout1
 70
     1
 71
     1
 10
0.0
 20
0.0
 11
420.0
 21
297.0
 12
0.0
 22
0.0
 32
0.0
 14
1.0000000000E+20
 24
1.0000000000E+20
 34
1.0000000000E+20
 15
-1.0000000000E+20
 25
-1.0000000000E+20
 35
-1.0000000000E+20
146
0.0
 13
0.0
 23
0.0
 33
0.0
 16
1.0
 26
0.0
 36
0.0
 17
0.0
 27
1.0
 37
0.0
 76
     0
330
1B
  0
LAYOUT
  5
26
102
{ACAD_REACTORS
330
1A
102
}
330
1A
100
AcDbPlotSettings
  1

  2
none_device
  4

  6

 40
0.0
 41
0.0
 42
0.0
 43
0.0
 44
0.0
 45
0.0
 46
0.0
 47
0.0
 48
0.0
 49
0.0
140
0.0
141
0.0
142
1.0
143
1.0
 70
   688
 72
     0
 73
     0
 74
     5
  7

 75
    16
 76
     0
 77
     2
 78
   300
147
1.0
148
0.0
149
0.0
100
AcDbLayout
  1
Layout2
 70
     1
 71
     2
 10
0.0
 20
0.0
 11
0.0
 21
0.0
 12
0.0
 22
0.0
 32
0.0
 14
0.0
 24
0.0
 34
0.0
 15
0.0
 25
0.0
 35
0.0
146
0.0
 13
0.0
 23
0.0
 33
0.0
 16
1.0
 26
0.0
 36
0.0
 17
0.0
 27
1.0
 37
0.0
 76
     0
330
23
  0
LAYOUT
  5
22
102
{ACAD_REACTORS
330
1A
102
}
330
1A
100
AcDbPlotSettings
  1

  2
none_device
  4
ANSI_A_(11.00_x_8.50_Inches)
  6

 40
6.35
 41
19.05
 42
6.35000508
 43
19.05000254
 44
279.4
 45
215.9
 46
123.1464552856
 47
83.3722142472
 48
0.0
 49
0.0
140
0.0
141
0.0
142
0.0725431034
143
1.0
 70
  1696
 72
     0
 73
     0
 74
     0
  7

 75
     0
 76
     0
 77
     2
 78
   300
147
0.0179189148
148
0.0
149
0.0
100
AcDbLayout
  1
Model
 70
     1
 71
     0
 10
0.0
 20
0.0
 11
420.0
 21
297.0
 12
0.0
 22
0.0
 32
0.0
 14
-64.5
 24
-55.0
 34
0.0
 15
75.5751881224
 25
61.0
 35
0.0
146
0.0
 13
0.0
 23
0.0
 33
0.0
 16
1.0
 26
0.0
 36
0.0
 17
0.0
 27
1.0
 37
0.0
 76
     0
330
1F
331
29
  0
MATERIAL
  5
3D
102
{ACAD_REACTORS
330
3B
102
}
330
3B
100
AcDbMaterial
  1
ByBlock
  0
MATERIAL
  5
3C
102
{ACAD_REACTORS
330
3B
102
}
330
3B
100
AcDbMaterial
  1
ByLayer
  0
MATERIAL
  5
3E
102
{ACAD_REACTORS
330
3B
102
}
330
3B
100
AcDbMaterial
  1
Global
  0
MLINESTYLE
  5
18
102
{ACAD_REACTORS
330
17
102
}
330
17
100
AcDbMlineStyle
  2
Standard
 70
     0
  3

 62
   256
 51
90.0
 52
90.0
 71
     2
 49
0.5
 62
   256
  6
BYLAYER
 49
-0.5
 62
   256
  6
BYLAYER
  0
ACDBPLACEHOLDER
  5
F
102
{ACAD_REACTORS
330
E
102
}
330
E
  0
ENDSEC
  0
EOF
