G04 DipTrace 2.3.1.0*
%INTop.gbr*%
%MOIN*%
%ADD16C,0.025*%
%ADD17C,0.118*%
%ADD18C,0.2*%
%ADD25C,0.06*%
%FSLAX44Y44*%
G04*
G70*
G90*
G75*
G01*
%LNTop*%
%LPD*%
D25*
X49119Y86372D3*
X48619Y85622D3*
X49994Y86497D3*
X50994D3*
X51994Y86372D3*
X53744Y85747D3*
X52869Y86122D3*
X46619Y49622D3*
X47494D3*
X48244Y49247D3*
X48869Y48622D3*
X49119Y47872D3*
Y46997D3*
X49744Y46497D3*
X42676Y89778D2*
D16*
X45919D1*
X48570D2*
X51821D1*
X40777Y89530D2*
X45727D1*
X48762D2*
X53708D1*
X39320Y89281D2*
X45598D1*
X48890D2*
X55157D1*
X38101Y89032D2*
X45512D1*
X48976D2*
X56379D1*
X37039Y88784D2*
X45465D1*
X49023D2*
X57450D1*
X36078Y88535D2*
X45454D1*
X49035D2*
X58422D1*
X35187Y88286D2*
X45481D1*
X52054D2*
X59294D1*
X34379Y88038D2*
X45544D1*
X53082D2*
X60106D1*
X33621Y87789D2*
X45645D1*
X53781D2*
X60879D1*
X32890Y87540D2*
X45797D1*
X54332D2*
X61583D1*
X32226Y87292D2*
X46020D1*
X54769D2*
X62270D1*
X31570Y87043D2*
X46364D1*
X55054D2*
X62911D1*
X30961Y86794D2*
X46840D1*
X55262D2*
X63532D1*
X30363Y86546D2*
X46766D1*
X55414D2*
X64118D1*
X29804Y86297D2*
X46723D1*
X56414D2*
X64688D1*
X29246Y86048D2*
X46708D1*
X57414D2*
X65231D1*
X28734Y85799D2*
X43083D1*
X58289D2*
X65766D1*
X28219Y85551D2*
X41129D1*
X59129D2*
X66266D1*
X27730Y85302D2*
X39712D1*
X59867D2*
X66766D1*
X27254Y85053D2*
X38481D1*
X60590D2*
X67235D1*
X26785Y84805D2*
X37446D1*
X61269D2*
X67700D1*
X26344Y84556D2*
X36532D1*
X61898D2*
X68153D1*
X25898Y84307D2*
X35665D1*
X62531D2*
X68583D1*
X25476Y84059D2*
X34891D1*
X63090D2*
X69016D1*
X25062Y83810D2*
X34145D1*
X63648D2*
X69426D1*
X24652Y83561D2*
X33473D1*
X64203D2*
X69829D1*
X24265Y83313D2*
X32825D1*
X64703D2*
X70231D1*
X23879Y83064D2*
X32184D1*
X65203D2*
X70610D1*
X23496Y82815D2*
X31614D1*
X65699D2*
X70985D1*
X23137Y82567D2*
X31040D1*
X66148D2*
X71360D1*
X22773Y82318D2*
X30504D1*
X66597D2*
X71712D1*
X22418Y82069D2*
X29997D1*
X67047D2*
X72067D1*
X22078Y81820D2*
X29485D1*
X67476D2*
X72419D1*
X21738Y81572D2*
X28997D1*
X67879D2*
X72747D1*
X21402Y81323D2*
X28540D1*
X68285D2*
X73079D1*
X21086Y81074D2*
X28079D1*
X68691D2*
X73411D1*
X20765Y80826D2*
X27637D1*
X69062D2*
X73723D1*
X20449Y80577D2*
X27223D1*
X69429D2*
X74036D1*
X20148Y80328D2*
X26809D1*
X69801D2*
X74344D1*
X19847Y80080D2*
X26395D1*
X70168D2*
X74641D1*
X19551Y79831D2*
X26004D1*
X70508D2*
X74934D1*
X19262Y79582D2*
X25629D1*
X70844D2*
X75227D1*
X18980Y79334D2*
X25254D1*
X71179D2*
X75516D1*
X18699Y79085D2*
X24879D1*
X71515D2*
X75790D1*
X18418Y78836D2*
X24540D1*
X71828D2*
X76063D1*
X18152Y78588D2*
X24196D1*
X72137D2*
X76340D1*
X17890Y78339D2*
X23852D1*
X72441D2*
X76602D1*
X17625Y78090D2*
X23512D1*
X72750D2*
X76860D1*
X17367Y77841D2*
X23196D1*
X73051D2*
X77118D1*
X17121Y77593D2*
X22879D1*
X73332D2*
X77376D1*
X16871Y77344D2*
X22567D1*
X73613D2*
X77618D1*
X16621Y77095D2*
X22254D1*
X73894D2*
X77864D1*
X16383Y76847D2*
X21965D1*
X74176D2*
X78106D1*
X16148Y76598D2*
X21680D1*
X74437D2*
X78344D1*
X15914Y76349D2*
X21391D1*
X74695D2*
X78571D1*
X15683Y76101D2*
X21106D1*
X74953D2*
X78801D1*
X15461Y75852D2*
X20825D1*
X75207D2*
X79032D1*
X15242Y75603D2*
X20563D1*
X75465D2*
X79251D1*
X15019Y75355D2*
X20297D1*
X75711D2*
X79465D1*
X14801Y75106D2*
X20036D1*
X75945D2*
X79680D1*
X14594Y74857D2*
X19774D1*
X76179D2*
X79899D1*
X14387Y74609D2*
X19528D1*
X76418D2*
X80106D1*
X14179Y74360D2*
X19286D1*
X76652D2*
X80305D1*
X13972Y74111D2*
X19047D1*
X76871D2*
X80508D1*
X13777Y73862D2*
X18805D1*
X77090D2*
X80712D1*
X13586Y73614D2*
X18567D1*
X77304D2*
X80907D1*
X13390Y73365D2*
X18337D1*
X77519D2*
X81098D1*
X13195Y73116D2*
X18118D1*
X77734D2*
X81290D1*
X13012Y72868D2*
X17895D1*
X77945D2*
X81477D1*
X12828Y72619D2*
X17676D1*
X78144D2*
X81665D1*
X12644Y72370D2*
X17454D1*
X78344D2*
X81840D1*
X12465Y72122D2*
X17247D1*
X78539D2*
X82020D1*
X12289Y71873D2*
X17047D1*
X78738D2*
X82200D1*
X12117Y71624D2*
X16844D1*
X78933D2*
X82376D1*
X11945Y71376D2*
X16645D1*
X79117D2*
X82544D1*
X11773Y71127D2*
X16442D1*
X79297D2*
X82712D1*
X11609Y70878D2*
X16243D1*
X79476D2*
X82879D1*
X11449Y70630D2*
X16059D1*
X79656D2*
X83047D1*
X11289Y70381D2*
X15872D1*
X79836D2*
X83204D1*
X11125Y70132D2*
X15688D1*
X80015D2*
X83360D1*
X10969Y69883D2*
X15504D1*
X80179D2*
X83516D1*
X10816Y69635D2*
X11012D1*
X11875D2*
X15321D1*
X80344D2*
X82614D1*
X83476D2*
X83672D1*
X12449Y69386D2*
X15153D1*
X80508D2*
X82040D1*
X12746Y69137D2*
X14985D1*
X80676D2*
X81743D1*
X12941Y68889D2*
X14817D1*
X80840D2*
X81547D1*
X13078Y68640D2*
X14649D1*
X80996D2*
X81411D1*
X13168Y68391D2*
X14481D1*
X81144D2*
X81321D1*
X13219Y68143D2*
X14313D1*
X13234Y67894D2*
X14157D1*
X13215Y67645D2*
X14004D1*
X9535Y67397D2*
X9731D1*
X13156D2*
X13852D1*
X84758D2*
X84958D1*
X9402Y67148D2*
X9833D1*
X13058D2*
X13700D1*
X84656D2*
X85090D1*
X9273Y66899D2*
X9977D1*
X12910D2*
X13547D1*
X84512D2*
X85215D1*
X9144Y66651D2*
X10192D1*
X12699D2*
X13399D1*
X84297D2*
X85344D1*
X9015Y66402D2*
X10516D1*
X12375D2*
X13262D1*
X83972D2*
X85469D1*
X8894Y66153D2*
X11360D1*
X11529D2*
X13126D1*
X82426D2*
X82962D1*
X83129D2*
X85594D1*
X8777Y65904D2*
X12985D1*
X82562D2*
X85715D1*
X8656Y65656D2*
X12848D1*
X82691D2*
X85833D1*
X8535Y65407D2*
X12712D1*
X82812D2*
X85950D1*
X8422Y65158D2*
X12575D1*
X82933D2*
X86067D1*
X8308Y64910D2*
X12450D1*
X83054D2*
X86184D1*
X8195Y64661D2*
X12325D1*
X83176D2*
X86294D1*
X8086Y64412D2*
X12200D1*
X83297D2*
X86403D1*
X7972Y64164D2*
X12079D1*
X83418D2*
X86508D1*
X7871Y63915D2*
X11954D1*
X83531D2*
X86618D1*
X7769Y63666D2*
X11833D1*
X83637D2*
X86723D1*
X7668Y63418D2*
X11723D1*
X83746D2*
X86825D1*
X7562Y63169D2*
X11610D1*
X83855D2*
X86922D1*
X7461Y62920D2*
X11501D1*
X83961D2*
X87024D1*
X7367Y62672D2*
X11391D1*
X84070D2*
X87122D1*
X7273Y62423D2*
X11278D1*
X84168D2*
X87219D1*
X7179Y62174D2*
X11169D1*
X84265D2*
X87309D1*
X7086Y61925D2*
X11067D1*
X84359D2*
X87399D1*
X6996Y61677D2*
X10969D1*
X84457D2*
X87489D1*
X6910Y61428D2*
X10872D1*
X84551D2*
X87579D1*
X6824Y61179D2*
X10774D1*
X84644D2*
X87669D1*
X6738Y60931D2*
X10672D1*
X84742D2*
X87751D1*
X6652Y60682D2*
X10575D1*
X84828D2*
X87833D1*
X6570Y60433D2*
X10485D1*
X84910D2*
X87915D1*
X6496Y60185D2*
X10399D1*
X84992D2*
X87997D1*
X6418Y59936D2*
X10317D1*
X85074D2*
X88075D1*
X6340Y59687D2*
X10231D1*
X85160D2*
X88149D1*
X6262Y59439D2*
X10145D1*
X85242D2*
X88223D1*
X6187Y59190D2*
X10059D1*
X85320D2*
X88297D1*
X6121Y58941D2*
X9973D1*
X85390D2*
X88372D1*
X6051Y58693D2*
X9895D1*
X85461D2*
X88442D1*
X5984Y58444D2*
X9821D1*
X85531D2*
X88504D1*
X5914Y58195D2*
X9751D1*
X85605D2*
X88571D1*
X5847Y57946D2*
X9676D1*
X85676D2*
X88637D1*
X5789Y57698D2*
X9602D1*
X85746D2*
X88704D1*
X5726Y57449D2*
X9528D1*
X85812D2*
X88766D1*
X5664Y57200D2*
X9462D1*
X85871D2*
X88825D1*
X5605Y56952D2*
X9399D1*
X85933D2*
X88879D1*
X5547Y56703D2*
X9337D1*
X85992D2*
X88938D1*
X5492Y56454D2*
X9274D1*
X86051D2*
X88997D1*
X5441Y56206D2*
X9212D1*
X86109D2*
X89051D1*
X5387Y55957D2*
X9153D1*
X86172D2*
X89102D1*
X5336Y55708D2*
X9090D1*
X86219D2*
X89153D1*
X5285Y55460D2*
X9036D1*
X86265D2*
X89200D1*
X5238Y55211D2*
X8985D1*
X86316D2*
X89251D1*
X5195Y54962D2*
X8934D1*
X86363D2*
X89297D1*
X5148Y54714D2*
X8883D1*
X86410D2*
X89340D1*
X5105Y54465D2*
X8833D1*
X86461D2*
X89383D1*
X5058Y54216D2*
X8782D1*
X86508D2*
X89426D1*
X5023Y53967D2*
X8735D1*
X86547D2*
X89465D1*
X4984Y53719D2*
X8692D1*
X86586D2*
X89508D1*
X4949Y53470D2*
X8653D1*
X86621D2*
X89544D1*
X4910Y53221D2*
X8614D1*
X86660D2*
X89579D1*
X4875Y52973D2*
X8575D1*
X86695D2*
X89610D1*
X4844Y52724D2*
X8536D1*
X86734D2*
X89645D1*
X4812Y52475D2*
X8497D1*
X86769D2*
X89680D1*
X4781Y52227D2*
X8458D1*
X86793D2*
X89708D1*
X4754Y51978D2*
X8430D1*
X86820D2*
X89735D1*
X4722Y51729D2*
X8403D1*
X86847D2*
X89762D1*
X4699Y51481D2*
X8372D1*
X86871D2*
X89786D1*
X4676Y51232D2*
X8344D1*
X86898D2*
X89813D1*
X4656Y50983D2*
X8317D1*
X86926D2*
X89837D1*
X4633Y50735D2*
X8286D1*
X86949D2*
X89856D1*
X4613Y50486D2*
X8266D1*
X86965D2*
X89876D1*
X4594Y50237D2*
X8251D1*
X86980D2*
X89891D1*
X4578Y49988D2*
X8231D1*
X86996D2*
X89911D1*
X4566Y49740D2*
X8215D1*
X87012D2*
X89926D1*
X4551Y49491D2*
X8196D1*
X87027D2*
X89938D1*
X4535Y49242D2*
X8180D1*
X87043D2*
X89950D1*
X4523Y48994D2*
X8161D1*
X87054D2*
X89962D1*
X4515Y48745D2*
X8149D1*
X87058D2*
X89973D1*
X4512Y48496D2*
X8145D1*
X87062D2*
X89981D1*
X4504Y48248D2*
X8137D1*
X87066D2*
X89985D1*
X4496Y47999D2*
X8129D1*
X87070D2*
X89989D1*
X4492Y47750D2*
X8122D1*
X87074D2*
X89993D1*
X4492Y47502D2*
X8118D1*
X87078D2*
X89997D1*
X4492Y47253D2*
X8110D1*
X87082D2*
X90001D1*
X4492Y47004D2*
X8114D1*
X87078D2*
X90001D1*
X4492Y46756D2*
X8118D1*
X87070D2*
X89997D1*
X4496Y46507D2*
X8122D1*
X87066D2*
X89993D1*
X4500Y46258D2*
X8126D1*
X87058D2*
X89989D1*
X4508Y46009D2*
X8133D1*
X87051D2*
X89981D1*
X4519Y45761D2*
X8137D1*
X87043D2*
X89969D1*
X4527Y45512D2*
X8141D1*
X87035D2*
X89962D1*
X4535Y45263D2*
X8153D1*
X87015D2*
X89954D1*
X4547Y45015D2*
X8169D1*
X87000D2*
X89942D1*
X4562Y44766D2*
X8184D1*
X86980D2*
X89926D1*
X4578Y44517D2*
X8200D1*
X86965D2*
X89911D1*
X4594Y44269D2*
X8212D1*
X86949D2*
X89891D1*
X4613Y44020D2*
X8227D1*
X86929D2*
X89876D1*
X4629Y43771D2*
X8247D1*
X86910D2*
X89860D1*
X4652Y43523D2*
X8274D1*
X86883D2*
X89837D1*
X4676Y43274D2*
X8297D1*
X86855D2*
X89813D1*
X4699Y43025D2*
X8325D1*
X86828D2*
X89786D1*
X4726Y42777D2*
X8352D1*
X86797D2*
X89762D1*
X4750Y42528D2*
X8376D1*
X86769D2*
X89739D1*
X4781Y42279D2*
X8403D1*
X86742D2*
X89712D1*
X4812Y42030D2*
X8430D1*
X86707D2*
X89676D1*
X4844Y41782D2*
X8465D1*
X86668D2*
X89645D1*
X4875Y41533D2*
X8504D1*
X86629D2*
X89614D1*
X4906Y41284D2*
X8540D1*
X86590D2*
X89583D1*
X4945Y41036D2*
X8579D1*
X86551D2*
X89547D1*
X4984Y40787D2*
X8614D1*
X86512D2*
X89508D1*
X5023Y40538D2*
X8653D1*
X86472D2*
X89465D1*
X5062Y40290D2*
X8696D1*
X86429D2*
X89426D1*
X5101Y40041D2*
X8747D1*
X86379D2*
X89387D1*
X5144Y39792D2*
X8794D1*
X86328D2*
X89348D1*
X5191Y39544D2*
X8840D1*
X86277D2*
X89297D1*
X5238Y39295D2*
X8891D1*
X86226D2*
X89251D1*
X5285Y39046D2*
X8938D1*
X86176D2*
X89204D1*
X5332Y38798D2*
X8985D1*
X86125D2*
X89157D1*
X5383Y38549D2*
X9040D1*
X86066D2*
X89106D1*
X5437Y38300D2*
X9102D1*
X86004D2*
X89051D1*
X5492Y38051D2*
X9161D1*
X85945D2*
X88997D1*
X5547Y37803D2*
X9219D1*
X85883D2*
X88942D1*
X5601Y37554D2*
X9278D1*
X85820D2*
X88887D1*
X5660Y37305D2*
X9340D1*
X85758D2*
X88829D1*
X5722Y37057D2*
X9403D1*
X85695D2*
X88766D1*
X5785Y36808D2*
X9473D1*
X85625D2*
X88704D1*
X5847Y36559D2*
X9544D1*
X85551D2*
X88641D1*
X5910Y36311D2*
X9614D1*
X85480D2*
X88575D1*
X5976Y36062D2*
X9688D1*
X85406D2*
X88512D1*
X6047Y35813D2*
X9758D1*
X85332D2*
X88442D1*
X6117Y35565D2*
X9829D1*
X85258D2*
X88372D1*
X6187Y35316D2*
X9903D1*
X85179D2*
X88297D1*
X6262Y35067D2*
X9985D1*
X85094D2*
X88227D1*
X6332Y34819D2*
X10071D1*
X85012D2*
X88157D1*
X6414Y34570D2*
X10153D1*
X84926D2*
X88079D1*
X6492Y34321D2*
X10235D1*
X84840D2*
X87997D1*
X6570Y34072D2*
X10317D1*
X84754D2*
X87919D1*
X6648Y33824D2*
X10403D1*
X84668D2*
X87837D1*
X6730Y33575D2*
X10497D1*
X84578D2*
X87758D1*
X6820Y33326D2*
X10594D1*
X84480D2*
X87669D1*
X6906Y33078D2*
X10688D1*
X84383D2*
X87583D1*
X6996Y32829D2*
X10786D1*
X84281D2*
X87493D1*
X7082Y32580D2*
X10879D1*
X84183D2*
X87407D1*
X7172Y32332D2*
X10977D1*
X84086D2*
X87317D1*
X7269Y32083D2*
X11075D1*
X83988D2*
X87219D1*
X7367Y31834D2*
X11184D1*
X83875D2*
X87122D1*
X7461Y31586D2*
X11290D1*
X83765D2*
X87028D1*
X7558Y31337D2*
X11399D1*
X83656D2*
X86930D1*
X7660Y31088D2*
X11508D1*
X83543D2*
X86833D1*
X7762Y30840D2*
X11614D1*
X83433D2*
X86727D1*
X7867Y30591D2*
X11727D1*
X83320D2*
X86622D1*
X7972Y30342D2*
X11848D1*
X83207D2*
X86516D1*
X8078Y30093D2*
X11969D1*
X83082D2*
X86411D1*
X8191Y29845D2*
X12090D1*
X82957D2*
X86301D1*
X8304Y29596D2*
X12212D1*
X82832D2*
X86188D1*
X8418Y29347D2*
X12333D1*
X82707D2*
X86071D1*
X8531Y29099D2*
X12454D1*
X82586D2*
X85958D1*
X8644Y28850D2*
X12587D1*
X82453D2*
X85840D1*
X8769Y28601D2*
X12723D1*
X82316D2*
X85723D1*
X8890Y28353D2*
X12856D1*
X82176D2*
X85598D1*
X9015Y28104D2*
X10536D1*
X12355D2*
X12993D1*
X82039D2*
X82137D1*
X83953D2*
X85473D1*
X9137Y27855D2*
X10204D1*
X12687D2*
X13129D1*
X84285D2*
X85348D1*
X9262Y27607D2*
X9985D1*
X12902D2*
X13266D1*
X84504D2*
X85227D1*
X9394Y27358D2*
X9837D1*
X13051D2*
X13415D1*
X84652D2*
X85094D1*
X9527Y27109D2*
X9735D1*
X13152D2*
X13563D1*
X84754D2*
X84962D1*
X13211Y26861D2*
X13712D1*
X13234Y26612D2*
X13860D1*
X81164D2*
X81255D1*
X13222Y26363D2*
X14012D1*
X81012D2*
X81266D1*
X13172Y26114D2*
X14161D1*
X80859D2*
X81317D1*
X13086Y25866D2*
X14325D1*
X80699D2*
X81403D1*
X12949Y25617D2*
X14489D1*
X80531D2*
X81540D1*
X12754Y25368D2*
X14653D1*
X80363D2*
X81735D1*
X12465Y25120D2*
X14817D1*
X80195D2*
X82024D1*
X10812Y24871D2*
X10969D1*
X11922D2*
X14981D1*
X80027D2*
X82567D1*
X83519D2*
X83680D1*
X10965Y24622D2*
X15153D1*
X79859D2*
X83524D1*
X11117Y24374D2*
X15333D1*
X79687D2*
X83372D1*
X11277Y24125D2*
X15516D1*
X79500D2*
X83215D1*
X11441Y23876D2*
X15696D1*
X79316D2*
X83047D1*
X11605Y23628D2*
X15876D1*
X79133D2*
X82883D1*
X11765Y23379D2*
X16055D1*
X78949D2*
X82719D1*
X11933Y23130D2*
X16247D1*
X78762D2*
X82555D1*
X12109Y22882D2*
X16446D1*
X78562D2*
X82379D1*
X12285Y22633D2*
X16641D1*
X78359D2*
X82204D1*
X12457Y22384D2*
X16840D1*
X78160D2*
X82028D1*
X12633Y22135D2*
X17040D1*
X77957D2*
X81852D1*
X12820Y21887D2*
X17247D1*
X77754D2*
X81672D1*
X13004Y21638D2*
X17462D1*
X77547D2*
X81485D1*
X13191Y21389D2*
X17676D1*
X77324D2*
X81297D1*
X13375Y21141D2*
X17891D1*
X77105D2*
X81110D1*
X13574Y20892D2*
X18110D1*
X76883D2*
X80919D1*
X13769Y20643D2*
X18325D1*
X76664D2*
X80719D1*
X13969Y20395D2*
X18563D1*
X76433D2*
X80520D1*
X14168Y20146D2*
X18797D1*
X76195D2*
X80321D1*
X14375Y19897D2*
X19032D1*
X75953D2*
X80114D1*
X14586Y19649D2*
X19270D1*
X75715D2*
X79903D1*
X14797Y19400D2*
X19512D1*
X75472D2*
X79692D1*
X15008Y19151D2*
X19770D1*
X75226D2*
X79477D1*
X15230Y18903D2*
X20024D1*
X74965D2*
X79262D1*
X15453Y18654D2*
X20282D1*
X74703D2*
X79036D1*
X15676Y18405D2*
X20540D1*
X74441D2*
X78809D1*
X15902Y18156D2*
X20805D1*
X74179D2*
X78587D1*
X16137Y17908D2*
X21083D1*
X73898D2*
X78352D1*
X16375Y17659D2*
X21364D1*
X73613D2*
X78114D1*
X16613Y17410D2*
X21645D1*
X73324D2*
X77876D1*
X16855Y17162D2*
X21926D1*
X73039D2*
X77633D1*
X17105Y16913D2*
X22231D1*
X72754D2*
X77383D1*
X17359Y16664D2*
X22540D1*
X72441D2*
X77129D1*
X17613Y16416D2*
X22844D1*
X72129D2*
X76876D1*
X17875Y16167D2*
X23153D1*
X71816D2*
X76618D1*
X18140Y15918D2*
X23469D1*
X71504D2*
X76348D1*
X18410Y15670D2*
X23805D1*
X71168D2*
X76079D1*
X18679Y15421D2*
X24141D1*
X70824D2*
X75805D1*
X18965Y15172D2*
X24477D1*
X70480D2*
X75528D1*
X19250Y14924D2*
X24829D1*
X70140D2*
X75239D1*
X19535Y14675D2*
X25196D1*
X69777D2*
X74950D1*
X19832Y14426D2*
X25563D1*
X69402D2*
X74661D1*
X20137Y14177D2*
X25934D1*
X69027D2*
X74356D1*
X20437Y13929D2*
X26317D1*
X68652D2*
X74047D1*
X20746Y13680D2*
X26723D1*
X68242D2*
X73743D1*
X21070Y13431D2*
X27126D1*
X67828D2*
X73419D1*
X21394Y13183D2*
X27532D1*
X67414D2*
X73094D1*
X21719Y12934D2*
X27981D1*
X66992D2*
X72766D1*
X22062Y12685D2*
X28430D1*
X66535D2*
X72430D1*
X22406Y12437D2*
X28876D1*
X66074D2*
X72083D1*
X22750Y12188D2*
X29348D1*
X65617D2*
X71735D1*
X23117Y11939D2*
X29844D1*
X65105D2*
X71372D1*
X23484Y11691D2*
X30344D1*
X64597D2*
X71001D1*
X23855Y11442D2*
X30876D1*
X64086D2*
X70633D1*
X24246Y11193D2*
X31434D1*
X63527D2*
X70243D1*
X24640Y10945D2*
X31989D1*
X62953D2*
X69848D1*
X25039Y10696D2*
X32590D1*
X62367D2*
X69450D1*
X25461Y10447D2*
X33219D1*
X61719D2*
X69028D1*
X25883Y10198D2*
X33868D1*
X61070D2*
X68606D1*
X26320Y9950D2*
X34587D1*
X60371D2*
X68172D1*
X26769Y9701D2*
X35309D1*
X59625D2*
X67719D1*
X27222Y9452D2*
X36126D1*
X58820D2*
X67262D1*
X27711Y9204D2*
X36962D1*
X57953D2*
X66782D1*
X28195Y8955D2*
X37950D1*
X57008D2*
X66290D1*
X28707Y8706D2*
X38985D1*
X55969D2*
X65786D1*
X29230Y8458D2*
X40204D1*
X54703D2*
X65254D1*
X29773Y8209D2*
X41727D1*
X53211D2*
X64719D1*
X30344Y7960D2*
X40946D1*
X42285D2*
X43735D1*
X51133D2*
X52204D1*
X53543D2*
X64145D1*
X30929Y7712D2*
X40508D1*
X42722D2*
X51766D1*
X53980D2*
X63563D1*
X31547Y7463D2*
X40247D1*
X42980D2*
X46387D1*
X48101D2*
X51508D1*
X54242D2*
X62938D1*
X32191Y7214D2*
X40071D1*
X43160D2*
X46032D1*
X48457D2*
X51329D1*
X54418D2*
X62305D1*
X32867Y6965D2*
X39950D1*
X43281D2*
X45805D1*
X48683D2*
X51208D1*
X54539D2*
X61618D1*
X33586Y6717D2*
X39872D1*
X43359D2*
X45653D1*
X48836D2*
X51129D1*
X54617D2*
X60907D1*
X34336Y6468D2*
X39833D1*
X43398D2*
X45547D1*
X48941D2*
X51090D1*
X54656D2*
X60149D1*
X35160Y6219D2*
X39829D1*
X43402D2*
X45481D1*
X49008D2*
X51087D1*
X54660D2*
X59329D1*
X36035Y5971D2*
X39860D1*
X43371D2*
X45454D1*
X49035D2*
X51118D1*
X54629D2*
X58458D1*
X36980Y5722D2*
X39926D1*
X43301D2*
X45465D1*
X49023D2*
X51188D1*
X54562D2*
X57508D1*
X38043Y5473D2*
X40040D1*
X43191D2*
X45508D1*
X48980D2*
X51297D1*
X54449D2*
X56438D1*
X39254Y5225D2*
X40204D1*
X43027D2*
X45590D1*
X48898D2*
X51462D1*
X54285D2*
X55227D1*
X42785Y4976D2*
X45719D1*
X48769D2*
X51704D1*
X42582Y4727D2*
X45907D1*
X48582D2*
X51911D1*
X49005Y88462D2*
X48980Y88273D1*
X49379Y88338D1*
X49824Y88387D1*
X50295Y88413D1*
X50699Y88416D1*
X51146Y88396D1*
X51615Y88349D1*
X52015Y88289D1*
X52453Y88200D1*
X52910Y88081D1*
X53296Y87960D1*
X53715Y87805D1*
X54148Y87617D1*
X54452Y87468D1*
X54668Y87343D1*
X54868Y87194D1*
X55050Y87022D1*
X55210Y86830D1*
X55347Y86621D1*
X55400Y86521D1*
X55912Y86416D1*
X57669Y85976D1*
X59268Y85500D1*
X60999Y84902D1*
X62554Y84286D1*
X64220Y83542D1*
X65713Y82795D1*
X67309Y81907D1*
X68730Y81033D1*
X70242Y80011D1*
X71581Y79017D1*
X72997Y77867D1*
X74244Y76761D1*
X75554Y75492D1*
X76698Y74282D1*
X77893Y72904D1*
X78927Y71601D1*
X79996Y70124D1*
X80912Y68737D1*
X81288Y68110D1*
X81338Y68367D1*
X81418Y68604D1*
X81531Y68826D1*
X81675Y69031D1*
X81846Y69213D1*
X82041Y69369D1*
X82256Y69496D1*
X82487Y69592D1*
X82729Y69654D1*
X82977Y69681D1*
X83227Y69673D1*
X83473Y69629D1*
X83710Y69552D1*
X83771Y69525D1*
X83089Y70606D1*
X82363Y71681D1*
X81606Y72734D1*
X80816Y73766D1*
X79995Y74774D1*
X79143Y75756D1*
X78262Y76713D1*
X77352Y77641D1*
X76415Y78542D1*
X75450Y79414D1*
X74460Y80257D1*
X73444Y81068D1*
X72404Y81849D1*
X71341Y82597D1*
X70256Y83313D1*
X69150Y83996D1*
X68023Y84644D1*
X66877Y85259D1*
X65713Y85838D1*
X64532Y86381D1*
X63334Y86888D1*
X62122Y87359D1*
X60897Y87792D1*
X59658Y88188D1*
X58409Y88547D1*
X57148Y88867D1*
X55879Y89149D1*
X54602Y89392D1*
X53318Y89596D1*
X52028Y89761D1*
X50734Y89887D1*
X49437Y89973D1*
X48285Y90014D1*
X48436Y89889D1*
X48608Y89708D1*
X48752Y89505D1*
X48867Y89283D1*
X48948Y89047D1*
X48996Y88801D1*
X49009Y88587D1*
X49005Y88462D1*
X46890Y86858D2*
X46653Y86924D1*
X46425Y87024D1*
X46212Y87155D1*
X46020Y87315D1*
X45853Y87501D1*
X45714Y87708D1*
X45605Y87933D1*
X45529Y88171D1*
X45488Y88417D1*
X45481Y88667D1*
X45510Y88915D1*
X45574Y89157D1*
X45671Y89387D1*
X45800Y89601D1*
X45957Y89795D1*
X46141Y89964D1*
X46206Y90013D1*
X45538Y89995D1*
X44239Y89923D1*
X42944Y89812D1*
X41653Y89662D1*
X40366Y89473D1*
X39086Y89244D1*
X37814Y88977D1*
X36550Y88671D1*
X35297Y88327D1*
X34054Y87945D1*
X32823Y87525D1*
X31606Y87069D1*
X30403Y86575D1*
X29216Y86045D1*
X28045Y85479D1*
X26892Y84878D1*
X25758Y84242D1*
X24644Y83573D1*
X23551Y82869D1*
X22479Y82133D1*
X21431Y81364D1*
X20406Y80564D1*
X19406Y79733D1*
X18432Y78872D1*
X17484Y77982D1*
X16564Y77063D1*
X15672Y76117D1*
X14809Y75145D1*
X13976Y74146D1*
X13174Y73123D1*
X12404Y72075D1*
X11665Y71005D1*
X10960Y69913D1*
X10728Y69529D1*
X10887Y69592D1*
X11129Y69654D1*
X11377Y69681D1*
X11627Y69673D1*
X11873Y69629D1*
X12110Y69552D1*
X12334Y69441D1*
X12540Y69300D1*
X12725Y69132D1*
X12883Y68939D1*
X13013Y68726D1*
X13112Y68496D1*
X13177Y68255D1*
X13207Y68007D1*
X13205Y67792D1*
X13170Y67545D1*
X13100Y67305D1*
X12997Y67077D1*
X12863Y66867D1*
X12700Y66677D1*
X12513Y66512D1*
X12304Y66375D1*
X12077Y66270D1*
X11838Y66197D1*
X11592Y66158D1*
X11342Y66155D1*
X11094Y66187D1*
X10853Y66254D1*
X10625Y66354D1*
X10412Y66485D1*
X10220Y66645D1*
X10053Y66831D1*
X9914Y67038D1*
X9805Y67263D1*
X9729Y67501D1*
X9689Y67736D1*
X9534Y67446D1*
X9047Y66515D1*
X8479Y65346D1*
X7947Y64160D1*
X7451Y62958D1*
X6992Y61741D1*
X6570Y60511D1*
X6186Y59269D1*
X5840Y58016D1*
X5532Y56753D1*
X5262Y55481D1*
X5031Y54202D1*
X4840Y52916D1*
X4687Y51625D1*
X4573Y50329D1*
X4499Y49031D1*
X4465Y47732D1*
X4470Y46431D1*
X4515Y45132D1*
X4599Y43835D1*
X4722Y42540D1*
X4885Y41250D1*
X5086Y39966D1*
X5327Y38688D1*
X5607Y37419D1*
X5924Y36158D1*
X6280Y34907D1*
X6674Y33668D1*
X7106Y32442D1*
X7574Y31229D1*
X8079Y30031D1*
X8620Y28849D1*
X9197Y27684D1*
X9688Y26763D1*
X9738Y27027D1*
X9818Y27264D1*
X9931Y27486D1*
X10075Y27691D1*
X10246Y27873D1*
X10441Y28029D1*
X10656Y28156D1*
X10887Y28252D1*
X11129Y28314D1*
X11377Y28341D1*
X11627Y28333D1*
X11873Y28289D1*
X12110Y28212D1*
X12334Y28101D1*
X12540Y27960D1*
X12725Y27792D1*
X12883Y27599D1*
X13013Y27386D1*
X13112Y27156D1*
X13177Y26915D1*
X13207Y26667D1*
X13205Y26452D1*
X13170Y26205D1*
X13100Y25965D1*
X12997Y25737D1*
X12863Y25527D1*
X12700Y25337D1*
X12513Y25172D1*
X12304Y25035D1*
X12077Y24930D1*
X11838Y24857D1*
X11592Y24818D1*
X11342Y24815D1*
X11094Y24847D1*
X10853Y24914D1*
X10727Y24965D1*
X11137Y24301D1*
X11850Y23214D1*
X12597Y22150D1*
X13376Y21109D1*
X14186Y20091D1*
X15026Y19099D1*
X15896Y18133D1*
X16795Y17194D1*
X17723Y16283D1*
X18677Y15400D1*
X19658Y14547D1*
X20665Y13724D1*
X21695Y12931D1*
X22750Y12171D1*
X23827Y11443D1*
X24926Y10748D1*
X26045Y10086D1*
X27184Y9459D1*
X28342Y8867D1*
X29517Y8311D1*
X30708Y7790D1*
X31915Y7306D1*
X33135Y6858D1*
X34369Y6448D1*
X35615Y6076D1*
X36871Y5742D1*
X38137Y5446D1*
X39412Y5188D1*
X40425Y5015D1*
X40303Y5135D1*
X40150Y5332D1*
X40025Y5549D1*
X39933Y5781D1*
X39874Y6024D1*
X39850Y6272D1*
X39861Y6522D1*
X39908Y6767D1*
X39988Y7004D1*
X40101Y7226D1*
X40245Y7431D1*
X40416Y7613D1*
X40611Y7769D1*
X40826Y7896D1*
X41057Y7992D1*
X41299Y8054D1*
X41547Y8081D1*
X41797Y8073D1*
X42043Y8029D1*
X42280Y7952D1*
X42504Y7841D1*
X42710Y7700D1*
X42895Y7532D1*
X43053Y7339D1*
X43183Y7126D1*
X43282Y6896D1*
X43347Y6655D1*
X43377Y6407D1*
X43375Y6192D1*
X43340Y5945D1*
X43270Y5705D1*
X43167Y5477D1*
X43033Y5267D1*
X42870Y5077D1*
X42683Y4912D1*
X42474Y4775D1*
X42408Y4742D1*
X43281Y4647D1*
X44574Y4548D1*
X45869Y4487D1*
X46201Y4482D1*
X46020Y4635D1*
X45853Y4821D1*
X45714Y5028D1*
X45605Y5253D1*
X45529Y5491D1*
X45488Y5737D1*
X45481Y5987D1*
X45510Y6235D1*
X45574Y6477D1*
X45671Y6707D1*
X45800Y6921D1*
X45957Y7115D1*
X46141Y7284D1*
X46346Y7426D1*
X46570Y7538D1*
X46807Y7617D1*
X47052Y7662D1*
X47302Y7671D1*
X47550Y7645D1*
X47793Y7585D1*
X48024Y7491D1*
X48240Y7365D1*
X48436Y7209D1*
X48608Y7028D1*
X48752Y6825D1*
X48867Y6603D1*
X48948Y6367D1*
X48996Y6121D1*
X49009Y5907D1*
X48992Y5658D1*
X48939Y5414D1*
X48852Y5179D1*
X48734Y4960D1*
X48585Y4759D1*
X48409Y4581D1*
X48284Y4482D1*
X48469D1*
X49768Y4539D1*
X51064Y4636D1*
X52078Y4742D1*
X51946Y4816D1*
X51743Y4962D1*
X51563Y5135D1*
X51410Y5332D1*
X51285Y5549D1*
X51193Y5781D1*
X51134Y6024D1*
X51110Y6272D1*
X51121Y6522D1*
X51168Y6767D1*
X51248Y7004D1*
X51361Y7226D1*
X51505Y7431D1*
X51676Y7613D1*
X51871Y7769D1*
X52086Y7896D1*
X52317Y7992D1*
X52559Y8054D1*
X52807Y8081D1*
X53057Y8073D1*
X53303Y8029D1*
X53540Y7952D1*
X53764Y7841D1*
X53970Y7700D1*
X54155Y7532D1*
X54313Y7339D1*
X54443Y7126D1*
X54542Y6896D1*
X54607Y6655D1*
X54637Y6407D1*
X54635Y6192D1*
X54600Y5945D1*
X54530Y5705D1*
X54427Y5477D1*
X54293Y5267D1*
X54130Y5077D1*
X54065Y5015D1*
X54928Y5161D1*
X56203Y5414D1*
X57470Y5705D1*
X58728Y6035D1*
X59975Y6403D1*
X61210Y6809D1*
X62433Y7252D1*
X63641Y7732D1*
X64834Y8248D1*
X66011Y8801D1*
X67171Y9389D1*
X68312Y10012D1*
X69433Y10669D1*
X70535Y11360D1*
X71614Y12084D1*
X72672Y12841D1*
X73705Y13630D1*
X74715Y14449D1*
X75699Y15299D1*
X76656Y16179D1*
X77587Y17087D1*
X78489Y18023D1*
X79363Y18986D1*
X80207Y19975D1*
X81020Y20989D1*
X81803Y22027D1*
X82553Y23089D1*
X83271Y24173D1*
X83762Y24967D1*
X83559Y24889D1*
X83316Y24833D1*
X83067Y24812D1*
X82817Y24827D1*
X82573Y24876D1*
X82337Y24960D1*
X82116Y25076D1*
X81913Y25222D1*
X81733Y25395D1*
X81580Y25592D1*
X81455Y25809D1*
X81363Y26041D1*
X81304Y26284D1*
X81280Y26532D1*
X81291Y26782D1*
X81307Y26886D1*
X80737Y25957D1*
X79719Y24452D1*
X78739Y23131D1*
X77594Y21721D1*
X76503Y20492D1*
X75240Y19187D1*
X74047Y18058D1*
X72675Y16869D1*
X71389Y15849D1*
X69919Y14784D1*
X68551Y13881D1*
X66994Y12948D1*
X65553Y12168D1*
X63921Y11375D1*
X62419Y10724D1*
X60724Y10077D1*
X59172Y9560D1*
X57428Y9062D1*
X55838Y8683D1*
X54058Y8339D1*
X52442Y8100D1*
X50640Y7913D1*
X49010Y7815D1*
X47199Y7786D1*
X45568Y7831D1*
X43761Y7960D1*
X42142Y8147D1*
X40354Y8432D1*
X38758Y8759D1*
X37002Y9199D1*
X35443Y9664D1*
X33732Y10255D1*
X32220Y10853D1*
X30567Y11592D1*
X29114Y12318D1*
X27533Y13198D1*
X26150Y14048D1*
X24652Y15061D1*
X23349Y16028D1*
X21945Y17168D1*
X20733Y18244D1*
X19434Y19501D1*
X18320Y20677D1*
X17136Y22043D1*
X16130Y23311D1*
X15070Y24774D1*
X14179Y26124D1*
X13251Y27674D1*
X12482Y29095D1*
X11692Y30719D1*
X11050Y32201D1*
X10405Y33888D1*
X9896Y35418D1*
X9400Y37154D1*
X9026Y38722D1*
X8684Y40494D1*
X8448Y42088D1*
X8261Y43882D1*
X8165Y45489D1*
X8136Y47293D1*
X8180Y48901D1*
X8309Y50699D1*
X8493Y52296D1*
X8777Y54076D1*
X9099Y55650D1*
X9537Y57398D1*
X9995Y58936D1*
X10584Y60639D1*
X11174Y62130D1*
X11908Y63775D1*
X12625Y65208D1*
X13500Y66782D1*
X14339Y68146D1*
X15347Y69637D1*
X16301Y70922D1*
X17435Y72320D1*
X18496Y73515D1*
X19748Y74808D1*
X20908Y75906D1*
X22267Y77085D1*
X23517Y78077D1*
X24974Y79132D1*
X26304Y80010D1*
X27847Y80935D1*
X29250Y81694D1*
X30866Y82480D1*
X32322Y83111D1*
X34005Y83755D1*
X35530Y84262D1*
X37242Y84750D1*
X38724Y85104D1*
X40622Y85472D1*
X42323Y85721D1*
X43919Y85879D1*
X45440Y85958D1*
X46735Y85993D1*
X46737Y86173D1*
X46765Y86421D1*
X46822Y86665D1*
X46891Y86860D1*
X84799Y67734D2*
X84770Y67545D1*
X84700Y67305D1*
X84597Y67077D1*
X84463Y66867D1*
X84300Y66677D1*
X84113Y66512D1*
X83904Y66375D1*
X83677Y66270D1*
X83438Y66197D1*
X83192Y66158D1*
X82942Y66155D1*
X82694Y66187D1*
X82453Y66254D1*
X82320Y66308D1*
X82639Y65712D1*
X83436Y64073D1*
X84096Y62550D1*
X84746Y60848D1*
X85270Y59274D1*
X85770Y57522D1*
X86155Y55910D1*
X86500Y54122D1*
X86742Y52484D1*
X86930Y50673D1*
X87029Y49021D1*
X87058Y47201D1*
X87012Y45548D1*
X86883Y43733D1*
X86694Y42092D1*
X86407Y40295D1*
X86075Y38678D1*
X85633Y36913D1*
X85162Y35332D1*
X84568Y33614D1*
X83961Y32081D1*
X83220Y30421D1*
X82482Y28948D1*
X81923Y27940D1*
X82041Y28029D1*
X82256Y28156D1*
X82487Y28252D1*
X82729Y28314D1*
X82977Y28341D1*
X83227Y28333D1*
X83473Y28289D1*
X83710Y28212D1*
X83934Y28101D1*
X84140Y27960D1*
X84325Y27792D1*
X84483Y27599D1*
X84613Y27386D1*
X84712Y27156D1*
X84777Y26915D1*
X84799Y26764D1*
X85222Y27549D1*
X85803Y28712D1*
X86348Y29892D1*
X86858Y31089D1*
X87330Y32300D1*
X87766Y33525D1*
X88164Y34763D1*
X88525Y36012D1*
X88847Y37271D1*
X89131Y38540D1*
X89376Y39817D1*
X89583Y41101D1*
X89750Y42390D1*
X89878Y43684D1*
X89966Y44981D1*
X90015Y46281D1*
X90026Y47244D1*
X90007Y48545D1*
X89948Y49844D1*
X89849Y51140D1*
X89711Y52433D1*
X89534Y53721D1*
X89317Y55003D1*
X89062Y56278D1*
X88769Y57545D1*
X88436Y58802D1*
X88066Y60048D1*
X87659Y61283D1*
X87213Y62504D1*
X86731Y63712D1*
X86213Y64904D1*
X85658Y66080D1*
X85068Y67239D1*
X84800Y67728D1*
X47244Y84278D2*
D17*
X46244Y84257D1*
X45244Y84226D1*
X44015Y84157D1*
X42494Y84005D1*
X40874Y83766D1*
X40807Y83754D1*
X39054Y83412D1*
X37645Y83073D1*
X36005Y82604D1*
X34552Y82119D1*
X32940Y81500D1*
X31553Y80897D1*
X30005Y80143D1*
X28670Y79419D1*
X27192Y78531D1*
X25926Y77693D1*
X24531Y76681D1*
X23340Y75735D1*
X22039Y74604D1*
X20935Y73557D1*
X19736Y72316D1*
X18727Y71176D1*
X17641Y69836D1*
X16734Y68611D1*
X15768Y67181D1*
X14971Y65880D1*
X14134Y64371D1*
X13452Y63005D1*
X12749Y61428D1*
X12189Y60006D1*
X11626Y58374D1*
X11191Y56907D1*
X10773Y55232D1*
X10467Y53732D1*
X10196Y52026D1*
X10022Y50504D1*
X9901Y48780D1*
X9861Y47247D1*
X9890Y45519D1*
X9983Y43987D1*
X10163Y42267D1*
X10390Y40749D1*
X10719Y39051D1*
X11078Y37556D1*
X11554Y35893D1*
X12041Y34434D1*
X12661Y32819D1*
X13274Y31407D1*
X14033Y29851D1*
X14767Y28496D1*
X15658Y27012D1*
X16509Y25726D1*
X17526Y24325D1*
X18487Y23116D1*
X19623Y21809D1*
X20685Y20688D1*
X21931Y19484D1*
X23089Y18459D1*
X24435Y17368D1*
X25678Y16448D1*
X27115Y15478D1*
X28435Y14668D1*
X29951Y13827D1*
X31338Y13135D1*
X32922Y12429D1*
X34365Y11860D1*
X36005Y11295D1*
X37493Y10853D1*
X39176Y10433D1*
X40698Y10122D1*
X42413Y9850D1*
X43957Y9674D1*
X45689Y9552D1*
X47244Y9511D1*
X48981Y9540D1*
X50535Y9635D1*
X52263Y9816D1*
X53804Y10045D1*
X55510Y10376D1*
X57026Y10740D1*
X58697Y11218D1*
X60178Y11713D1*
X61801Y12335D1*
X63234Y12957D1*
X64797Y13719D1*
X66171Y14464D1*
X67663Y15360D1*
X68968Y16223D1*
X70376Y17245D1*
X71602Y18219D1*
X72916Y19360D1*
X74053Y20439D1*
X75263Y21690D1*
X76302Y22865D1*
X77399Y24217D1*
X78333Y25479D1*
X79307Y26922D1*
X80129Y28261D1*
X80974Y29785D1*
X81676Y31191D1*
X82386Y32783D1*
X82963Y34247D1*
X83531Y35894D1*
X83979Y37404D1*
X84401Y39096D1*
X84716Y40640D1*
X84990Y42362D1*
X85169Y43929D1*
X85292Y45669D1*
X85334Y47247D1*
X85304Y48992D1*
X85208Y50568D1*
X85026Y52304D1*
X84794Y53868D1*
X84461Y55582D1*
X84093Y57121D1*
X83612Y58799D1*
X83110Y60301D1*
X82485Y61932D1*
X81854Y63386D1*
X81089Y64956D1*
X80332Y66350D1*
X79433Y67849D1*
X78558Y69173D1*
X77531Y70588D1*
X76542Y71831D1*
X75396Y73151D1*
X74302Y74305D1*
X73045Y75520D1*
X71854Y76575D1*
X70495Y77677D1*
X69215Y78625D1*
X67765Y79604D1*
X66407Y80437D1*
X64876Y81286D1*
X63449Y81999D1*
X61851Y82711D1*
X60365Y83297D1*
X58706Y83870D1*
X57179Y84322D1*
X55495Y84742D1*
X53913Y85066D1*
X52118Y85354D1*
X50593Y85523D1*
X49040Y85624D1*
X48557Y85872D1*
X47244Y82848D2*
X46244Y82827D1*
X45244Y82795D1*
X44140Y82732D1*
X42649Y82583D1*
X41058Y82347D1*
X41055Y82346D1*
X39337Y82010D1*
X38015Y81693D1*
X36406Y81232D1*
X35041Y80776D1*
X33460Y80169D1*
X32157Y79603D1*
X30639Y78863D1*
X29384Y78182D1*
X27936Y77311D1*
X26745Y76524D1*
X25377Y75530D1*
X24258Y74641D1*
X22982Y73532D1*
X21944Y72547D1*
X20769Y71331D1*
X19820Y70259D1*
X18755Y68944D1*
X17903Y67792D1*
X16956Y66390D1*
X16207Y65167D1*
X15386Y63687D1*
X14745Y62402D1*
X14056Y60855D1*
X13529Y59518D1*
X12977Y57917D1*
X12569Y56538D1*
X12159Y54895D1*
X11871Y53484D1*
X11606Y51811D1*
X11442Y50379D1*
X11324Y48689D1*
X11286Y47247D1*
X11315Y45552D1*
X11403Y44111D1*
X11580Y42425D1*
X11793Y40996D1*
X12116Y39331D1*
X12454Y37925D1*
X12921Y36294D1*
X13380Y34921D1*
X13988Y33337D1*
X14565Y32008D1*
X15309Y30482D1*
X16000Y29208D1*
X16874Y27752D1*
X17675Y26542D1*
X18673Y25168D1*
X19577Y24031D1*
X20691Y22749D1*
X21691Y21694D1*
X22914Y20513D1*
X24003Y19549D1*
X25324Y18479D1*
X26494Y17613D1*
X27904Y16661D1*
X29146Y15900D1*
X30633Y15075D1*
X31939Y14424D1*
X33493Y13731D1*
X34851Y13196D1*
X36460Y12641D1*
X37860Y12226D1*
X39512Y11814D1*
X40945Y11522D1*
X42627Y11255D1*
X44081Y11089D1*
X45780Y10970D1*
X47244Y10931D1*
X48948Y10960D1*
X50411Y11050D1*
X52106Y11227D1*
X53557Y11444D1*
X55231Y11769D1*
X56659Y12111D1*
X58298Y12581D1*
X59692Y13047D1*
X61285Y13657D1*
X62634Y14244D1*
X64168Y14991D1*
X65462Y15693D1*
X66925Y16572D1*
X68154Y17385D1*
X69535Y18388D1*
X70690Y19306D1*
X71979Y20426D1*
X73050Y21441D1*
X74237Y22670D1*
X75216Y23776D1*
X76292Y25103D1*
X77172Y26292D1*
X78128Y27708D1*
X78901Y28970D1*
X79730Y30465D1*
X80392Y31790D1*
X81088Y33352D1*
X81631Y34731D1*
X82189Y36348D1*
X82611Y37771D1*
X83025Y39431D1*
X83322Y40886D1*
X83590Y42576D1*
X83758Y44053D1*
X83878Y45760D1*
X83918Y47247D1*
X83888Y48959D1*
X83798Y50445D1*
X83620Y52148D1*
X83400Y53622D1*
X83073Y55304D1*
X82726Y56754D1*
X82254Y58402D1*
X81781Y59817D1*
X81167Y61418D1*
X80572Y62788D1*
X79821Y64329D1*
X79108Y65643D1*
X78225Y67114D1*
X77399Y68362D1*
X76392Y69750D1*
X75460Y70922D1*
X74334Y72218D1*
X73303Y73306D1*
X72069Y74498D1*
X70945Y75493D1*
X69611Y76574D1*
X68405Y77467D1*
X66981Y78428D1*
X65700Y79214D1*
X64198Y80047D1*
X62852Y80719D1*
X61284Y81417D1*
X59883Y81970D1*
X58254Y82532D1*
X56813Y82959D1*
X55161Y83371D1*
X53668Y83676D1*
X51906Y83958D1*
X50470Y84117D1*
X48946Y84216D1*
X47244Y84278D1*
Y81399D2*
X46244Y81378D1*
X45244Y81345D1*
X44266Y81289D1*
X42805Y81143D1*
X41307Y80920D1*
X39624Y80590D1*
X38390Y80294D1*
X36814Y79843D1*
X35536Y79415D1*
X33988Y78821D1*
X32769Y78290D1*
X31282Y77566D1*
X30108Y76928D1*
X28689Y76075D1*
X27575Y75338D1*
X26235Y74365D1*
X25188Y73532D1*
X23939Y72446D1*
X22967Y71524D1*
X21816Y70333D1*
X20928Y69329D1*
X19885Y68041D1*
X19087Y66963D1*
X18160Y65589D1*
X17459Y64444D1*
X16655Y62994D1*
X16055Y61791D1*
X15380Y60276D1*
X14887Y59024D1*
X14347Y57455D1*
X13965Y56164D1*
X13563Y54554D1*
X13294Y53233D1*
X13034Y51594D1*
X12882Y50253D1*
X12766Y48597D1*
X12730Y47247D1*
X12759Y45586D1*
X12841Y44237D1*
X13015Y42585D1*
X13215Y41247D1*
X13532Y39615D1*
X13848Y38299D1*
X14306Y36700D1*
X14736Y35415D1*
X15332Y33863D1*
X15873Y32618D1*
X16602Y31123D1*
X17250Y29930D1*
X18106Y28503D1*
X18857Y27370D1*
X19835Y26023D1*
X20682Y24958D1*
X21774Y23702D1*
X22711Y22714D1*
X23909Y21557D1*
X24930Y20654D1*
X26224Y19605D1*
X27321Y18793D1*
X28702Y17861D1*
X29867Y17148D1*
X31324Y16340D1*
X32547Y15730D1*
X34070Y15051D1*
X35343Y14550D1*
X36920Y14006D1*
X38233Y13617D1*
X39852Y13214D1*
X41195Y12940D1*
X42843Y12679D1*
X44206Y12523D1*
X45871Y12407D1*
X47244Y12371D1*
X48914Y12400D1*
X50286Y12483D1*
X51947Y12658D1*
X53308Y12861D1*
X54948Y13179D1*
X56287Y13501D1*
X57893Y13961D1*
X59200Y14398D1*
X60761Y14997D1*
X62026Y15547D1*
X63529Y16280D1*
X64743Y16939D1*
X66177Y17800D1*
X67329Y18563D1*
X68683Y19546D1*
X69766Y20407D1*
X71029Y21505D1*
X72034Y22458D1*
X73197Y23662D1*
X74115Y24700D1*
X75169Y26001D1*
X75995Y27116D1*
X76932Y28504D1*
X77657Y29688D1*
X78470Y31153D1*
X79090Y32397D1*
X79772Y33928D1*
X80282Y35222D1*
X80828Y36807D1*
X81224Y38142D1*
X81630Y39769D1*
X81908Y41135D1*
X82171Y42792D1*
X82329Y44178D1*
X82446Y45851D1*
X82483Y47247D1*
X82454Y48925D1*
X82369Y50320D1*
X82194Y51990D1*
X81987Y53373D1*
X81667Y55022D1*
X81341Y56383D1*
X80878Y57998D1*
X80434Y59327D1*
X79832Y60896D1*
X79273Y62182D1*
X78536Y63693D1*
X77866Y64927D1*
X77001Y66368D1*
X76226Y67540D1*
X75237Y68901D1*
X74362Y70002D1*
X73259Y71271D1*
X72290Y72293D1*
X71080Y73462D1*
X70025Y74396D1*
X68717Y75455D1*
X67583Y76294D1*
X66188Y77236D1*
X64984Y77974D1*
X63511Y78791D1*
X62247Y79421D1*
X60710Y80106D1*
X59393Y80625D1*
X57796Y81176D1*
X56443Y81577D1*
X54823Y81980D1*
X53419Y82268D1*
X52557Y82416D1*
X50905Y82638D1*
X50345Y82693D1*
X48851Y82789D1*
X47244Y82848D1*
Y79931D2*
X46244Y79910D1*
X45245Y79877D1*
X44394Y79827D1*
X42965Y79683D1*
X41562Y79474D1*
X39915Y79152D1*
X38769Y78876D1*
X37228Y78435D1*
X36038Y78036D1*
X34524Y77455D1*
X33389Y76961D1*
X31935Y76252D1*
X30841Y75658D1*
X29453Y74824D1*
X28416Y74137D1*
X27106Y73185D1*
X26131Y72409D1*
X24908Y71346D1*
X24004Y70488D1*
X22878Y69322D1*
X22051Y68387D1*
X21031Y67127D1*
X20288Y66122D1*
X19381Y64778D1*
X18727Y63711D1*
X17941Y62292D1*
X17383Y61172D1*
X16723Y59689D1*
X16263Y58523D1*
X15735Y56988D1*
X15379Y55785D1*
X14986Y54210D1*
X14736Y52979D1*
X14482Y51375D1*
X14340Y50126D1*
X14226Y48505D1*
X14194Y47247D1*
X14222Y45622D1*
X14299Y44365D1*
X14469Y42748D1*
X14656Y41501D1*
X14966Y39904D1*
X15261Y38677D1*
X15709Y37113D1*
X16110Y35915D1*
X16693Y34396D1*
X17198Y33236D1*
X17911Y31773D1*
X18516Y30661D1*
X19354Y29265D1*
X20054Y28208D1*
X21011Y26890D1*
X21801Y25898D1*
X22870Y24668D1*
X23744Y23747D1*
X24917Y22615D1*
X25869Y21773D1*
X27136Y20747D1*
X28159Y19990D1*
X29511Y19078D1*
X30597Y18412D1*
X32023Y17622D1*
X33164Y17053D1*
X34655Y16389D1*
X35843Y15921D1*
X37386Y15390D1*
X38611Y15027D1*
X40195Y14632D1*
X41448Y14377D1*
X43062Y14122D1*
X44334Y13977D1*
X45963Y13863D1*
X47244Y13829D1*
X48878Y13858D1*
X50159Y13936D1*
X51785Y14107D1*
X53054Y14297D1*
X54660Y14609D1*
X55909Y14909D1*
X57482Y15360D1*
X58702Y15768D1*
X60229Y16354D1*
X61410Y16868D1*
X62882Y17585D1*
X64014Y18200D1*
X65418Y19044D1*
X66494Y19756D1*
X67819Y20719D1*
X68830Y21523D1*
X70066Y22597D1*
X71004Y23487D1*
X72142Y24666D1*
X73000Y25635D1*
X74032Y26909D1*
X74802Y27951D1*
X75719Y29310D1*
X76397Y30416D1*
X77192Y31850D1*
X77771Y33012D1*
X78439Y34511D1*
X78915Y35720D1*
X79449Y37272D1*
X79819Y38519D1*
X80216Y40112D1*
X80476Y41387D1*
X80733Y43010D1*
X80880Y44304D1*
X80995Y45943D1*
X81029Y47247D1*
X81001Y48890D1*
X80921Y50193D1*
X80749Y51828D1*
X80556Y53121D1*
X80242Y54735D1*
X79937Y56007D1*
X79484Y57588D1*
X79068Y58830D1*
X78479Y60366D1*
X77956Y61568D1*
X77235Y63048D1*
X76609Y64201D1*
X75761Y65612D1*
X75036Y66707D1*
X74068Y68039D1*
X73250Y69068D1*
X72169Y70312D1*
X71264Y71266D1*
X70078Y72411D1*
X69092Y73284D1*
X67811Y74321D1*
X66751Y75106D1*
X65384Y76028D1*
X64259Y76718D1*
X62816Y77517D1*
X61634Y78107D1*
X60128Y78777D1*
X58897Y79263D1*
X57333Y79802D1*
X56068Y80176D1*
X54481Y80571D1*
X53168Y80840D1*
X52323Y80986D1*
X50706Y81202D1*
X50219Y81249D1*
X48755Y81343D1*
X47244Y81399D1*
Y78444D2*
X46244Y78423D1*
X45245Y78388D1*
X44524Y78345D1*
X43128Y78205D1*
X41820Y78010D1*
X40211Y77695D1*
X39154Y77440D1*
X37649Y77009D1*
X36546Y76640D1*
X35067Y76071D1*
X34016Y75614D1*
X32596Y74921D1*
X31584Y74371D1*
X30228Y73556D1*
X29268Y72920D1*
X27988Y71990D1*
X27085Y71272D1*
X25891Y70233D1*
X25054Y69438D1*
X23954Y68298D1*
X23188Y67433D1*
X22191Y66201D1*
X21504Y65271D1*
X20618Y63957D1*
X20013Y62969D1*
X19244Y61583D1*
X18727Y60545D1*
X18083Y59096D1*
X17657Y58016D1*
X17141Y56516D1*
X16812Y55402D1*
X16428Y53862D1*
X16196Y52722D1*
X15948Y51154D1*
X15817Y49997D1*
X15706Y48413D1*
X15676Y47247D1*
X15704Y45659D1*
X15776Y44494D1*
X15942Y42914D1*
X16115Y41758D1*
X16419Y40198D1*
X16692Y39061D1*
X17130Y37532D1*
X17502Y36422D1*
X18072Y34937D1*
X18540Y33862D1*
X19238Y32432D1*
X19798Y31401D1*
X20618Y30037D1*
X21267Y29057D1*
X22203Y27769D1*
X22935Y26849D1*
X23980Y25647D1*
X24791Y24793D1*
X25937Y23687D1*
X26820Y22906D1*
X28059Y21903D1*
X29007Y21202D1*
X30329Y20310D1*
X31336Y19693D1*
X32731Y18921D1*
X33790Y18393D1*
X35247Y17745D1*
X36348Y17311D1*
X37857Y16792D1*
X38994Y16455D1*
X40543Y16069D1*
X41705Y15833D1*
X43282Y15583D1*
X44462Y15449D1*
X46056Y15338D1*
X47244Y15307D1*
X48842Y15335D1*
X50030Y15408D1*
X51619Y15575D1*
X52798Y15752D1*
X54367Y16057D1*
X55527Y16335D1*
X57064Y16777D1*
X58197Y17156D1*
X59690Y17729D1*
X60786Y18206D1*
X62225Y18908D1*
X63276Y19479D1*
X64648Y20304D1*
X65647Y20965D1*
X66943Y21906D1*
X67881Y22653D1*
X69090Y23704D1*
X69961Y24531D1*
X71074Y25683D1*
X71870Y26584D1*
X72879Y27829D1*
X73594Y28797D1*
X74491Y30126D1*
X75120Y31153D1*
X75897Y32556D1*
X76435Y33635D1*
X77088Y35101D1*
X77530Y36224D1*
X78052Y37742D1*
X78395Y38900D1*
X78784Y40458D1*
X79025Y41643D1*
X79276Y43230D1*
X79413Y44433D1*
X79525Y46035D1*
X79556Y47247D1*
X79528Y48854D1*
X79454Y50065D1*
X79286Y51664D1*
X79106Y52865D1*
X78799Y54444D1*
X78515Y55626D1*
X78072Y57172D1*
X77685Y58327D1*
X77108Y59829D1*
X76622Y60946D1*
X75917Y62393D1*
X75335Y63465D1*
X74505Y64845D1*
X73831Y65863D1*
X72884Y67166D1*
X72123Y68123D1*
X71066Y69339D1*
X70224Y70227D1*
X69064Y71346D1*
X68147Y72158D1*
X66894Y73172D1*
X65908Y73902D1*
X64571Y74803D1*
X63524Y75445D1*
X62113Y76227D1*
X61013Y76775D1*
X59540Y77431D1*
X58395Y77882D1*
X56864Y78409D1*
X55687Y78757D1*
X54135Y79144D1*
X52913Y79394D1*
X52087Y79536D1*
X50506Y79746D1*
X50091Y79786D1*
X48659Y79878D1*
X47244Y79931D1*
Y76937D2*
X46244Y76917D1*
X45245Y76881D1*
X44655Y76845D1*
X43293Y76708D1*
X42081Y76528D1*
X40512Y76220D1*
X39544Y75986D1*
X38075Y75565D1*
X37061Y75225D1*
X35618Y74671D1*
X34652Y74250D1*
X33267Y73574D1*
X32336Y73068D1*
X31013Y72273D1*
X30131Y71688D1*
X28882Y70780D1*
X28052Y70119D1*
X26887Y69105D1*
X26117Y68374D1*
X25044Y67262D1*
X24340Y66466D1*
X23368Y65264D1*
X22735Y64409D1*
X21871Y63126D1*
X21314Y62218D1*
X20565Y60864D1*
X20089Y59910D1*
X19460Y58496D1*
X19069Y57502D1*
X18566Y56038D1*
X18263Y55013D1*
X17889Y53510D1*
X17675Y52461D1*
X17434Y50931D1*
X17313Y49866D1*
X17205Y48320D1*
X17177Y47247D1*
X17205Y45697D1*
X17271Y44625D1*
X17434Y43083D1*
X17593Y42019D1*
X17890Y40496D1*
X18141Y39449D1*
X18570Y37957D1*
X18912Y36935D1*
X19469Y35486D1*
X19900Y34496D1*
X20581Y33101D1*
X21097Y32151D1*
X21898Y30820D1*
X22495Y29917D1*
X23409Y28661D1*
X24084Y27813D1*
X25104Y26640D1*
X25851Y25853D1*
X26970Y24774D1*
X27783Y24054D1*
X28993Y23076D1*
X29867Y22429D1*
X31157Y21559D1*
X32085Y20991D1*
X33447Y20237D1*
X34423Y19751D1*
X35845Y19118D1*
X36861Y18718D1*
X38334Y18212D1*
X39381Y17902D1*
X40893Y17525D1*
X41965Y17307D1*
X43505Y17064D1*
X44593Y16940D1*
X46148Y16832D1*
X47244Y16804D1*
X48804Y16831D1*
X49899Y16899D1*
X51451Y17062D1*
X52538Y17225D1*
X54070Y17523D1*
X55140Y17780D1*
X56641Y18211D1*
X57685Y18561D1*
X59143Y19121D1*
X60154Y19561D1*
X61559Y20247D1*
X62529Y20774D1*
X63868Y21579D1*
X64790Y22189D1*
X66055Y23109D1*
X66921Y23798D1*
X68101Y24824D1*
X68904Y25587D1*
X69991Y26713D1*
X70726Y27544D1*
X71710Y28761D1*
X72371Y29653D1*
X73246Y30952D1*
X73826Y31900D1*
X74586Y33270D1*
X75082Y34266D1*
X75719Y35698D1*
X76127Y36735D1*
X76637Y38217D1*
X76954Y39287D1*
X77332Y40808D1*
X77555Y41903D1*
X77800Y43452D1*
X77926Y44563D1*
X78035Y46128D1*
X78064Y47247D1*
X78037Y48816D1*
X77968Y49935D1*
X77803Y51496D1*
X77637Y52606D1*
X77337Y54148D1*
X77075Y55240D1*
X76641Y56750D1*
X76284Y57817D1*
X75721Y59284D1*
X75272Y60316D1*
X74582Y61729D1*
X74044Y62720D1*
X73234Y64068D1*
X72611Y65009D1*
X71686Y66281D1*
X70982Y67165D1*
X69949Y68353D1*
X69170Y69173D1*
X68038Y70267D1*
X67189Y71017D1*
X65965Y72008D1*
X65054Y72682D1*
X63748Y73562D1*
X62780Y74155D1*
X61401Y74919D1*
X60384Y75426D1*
X58945Y76066D1*
X57886Y76484D1*
X56391Y76998D1*
X55302Y77320D1*
X53786Y77697D1*
X52654Y77928D1*
X51847Y78068D1*
X50305Y78271D1*
X49961Y78304D1*
X48563Y78395D1*
X47244Y78444D1*
Y75412D2*
X46244Y75392D1*
X45245Y75355D1*
X44788Y75326D1*
X43461Y75192D1*
X42346Y75026D1*
X40818Y74726D1*
X39938Y74514D1*
X38508Y74103D1*
X37582Y73793D1*
X36176Y73252D1*
X35297Y72869D1*
X33947Y72210D1*
X33098Y71749D1*
X31810Y70973D1*
X31004Y70440D1*
X29788Y69555D1*
X29031Y68953D1*
X27896Y67965D1*
X27194Y67298D1*
X26149Y66214D1*
X25506Y65487D1*
X24559Y64316D1*
X23982Y63536D1*
X23140Y62286D1*
X22633Y61457D1*
X21903Y60138D1*
X21469Y59267D1*
X20856Y57889D1*
X20499Y56982D1*
X20009Y55555D1*
X19732Y54619D1*
X19368Y53155D1*
X19173Y52197D1*
X18938Y50706D1*
X18828Y49733D1*
X18723Y48227D1*
X18698Y47247D1*
X18725Y45737D1*
X18786Y44757D1*
X18944Y43255D1*
X19090Y42283D1*
X19379Y40799D1*
X19609Y39842D1*
X20027Y38389D1*
X20340Y37455D1*
X20883Y36043D1*
X21277Y35138D1*
X21941Y33778D1*
X22412Y32910D1*
X23193Y31613D1*
X23739Y30789D1*
X24630Y29564D1*
X25247Y28789D1*
X26241Y27646D1*
X26924Y26927D1*
X28015Y25875D1*
X28759Y25217D1*
X29938Y24263D1*
X30737Y23672D1*
X31995Y22825D1*
X32844Y22305D1*
X34171Y21570D1*
X35064Y21126D1*
X36451Y20509D1*
X37379Y20144D1*
X38815Y19650D1*
X39774Y19367D1*
X41248Y19000D1*
X42228Y18801D1*
X43729Y18564D1*
X44725Y18451D1*
X46241Y18345D1*
X47244Y18319D1*
X48765Y18347D1*
X49767Y18408D1*
X51280Y18568D1*
X52275Y18717D1*
X53769Y19008D1*
X54748Y19244D1*
X56211Y19664D1*
X57167Y19984D1*
X58589Y20531D1*
X59514Y20934D1*
X60883Y21602D1*
X61772Y22085D1*
X63078Y22870D1*
X63922Y23429D1*
X65155Y24326D1*
X65948Y24957D1*
X67098Y25958D1*
X67834Y26657D1*
X68893Y27755D1*
X69566Y28517D1*
X70526Y29703D1*
X71131Y30521D1*
X71985Y31787D1*
X72517Y32656D1*
X73256Y33992D1*
X73711Y34905D1*
X74332Y36301D1*
X74706Y37252D1*
X75203Y38697D1*
X75493Y39678D1*
X75863Y41161D1*
X76066Y42165D1*
X76305Y43676D1*
X76421Y44694D1*
X76527Y46221D1*
X76553Y47247D1*
X76526Y48777D1*
X76463Y49803D1*
X76302Y51326D1*
X76150Y52344D1*
X75857Y53847D1*
X75616Y54849D1*
X75193Y56322D1*
X74865Y57300D1*
X74316Y58731D1*
X73903Y59678D1*
X73231Y61056D1*
X72737Y61965D1*
X71946Y63280D1*
X71374Y64143D1*
X70472Y65384D1*
X69826Y66195D1*
X68819Y67354D1*
X68104Y68106D1*
X66999Y69173D1*
X66220Y69861D1*
X65026Y70828D1*
X64189Y71446D1*
X62915Y72305D1*
X62026Y72850D1*
X60681Y73594D1*
X59747Y74060D1*
X58343Y74684D1*
X57370Y75067D1*
X55912Y75569D1*
X54912Y75864D1*
X53433Y76232D1*
X52393Y76445D1*
X51606Y76581D1*
X50103Y76777D1*
X49830Y76803D1*
X48466Y76892D1*
X47244Y76937D1*
Y73868D2*
X46244Y73848D1*
X44922Y73788D1*
X43633Y73658D1*
X42614Y73506D1*
X41128Y73214D1*
X40338Y73023D1*
X38947Y72623D1*
X38110Y72343D1*
X36743Y71817D1*
X35949Y71471D1*
X34636Y70830D1*
X33870Y70413D1*
X32617Y69659D1*
X31889Y69176D1*
X30706Y68316D1*
X30023Y67771D1*
X28919Y66810D1*
X28284Y66207D1*
X27268Y65153D1*
X26687Y64496D1*
X25767Y63358D1*
X25245Y62651D1*
X24426Y61436D1*
X23967Y60686D1*
X23258Y59404D1*
X22865Y58615D1*
X22270Y57275D1*
X21947Y56455D1*
X21470Y55067D1*
X21220Y54220D1*
X20866Y52796D1*
X20690Y51929D1*
X20461Y50479D1*
X20362Y49599D1*
X20260Y48134D1*
X20238Y47247D1*
X20264Y45778D1*
X20319Y44891D1*
X20474Y43430D1*
X20606Y42550D1*
X20887Y41107D1*
X21096Y40241D1*
X21502Y38827D1*
X21786Y37981D1*
X22314Y36607D1*
X22671Y35788D1*
X23317Y34465D1*
X23744Y33679D1*
X24504Y32417D1*
X24999Y31671D1*
X25865Y30479D1*
X26425Y29777D1*
X27392Y28665D1*
X28011Y28014D1*
X29072Y26990D1*
X29747Y26394D1*
X30894Y25467D1*
X31619Y24931D1*
X32842Y24107D1*
X33612Y23636D1*
X34904Y22921D1*
X35713Y22518D1*
X37062Y21918D1*
X37905Y21587D1*
X39302Y21107D1*
X40171Y20850D1*
X41605Y20493D1*
X42495Y20313D1*
X43956Y20082D1*
X44859Y19980D1*
X46334Y19878D1*
X47244Y19854D1*
X48724Y19881D1*
X49634Y19937D1*
X51106Y20093D1*
X52008Y20228D1*
X53462Y20512D1*
X54351Y20725D1*
X55775Y21135D1*
X56643Y21426D1*
X58026Y21958D1*
X58866Y22324D1*
X60199Y22974D1*
X61005Y23413D1*
X62276Y24177D1*
X63042Y24685D1*
X64242Y25558D1*
X64962Y26132D1*
X66082Y27106D1*
X66750Y27741D1*
X67781Y28810D1*
X68393Y29501D1*
X69327Y30656D1*
X69876Y31400D1*
X70707Y32632D1*
X71190Y33422D1*
X71910Y34723D1*
X72323Y35553D1*
X72928Y36911D1*
X73267Y37775D1*
X73751Y39182D1*
X74015Y40074D1*
X74374Y41518D1*
X74559Y42431D1*
X74791Y43901D1*
X74896Y44828D1*
X74999Y46314D1*
X75023Y47247D1*
X74996Y48737D1*
X74939Y49670D1*
X74782Y51152D1*
X74643Y52078D1*
X74358Y53542D1*
X74139Y54453D1*
X73727Y55887D1*
X73429Y56777D1*
X72893Y58170D1*
X72518Y59032D1*
X71863Y60374D1*
X71413Y61201D1*
X70643Y62481D1*
X70122Y63267D1*
X69244Y64475D1*
X68656Y65213D1*
X67675Y66341D1*
X67023Y67026D1*
X65947Y68064D1*
X65238Y68691D1*
X64075Y69632D1*
X63313Y70196D1*
X62072Y71032D1*
X61262Y71527D1*
X59953Y72252D1*
X59102Y72676D1*
X57735Y73284D1*
X56848Y73633D1*
X55428Y74121D1*
X54517Y74390D1*
X53076Y74748D1*
X52128Y74942D1*
X51361Y75075D1*
X49899Y75265D1*
X49697Y75284D1*
X48368Y75370D1*
X47244Y75412D1*
Y72304D2*
X46244Y72285D1*
X45059Y72231D1*
X43807Y72104D1*
X42886Y71966D1*
X41444Y71683D1*
X40742Y71513D1*
X39393Y71126D1*
X38645Y70875D1*
X37318Y70364D1*
X36609Y70055D1*
X35335Y69433D1*
X34651Y69060D1*
X33435Y68328D1*
X32785Y67897D1*
X31637Y67062D1*
X31026Y66575D1*
X29955Y65643D1*
X29388Y65103D1*
X28402Y64081D1*
X27883Y63493D1*
X26989Y62388D1*
X26523Y61756D1*
X25729Y60577D1*
X25318Y59906D1*
X24630Y58661D1*
X24279Y57956D1*
X23701Y56655D1*
X23413Y55921D1*
X22950Y54575D1*
X22726Y53817D1*
X22383Y52434D1*
X22226Y51659D1*
X22004Y50251D1*
X21915Y49463D1*
X21816Y48041D1*
X21796Y47247D1*
X21822Y45821D1*
X21871Y45027D1*
X22022Y43608D1*
X22140Y42821D1*
X22414Y41420D1*
X22600Y40644D1*
X22995Y39271D1*
X23249Y38514D1*
X23762Y37180D1*
X24082Y36446D1*
X24710Y35162D1*
X25093Y34458D1*
X25830Y33233D1*
X26274Y32563D1*
X27116Y31407D1*
X27617Y30778D1*
X28557Y29698D1*
X29112Y29114D1*
X30142Y28121D1*
X30747Y27586D1*
X31861Y26686D1*
X32511Y26206D1*
X33699Y25405D1*
X34390Y24983D1*
X35644Y24289D1*
X36370Y23927D1*
X37681Y23345D1*
X38437Y23048D1*
X39793Y22582D1*
X40574Y22351D1*
X41966Y22005D1*
X42765Y21843D1*
X44183Y21620D1*
X44994Y21528D1*
X46427Y21429D1*
X47244Y21408D1*
X48681Y21434D1*
X49498Y21485D1*
X50928Y21636D1*
X51739Y21758D1*
X53150Y22033D1*
X53949Y22226D1*
X55332Y22623D1*
X56111Y22885D1*
X57455Y23402D1*
X58210Y23731D1*
X59504Y24363D1*
X60229Y24757D1*
X61463Y25500D1*
X62152Y25957D1*
X63318Y26805D1*
X63965Y27320D1*
X65053Y28267D1*
X65653Y28838D1*
X66655Y29876D1*
X67204Y30499D1*
X68112Y31621D1*
X68606Y32289D1*
X69413Y33487D1*
X69847Y34197D1*
X70547Y35461D1*
X70918Y36208D1*
X71505Y37528D1*
X71811Y38306D1*
X72280Y39673D1*
X72517Y40475D1*
X72866Y41879D1*
X73033Y42700D1*
X73258Y44129D1*
X73353Y44963D1*
X73453Y46407D1*
X73474Y47247D1*
X73448Y48695D1*
X73396Y49535D1*
X73244Y50976D1*
X73118Y51809D1*
X72841Y53232D1*
X72643Y54053D1*
X72243Y55446D1*
X71974Y56248D1*
X71453Y57602D1*
X71115Y58378D1*
X70478Y59682D1*
X70073Y60427D1*
X69324Y61671D1*
X68855Y62379D1*
X68001Y63553D1*
X67471Y64219D1*
X66517Y65315D1*
X65930Y65933D1*
X64884Y66941D1*
X64244Y67507D1*
X63114Y68421D1*
X62426Y68929D1*
X61220Y69741D1*
X60490Y70188D1*
X59216Y70893D1*
X58449Y71275D1*
X57119Y71866D1*
X56319Y72181D1*
X54939Y72655D1*
X54117Y72898D1*
X52717Y73246D1*
X51859Y73421D1*
X51114Y73550D1*
X50406Y73652D1*
X49563Y73745D1*
X48270Y73829D1*
X47244Y73868D1*
Y70722D2*
X46244Y70703D1*
X45196Y70655D1*
X43985Y70532D1*
X43160Y70409D1*
X41765Y70134D1*
X41152Y69986D1*
X39845Y69610D1*
X39185Y69389D1*
X37902Y68894D1*
X37277Y68622D1*
X36044Y68019D1*
X35441Y67691D1*
X34264Y66982D1*
X33691Y66603D1*
X32581Y65794D1*
X32042Y65365D1*
X31005Y64462D1*
X30505Y63986D1*
X29551Y62996D1*
X29093Y62478D1*
X28228Y61407D1*
X27817Y60850D1*
X27048Y59708D1*
X26686Y59116D1*
X26019Y57911D1*
X25710Y57289D1*
X25151Y56029D1*
X24896Y55381D1*
X24448Y54077D1*
X24251Y53408D1*
X23918Y52069D1*
X23780Y51385D1*
X23565Y50021D1*
X23487Y49326D1*
X23392Y47948D1*
X23374Y47247D1*
X23399Y45866D1*
X23443Y45165D1*
X23589Y43791D1*
X23693Y43094D1*
X23958Y41738D1*
X24124Y41052D1*
X24506Y39723D1*
X24731Y39053D1*
X25228Y37761D1*
X25511Y37113D1*
X26119Y35869D1*
X26458Y35246D1*
X27172Y34059D1*
X27565Y33467D1*
X28380Y32347D1*
X28824Y31790D1*
X29734Y30745D1*
X30225Y30228D1*
X31224Y29266D1*
X31759Y28793D1*
X32839Y27921D1*
X33414Y27496D1*
X34566Y26720D1*
X35177Y26346D1*
X36393Y25674D1*
X37035Y25354D1*
X38305Y24790D1*
X38975Y24527D1*
X40290Y24076D1*
X40981Y23872D1*
X42331Y23536D1*
X43038Y23393D1*
X44413Y23176D1*
X45131Y23095D1*
X46520Y22999D1*
X47244Y22981D1*
X48637Y23007D1*
X49361Y23051D1*
X50747Y23198D1*
X51466Y23306D1*
X52834Y23574D1*
X53542Y23744D1*
X54882Y24130D1*
X55574Y24362D1*
X56876Y24863D1*
X57546Y25155D1*
X58800Y25768D1*
X59443Y26118D1*
X60640Y26838D1*
X61251Y27243D1*
X62381Y28066D1*
X62955Y28524D1*
X64009Y29441D1*
X64543Y29949D1*
X65513Y30955D1*
X66002Y31508D1*
X66881Y32596D1*
X67320Y33190D1*
X68102Y34351D1*
X68488Y34982D1*
X69166Y36207D1*
X69496Y36871D1*
X70065Y38151D1*
X70336Y38842D1*
X70791Y40168D1*
X71002Y40881D1*
X71340Y42242D1*
X71488Y42972D1*
X71706Y44358D1*
X71790Y45100D1*
X71887Y46500D1*
X71906Y47247D1*
X71880Y48651D1*
X71834Y49398D1*
X71686Y50795D1*
X71575Y51537D1*
X71305Y52916D1*
X71129Y53647D1*
X70741Y54998D1*
X70501Y55712D1*
X69996Y57025D1*
X69695Y57716D1*
X69077Y58980D1*
X68716Y59644D1*
X67990Y60850D1*
X67572Y61481D1*
X66743Y62619D1*
X66271Y63212D1*
X65346Y64275D1*
X64823Y64825D1*
X63808Y65804D1*
X63238Y66307D1*
X62141Y67194D1*
X61528Y67647D1*
X60358Y68435D1*
X59707Y68833D1*
X58472Y69517D1*
X57788Y69857D1*
X56498Y70430D1*
X55784Y70711D1*
X54445Y71171D1*
X53713Y71387D1*
X52354Y71724D1*
X51588Y71880D1*
X50865Y72006D1*
X50179Y72105D1*
X49426Y72187D1*
X48173Y72269D1*
X47244Y72304D1*
Y69120D2*
X46244Y69102D1*
X45336Y69059D1*
X44167Y68941D1*
X43438Y68832D1*
X42091Y68567D1*
X41566Y68440D1*
X40305Y68077D1*
X39733Y67885D1*
X38493Y67408D1*
X37953Y67172D1*
X36763Y66590D1*
X36241Y66306D1*
X35105Y65621D1*
X34609Y65292D1*
X33536Y64511D1*
X33070Y64139D1*
X32069Y63267D1*
X31636Y62855D1*
X30714Y61899D1*
X30318Y61450D1*
X29483Y60416D1*
X29126Y59933D1*
X28384Y58830D1*
X28070Y58317D1*
X27427Y57153D1*
X27158Y56613D1*
X26618Y55397D1*
X26397Y54835D1*
X25965Y53575D1*
X25794Y52995D1*
X25473Y51702D1*
X25353Y51107D1*
X25146Y49790D1*
X25077Y49186D1*
X24986Y47856D1*
X24971Y47247D1*
X24995Y45913D1*
X25033Y45304D1*
X25174Y43976D1*
X25265Y43372D1*
X25521Y42061D1*
X25665Y41465D1*
X26035Y40181D1*
X26230Y39599D1*
X26711Y38351D1*
X26957Y37787D1*
X27544Y36585D1*
X27839Y36043D1*
X28530Y34897D1*
X28871Y34382D1*
X29659Y33300D1*
X30045Y32815D1*
X30925Y31805D1*
X31353Y31356D1*
X32318Y30426D1*
X32784Y30014D1*
X33827Y29171D1*
X34328Y28801D1*
X35441Y28052D1*
X35974Y27726D1*
X37149Y27077D1*
X37709Y26798D1*
X38936Y26253D1*
X39520Y26024D1*
X40791Y25588D1*
X41393Y25410D1*
X42698Y25086D1*
X43315Y24961D1*
X44643Y24752D1*
X45270Y24681D1*
X46612Y24589D1*
X47244Y24573D1*
X48590Y24598D1*
X49222Y24637D1*
X50562Y24779D1*
X51189Y24874D1*
X52512Y25132D1*
X53130Y25281D1*
X54426Y25654D1*
X55030Y25857D1*
X56289Y26341D1*
X56874Y26597D1*
X58086Y27189D1*
X58648Y27495D1*
X59805Y28192D1*
X60339Y28546D1*
X61431Y29341D1*
X61933Y29741D1*
X62952Y30629D1*
X63419Y31073D1*
X64357Y32046D1*
X64784Y32529D1*
X65634Y33582D1*
X66018Y34101D1*
X66774Y35224D1*
X67112Y35777D1*
X67767Y36961D1*
X68056Y37542D1*
X68606Y38780D1*
X68844Y39386D1*
X69284Y40668D1*
X69468Y41292D1*
X69795Y42608D1*
X69924Y43248D1*
X70135Y44588D1*
X70209Y45238D1*
X70302Y46592D1*
X70319Y47247D1*
X70294Y48605D1*
X70253Y49260D1*
X70110Y50611D1*
X70012Y51262D1*
X69751Y52596D1*
X69597Y53236D1*
X69221Y54543D1*
X69011Y55169D1*
X68522Y56439D1*
X68258Y57046D1*
X67660Y58269D1*
X67343Y58851D1*
X66640Y60018D1*
X66273Y60571D1*
X65471Y61673D1*
X65057Y62193D1*
X64161Y63221D1*
X63702Y63705D1*
X62720Y64651D1*
X62219Y65094D1*
X61158Y65951D1*
X60620Y66349D1*
X59487Y67111D1*
X58915Y67461D1*
X57720Y68123D1*
X57118Y68422D1*
X55870Y68976D1*
X55243Y69223D1*
X53947Y69668D1*
X53303Y69858D1*
X51988Y70184D1*
X51313Y70321D1*
X50613Y70443D1*
X49288Y70610D1*
X48075Y70689D1*
X47244Y70722D1*
Y67500D2*
X46244Y67482D1*
X45477Y67445D1*
X44352Y67331D1*
X43720Y67237D1*
X42423Y66981D1*
X41985Y66875D1*
X40772Y66526D1*
X40287Y66363D1*
X39094Y65904D1*
X38638Y65704D1*
X37492Y65144D1*
X37050Y64904D1*
X35957Y64245D1*
X35537Y63966D1*
X34505Y63214D1*
X34110Y62900D1*
X33147Y62060D1*
X32780Y61711D1*
X31893Y60790D1*
X31557Y60410D1*
X30753Y59415D1*
X30451Y59006D1*
X29737Y57944D1*
X29471Y57509D1*
X28851Y56388D1*
X28624Y55930D1*
X28104Y54759D1*
X27917Y54282D1*
X27501Y53069D1*
X27355Y52576D1*
X27047Y51331D1*
X26945Y50826D1*
X26745Y49559D1*
X26687Y49046D1*
X26599Y47764D1*
X26586Y47247D1*
X26610Y45962D1*
X26643Y45445D1*
X26778Y44166D1*
X26856Y43652D1*
X27103Y42390D1*
X27225Y41883D1*
X27581Y40646D1*
X27748Y40151D1*
X28210Y38949D1*
X28420Y38469D1*
X28986Y37312D1*
X29237Y36851D1*
X29902Y35746D1*
X30193Y35308D1*
X30953Y34265D1*
X31281Y33853D1*
X32129Y32880D1*
X32494Y32496D1*
X33424Y31601D1*
X33821Y31250D1*
X34826Y30438D1*
X35253Y30122D1*
X36326Y29401D1*
X36780Y29123D1*
X37912Y28497D1*
X38390Y28259D1*
X39573Y27734D1*
X40071Y27539D1*
X41296Y27119D1*
X41810Y26967D1*
X43067Y26655D1*
X43595Y26548D1*
X44875Y26347D1*
X45411Y26287D1*
X46704Y26198D1*
X47244Y26184D1*
X48542Y26208D1*
X49082Y26242D1*
X50373Y26379D1*
X50910Y26460D1*
X52184Y26709D1*
X52713Y26836D1*
X53962Y27196D1*
X54479Y27370D1*
X55692Y27837D1*
X56194Y28055D1*
X57362Y28627D1*
X57843Y28889D1*
X58958Y29561D1*
X59416Y29864D1*
X60469Y30631D1*
X60899Y30974D1*
X61882Y31830D1*
X62281Y32210D1*
X63186Y33149D1*
X63552Y33563D1*
X64372Y34578D1*
X64701Y35024D1*
X65430Y36106D1*
X65719Y36580D1*
X66351Y37723D1*
X66599Y38222D1*
X67129Y39416D1*
X67333Y39935D1*
X67758Y41172D1*
X67916Y41708D1*
X68231Y42977D1*
X68342Y43527D1*
X68545Y44820D1*
X68608Y45378D1*
X68698Y46684D1*
X68713Y47247D1*
X68688Y48557D1*
X68653Y49120D1*
X68515Y50423D1*
X68431Y50983D1*
X68179Y52270D1*
X68046Y52821D1*
X67683Y54082D1*
X67502Y54620D1*
X67031Y55845D1*
X66803Y56368D1*
X66226Y57547D1*
X65953Y58049D1*
X65275Y59174D1*
X64959Y59651D1*
X64185Y60714D1*
X63828Y61162D1*
X62964Y62154D1*
X62568Y62571D1*
X61620Y63484D1*
X61189Y63865D1*
X60164Y64693D1*
X59700Y65036D1*
X58607Y65771D1*
X58114Y66073D1*
X56960Y66711D1*
X56441Y66969D1*
X55236Y67504D1*
X54695Y67717D1*
X53444Y68146D1*
X52888Y68310D1*
X51619Y68625D1*
X51035Y68744D1*
X50360Y68862D1*
X49149Y69015D1*
X47978Y69091D1*
X47244Y69120D1*
Y65860D2*
X46244Y65842D1*
X45620Y65812D1*
X44542Y65703D1*
X44004Y65622D1*
X42761Y65377D1*
X42409Y65292D1*
X41246Y64957D1*
X40847Y64823D1*
X39703Y64383D1*
X39330Y64220D1*
X38232Y63682D1*
X37869Y63485D1*
X36821Y62853D1*
X36477Y62625D1*
X35487Y61904D1*
X35163Y61645D1*
X34239Y60840D1*
X33938Y60554D1*
X33087Y59670D1*
X32811Y59358D1*
X32040Y58403D1*
X31792Y58067D1*
X31107Y57048D1*
X30888Y56690D1*
X30294Y55615D1*
X30107Y55239D1*
X29608Y54115D1*
X29454Y53722D1*
X29055Y52559D1*
X28935Y52153D1*
X28639Y50958D1*
X28555Y50543D1*
X28364Y49326D1*
X28316Y48903D1*
X28232Y47674D1*
X28221Y47247D1*
X28244Y46014D1*
X28271Y45587D1*
X28401Y44360D1*
X28465Y43936D1*
X28702Y42724D1*
X28803Y42306D1*
X29145Y41119D1*
X29283Y40710D1*
X29727Y39556D1*
X29900Y39159D1*
X30444Y38049D1*
X30651Y37667D1*
X31290Y36607D1*
X31531Y36244D1*
X32260Y35244D1*
X32532Y34902D1*
X33346Y33968D1*
X33648Y33651D1*
X34541Y32791D1*
X34870Y32500D1*
X35835Y31721D1*
X36189Y31459D1*
X37219Y30766D1*
X37596Y30536D1*
X38683Y29935D1*
X39080Y29738D1*
X40215Y29234D1*
X40629Y29072D1*
X41805Y28668D1*
X42232Y28542D1*
X43440Y28243D1*
X43878Y28154D1*
X45107Y27961D1*
X45553Y27911D1*
X46795Y27825D1*
X47244Y27814D1*
X48490Y27837D1*
X48940Y27865D1*
X50180Y27997D1*
X50627Y28064D1*
X51851Y28304D1*
X52292Y28410D1*
X53491Y28756D1*
X53922Y28900D1*
X55088Y29349D1*
X55505Y29532D1*
X56628Y30081D1*
X57029Y30299D1*
X58100Y30945D1*
X58482Y31198D1*
X59494Y31935D1*
X59853Y32221D1*
X60797Y33043D1*
X61131Y33361D1*
X62000Y34263D1*
X62305Y34609D1*
X63093Y35584D1*
X63368Y35957D1*
X64068Y36998D1*
X64311Y37394D1*
X64918Y38492D1*
X65125Y38909D1*
X65634Y40057D1*
X65805Y40492D1*
X66213Y41680D1*
X66345Y42129D1*
X66648Y43349D1*
X66741Y43809D1*
X66936Y45052D1*
X66989Y45520D1*
X67075Y46775D1*
X67087Y47247D1*
X67064Y48506D1*
X67034Y48979D1*
X66901Y50231D1*
X66831Y50701D1*
X66589Y51938D1*
X66477Y52400D1*
X66128Y53613D1*
X65976Y54065D1*
X65523Y55243D1*
X65331Y55681D1*
X64776Y56816D1*
X64547Y57237D1*
X63895Y58319D1*
X63629Y58720D1*
X62885Y59742D1*
X62584Y60119D1*
X61753Y61073D1*
X61420Y61423D1*
X60509Y62301D1*
X60146Y62622D1*
X59160Y63418D1*
X58769Y63707D1*
X57718Y64414D1*
X57302Y64668D1*
X56193Y65282D1*
X55755Y65499D1*
X54597Y66014D1*
X54140Y66193D1*
X52936Y66606D1*
X52468Y66744D1*
X51247Y67047D1*
X50753Y67147D1*
X50104Y67261D1*
X49007Y67400D1*
X47881Y67474D1*
X47244Y67500D1*
Y64202D2*
X46244Y64184D1*
X45765Y64160D1*
X44735Y64056D1*
X44292Y63990D1*
X43106Y63756D1*
X42838Y63691D1*
X41728Y63371D1*
X41414Y63266D1*
X40322Y62845D1*
X40030Y62718D1*
X38982Y62205D1*
X38698Y62050D1*
X37697Y61447D1*
X37427Y61268D1*
X36482Y60579D1*
X36228Y60376D1*
X35345Y59607D1*
X35109Y59382D1*
X34297Y58539D1*
X34080Y58293D1*
X33344Y57382D1*
X33148Y57117D1*
X32494Y56144D1*
X32322Y55863D1*
X31754Y54836D1*
X31607Y54539D1*
X31131Y53466D1*
X31009Y53156D1*
X30628Y52045D1*
X30534Y51725D1*
X30251Y50584D1*
X30184Y50255D1*
X30002Y49093D1*
X29964Y48759D1*
X29883Y47584D1*
X29875Y47247D1*
X29897Y46069D1*
X29918Y45731D1*
X30043Y44559D1*
X30094Y44223D1*
X30320Y43065D1*
X30400Y42734D1*
X30727Y41599D1*
X30836Y41275D1*
X31261Y40173D1*
X31398Y39858D1*
X31917Y38796D1*
X32082Y38493D1*
X32693Y37480D1*
X32884Y37192D1*
X33581Y36235D1*
X33797Y35964D1*
X34576Y35071D1*
X34816Y34819D1*
X35669Y33996D1*
X35931Y33765D1*
X36854Y33020D1*
X37136Y32811D1*
X38121Y32149D1*
X38421Y31965D1*
X39461Y31391D1*
X39777Y31234D1*
X40863Y30752D1*
X41193Y30622D1*
X42318Y30236D1*
X42659Y30136D1*
X43814Y29849D1*
X44164Y29779D1*
X45340Y29594D1*
X45696Y29554D1*
X46885Y29472D1*
X47244Y29463D1*
X48436Y29485D1*
X48796Y29508D1*
X49983Y29634D1*
X50340Y29688D1*
X51512Y29917D1*
X51865Y30002D1*
X53013Y30333D1*
X53358Y30449D1*
X54474Y30879D1*
X54809Y31025D1*
X55883Y31551D1*
X56205Y31726D1*
X57230Y32344D1*
X57537Y32547D1*
X58505Y33252D1*
X58794Y33483D1*
X59698Y34270D1*
X59966Y34525D1*
X60798Y35389D1*
X61044Y35668D1*
X61798Y36601D1*
X62020Y36901D1*
X62690Y37897D1*
X62885Y38217D1*
X63466Y39268D1*
X63634Y39605D1*
X64121Y40703D1*
X64259Y41054D1*
X64649Y42192D1*
X64756Y42555D1*
X65046Y43723D1*
X65121Y44095D1*
X65308Y45285D1*
X65351Y45663D1*
X65433Y46865D1*
X65443Y47247D1*
X65420Y48453D1*
X65397Y48835D1*
X65269Y50035D1*
X65212Y50415D1*
X64980Y51600D1*
X64890Y51975D1*
X64555Y53136D1*
X64432Y53503D1*
X63997Y54631D1*
X63842Y54987D1*
X63311Y56074D1*
X63125Y56416D1*
X62500Y57452D1*
X62284Y57778D1*
X61571Y58757D1*
X61326Y59063D1*
X60530Y59977D1*
X60259Y60262D1*
X59386Y61104D1*
X59090Y61365D1*
X58146Y62127D1*
X57828Y62362D1*
X56821Y63040D1*
X56482Y63247D1*
X55418Y63835D1*
X55062Y64012D1*
X53951Y64505D1*
X53579Y64651D1*
X52425Y65047D1*
X52044Y65159D1*
X50873Y65450D1*
X50468Y65532D1*
X49846Y65642D1*
X48865Y65767D1*
X47784Y65838D1*
X47244Y65860D1*
Y62524D2*
X46244Y62506D1*
X45911Y62489D1*
X44934Y62390D1*
X44583Y62338D1*
X43457Y62116D1*
X43272Y62071D1*
X42218Y61768D1*
X41987Y61690D1*
X40951Y61291D1*
X40739Y61198D1*
X39743Y60711D1*
X39536Y60598D1*
X38585Y60026D1*
X38388Y59895D1*
X37490Y59241D1*
X37305Y59093D1*
X36467Y58362D1*
X36294Y58198D1*
X35522Y57397D1*
X35363Y57217D1*
X34663Y56351D1*
X34520Y56157D1*
X33898Y55232D1*
X33772Y55025D1*
X33233Y54050D1*
X33124Y53831D1*
X32672Y52812D1*
X32582Y52584D1*
X32220Y51528D1*
X32150Y51292D1*
X31881Y50207D1*
X31832Y49965D1*
X31659Y48860D1*
X31631Y48613D1*
X31554Y47497D1*
X31548Y47247D1*
X31569Y46127D1*
X31584Y45877D1*
X31703Y44763D1*
X31740Y44513D1*
X31956Y43413D1*
X32015Y43166D1*
X32326Y42088D1*
X32407Y41847D1*
X32811Y40799D1*
X32913Y40564D1*
X33407Y39555D1*
X33530Y39329D1*
X34110Y38365D1*
X34253Y38150D1*
X34916Y37241D1*
X35077Y37038D1*
X35817Y36188D1*
X35997Y36000D1*
X36809Y35218D1*
X37005Y35044D1*
X37883Y34335D1*
X38094Y34179D1*
X39031Y33549D1*
X39256Y33411D1*
X40245Y32865D1*
X40483Y32747D1*
X41516Y32288D1*
X41764Y32191D1*
X42835Y31824D1*
X43091Y31748D1*
X44190Y31475D1*
X44454Y31422D1*
X45573Y31246D1*
X45842Y31216D1*
X46973Y31138D1*
X47244Y31131D1*
X48379Y31152D1*
X48651Y31169D1*
X49780Y31289D1*
X50051Y31330D1*
X51166Y31548D1*
X51434Y31613D1*
X52526Y31928D1*
X52788Y32016D1*
X53850Y32425D1*
X54104Y32536D1*
X55127Y33036D1*
X55372Y33169D1*
X56348Y33757D1*
X56582Y33912D1*
X57503Y34584D1*
X57723Y34759D1*
X58584Y35509D1*
X58788Y35703D1*
X59581Y36526D1*
X59768Y36738D1*
X60487Y37627D1*
X60656Y37856D1*
X61294Y38805D1*
X61443Y39049D1*
X61997Y40051D1*
X62125Y40308D1*
X62589Y41355D1*
X62695Y41624D1*
X63067Y42708D1*
X63149Y42986D1*
X63425Y44099D1*
X63482Y44384D1*
X63661Y45518D1*
X63693Y45808D1*
X63772Y46954D1*
X63780Y47247D1*
X63758Y48396D1*
X63740Y48690D1*
X63618Y49834D1*
X63574Y50126D1*
X63353Y51256D1*
X63284Y51545D1*
X62965Y52652D1*
X62870Y52934D1*
X62456Y54010D1*
X62336Y54284D1*
X61829Y55321D1*
X61685Y55585D1*
X61090Y56573D1*
X60923Y56825D1*
X60243Y57759D1*
X60054Y57996D1*
X59295Y58867D1*
X59085Y59088D1*
X58252Y59890D1*
X58023Y60092D1*
X57122Y60820D1*
X56876Y61002D1*
X55915Y61649D1*
X55652Y61809D1*
X54637Y62370D1*
X54360Y62508D1*
X53301Y62978D1*
X53011Y63092D1*
X51911Y63469D1*
X51614Y63557D1*
X50497Y63834D1*
X50180Y63898D1*
X49586Y64003D1*
X48720Y64114D1*
X47689Y64183D1*
X47244Y64202D1*
Y60827D2*
X46244Y60809D1*
X46059Y60799D1*
X45137Y60706D1*
X44878Y60667D1*
X43816Y60458D1*
X43711Y60433D1*
X42717Y60147D1*
X42567Y60097D1*
X41590Y59720D1*
X41455Y59662D1*
X40516Y59203D1*
X40383Y59130D1*
X39486Y58590D1*
X39360Y58507D1*
X38513Y57890D1*
X38394Y57795D1*
X37603Y57106D1*
X37492Y57000D1*
X36763Y56244D1*
X36661Y56128D1*
X36000Y55311D1*
X35908Y55185D1*
X35321Y54313D1*
X35239Y54179D1*
X34729Y53258D1*
X34659Y53116D1*
X34231Y52153D1*
X34173Y52005D1*
X33831Y51008D1*
X33785Y50853D1*
X33531Y49829D1*
X33499Y49671D1*
X33335Y48628D1*
X33317Y48466D1*
X33244Y47411D1*
X33240Y47247D1*
X33259Y46189D1*
X33270Y46024D1*
X33381Y44972D1*
X33406Y44807D1*
X33609Y43767D1*
X33649Y43604D1*
X33942Y42585D1*
X33996Y42425D1*
X34377Y41435D1*
X34445Y41279D1*
X34912Y40325D1*
X34994Y40174D1*
X35542Y39263D1*
X35637Y39120D1*
X36264Y38260D1*
X36372Y38124D1*
X37071Y37321D1*
X37192Y37194D1*
X37959Y36455D1*
X38091Y36339D1*
X38921Y35668D1*
X39063Y35563D1*
X39949Y34967D1*
X40101Y34874D1*
X41036Y34357D1*
X41196Y34277D1*
X42174Y33843D1*
X42342Y33777D1*
X43354Y33430D1*
X43528Y33378D1*
X44568Y33120D1*
X44747Y33084D1*
X45806Y32917D1*
X45989Y32897D1*
X47059Y32823D1*
X47244Y32818D1*
X48318Y32838D1*
X48504Y32850D1*
X49572Y32963D1*
X49758Y32991D1*
X50814Y33198D1*
X50997Y33242D1*
X52031Y33540D1*
X52211Y33600D1*
X53217Y33987D1*
X53392Y34064D1*
X54360Y34537D1*
X54529Y34629D1*
X55454Y35186D1*
X55615Y35293D1*
X56488Y35928D1*
X56640Y36050D1*
X57455Y36760D1*
X57597Y36895D1*
X58347Y37673D1*
X58478Y37821D1*
X59158Y38663D1*
X59276Y38822D1*
X59881Y39721D1*
X59985Y39891D1*
X60509Y40840D1*
X60599Y41020D1*
X61039Y42012D1*
X61113Y42199D1*
X61465Y43226D1*
X61523Y43421D1*
X61785Y44476D1*
X61825Y44676D1*
X61994Y45751D1*
X62017Y45955D1*
X62092Y47041D1*
X62097Y47247D1*
X62077Y48336D1*
X62064Y48544D1*
X61949Y49628D1*
X61918Y49834D1*
X61709Y50905D1*
X61659Y51110D1*
X61357Y52159D1*
X61290Y52359D1*
X60897Y53379D1*
X60812Y53574D1*
X60332Y54556D1*
X60230Y54744D1*
X59665Y55682D1*
X59546Y55861D1*
X58901Y56746D1*
X58767Y56915D1*
X58047Y57742D1*
X57897Y57900D1*
X57107Y58661D1*
X56943Y58806D1*
X56089Y59496D1*
X55912Y59626D1*
X55001Y60240D1*
X54812Y60355D1*
X53850Y60887D1*
X53651Y60986D1*
X52646Y61432D1*
X52437Y61514D1*
X51393Y61873D1*
X51180Y61935D1*
X50120Y62198D1*
X49889Y62246D1*
X49325Y62346D1*
X48574Y62442D1*
X47595Y62509D1*
X47244Y62524D1*
Y59112D2*
X46363Y59098D1*
X46208Y59090D1*
X45347Y59004D1*
X45176Y58978D1*
X44225Y58793D1*
X44155Y58776D1*
X43225Y58510D1*
X43154Y58486D1*
X42239Y58134D1*
X42180Y58108D1*
X41301Y57679D1*
X41241Y57646D1*
X40401Y57141D1*
X40343Y57103D1*
X39551Y56526D1*
X39495Y56482D1*
X38755Y55838D1*
X38703Y55788D1*
X38021Y55081D1*
X37973Y55027D1*
X37355Y54262D1*
X37311Y54203D1*
X36761Y53386D1*
X36722Y53322D1*
X36245Y52460D1*
X36211Y52392D1*
X35810Y51491D1*
X35782Y51419D1*
X35461Y50486D1*
X35439Y50410D1*
X35200Y49451D1*
X35185Y49374D1*
X35030Y48397D1*
X35021Y48316D1*
X34953Y47329D1*
X34951Y47247D1*
X34969Y46256D1*
X34974Y46174D1*
X35078Y45187D1*
X35091Y45104D1*
X35281Y44130D1*
X35301Y44047D1*
X35575Y43092D1*
X35603Y43010D1*
X35960Y42081D1*
X35995Y42001D1*
X36432Y41107D1*
X36474Y41029D1*
X36988Y40175D1*
X37037Y40100D1*
X37624Y39293D1*
X37681Y39222D1*
X38337Y38469D1*
X38400Y38403D1*
X39119Y37709D1*
X39189Y37647D1*
X39967Y37018D1*
X40043Y36962D1*
X40873Y36403D1*
X40955Y36353D1*
X41832Y35868D1*
X41918Y35825D1*
X42835Y35417D1*
X42926Y35382D1*
X43875Y35055D1*
X43970Y35027D1*
X44946Y34785D1*
X45043Y34765D1*
X46037Y34608D1*
X46138Y34597D1*
X47142Y34527D1*
X47244Y34525D1*
X48252Y34543D1*
X48355Y34549D1*
X49359Y34656D1*
X49462Y34671D1*
X50453Y34864D1*
X50556Y34889D1*
X51527Y35168D1*
X51628Y35202D1*
X52573Y35566D1*
X52671Y35609D1*
X53581Y36053D1*
X53677Y36105D1*
X54546Y36628D1*
X54637Y36689D1*
X55458Y37286D1*
X55545Y37355D1*
X56311Y38022D1*
X56392Y38099D1*
X57098Y38831D1*
X57173Y38916D1*
X57813Y39707D1*
X57881Y39799D1*
X58450Y40644D1*
X58510Y40743D1*
X59003Y41635D1*
X59056Y41739D1*
X59470Y42672D1*
X59513Y42782D1*
X59845Y43748D1*
X59879Y43862D1*
X60125Y44854D1*
X60149Y44972D1*
X60308Y45982D1*
X60322Y46103D1*
X60393Y47125D1*
X60396Y47247D1*
X60377Y48272D1*
X60369Y48395D1*
X60261Y49416D1*
X60243Y49539D1*
X60046Y50547D1*
X60017Y50669D1*
X59733Y51657D1*
X59692Y51778D1*
X59323Y52738D1*
X59271Y52855D1*
X58819Y53781D1*
X58758Y53894D1*
X58226Y54777D1*
X58154Y54886D1*
X57547Y55720D1*
X57465Y55823D1*
X56787Y56602D1*
X56695Y56698D1*
X55951Y57415D1*
X55851Y57504D1*
X55047Y58154D1*
X54938Y58235D1*
X54079Y58813D1*
X53963Y58884D1*
X53056Y59386D1*
X52933Y59447D1*
X51986Y59868D1*
X51856Y59919D1*
X50872Y60257D1*
X50741Y60296D1*
X49742Y60544D1*
X49594Y60574D1*
X48662Y60726D1*
X48426Y60752D1*
X47504Y60815D1*
X47244Y60827D1*
Y57377D2*
X46430Y57366D1*
X46359Y57362D1*
X45563Y57283D1*
X45477Y57270D1*
X44604Y57101D1*
X43747Y56856D1*
X42912Y56537D1*
X42107Y56145D1*
X41337Y55683D1*
X40609Y55155D1*
X39928Y54563D1*
X39300Y53913D1*
X38729Y53209D1*
X38221Y52457D1*
X37780Y51660D1*
X37409Y50827D1*
X37111Y49963D1*
X36889Y49074D1*
Y49073D1*
X36745Y48168D1*
Y48166D1*
X36681Y47250D1*
Y47247D1*
X36697Y46329D1*
Y46324D1*
X36793Y45410D1*
X36794Y45404D1*
X36970Y44501D1*
X36971Y44494D1*
X37225Y43608D1*
X37227Y43601D1*
X37558Y42740D1*
X37561Y42732D1*
X37966Y41902D1*
X37971Y41893D1*
X38447Y41100D1*
X38453Y41091D1*
X38997Y40342D1*
X39005Y40333D1*
X39613Y39634D1*
X39622Y39624D1*
X40289Y38980D1*
X40299Y38970D1*
X41021Y38386D1*
X41033Y38377D1*
X41804Y37857D1*
X41818Y37849D1*
X42632Y37397D1*
X42648Y37390D1*
X43499Y37010D1*
X43516Y37004D1*
X44398Y36700D1*
X44417Y36695D1*
X45323Y36469D1*
X45343Y36465D1*
X46267Y36318D1*
X46288Y36316D1*
X47222Y36251D1*
X47244Y36250D1*
X48181Y36266D1*
X48205Y36268D1*
X49138Y36366D1*
X49162Y36370D1*
X50084Y36549D1*
X50109Y36555D1*
X51013Y36814D1*
X51039Y36823D1*
X51917Y37160D1*
X51943Y37171D1*
X52790Y37584D1*
X52815Y37598D1*
X53624Y38084D1*
X53649Y38101D1*
X54413Y38656D1*
X54437Y38675D1*
X55150Y39295D1*
X55174Y39318D1*
X55831Y39999D1*
X55853Y40023D1*
X56449Y40760D1*
X56470Y40787D1*
X57000Y41574D1*
X57019Y41604D1*
X57479Y42434D1*
X57495Y42467D1*
X57881Y43336D1*
X57895Y43370D1*
X58205Y44270D1*
X58216Y44307D1*
X58446Y45232D1*
X58454Y45271D1*
X58603Y46212D1*
X58608Y46253D1*
X58674Y47205D1*
X58675Y47247D1*
X58658Y48202D1*
X58656Y48245D1*
X58555Y49197D1*
X58549Y49240D1*
X58366Y50180D1*
X58355Y50224D1*
X58091Y51146D1*
X58076Y51190D1*
X57732Y52085D1*
X57713Y52129D1*
X57292Y52992D1*
X57269Y53035D1*
X56773Y53859D1*
X56746Y53900D1*
X56180Y54679D1*
X56149Y54719D1*
X55516Y55446D1*
X55480Y55483D1*
X54786Y56153D1*
X54747Y56188D1*
X53996Y56796D1*
X53953Y56828D1*
X53151Y57368D1*
X53104Y57397D1*
X52258Y57866D1*
X52208Y57891D1*
X51323Y58284D1*
X51269Y58306D1*
X50350Y58622D1*
X50296Y58638D1*
X49363Y58870D1*
X49296Y58884D1*
X48440Y59024D1*
X48276Y59042D1*
X47414Y59103D1*
X47244Y59112D1*
Y55623D2*
X46512Y55615D1*
X45788Y55545D1*
X45781Y55544D1*
X45058Y55408D1*
X44346Y55209D1*
X43653Y54949D1*
X42983Y54627D1*
X42342Y54248D1*
X41735Y53813D1*
X41167Y53325D1*
X40641Y52788D1*
X40164Y52205D1*
X39737Y51581D1*
X39366Y50921D1*
X39053Y50228D1*
X38801Y49509D1*
X38612Y48769D1*
X38488Y48013D1*
X38430Y47247D1*
X38439Y46477D1*
X38516Y45708D1*
X38660Y44947D1*
X38870Y44199D1*
X39145Y43471D1*
X39484Y42767D1*
X39884Y42094D1*
X40343Y41456D1*
X40857Y40859D1*
X41422Y40308D1*
X42035Y39807D1*
X42691Y39361D1*
X43385Y38972D1*
X44113Y38644D1*
X44868Y38380D1*
X45646Y38183D1*
X46440Y38054D1*
X47244Y37994D1*
X48053Y38005D1*
X48860Y38087D1*
X49658Y38239D1*
X50442Y38461D1*
X51206Y38751D1*
X51944Y39107D1*
X52649Y39528D1*
X53317Y40010D1*
X53942Y40549D1*
X54519Y41143D1*
X55043Y41786D1*
X55511Y42475D1*
X55917Y43203D1*
X56260Y43966D1*
X56535Y44758D1*
X56740Y45573D1*
X56874Y46405D1*
X56936Y47247D1*
X56923Y48094D1*
X56836Y48938D1*
X56676Y49774D1*
X56443Y50595D1*
X56138Y51394D1*
X55764Y52166D1*
X55323Y52904D1*
X54818Y53602D1*
X54252Y54255D1*
X53630Y54858D1*
X52957Y55405D1*
X52236Y55893D1*
X51474Y56317D1*
X50676Y56674D1*
X49847Y56961D1*
X48995Y57175D1*
X48125Y57314D1*
X47329Y57372D1*
X47244Y57377D1*
Y53850D2*
X46667Y53849D1*
X46089Y53798D1*
X45516Y53696D1*
X44952Y53544D1*
X44402Y53343D1*
X43869Y53093D1*
X43358Y52797D1*
X42873Y52456D1*
X42419Y52073D1*
X41998Y51650D1*
X41614Y51190D1*
X41270Y50696D1*
X40970Y50173D1*
X40716Y49623D1*
X40510Y49052D1*
X40354Y48462D1*
X40250Y47859D1*
X40198Y47247D1*
X40200Y46631D1*
X40257Y46015D1*
X40367Y45404D1*
X40531Y44803D1*
X40747Y44217D1*
X41014Y43650D1*
X41331Y43107D1*
X41696Y42591D1*
X42105Y42108D1*
X42557Y41661D1*
X43047Y41253D1*
X43574Y40889D1*
X44131Y40571D1*
X44716Y40302D1*
X45325Y40084D1*
X45952Y39920D1*
X46594Y39811D1*
X47244Y39758D1*
X47899Y39762D1*
X48553Y39823D1*
X49202Y39942D1*
X49840Y40117D1*
X50462Y40348D1*
X51063Y40633D1*
X51639Y40971D1*
X52185Y41359D1*
X52697Y41795D1*
X53170Y42275D1*
X53601Y42796D1*
X53986Y43355D1*
X54322Y43947D1*
X54606Y44568D1*
X54835Y45213D1*
X55008Y45878D1*
X55122Y46558D1*
X55177Y47247D1*
X55171Y47941D1*
X55105Y48633D1*
X54978Y49319D1*
X54791Y49994D1*
X54545Y50652D1*
X54242Y51287D1*
X53884Y51896D1*
X53472Y52473D1*
X53010Y53013D1*
X52502Y53512D1*
X51950Y53967D1*
X51358Y54373D1*
X50732Y54727D1*
X50075Y55025D1*
X49393Y55266D1*
X48690Y55447D1*
X47972Y55567D1*
X47249Y55623D1*
X47244D1*
Y52058D2*
X46823Y52065D1*
X46400Y52034D1*
X45980Y51966D1*
X45565Y51861D1*
X45159Y51720D1*
X44764Y51543D1*
X44385Y51331D1*
X44024Y51085D1*
X43684Y50807D1*
X43368Y50500D1*
X43079Y50164D1*
X42819Y49802D1*
X42591Y49417D1*
X42396Y49012D1*
X42237Y48589D1*
X42114Y48152D1*
X42030Y47703D1*
X41985Y47247D1*
X41981Y46787D1*
X42016Y46325D1*
X42092Y45867D1*
X42209Y45414D1*
X42365Y44972D1*
X42561Y44543D1*
X42794Y44131D1*
X43063Y43739D1*
X43367Y43370D1*
X43704Y43028D1*
X44071Y42715D1*
X44466Y42434D1*
X44885Y42188D1*
X45326Y41978D1*
X45787Y41807D1*
X46262Y41676D1*
X46749Y41587D1*
X47244Y41540D1*
X47744Y41537D1*
X48244Y41578D1*
X48741Y41662D1*
X49230Y41791D1*
X49709Y41962D1*
X50172Y42175D1*
X50618Y42429D1*
X51041Y42723D1*
X51438Y43053D1*
X51807Y43419D1*
X52143Y43817D1*
X52445Y44244D1*
X52710Y44698D1*
X52935Y45176D1*
X53117Y45673D1*
X53257Y46187D1*
X53351Y46713D1*
X53399Y47247D1*
X53401Y47786D1*
X53355Y48325D1*
X53262Y48859D1*
X53122Y49386D1*
X52935Y49901D1*
X52704Y50399D1*
X52429Y50877D1*
X52112Y51331D1*
X51755Y51758D1*
X51361Y52153D1*
X50932Y52513D1*
X50471Y52836D1*
X49982Y53119D1*
X49469Y53358D1*
X48934Y53553D1*
X48382Y53701D1*
X47818Y53800D1*
X47244Y53850D1*
Y50247D2*
X46981Y50261D1*
X46715Y50251D1*
X46448Y50218D1*
X46184Y50161D1*
X45923Y50080D1*
X45669Y49976D1*
X45423Y49849D1*
X45187Y49699D1*
X44963Y49528D1*
X44754Y49337D1*
X44560Y49127D1*
X44385Y48898D1*
X44229Y48653D1*
X44094Y48394D1*
X43982Y48121D1*
X43894Y47838D1*
X43830Y47546D1*
X43792Y47247D1*
X43780Y46944D1*
X43794Y46639D1*
X43836Y46334D1*
X43905Y46032D1*
X44001Y45735D1*
X44123Y45445D1*
X44272Y45166D1*
X44445Y44898D1*
X44643Y44646D1*
X44863Y44409D1*
X45105Y44192D1*
X45367Y43996D1*
X45647Y43821D1*
X45943Y43672D1*
X46253Y43548D1*
X46575Y43450D1*
X46906Y43382D1*
X47244Y43342D1*
X47587Y43331D1*
X47931Y43351D1*
X48275Y43402D1*
X48615Y43483D1*
X48948Y43594D1*
X49273Y43734D1*
X49585Y43904D1*
X49884Y44101D1*
X50166Y44325D1*
X50429Y44575D1*
X50670Y44848D1*
X50888Y45143D1*
X51080Y45458D1*
X51245Y45791D1*
X51381Y46139D1*
X51487Y46499D1*
X51561Y46869D1*
X51603Y47247D1*
X51611Y47629D1*
X51586Y48013D1*
X51527Y48395D1*
X51434Y48772D1*
X51308Y49142D1*
X51149Y49502D1*
X50959Y49848D1*
X50737Y50178D1*
X50486Y50489D1*
X50207Y50778D1*
X49903Y51044D1*
X49574Y51283D1*
X49224Y51493D1*
X48855Y51673D1*
X48470Y51821D1*
X48071Y51935D1*
X47661Y52015D1*
X47244Y52058D1*
X46842Y49907D2*
D18*
G02X49494Y46747I185J-2538D01*
G01*
X53494Y85560D2*
G03X48869Y86060I-2952J-5664D01*
G01*
M02*
