G04 DipTrace 2.3.1.0*
%INBottom.gbr*%
%MOIN*%
%ADD13C,0.013*%
%ADD14C,0.3*%
%ADD15C,0.5*%
%ADD16C,0.025*%
%ADD21O,0.075X0.2*%
%ADD22O,0.075X0.2125*%
%ADD24O,0.075X0.15*%
%ADD25C,0.06*%
%FSLAX44Y44*%
G04*
G70*
G90*
G75*
G01*
%LNBottom*%
%LPD*%
X47244Y55372D2*
D13*
Y53247D1*
X45244Y59122D2*
X45369D1*
X54619Y49872D1*
Y43622D1*
X52369Y41372D1*
Y10622D1*
X48994Y85997D2*
D14*
X53994D1*
X46619Y40372D2*
D13*
Y38872D1*
X40994Y33247D1*
Y9997D1*
X53369Y10622D2*
Y40497D1*
X55744Y42872D1*
Y45497D1*
X45994Y55372D2*
Y53247D1*
X45244Y59247D2*
D15*
Y50497D1*
D13*
X44994Y50747D1*
X42244Y9872D2*
Y32872D1*
X47869Y38497D1*
Y40497D1*
X55744Y48622D2*
Y50747D1*
X51744Y54747D1*
Y59997D1*
X51619Y84997D2*
D15*
Y58122D1*
D25*
X49119Y86372D3*
X48619Y85622D3*
X49994Y86497D3*
X50994D3*
X51994Y86372D3*
X53744Y85747D3*
X52869Y86122D3*
X46619Y49622D3*
X47494D3*
X48244Y49247D3*
X48869Y48622D3*
X49119Y47872D3*
Y46997D3*
X49744Y46497D3*
X42676Y89778D2*
D16*
X45919D1*
X48570D2*
X51821D1*
X40777Y89530D2*
X45727D1*
X48762D2*
X53708D1*
X39320Y89281D2*
X45598D1*
X48890D2*
X55157D1*
X38101Y89032D2*
X45512D1*
X48976D2*
X56379D1*
X37039Y88784D2*
X45465D1*
X49023D2*
X57450D1*
X36078Y88535D2*
X45454D1*
X54726D2*
X58422D1*
X35187Y88286D2*
X45481D1*
X55324D2*
X59294D1*
X34379Y88038D2*
X45544D1*
X55687D2*
X60106D1*
X33621Y87789D2*
X45645D1*
X55953D2*
X60879D1*
X32890Y87540D2*
X45797D1*
X56156D2*
X61583D1*
X32226Y87292D2*
X46020D1*
X56316D2*
X62270D1*
X31570Y87043D2*
X46364D1*
X56437D2*
X62911D1*
X30961Y86794D2*
X46458D1*
X56531D2*
X63532D1*
X30363Y86546D2*
X46391D1*
X56597D2*
X64118D1*
X29804Y86297D2*
X46352D1*
X56637D2*
X64688D1*
X29246Y86048D2*
X46337D1*
X56652D2*
X65231D1*
X28734Y85799D2*
X46340D1*
X56648D2*
X65766D1*
X28219Y85551D2*
X46372D1*
X56617D2*
X66266D1*
X27730Y85302D2*
X46426D1*
X56562D2*
X66766D1*
X27254Y85053D2*
X46508D1*
X56480D2*
X67235D1*
X26785Y84805D2*
X46618D1*
X56371D2*
X67700D1*
X26344Y84556D2*
X46762D1*
X56226D2*
X68153D1*
X25898Y84307D2*
X46946D1*
X56043D2*
X68583D1*
X25476Y84059D2*
X47184D1*
X55804D2*
X69016D1*
X25062Y83810D2*
X47501D1*
X55488D2*
X69426D1*
X24652Y83561D2*
X47958D1*
X55281D2*
X69829D1*
X24265Y83313D2*
X47958D1*
X55281D2*
X70231D1*
X23879Y83064D2*
X47958D1*
X55281D2*
X70610D1*
X23496Y82815D2*
X47958D1*
X55281D2*
X70985D1*
X23137Y82567D2*
X47958D1*
X55281D2*
X71360D1*
X22773Y82318D2*
X47958D1*
X55281D2*
X71712D1*
X22418Y82069D2*
X47958D1*
X55281D2*
X72067D1*
X22078Y81820D2*
X47958D1*
X55281D2*
X72419D1*
X21738Y81572D2*
X47958D1*
X55281D2*
X72747D1*
X21402Y81323D2*
X47958D1*
X55281D2*
X73079D1*
X21086Y81074D2*
X47958D1*
X55281D2*
X73411D1*
X20765Y80826D2*
X47958D1*
X55281D2*
X73723D1*
X20449Y80577D2*
X47958D1*
X55281D2*
X74036D1*
X20148Y80328D2*
X47958D1*
X55281D2*
X74344D1*
X19847Y80080D2*
X47958D1*
X55281D2*
X74641D1*
X19551Y79831D2*
X47958D1*
X55281D2*
X74934D1*
X19262Y79582D2*
X47958D1*
X55281D2*
X75227D1*
X18980Y79334D2*
X47958D1*
X55281D2*
X75516D1*
X18699Y79085D2*
X47958D1*
X55281D2*
X75790D1*
X18418Y78836D2*
X47958D1*
X55281D2*
X76063D1*
X18152Y78588D2*
X47958D1*
X55281D2*
X76340D1*
X17890Y78339D2*
X47958D1*
X55281D2*
X76602D1*
X17625Y78090D2*
X47958D1*
X55281D2*
X76860D1*
X17367Y77841D2*
X47958D1*
X55281D2*
X77118D1*
X17121Y77593D2*
X47958D1*
X55281D2*
X77376D1*
X16871Y77344D2*
X47958D1*
X55281D2*
X77618D1*
X16621Y77095D2*
X47958D1*
X55281D2*
X77864D1*
X16383Y76847D2*
X47958D1*
X55281D2*
X78106D1*
X16148Y76598D2*
X47958D1*
X55281D2*
X78344D1*
X15914Y76349D2*
X47958D1*
X55281D2*
X78571D1*
X15683Y76101D2*
X47958D1*
X55281D2*
X78801D1*
X15461Y75852D2*
X47958D1*
X55281D2*
X79032D1*
X15242Y75603D2*
X47958D1*
X55281D2*
X79251D1*
X15019Y75355D2*
X47958D1*
X55281D2*
X79465D1*
X14801Y75106D2*
X47958D1*
X55281D2*
X79680D1*
X14594Y74857D2*
X47958D1*
X55281D2*
X79899D1*
X14387Y74609D2*
X47958D1*
X55281D2*
X80106D1*
X14179Y74360D2*
X47958D1*
X55281D2*
X80305D1*
X13972Y74111D2*
X47958D1*
X55281D2*
X80508D1*
X13777Y73862D2*
X47958D1*
X55281D2*
X80712D1*
X13586Y73614D2*
X47958D1*
X55281D2*
X80907D1*
X13390Y73365D2*
X47958D1*
X55281D2*
X81098D1*
X13195Y73116D2*
X47958D1*
X55281D2*
X81290D1*
X13012Y72868D2*
X47958D1*
X55281D2*
X81477D1*
X12828Y72619D2*
X47958D1*
X55281D2*
X81665D1*
X12644Y72370D2*
X47958D1*
X55281D2*
X81840D1*
X12465Y72122D2*
X47958D1*
X55281D2*
X82020D1*
X12289Y71873D2*
X47958D1*
X55281D2*
X82200D1*
X12117Y71624D2*
X47958D1*
X55281D2*
X82376D1*
X11945Y71376D2*
X47958D1*
X55281D2*
X82544D1*
X11773Y71127D2*
X47958D1*
X55281D2*
X82712D1*
X11609Y70878D2*
X47958D1*
X55281D2*
X82879D1*
X11449Y70630D2*
X47958D1*
X55281D2*
X83047D1*
X11289Y70381D2*
X47958D1*
X55281D2*
X83204D1*
X11125Y70132D2*
X47958D1*
X55281D2*
X83360D1*
X10969Y69883D2*
X47958D1*
X55281D2*
X83516D1*
X10816Y69635D2*
X11012D1*
X11875D2*
X47958D1*
X55281D2*
X82614D1*
X83476D2*
X83672D1*
X12449Y69386D2*
X47958D1*
X55281D2*
X82040D1*
X12746Y69137D2*
X47958D1*
X55281D2*
X81743D1*
X12941Y68889D2*
X47958D1*
X55281D2*
X81547D1*
X13078Y68640D2*
X47958D1*
X55281D2*
X81411D1*
X13168Y68391D2*
X47958D1*
X55281D2*
X81321D1*
X13219Y68143D2*
X47958D1*
X55281D2*
X81270D1*
X13234Y67894D2*
X47958D1*
X55281D2*
X81254D1*
X13215Y67645D2*
X47958D1*
X55281D2*
X81274D1*
X9535Y67397D2*
X9731D1*
X13156D2*
X47958D1*
X55281D2*
X81333D1*
X84758D2*
X84958D1*
X9402Y67148D2*
X9833D1*
X13058D2*
X47958D1*
X55281D2*
X81430D1*
X84656D2*
X85090D1*
X9273Y66899D2*
X9977D1*
X12910D2*
X47958D1*
X55281D2*
X81579D1*
X84512D2*
X85215D1*
X9144Y66651D2*
X10192D1*
X12699D2*
X47958D1*
X55281D2*
X81790D1*
X84297D2*
X85344D1*
X9015Y66402D2*
X10516D1*
X12375D2*
X47958D1*
X55281D2*
X82114D1*
X83972D2*
X85469D1*
X8894Y66153D2*
X11360D1*
X11529D2*
X47958D1*
X55281D2*
X82962D1*
X83129D2*
X85594D1*
X8777Y65904D2*
X47958D1*
X55281D2*
X85715D1*
X8656Y65656D2*
X47958D1*
X55281D2*
X85833D1*
X8535Y65407D2*
X47958D1*
X55281D2*
X85950D1*
X8422Y65158D2*
X47958D1*
X55281D2*
X86067D1*
X8308Y64910D2*
X47958D1*
X55281D2*
X86184D1*
X8195Y64661D2*
X47958D1*
X55281D2*
X86294D1*
X8086Y64412D2*
X47958D1*
X55281D2*
X86403D1*
X7972Y64164D2*
X47958D1*
X55281D2*
X86508D1*
X7871Y63915D2*
X47958D1*
X55281D2*
X86618D1*
X7769Y63666D2*
X47958D1*
X55281D2*
X86723D1*
X7668Y63418D2*
X47958D1*
X55281D2*
X86825D1*
X7562Y63169D2*
X47958D1*
X55281D2*
X86922D1*
X7461Y62920D2*
X47958D1*
X55281D2*
X87024D1*
X7367Y62672D2*
X44001D1*
X46488D2*
X47958D1*
X55281D2*
X87122D1*
X7273Y62423D2*
X43450D1*
X47039D2*
X47958D1*
X55281D2*
X87219D1*
X7179Y62174D2*
X43063D1*
X47426D2*
X47958D1*
X55281D2*
X87309D1*
X7086Y61925D2*
X42762D1*
X47726D2*
X47958D1*
X55281D2*
X87399D1*
X6996Y61677D2*
X42516D1*
X55281D2*
X87489D1*
X6910Y61428D2*
X42313D1*
X55281D2*
X87579D1*
X6824Y61179D2*
X42141D1*
X55281D2*
X87669D1*
X6738Y60931D2*
X41997D1*
X55281D2*
X87751D1*
X6652Y60682D2*
X41879D1*
X55281D2*
X87833D1*
X6570Y60433D2*
X41782D1*
X55281D2*
X87915D1*
X6496Y60185D2*
X41708D1*
X55281D2*
X87997D1*
X6418Y59936D2*
X41649D1*
X55281D2*
X88075D1*
X6340Y59687D2*
X41610D1*
X55281D2*
X88149D1*
X6262Y59439D2*
X41590D1*
X55281D2*
X88223D1*
X6187Y59190D2*
X41583D1*
X55281D2*
X88297D1*
X6121Y58941D2*
X41583D1*
X55281D2*
X88372D1*
X6051Y58693D2*
X41583D1*
X55281D2*
X88442D1*
X5984Y58444D2*
X41583D1*
X55281D2*
X88504D1*
X5914Y58195D2*
X41583D1*
X55281D2*
X88571D1*
X5847Y57946D2*
X41583D1*
X55273D2*
X88637D1*
X5789Y57698D2*
X41583D1*
X55254D2*
X88704D1*
X5726Y57449D2*
X41583D1*
X55215D2*
X88766D1*
X5664Y57200D2*
X41583D1*
X55160D2*
X88825D1*
X5605Y56952D2*
X41583D1*
X55086D2*
X88879D1*
X5547Y56703D2*
X41583D1*
X54992D2*
X88938D1*
X5492Y56454D2*
X41583D1*
X54875D2*
X88997D1*
X5441Y56206D2*
X41583D1*
X54734D2*
X89051D1*
X5387Y55957D2*
X41583D1*
X54562D2*
X89102D1*
X5336Y55708D2*
X41583D1*
X54363D2*
X89153D1*
X5285Y55460D2*
X41583D1*
X54117D2*
X89200D1*
X5238Y55211D2*
X41583D1*
X53820D2*
X89251D1*
X5195Y54962D2*
X41583D1*
X53441D2*
X89297D1*
X5148Y54714D2*
X41583D1*
X53500D2*
X89340D1*
X5105Y54465D2*
X41583D1*
X53750D2*
X89383D1*
X5058Y54216D2*
X41583D1*
X53996D2*
X89426D1*
X5023Y53967D2*
X41583D1*
X54246D2*
X89465D1*
X4984Y53719D2*
X41583D1*
X54496D2*
X89508D1*
X4949Y53470D2*
X41583D1*
X54742D2*
X89544D1*
X4910Y53221D2*
X41583D1*
X54992D2*
X89579D1*
X4875Y52973D2*
X41583D1*
X55242D2*
X89610D1*
X4844Y52724D2*
X41583D1*
X55488D2*
X89645D1*
X4812Y52475D2*
X41583D1*
X55738D2*
X89680D1*
X4781Y52227D2*
X41583D1*
X55988D2*
X89708D1*
X4754Y51978D2*
X41583D1*
X56234D2*
X89735D1*
X4722Y51729D2*
X41583D1*
X56484D2*
X89762D1*
X4699Y51481D2*
X41583D1*
X56719D2*
X89786D1*
X4676Y51232D2*
X41583D1*
X56867D2*
X89813D1*
X4656Y50983D2*
X41583D1*
X56945D2*
X89837D1*
X4633Y50735D2*
X41583D1*
X56969D2*
X89856D1*
X4613Y50486D2*
X41583D1*
X56969D2*
X89876D1*
X4594Y50237D2*
X41594D1*
X56969D2*
X89891D1*
X4578Y49988D2*
X41622D1*
X56969D2*
X89911D1*
X4566Y49740D2*
X41665D1*
X56969D2*
X89926D1*
X4551Y49491D2*
X41727D1*
X56976D2*
X89938D1*
X4535Y49242D2*
X41809D1*
X57086D2*
X89950D1*
X4523Y48994D2*
X41911D1*
X57172D2*
X89962D1*
X4515Y48745D2*
X42036D1*
X57222D2*
X89973D1*
X4512Y48496D2*
X42184D1*
X57258D2*
X89981D1*
X4504Y48248D2*
X42364D1*
X57273D2*
X89985D1*
X4496Y47999D2*
X42579D1*
X57273D2*
X89989D1*
X4492Y47750D2*
X42840D1*
X57258D2*
X89993D1*
X4492Y47502D2*
X43161D1*
X57222D2*
X89997D1*
X4492Y47253D2*
X43579D1*
X57172D2*
X90001D1*
X4492Y47004D2*
X44212D1*
X57086D2*
X90001D1*
X4492Y46756D2*
X45524D1*
X57082D2*
X89997D1*
X4496Y46507D2*
X45618D1*
X57168D2*
X89993D1*
X4500Y46258D2*
X45758D1*
X57219D2*
X89989D1*
X4508Y46009D2*
X45962D1*
X57258D2*
X89981D1*
X4519Y45761D2*
X46266D1*
X57273D2*
X89969D1*
X4527Y45512D2*
X46895D1*
X57273D2*
X89962D1*
X4535Y45263D2*
X47469D1*
X57262D2*
X89954D1*
X4547Y45015D2*
X47551D1*
X57222D2*
X89942D1*
X4562Y44766D2*
X46063D1*
X47176D2*
X47312D1*
X57176D2*
X89926D1*
X4578Y44517D2*
X45680D1*
X57090D2*
X89911D1*
X4594Y44269D2*
X45454D1*
X56984D2*
X89891D1*
X4613Y44020D2*
X45313D1*
X56969D2*
X89876D1*
X4629Y43771D2*
X45208D1*
X56969D2*
X89860D1*
X4652Y43523D2*
X45141D1*
X56969D2*
X89837D1*
X4676Y43274D2*
X45102D1*
X56969D2*
X89813D1*
X4699Y43025D2*
X45087D1*
X56969D2*
X89786D1*
X4726Y42777D2*
X45098D1*
X49390D2*
X49887D1*
X56965D2*
X89762D1*
X4750Y42528D2*
X45129D1*
X49359D2*
X51801D1*
X56918D2*
X89739D1*
X4781Y42279D2*
X45192D1*
X49297D2*
X51555D1*
X56812D2*
X89712D1*
X4812Y42030D2*
X45286D1*
X49203D2*
X51340D1*
X56625D2*
X89676D1*
X4844Y41782D2*
X45321D1*
X49168D2*
X51215D1*
X56375D2*
X89645D1*
X4875Y41533D2*
X45212D1*
X49277D2*
X51157D1*
X56129D2*
X89614D1*
X4906Y41284D2*
X45145D1*
X49344D2*
X51145D1*
X55879D2*
X89583D1*
X4945Y41036D2*
X45102D1*
X49387D2*
X51145D1*
X55629D2*
X89547D1*
X4984Y40787D2*
X45087D1*
X49402D2*
X51145D1*
X55383D2*
X89508D1*
X5023Y40538D2*
X45098D1*
X49390D2*
X51145D1*
X55133D2*
X89465D1*
X5062Y40290D2*
X45126D1*
X49363D2*
X51145D1*
X54883D2*
X89426D1*
X5101Y40041D2*
X45188D1*
X49301D2*
X51145D1*
X54637D2*
X89387D1*
X5144Y39792D2*
X45278D1*
X49211D2*
X51145D1*
X54594D2*
X89348D1*
X5191Y39544D2*
X45395D1*
X49094D2*
X51145D1*
X54594D2*
X89297D1*
X5238Y39295D2*
X45321D1*
X49094D2*
X51145D1*
X54594D2*
X89251D1*
X5285Y39046D2*
X45071D1*
X49094D2*
X51145D1*
X54594D2*
X89204D1*
X5332Y38798D2*
X44825D1*
X49094D2*
X51145D1*
X54594D2*
X89157D1*
X5383Y38549D2*
X44575D1*
X49094D2*
X51145D1*
X54594D2*
X89106D1*
X5437Y38300D2*
X44325D1*
X49078D2*
X51145D1*
X54594D2*
X89051D1*
X5492Y38051D2*
X44079D1*
X49008D2*
X51145D1*
X54594D2*
X88997D1*
X5547Y37803D2*
X43829D1*
X48875D2*
X51145D1*
X54594D2*
X88942D1*
X5601Y37554D2*
X43579D1*
X48648D2*
X51145D1*
X54594D2*
X88887D1*
X5660Y37305D2*
X43333D1*
X48398D2*
X51145D1*
X54594D2*
X88829D1*
X5722Y37057D2*
X43083D1*
X48152D2*
X51145D1*
X54594D2*
X88766D1*
X5785Y36808D2*
X42833D1*
X47902D2*
X51145D1*
X54594D2*
X88704D1*
X5847Y36559D2*
X42587D1*
X47652D2*
X51145D1*
X54594D2*
X88641D1*
X5910Y36311D2*
X42337D1*
X47406D2*
X51145D1*
X54594D2*
X88575D1*
X5976Y36062D2*
X42087D1*
X47156D2*
X51145D1*
X54594D2*
X88512D1*
X6047Y35813D2*
X41840D1*
X46906D2*
X51145D1*
X54594D2*
X88442D1*
X6117Y35565D2*
X41590D1*
X46660D2*
X51145D1*
X54594D2*
X88372D1*
X6187Y35316D2*
X41340D1*
X46410D2*
X51145D1*
X54594D2*
X88297D1*
X6262Y35067D2*
X41094D1*
X46160D2*
X51145D1*
X54594D2*
X88227D1*
X6332Y34819D2*
X40844D1*
X45914D2*
X51145D1*
X54594D2*
X88157D1*
X6414Y34570D2*
X40594D1*
X45664D2*
X51145D1*
X54594D2*
X88079D1*
X6492Y34321D2*
X40348D1*
X45414D2*
X51145D1*
X54594D2*
X87997D1*
X6570Y34072D2*
X40098D1*
X45168D2*
X51145D1*
X54594D2*
X87919D1*
X6648Y33824D2*
X39919D1*
X44918D2*
X51145D1*
X54594D2*
X87837D1*
X6730Y33575D2*
X39817D1*
X44668D2*
X51145D1*
X54594D2*
X87758D1*
X6820Y33326D2*
X39774D1*
X44422D2*
X51145D1*
X54594D2*
X87669D1*
X6906Y33078D2*
X39770D1*
X44172D2*
X51145D1*
X54594D2*
X87583D1*
X6996Y32829D2*
X39770D1*
X43922D2*
X51145D1*
X54594D2*
X87493D1*
X7082Y32580D2*
X39770D1*
X43676D2*
X51145D1*
X54594D2*
X87407D1*
X7172Y32332D2*
X39770D1*
X43469D2*
X51145D1*
X54594D2*
X87317D1*
X7269Y32083D2*
X39770D1*
X43469D2*
X51145D1*
X54594D2*
X87219D1*
X7367Y31834D2*
X39770D1*
X43469D2*
X51145D1*
X54594D2*
X87122D1*
X7461Y31586D2*
X39770D1*
X43469D2*
X51145D1*
X54594D2*
X87028D1*
X7558Y31337D2*
X39770D1*
X43469D2*
X51145D1*
X54594D2*
X86930D1*
X7660Y31088D2*
X39770D1*
X43469D2*
X51145D1*
X54594D2*
X86833D1*
X7762Y30840D2*
X39770D1*
X43469D2*
X51145D1*
X54594D2*
X86727D1*
X7867Y30591D2*
X39770D1*
X43469D2*
X51145D1*
X54594D2*
X86622D1*
X7972Y30342D2*
X39770D1*
X43469D2*
X51145D1*
X54594D2*
X86516D1*
X8078Y30093D2*
X39770D1*
X43469D2*
X51145D1*
X54594D2*
X86411D1*
X8191Y29845D2*
X39770D1*
X43469D2*
X51145D1*
X54594D2*
X86301D1*
X8304Y29596D2*
X39770D1*
X43469D2*
X51145D1*
X54594D2*
X86188D1*
X8418Y29347D2*
X39770D1*
X43469D2*
X51145D1*
X54594D2*
X86071D1*
X8531Y29099D2*
X39770D1*
X43469D2*
X51145D1*
X54594D2*
X85958D1*
X8644Y28850D2*
X39770D1*
X43469D2*
X51145D1*
X54594D2*
X85840D1*
X8769Y28601D2*
X39770D1*
X43469D2*
X51145D1*
X54594D2*
X85723D1*
X8890Y28353D2*
X39770D1*
X43469D2*
X51145D1*
X54594D2*
X85598D1*
X9015Y28104D2*
X10536D1*
X12355D2*
X39770D1*
X43469D2*
X51145D1*
X54594D2*
X82133D1*
X83953D2*
X85473D1*
X9137Y27855D2*
X10204D1*
X12687D2*
X39770D1*
X43469D2*
X51145D1*
X54594D2*
X81801D1*
X84285D2*
X85348D1*
X9262Y27607D2*
X9985D1*
X12902D2*
X39770D1*
X43469D2*
X51145D1*
X54594D2*
X81587D1*
X84504D2*
X85227D1*
X9394Y27358D2*
X9837D1*
X13051D2*
X39770D1*
X43469D2*
X51145D1*
X54594D2*
X81438D1*
X84652D2*
X85094D1*
X9527Y27109D2*
X9735D1*
X13152D2*
X39770D1*
X43469D2*
X51145D1*
X54594D2*
X81337D1*
X84754D2*
X84962D1*
X13211Y26861D2*
X39770D1*
X43469D2*
X51145D1*
X54594D2*
X81278D1*
X13234Y26612D2*
X39770D1*
X43469D2*
X51145D1*
X54594D2*
X81254D1*
X13222Y26363D2*
X39770D1*
X43469D2*
X51145D1*
X54594D2*
X81266D1*
X13172Y26114D2*
X39770D1*
X43469D2*
X51145D1*
X54594D2*
X81317D1*
X13086Y25866D2*
X39770D1*
X43469D2*
X51145D1*
X54594D2*
X81403D1*
X12949Y25617D2*
X39770D1*
X43469D2*
X51145D1*
X54594D2*
X81540D1*
X12754Y25368D2*
X39770D1*
X43469D2*
X51145D1*
X54594D2*
X81735D1*
X12465Y25120D2*
X39770D1*
X43469D2*
X51145D1*
X54594D2*
X82024D1*
X10812Y24871D2*
X10969D1*
X11922D2*
X39770D1*
X43469D2*
X51145D1*
X54594D2*
X82567D1*
X83519D2*
X83680D1*
X10965Y24622D2*
X39770D1*
X43469D2*
X51145D1*
X54594D2*
X83524D1*
X11117Y24374D2*
X39770D1*
X43469D2*
X51145D1*
X54594D2*
X83372D1*
X11277Y24125D2*
X39770D1*
X43469D2*
X51145D1*
X54594D2*
X83215D1*
X11441Y23876D2*
X39770D1*
X43469D2*
X51145D1*
X54594D2*
X83047D1*
X11605Y23628D2*
X39770D1*
X43469D2*
X51145D1*
X54594D2*
X82883D1*
X11765Y23379D2*
X39770D1*
X43469D2*
X51145D1*
X54594D2*
X82719D1*
X11933Y23130D2*
X39770D1*
X43469D2*
X51145D1*
X54594D2*
X82555D1*
X12109Y22882D2*
X39770D1*
X43469D2*
X51145D1*
X54594D2*
X82379D1*
X12285Y22633D2*
X39770D1*
X43469D2*
X51145D1*
X54594D2*
X82204D1*
X12457Y22384D2*
X39770D1*
X43469D2*
X51145D1*
X54594D2*
X82028D1*
X12633Y22135D2*
X39770D1*
X43469D2*
X51145D1*
X54594D2*
X81852D1*
X12820Y21887D2*
X39770D1*
X43469D2*
X51145D1*
X54594D2*
X81672D1*
X13004Y21638D2*
X39770D1*
X43469D2*
X51145D1*
X54594D2*
X81485D1*
X13191Y21389D2*
X39770D1*
X43469D2*
X51145D1*
X54594D2*
X81297D1*
X13375Y21141D2*
X39770D1*
X43469D2*
X51145D1*
X54594D2*
X81110D1*
X13574Y20892D2*
X39770D1*
X43469D2*
X51145D1*
X54594D2*
X80919D1*
X13769Y20643D2*
X39770D1*
X43469D2*
X51145D1*
X54594D2*
X80719D1*
X13969Y20395D2*
X39770D1*
X43469D2*
X51145D1*
X54594D2*
X80520D1*
X14168Y20146D2*
X39770D1*
X43469D2*
X51145D1*
X54594D2*
X80321D1*
X14375Y19897D2*
X39770D1*
X43469D2*
X51145D1*
X54594D2*
X80114D1*
X14586Y19649D2*
X39770D1*
X43469D2*
X51145D1*
X54594D2*
X79903D1*
X14797Y19400D2*
X39770D1*
X43469D2*
X51145D1*
X54594D2*
X79692D1*
X15008Y19151D2*
X39770D1*
X43469D2*
X51145D1*
X54594D2*
X79477D1*
X15230Y18903D2*
X39770D1*
X43469D2*
X51145D1*
X54594D2*
X79262D1*
X15453Y18654D2*
X39770D1*
X43469D2*
X51145D1*
X54594D2*
X79036D1*
X15676Y18405D2*
X39770D1*
X43469D2*
X51145D1*
X54594D2*
X78809D1*
X15902Y18156D2*
X39770D1*
X43469D2*
X51145D1*
X54594D2*
X78587D1*
X16137Y17908D2*
X39770D1*
X43469D2*
X51145D1*
X54594D2*
X78352D1*
X16375Y17659D2*
X39770D1*
X43469D2*
X51145D1*
X54594D2*
X78114D1*
X16613Y17410D2*
X39770D1*
X43469D2*
X51145D1*
X54594D2*
X77876D1*
X16855Y17162D2*
X39770D1*
X43469D2*
X51145D1*
X54594D2*
X77633D1*
X17105Y16913D2*
X39770D1*
X43469D2*
X51145D1*
X54594D2*
X77383D1*
X17359Y16664D2*
X39770D1*
X43469D2*
X51145D1*
X54594D2*
X77129D1*
X17613Y16416D2*
X39770D1*
X43469D2*
X51145D1*
X54594D2*
X76876D1*
X17875Y16167D2*
X39770D1*
X43469D2*
X51145D1*
X54594D2*
X76618D1*
X18140Y15918D2*
X39770D1*
X43469D2*
X51145D1*
X54594D2*
X76348D1*
X18410Y15670D2*
X39770D1*
X43469D2*
X51145D1*
X54594D2*
X76079D1*
X18679Y15421D2*
X39770D1*
X43469D2*
X51145D1*
X54594D2*
X75805D1*
X18965Y15172D2*
X39770D1*
X43469D2*
X51145D1*
X54594D2*
X75528D1*
X19250Y14924D2*
X39770D1*
X43469D2*
X51145D1*
X54594D2*
X75239D1*
X19535Y14675D2*
X39770D1*
X43469D2*
X51145D1*
X54594D2*
X74950D1*
X19832Y14426D2*
X39770D1*
X43469D2*
X51145D1*
X54594D2*
X74661D1*
X20137Y14177D2*
X39770D1*
X43469D2*
X51145D1*
X54594D2*
X74356D1*
X20437Y13929D2*
X39770D1*
X43469D2*
X51145D1*
X54594D2*
X74047D1*
X20746Y13680D2*
X39770D1*
X43469D2*
X51145D1*
X54594D2*
X73743D1*
X21070Y13431D2*
X39770D1*
X43469D2*
X51145D1*
X54594D2*
X73419D1*
X21394Y13183D2*
X39770D1*
X43469D2*
X51145D1*
X54594D2*
X73094D1*
X21719Y12934D2*
X39770D1*
X43469D2*
X51145D1*
X54594D2*
X72766D1*
X22062Y12685D2*
X39770D1*
X43469D2*
X51145D1*
X54594D2*
X72430D1*
X22406Y12437D2*
X39770D1*
X43469D2*
X51145D1*
X54594D2*
X72083D1*
X22750Y12188D2*
X39770D1*
X43469D2*
X51145D1*
X54594D2*
X71735D1*
X23117Y11939D2*
X39770D1*
X43469D2*
X50833D1*
X54594D2*
X71372D1*
X23484Y11691D2*
X39770D1*
X43469D2*
X50833D1*
X54594D2*
X71001D1*
X23855Y11442D2*
X39770D1*
X43469D2*
X50833D1*
X54594D2*
X70633D1*
X24246Y11193D2*
X39770D1*
X43469D2*
X50833D1*
X54621D2*
X70243D1*
X24640Y10945D2*
X39770D1*
X43469D2*
X50833D1*
X54722D2*
X69848D1*
X25039Y10696D2*
X39770D1*
X43469D2*
X50833D1*
X54801D2*
X69450D1*
X25461Y10447D2*
X39653D1*
X43586D2*
X50833D1*
X54847D2*
X69028D1*
X25883Y10198D2*
X39563D1*
X43676D2*
X50833D1*
X54883D2*
X68606D1*
X26320Y9950D2*
X39501D1*
X43738D2*
X50833D1*
X54898D2*
X68172D1*
X26769Y9701D2*
X39473D1*
X43765D2*
X50833D1*
X54898D2*
X67719D1*
X27222Y9452D2*
X39462D1*
X43777D2*
X50833D1*
X54887D2*
X67262D1*
X27711Y9204D2*
X39481D1*
X43758D2*
X50833D1*
X54855D2*
X66782D1*
X28195Y8955D2*
X39520D1*
X43719D2*
X50833D1*
X54808D2*
X66290D1*
X28707Y8706D2*
X39587D1*
X43652D2*
X50833D1*
X54734D2*
X65786D1*
X29230Y8458D2*
X39696D1*
X43543D2*
X50833D1*
X54637D2*
X65254D1*
X29773Y8209D2*
X39840D1*
X43398D2*
X50833D1*
X54480D2*
X64719D1*
X30344Y7960D2*
X40071D1*
X43168D2*
X50833D1*
X54273D2*
X64145D1*
X30929Y7712D2*
X40481D1*
X42758D2*
X50833D1*
X53980D2*
X63563D1*
X31547Y7463D2*
X40247D1*
X42980D2*
X46387D1*
X48101D2*
X51508D1*
X54242D2*
X62938D1*
X32191Y7214D2*
X40071D1*
X43160D2*
X46032D1*
X48457D2*
X51329D1*
X54418D2*
X62305D1*
X32867Y6965D2*
X39950D1*
X43281D2*
X45805D1*
X48683D2*
X51208D1*
X54539D2*
X61618D1*
X33586Y6717D2*
X39872D1*
X43359D2*
X45653D1*
X48836D2*
X51129D1*
X54617D2*
X60907D1*
X34336Y6468D2*
X39833D1*
X43398D2*
X45547D1*
X48941D2*
X51090D1*
X54656D2*
X60149D1*
X35160Y6219D2*
X39829D1*
X43402D2*
X45481D1*
X49008D2*
X51087D1*
X54660D2*
X59329D1*
X36035Y5971D2*
X39860D1*
X43371D2*
X45454D1*
X49035D2*
X51118D1*
X54629D2*
X58458D1*
X36980Y5722D2*
X39926D1*
X43301D2*
X45465D1*
X49023D2*
X51188D1*
X54562D2*
X57508D1*
X38043Y5473D2*
X40040D1*
X43191D2*
X45508D1*
X48980D2*
X51297D1*
X54449D2*
X56438D1*
X39254Y5225D2*
X40204D1*
X43027D2*
X45590D1*
X48898D2*
X51462D1*
X54285D2*
X55227D1*
X42785Y4976D2*
X45719D1*
X48769D2*
X51704D1*
X42582Y4727D2*
X45907D1*
X48582D2*
X51911D1*
X46548Y86966D2*
X46316Y87086D1*
X46113Y87232D1*
X45933Y87405D1*
X45780Y87602D1*
X45655Y87819D1*
X45563Y88051D1*
X45504Y88294D1*
X45480Y88542D1*
X45491Y88792D1*
X45538Y89037D1*
X45618Y89274D1*
X45731Y89496D1*
X45875Y89701D1*
X46046Y89883D1*
X46206Y90013D1*
X45538Y89995D1*
X44239Y89923D1*
X42944Y89812D1*
X41653Y89662D1*
X40366Y89473D1*
X39086Y89244D1*
X37814Y88977D1*
X36550Y88671D1*
X35297Y88327D1*
X34054Y87945D1*
X32823Y87525D1*
X31606Y87069D1*
X30403Y86575D1*
X29216Y86045D1*
X28045Y85479D1*
X26892Y84878D1*
X25758Y84242D1*
X24644Y83573D1*
X23551Y82869D1*
X22479Y82133D1*
X21431Y81364D1*
X20406Y80564D1*
X19406Y79733D1*
X18432Y78872D1*
X17484Y77982D1*
X16564Y77063D1*
X15672Y76117D1*
X14809Y75144D1*
X13976Y74146D1*
X13174Y73123D1*
X12404Y72075D1*
X11666Y71005D1*
X10960Y69913D1*
X10728Y69529D1*
X10887Y69592D1*
X11129Y69654D1*
X11377Y69681D1*
X11627Y69673D1*
X11873Y69629D1*
X12110Y69552D1*
X12334Y69441D1*
X12540Y69300D1*
X12725Y69132D1*
X12883Y68939D1*
X13013Y68726D1*
X13112Y68496D1*
X13177Y68255D1*
X13207Y68007D1*
X13205Y67792D1*
X13170Y67545D1*
X13100Y67305D1*
X12997Y67077D1*
X12863Y66867D1*
X12700Y66677D1*
X12513Y66512D1*
X12304Y66375D1*
X12077Y66270D1*
X11838Y66197D1*
X11592Y66158D1*
X11342Y66155D1*
X11094Y66187D1*
X10853Y66254D1*
X10625Y66354D1*
X10412Y66485D1*
X10220Y66645D1*
X10053Y66831D1*
X9914Y67038D1*
X9805Y67263D1*
X9729Y67501D1*
X9689Y67736D1*
X9534Y67446D1*
X9047Y66515D1*
X8479Y65346D1*
X7947Y64160D1*
X7451Y62958D1*
X6992Y61741D1*
X6570Y60511D1*
X6186Y59269D1*
X5840Y58016D1*
X5532Y56753D1*
X5262Y55481D1*
X5031Y54202D1*
X4840Y52916D1*
X4687Y51625D1*
X4573Y50329D1*
X4499Y49031D1*
X4465Y47732D1*
X4470Y46431D1*
X4515Y45132D1*
X4599Y43835D1*
X4722Y42540D1*
X4885Y41250D1*
X5086Y39966D1*
X5327Y38688D1*
X5607Y37419D1*
X5924Y36158D1*
X6280Y34907D1*
X6674Y33668D1*
X7106Y32442D1*
X7574Y31229D1*
X8079Y30031D1*
X8620Y28849D1*
X9197Y27684D1*
X9688Y26763D1*
X9738Y27027D1*
X9818Y27264D1*
X9931Y27486D1*
X10075Y27691D1*
X10246Y27873D1*
X10441Y28029D1*
X10656Y28156D1*
X10887Y28252D1*
X11129Y28314D1*
X11377Y28341D1*
X11627Y28333D1*
X11873Y28289D1*
X12110Y28212D1*
X12334Y28101D1*
X12540Y27960D1*
X12725Y27792D1*
X12883Y27599D1*
X13013Y27386D1*
X13112Y27156D1*
X13177Y26915D1*
X13207Y26667D1*
X13205Y26452D1*
X13170Y26205D1*
X13100Y25965D1*
X12997Y25737D1*
X12863Y25527D1*
X12700Y25337D1*
X12513Y25172D1*
X12304Y25035D1*
X12077Y24930D1*
X11838Y24857D1*
X11592Y24818D1*
X11342Y24815D1*
X11094Y24847D1*
X10853Y24914D1*
X10727Y24965D1*
X11137Y24301D1*
X11850Y23214D1*
X12597Y22150D1*
X13376Y21109D1*
X14186Y20091D1*
X15026Y19099D1*
X15896Y18133D1*
X16795Y17194D1*
X17723Y16283D1*
X18677Y15400D1*
X19658Y14547D1*
X20665Y13724D1*
X21695Y12931D1*
X22750Y12171D1*
X23827Y11443D1*
X24926Y10748D1*
X26045Y10087D1*
X27184Y9459D1*
X28342Y8867D1*
X29517Y8311D1*
X30708Y7790D1*
X31915Y7306D1*
X33135Y6858D1*
X34369Y6448D1*
X35615Y6076D1*
X36871Y5742D1*
X38137Y5446D1*
X39412Y5188D1*
X40425Y5015D1*
X40303Y5135D1*
X40150Y5332D1*
X40025Y5549D1*
X39933Y5781D1*
X39874Y6024D1*
X39850Y6272D1*
X39861Y6522D1*
X39908Y6767D1*
X39988Y7004D1*
X40101Y7226D1*
X40245Y7431D1*
X40416Y7613D1*
X40526Y7706D1*
X40376Y7766D1*
X40206Y7869D1*
X40068Y7989D1*
X39897Y8169D1*
X39784Y8336D1*
X39676Y8549D1*
X39627Y8662D1*
X39538Y8985D1*
X39506Y9176D1*
X39485Y9536D1*
X39506Y9818D1*
X39538Y10009D1*
X39629Y10337D1*
X39761Y10615D1*
X39795Y10678D1*
X39794Y33247D1*
X39801Y33372D1*
X39820Y33495D1*
X39852Y33616D1*
X39897Y33733D1*
X39953Y33844D1*
X40021Y33949D1*
X40146Y34096D1*
X45419Y39372D1*
Y39563D1*
X45301Y39799D1*
X45252Y39912D1*
X45163Y40235D1*
X45131Y40426D1*
X45110Y40786D1*
X45131Y41068D1*
X45163Y41259D1*
X45254Y41587D1*
X45386Y41865D1*
X45328Y41993D1*
X45252Y42162D1*
X45163Y42485D1*
X45131Y42676D1*
X45110Y43036D1*
X45131Y43318D1*
X45163Y43509D1*
X45254Y43837D1*
X45384Y44111D1*
X45445Y44219D1*
X45517Y44319D1*
X45693Y44505D1*
X45844Y44634D1*
X46016Y44735D1*
X46161Y44792D1*
X46355Y44851D1*
X46514Y44877D1*
X46676Y44881D1*
X46837Y44861D1*
X47039Y44805D1*
X47238Y44728D1*
X47334Y44765D1*
X47607Y44851D1*
X47575Y44843D1*
X47600Y44946D1*
X47519Y45182D1*
X47438Y45496D1*
X47267Y45482D1*
X47017Y45497D1*
X46773Y45546D1*
X46537Y45630D1*
X46316Y45746D1*
X46113Y45892D1*
X45933Y46065D1*
X45780Y46262D1*
X45655Y46479D1*
X45563Y46711D1*
X45520Y46873D1*
X45204Y46862D1*
X44954Y46874D1*
X44706Y46902D1*
X44460Y46948D1*
X44218Y47010D1*
X43981Y47089D1*
X43750Y47184D1*
X43526Y47294D1*
X43310Y47420D1*
X43103Y47560D1*
X42906Y47714D1*
X42720Y47881D1*
X42546Y48061D1*
X42385Y48252D1*
X42238Y48454D1*
X42105Y48665D1*
X41986Y48885D1*
X41883Y49113D1*
X41796Y49347D1*
X41725Y49587D1*
X41671Y49831D1*
X41634Y50078D1*
X41613Y50327D1*
X41609Y51122D1*
X41611Y59372D1*
X41629Y59621D1*
X41663Y59869D1*
X41714Y60114D1*
X41782Y60354D1*
X41866Y60590D1*
X41967Y60818D1*
X42082Y61040D1*
X42213Y61253D1*
X42358Y61457D1*
X42517Y61650D1*
X42688Y61832D1*
X42872Y62001D1*
X43067Y62158D1*
X43272Y62300D1*
X43486Y62429D1*
X43709Y62542D1*
X43939Y62640D1*
X44176Y62721D1*
X44417Y62787D1*
X44662Y62835D1*
X44910Y62867D1*
X45159Y62881D1*
X45409Y62878D1*
X45659Y62858D1*
X45906Y62821D1*
X46150Y62767D1*
X46390Y62697D1*
X46624Y62610D1*
X46852Y62507D1*
X47072Y62389D1*
X47284Y62256D1*
X47486Y62109D1*
X47677Y61948D1*
X47857Y61774D1*
X47986Y61633D1*
X47984Y71247D1*
Y83563D1*
X47791Y83653D1*
X47574Y83778D1*
X47370Y83922D1*
X47181Y84085D1*
X47008Y84266D1*
X46853Y84462D1*
X46717Y84671D1*
X46602Y84893D1*
X46508Y85125D1*
X46436Y85364D1*
X46388Y85609D1*
X46363Y85858D1*
X46362Y86108D1*
X46384Y86357D1*
X46430Y86603D1*
X46499Y86843D1*
X46543Y86964D1*
X48281Y90014D2*
X48436Y89889D1*
X48608Y89708D1*
X48752Y89505D1*
X48867Y89283D1*
X48948Y89047D1*
X48996Y88801D1*
X49008Y88629D1*
X50369Y88632D1*
X54119Y88629D1*
X54368Y88605D1*
X54613Y88558D1*
X54853Y88488D1*
X55085Y88396D1*
X55308Y88281D1*
X55518Y88147D1*
X55715Y87993D1*
X55896Y87821D1*
X56061Y87632D1*
X56206Y87429D1*
X56332Y87213D1*
X56437Y86986D1*
X56519Y86750D1*
X56579Y86508D1*
X56616Y86261D1*
X56629Y86011D1*
X56619Y85761D1*
X56585Y85514D1*
X56527Y85271D1*
X56447Y85034D1*
X56345Y84806D1*
X56221Y84589D1*
X56078Y84384D1*
X55916Y84194D1*
X55736Y84020D1*
X55541Y83864D1*
X55332Y83727D1*
X55254Y83683D1*
X55252Y57997D1*
X55235Y57748D1*
X55201Y57500D1*
X55150Y57256D1*
X55082Y57015D1*
X54997Y56780D1*
X54897Y56551D1*
X54781Y56329D1*
X54651Y56116D1*
X54506Y55912D1*
X54347Y55719D1*
X54175Y55538D1*
X53992Y55368D1*
X53797Y55212D1*
X53592Y55069D1*
X53291Y54895D1*
X54626Y53563D1*
X56676Y51503D1*
X56750Y51402D1*
X56813Y51294D1*
X56864Y51180D1*
X56903Y51061D1*
X56929Y50939D1*
X56944Y50747D1*
X56946Y49502D1*
X57027Y49330D1*
X57148Y48987D1*
X57216Y48644D1*
X57241Y48374D1*
X57252Y48055D1*
X57219Y47618D1*
X57131Y47196D1*
X57011Y46875D1*
X57149Y46485D1*
X57216Y46144D1*
X57241Y45874D1*
X57252Y45555D1*
X57219Y45118D1*
X57131Y44696D1*
X57027Y44415D1*
X56961Y44269D1*
X56944Y44122D1*
X56938Y42747D1*
X56918Y42624D1*
X56886Y42503D1*
X56842Y42386D1*
X56785Y42275D1*
X56717Y42170D1*
X56593Y42024D1*
X54569Y39997D1*
Y11243D1*
X54660Y11047D1*
X54779Y10688D1*
X54843Y10339D1*
X54866Y10076D1*
X54878Y9746D1*
X54845Y9290D1*
X54760Y8859D1*
X54660Y8572D1*
X54612Y8457D1*
X54523Y8304D1*
X54343Y8056D1*
X54258Y7968D1*
X54164Y7890D1*
X54063Y7822D1*
X53909Y7745D1*
X54066Y7619D1*
X54238Y7438D1*
X54382Y7235D1*
X54497Y7013D1*
X54578Y6777D1*
X54626Y6531D1*
X54639Y6317D1*
X54622Y6068D1*
X54569Y5824D1*
X54482Y5589D1*
X54364Y5370D1*
X54215Y5169D1*
X54065Y5015D1*
X54928Y5161D1*
X56203Y5414D1*
X57470Y5705D1*
X58728Y6035D1*
X59975Y6403D1*
X61210Y6809D1*
X62433Y7252D1*
X63641Y7732D1*
X64834Y8248D1*
X66011Y8801D1*
X67171Y9389D1*
X68312Y10012D1*
X69433Y10669D1*
X70535Y11360D1*
X71614Y12084D1*
X72672Y12841D1*
X73705Y13630D1*
X74715Y14449D1*
X75699Y15299D1*
X76656Y16179D1*
X77587Y17087D1*
X78489Y18023D1*
X79363Y18986D1*
X80207Y19975D1*
X81020Y20989D1*
X81803Y22027D1*
X82553Y23089D1*
X83271Y24173D1*
X83762Y24967D1*
X83559Y24889D1*
X83316Y24833D1*
X83067Y24812D1*
X82817Y24827D1*
X82573Y24876D1*
X82337Y24960D1*
X82116Y25076D1*
X81913Y25222D1*
X81733Y25395D1*
X81580Y25592D1*
X81455Y25809D1*
X81363Y26041D1*
X81304Y26284D1*
X81280Y26532D1*
X81291Y26782D1*
X81338Y27027D1*
X81418Y27264D1*
X81531Y27486D1*
X81675Y27691D1*
X81846Y27873D1*
X82041Y28029D1*
X82256Y28156D1*
X82487Y28252D1*
X82729Y28314D1*
X82977Y28341D1*
X83227Y28333D1*
X83473Y28289D1*
X83710Y28212D1*
X83934Y28101D1*
X84140Y27960D1*
X84325Y27792D1*
X84483Y27599D1*
X84613Y27386D1*
X84712Y27156D1*
X84777Y26915D1*
X84799Y26764D1*
X85222Y27549D1*
X85803Y28712D1*
X86348Y29892D1*
X86858Y31089D1*
X87330Y32300D1*
X87766Y33525D1*
X88164Y34763D1*
X88525Y36012D1*
X88847Y37271D1*
X89131Y38540D1*
X89376Y39817D1*
X89583Y41101D1*
X89750Y42390D1*
X89878Y43684D1*
X89966Y44981D1*
X90015Y46281D1*
X90026Y47244D1*
X90007Y48545D1*
X89948Y49844D1*
X89849Y51140D1*
X89711Y52433D1*
X89534Y53721D1*
X89317Y55003D1*
X89062Y56278D1*
X88769Y57545D1*
X88436Y58802D1*
X88066Y60048D1*
X87659Y61283D1*
X87213Y62504D1*
X86731Y63712D1*
X86213Y64904D1*
X85658Y66080D1*
X85068Y67239D1*
X84800Y67728D1*
X84770Y67545D1*
X84700Y67305D1*
X84597Y67077D1*
X84463Y66867D1*
X84300Y66677D1*
X84113Y66512D1*
X83904Y66375D1*
X83677Y66270D1*
X83438Y66197D1*
X83192Y66158D1*
X82942Y66155D1*
X82694Y66187D1*
X82453Y66254D1*
X82225Y66354D1*
X82012Y66485D1*
X81820Y66645D1*
X81653Y66831D1*
X81514Y67038D1*
X81405Y67263D1*
X81329Y67501D1*
X81288Y67747D1*
X81281Y67997D1*
X81310Y68245D1*
X81374Y68487D1*
X81471Y68717D1*
X81600Y68931D1*
X81757Y69125D1*
X81941Y69294D1*
X82146Y69436D1*
X82370Y69548D1*
X82607Y69627D1*
X82852Y69672D1*
X83102Y69681D1*
X83350Y69655D1*
X83593Y69595D1*
X83771Y69525D1*
X83089Y70606D1*
X82363Y71681D1*
X81606Y72734D1*
X80816Y73766D1*
X79995Y74774D1*
X79143Y75756D1*
X78262Y76713D1*
X77352Y77641D1*
X76415Y78542D1*
X75450Y79414D1*
X74460Y80257D1*
X73444Y81068D1*
X72404Y81849D1*
X71341Y82597D1*
X70256Y83313D1*
X69150Y83996D1*
X68023Y84644D1*
X66877Y85259D1*
X65713Y85838D1*
X64532Y86381D1*
X63334Y86888D1*
X62122Y87359D1*
X60897Y87792D1*
X59658Y88188D1*
X58409Y88547D1*
X57148Y88867D1*
X55879Y89149D1*
X54602Y89392D1*
X53318Y89596D1*
X52028Y89761D1*
X50734Y89887D1*
X49437Y89973D1*
X48285Y90014D1*
X49005Y5782D2*
X48970Y5535D1*
X48900Y5295D1*
X48797Y5067D1*
X48663Y4857D1*
X48500Y4667D1*
X48313Y4502D1*
X48284Y4482D1*
X48469D1*
X49768Y4539D1*
X51064Y4636D1*
X52078Y4742D1*
X51946Y4816D1*
X51743Y4962D1*
X51563Y5135D1*
X51410Y5332D1*
X51285Y5549D1*
X51193Y5781D1*
X51134Y6024D1*
X51110Y6272D1*
X51121Y6522D1*
X51168Y6767D1*
X51248Y7004D1*
X51361Y7226D1*
X51505Y7431D1*
X51673Y7610D1*
X50859Y7612D1*
Y12007D1*
X51168D1*
X51169Y25497D1*
Y41372D1*
X51176Y41497D1*
X51195Y41620D1*
X51227Y41741D1*
X51272Y41858D1*
X51328Y41969D1*
X51396Y42074D1*
X51521Y42221D1*
X52076Y42776D1*
X51735Y42688D1*
X51488Y42646D1*
X51240Y42620D1*
X50990Y42612D1*
X50740Y42621D1*
X50492Y42647D1*
X50245Y42690D1*
X50003Y42750D1*
X49765Y42826D1*
X49533Y42919D1*
X49381Y42990D1*
X49357Y42676D1*
X49326Y42485D1*
X49235Y42157D1*
X49103Y41879D1*
X49160Y41751D1*
X49237Y41582D1*
X49326Y41259D1*
X49357Y41068D1*
X49378Y40708D1*
X49357Y40426D1*
X49326Y40235D1*
X49235Y39907D1*
X49103Y39629D1*
X49069Y39566D1*
Y38497D1*
X49063Y38372D1*
X49043Y38249D1*
X49011Y38128D1*
X48967Y38011D1*
X48910Y37900D1*
X48842Y37795D1*
X48718Y37649D1*
X43444Y32372D1*
Y10681D1*
X43563Y10446D1*
X43612Y10332D1*
X43701Y10009D1*
X43732Y9818D1*
X43753Y9458D1*
X43732Y9176D1*
X43701Y8985D1*
X43610Y8657D1*
X43480Y8383D1*
X43419Y8275D1*
X43346Y8175D1*
X43170Y7989D1*
X43019Y7860D1*
X42848Y7759D1*
X42710Y7700D1*
X42895Y7532D1*
X43053Y7339D1*
X43183Y7126D1*
X43282Y6896D1*
X43347Y6655D1*
X43377Y6407D1*
X43375Y6192D1*
X43340Y5945D1*
X43270Y5705D1*
X43167Y5477D1*
X43033Y5267D1*
X42870Y5077D1*
X42683Y4912D1*
X42474Y4775D1*
X42408Y4742D1*
X43281Y4647D1*
X44574Y4548D1*
X45869Y4487D1*
X46201Y4482D1*
X46020Y4635D1*
X45853Y4821D1*
X45714Y5028D1*
X45605Y5253D1*
X45529Y5491D1*
X45488Y5737D1*
X45481Y5987D1*
X45510Y6235D1*
X45574Y6477D1*
X45671Y6707D1*
X45800Y6921D1*
X45957Y7115D1*
X46141Y7284D1*
X46346Y7426D1*
X46570Y7538D1*
X46807Y7617D1*
X47052Y7662D1*
X47302Y7671D1*
X47550Y7645D1*
X47793Y7585D1*
X48024Y7491D1*
X48240Y7365D1*
X48436Y7209D1*
X48608Y7028D1*
X48752Y6825D1*
X48867Y6603D1*
X48948Y6367D1*
X48996Y6121D1*
X49009Y5907D1*
X49005Y5782D1*
X45244Y50497D2*
D15*
G02X50994Y46247I2062J-3225D01*
G01*
D21*
X55744Y48122D3*
Y45622D3*
D22*
X53369Y9810D3*
G36*
X51994Y10872D2*
X52744D1*
Y8747D1*
X51994D1*
Y10872D1*
G37*
D24*
X47869Y42997D3*
X46619D3*
X47869Y40747D3*
X46619D3*
X42244Y9497D3*
X40994D3*
M02*
