G04 DipTrace 2.3.1.0*
%INBottomSilk.gbr*%
%MOIN*%
%ADD20C,0.02*%
%ADD23C,0.03*%
%ADD32C,0.0216*%
%ADD36C,0.0154*%
%ADD37C,0.0124*%
%FSLAX44Y44*%
G04*
G70*
G90*
G75*
G01*
%LNBotSilk*%
%LPD*%
X51869Y7122D2*
D23*
G02X51869Y5622I1000J-750D01*
G01*
Y7122D2*
Y5622D1*
X46744Y44122D2*
D20*
X46994Y46122D1*
X47744Y44122D2*
X47369Y46122D1*
X54264Y64236D2*
D32*
X54129Y64304D1*
X53928Y64504D1*
Y63099D1*
X53428Y64169D2*
Y64236D1*
X53361Y64371D1*
X53295Y64437D1*
X53160Y64504D1*
X52892D1*
X52759Y64437D1*
X52693Y64371D1*
X52625Y64236D1*
Y64103D1*
X52693Y63968D1*
X52826Y63769D1*
X53496Y63099D1*
X52558D1*
X52126Y64505D2*
X51590Y63099D1*
X51055Y64505D1*
X50623D2*
Y63099D1*
X50154D1*
X49953Y63167D1*
X49818Y63300D1*
X49751Y63434D1*
X49685Y63634D1*
Y63970D1*
X49751Y64171D1*
X49818Y64304D1*
X49953Y64439D1*
X50154Y64505D1*
X50623D1*
X48248Y64171D2*
X48315Y64304D1*
X48449Y64439D1*
X48582Y64505D1*
X48850D1*
X48985Y64439D1*
X49118Y64304D1*
X49186Y64171D1*
X49252Y63970D1*
Y63634D1*
X49186Y63434D1*
X49118Y63300D1*
X48985Y63167D1*
X48850Y63099D1*
X48582D1*
X48449Y63167D1*
X48315Y63300D1*
X48248Y63434D1*
X46455Y64236D2*
X46320Y64304D1*
X46119Y64504D1*
Y63099D1*
X45619Y64169D2*
Y64236D1*
X45552Y64371D1*
X45486Y64437D1*
X45351Y64504D1*
X45083D1*
X44950Y64437D1*
X44884Y64371D1*
X44816Y64236D1*
Y64103D1*
X44884Y63968D1*
X45017Y63769D1*
X45687Y63099D1*
X44749D1*
X43244D2*
X43781Y64505D1*
X44317Y63099D1*
X44116Y63568D2*
X43446D1*
X40768Y58426D2*
X39994D1*
X56223Y58904D2*
Y57698D1*
X56825Y58300D2*
X55619D1*
X54925Y11538D2*
D36*
Y10677D1*
X55355Y11107D2*
X54494D1*
X50922D2*
X50369D1*
X56340Y9678D2*
D37*
Y8874D1*
X55881D1*
X55137Y9678D2*
X55634D1*
Y8874D1*
X55137D1*
X55634Y9295D2*
X55328D1*
X54890Y9678D2*
Y8874D1*
X54622D1*
X54507Y8913D1*
X54430Y8989D1*
X54392Y9066D1*
X54354Y9180D1*
Y9372D1*
X54392Y9487D1*
X54430Y9563D1*
X54507Y9640D1*
X54622Y9678D1*
X54890D1*
X59917Y47045D2*
X59573D1*
X59458Y47084D1*
X59419Y47122D1*
X59381Y47198D1*
Y47275D1*
X59419Y47351D1*
X59458Y47390D1*
X59573Y47428D1*
X59917D1*
Y46624D1*
X59649Y47045D2*
X59381Y46624D1*
X58637Y47428D2*
X59134D1*
Y46624D1*
X58637D1*
X59134Y47045D2*
X58828D1*
X57854Y47313D2*
X57930Y47390D1*
X58045Y47428D1*
X58198D1*
X58313Y47390D1*
X58390Y47313D1*
Y47237D1*
X58351Y47160D1*
X58313Y47122D1*
X58237Y47084D1*
X58007Y47007D1*
X57930Y46969D1*
X57892Y46930D1*
X57854Y46854D1*
Y46739D1*
X57930Y46663D1*
X58045Y46624D1*
X58198D1*
X58313Y46663D1*
X58390Y46739D1*
X45435Y44735D2*
D36*
Y43922D1*
X45387Y43779D1*
X45291Y43730D1*
X45196D1*
X45578Y44400D2*
X45244D1*
X44887Y44735D2*
Y43730D1*
Y44209D2*
X44743Y44353D1*
X44647Y44400D1*
X44504D1*
X44409Y44353D1*
X44361Y44209D1*
Y43730D1*
X44052Y44113D2*
X43479D1*
Y44209D1*
X43526Y44305D1*
X43574Y44353D1*
X43670Y44400D1*
X43813D1*
X43909Y44353D1*
X44005Y44256D1*
X44052Y44113D1*
Y44018D1*
X44005Y43874D1*
X43909Y43779D1*
X43813Y43730D1*
X43670D1*
X43574Y43779D1*
X43479Y43874D1*
X43170Y44400D2*
Y43730D1*
Y44113D2*
X43121Y44256D1*
X43026Y44353D1*
X42930Y44400D1*
X42786D1*
X42477D2*
Y43730D1*
Y44209D2*
X42334Y44353D1*
X42238Y44400D1*
X42095D1*
X41999Y44353D1*
X41951Y44209D1*
Y43730D1*
Y44209D2*
X41808Y44353D1*
X41711Y44400D1*
X41569D1*
X41473Y44353D1*
X41424Y44209D1*
Y43730D1*
X41115Y44735D2*
X41068Y44688D1*
X41019Y44735D1*
X41068Y44784D1*
X41115Y44735D1*
X41068Y44400D2*
Y43730D1*
X40184Y44256D2*
X40232Y44353D1*
X40375Y44400D1*
X40519D1*
X40663Y44353D1*
X40710Y44256D1*
X40663Y44161D1*
X40567Y44113D1*
X40328Y44065D1*
X40232Y44018D1*
X40184Y43922D1*
Y43874D1*
X40232Y43779D1*
X40375Y43730D1*
X40519D1*
X40663Y43779D1*
X40710Y43874D1*
X39732Y44735D2*
Y43922D1*
X39684Y43779D1*
X39588Y43730D1*
X39493D1*
X39875Y44400D2*
X39540D1*
X38945D2*
X39040Y44353D1*
X39136Y44256D1*
X39184Y44113D1*
Y44018D1*
X39136Y43874D1*
X39040Y43779D1*
X38945Y43730D1*
X38802D1*
X38705Y43779D1*
X38610Y43874D1*
X38562Y44018D1*
Y44113D1*
X38610Y44256D1*
X38705Y44353D1*
X38802Y44400D1*
X38945D1*
X38253D2*
Y43730D1*
Y44113D2*
X38204Y44256D1*
X38109Y44353D1*
X38013Y44400D1*
X37869D1*
X39810Y12360D2*
Y11547D1*
X39762Y11404D1*
X39666Y11355D1*
X39571D1*
X39953Y12025D2*
X39619D1*
X39262Y12360D2*
Y11355D1*
Y11834D2*
X39118Y11978D1*
X39022Y12025D1*
X38879D1*
X38784Y11978D1*
X38736Y11834D1*
Y11355D1*
X38427Y11738D2*
X37854D1*
Y11834D1*
X37901Y11930D1*
X37949Y11978D1*
X38045Y12025D1*
X38188D1*
X38284Y11978D1*
X38380Y11881D1*
X38427Y11738D1*
Y11643D1*
X38380Y11499D1*
X38284Y11404D1*
X38188Y11355D1*
X38045D1*
X37949Y11404D1*
X37854Y11499D1*
X37545Y12025D2*
Y11355D1*
Y11738D2*
X37496Y11881D1*
X37401Y11978D1*
X37305Y12025D1*
X37161D1*
X36852D2*
Y11355D1*
Y11834D2*
X36709Y11978D1*
X36613Y12025D1*
X36470D1*
X36374Y11978D1*
X36326Y11834D1*
Y11355D1*
Y11834D2*
X36183Y11978D1*
X36086Y12025D1*
X35944D1*
X35848Y11978D1*
X35799Y11834D1*
Y11355D1*
X35490Y12360D2*
X35443Y12313D1*
X35394Y12360D1*
X35443Y12409D1*
X35490Y12360D1*
X35443Y12025D2*
Y11355D1*
X34559Y11881D2*
X34607Y11978D1*
X34750Y12025D1*
X34894D1*
X35038Y11978D1*
X35085Y11881D1*
X35038Y11786D1*
X34942Y11738D1*
X34703Y11690D1*
X34607Y11643D1*
X34559Y11547D1*
Y11499D1*
X34607Y11404D1*
X34750Y11355D1*
X34894D1*
X35038Y11404D1*
X35085Y11499D1*
X34107Y12360D2*
Y11547D1*
X34059Y11404D1*
X33963Y11355D1*
X33868D1*
X34250Y12025D2*
X33915D1*
X33320D2*
X33415Y11978D1*
X33511Y11881D1*
X33559Y11738D1*
Y11643D1*
X33511Y11499D1*
X33415Y11404D1*
X33320Y11355D1*
X33177D1*
X33080Y11404D1*
X32985Y11499D1*
X32937Y11643D1*
Y11738D1*
X32985Y11881D1*
X33080Y11978D1*
X33177Y12025D1*
X33320D1*
X32628D2*
Y11355D1*
Y11738D2*
X32579Y11881D1*
X32484Y11978D1*
X32388Y12025D1*
X32244D1*
M02*
