G04 DipTrace 2.3.1.0*
%INTopSilk.gbr*%
%MOIN*%
%ADD12C,0.003*%
%ADD19C,0.04*%
%ADD20C,0.02*%
%ADD32C,0.0216*%
%ADD33C,0.0394*%
%ADD34C,0.0139*%
%ADD35C,0.035*%
%ADD37C,0.0124*%
%FSLAX44Y44*%
G04*
G70*
G90*
G75*
G01*
%LNTopSilk*%
%LPD*%
X18869Y51247D2*
D19*
X24994D1*
X18869D2*
X21994Y56872D1*
X24994Y51247D2*
X21994Y56872D1*
X20307Y57560D2*
G02X20307Y59560I750J1000D01*
G01*
X20348Y61560D2*
G02X20348Y59560I-750J-1000D01*
G01*
X23682Y57560D2*
G02X23682Y59560I750J1000D01*
G01*
X23723Y61560D2*
G02X23723Y59560I-750J-1000D01*
G01*
X21994Y57560D2*
G02X21994Y59560I750J1000D01*
G01*
X22036Y61560D2*
G02X22036Y59560I-750J-1000D01*
G01*
X69682Y51060D2*
X75807D1*
X69682D2*
X72807Y56685D1*
X75807Y51060D2*
X72807Y56685D1*
X71119Y57372D2*
G02X71119Y59372I750J1000D01*
G01*
X71161Y61372D2*
G02X71161Y59372I-750J-1000D01*
G01*
X74494Y57372D2*
G02X74494Y59372I750J1000D01*
G01*
X74536Y61372D2*
G02X74536Y59372I-750J-1000D01*
G01*
X72807Y57372D2*
G02X72807Y59372I750J1000D01*
G01*
X72849Y61372D2*
G02X72849Y59372I-750J-1000D01*
G01*
X8444Y47247D2*
D20*
G02X8444Y47247I38800J0D01*
G01*
X26494Y14497D2*
X67994D1*
X21757Y55505D2*
D12*
X22327D1*
X21757Y55475D2*
X22327D1*
X21757Y55445D2*
X22327D1*
X21757Y55415D2*
X22327D1*
X21757Y55385D2*
X22327D1*
X21757Y55355D2*
X22327D1*
X21757Y55325D2*
X22327D1*
X21757Y55295D2*
X22327D1*
X21757Y55265D2*
X22327D1*
X21757Y55235D2*
X22327D1*
X21757Y55205D2*
X22327D1*
X21757Y55175D2*
X22327D1*
X21757Y55145D2*
X22327D1*
X21757Y55115D2*
X22327D1*
X21757Y55085D2*
X22327D1*
X21757Y55055D2*
X22327D1*
X21757Y55025D2*
X22327D1*
X21757Y54995D2*
X22327D1*
X21757Y54965D2*
X22327D1*
X21757Y54935D2*
X22327D1*
X21757Y54905D2*
X22327D1*
X21757Y54875D2*
X22327D1*
X21757Y54845D2*
X22327D1*
X21757Y54815D2*
X22327D1*
X21757Y54785D2*
X22327D1*
X21758Y54755D2*
X22327D1*
X21762Y54725D2*
X22327D1*
X21769Y54695D2*
X22327D1*
X21777Y54665D2*
X22327D1*
X21782Y54635D2*
X22326D1*
X21785Y54605D2*
X22322D1*
X21786Y54575D2*
X22315D1*
X21787Y54545D2*
X22307D1*
X21787Y54515D2*
X22302D1*
X21787Y54485D2*
X22299D1*
X21787Y54455D2*
X22298D1*
X21787Y54425D2*
X22297D1*
X21787Y54395D2*
X22297D1*
X21787Y54365D2*
X22297D1*
X21787Y54335D2*
X22297D1*
X21788Y54305D2*
X22297D1*
X21792Y54275D2*
X22297D1*
X21799Y54245D2*
X22297D1*
X21807Y54215D2*
X22297D1*
X21812Y54185D2*
X22296D1*
X21815Y54155D2*
X22292D1*
X21816Y54125D2*
X22285D1*
X21817Y54095D2*
X22277D1*
X21817Y54065D2*
X22272D1*
X21817Y54035D2*
X22269D1*
X21817Y54005D2*
X22268D1*
X21817Y53975D2*
X22267D1*
X21817Y53945D2*
X22267D1*
X21817Y53915D2*
X22267D1*
X21818Y53885D2*
X22267D1*
X21822Y53855D2*
X22267D1*
X21829Y53825D2*
X22267D1*
X21837Y53795D2*
X22267D1*
X21842Y53765D2*
X22267D1*
X21845Y53735D2*
X22266D1*
X21846Y53705D2*
X22262D1*
X21847Y53675D2*
X22255D1*
X21847Y53645D2*
X22247D1*
X21847Y53615D2*
X22242D1*
X21847Y53585D2*
X22239D1*
X21847Y53555D2*
X22238D1*
X21847Y53525D2*
X22237D1*
X21847Y53495D2*
X22237D1*
X21848Y53465D2*
X22237D1*
X21852Y53435D2*
X22237D1*
X21859Y53405D2*
X22237D1*
X21867Y53375D2*
X22237D1*
X21872Y53345D2*
X22237D1*
X21875Y53315D2*
X22237D1*
X21876Y53285D2*
X22237D1*
X21877Y53255D2*
X22236D1*
X21877Y53225D2*
X22232D1*
X21877Y53195D2*
X22225D1*
X21877Y53165D2*
X22217D1*
X21877Y53135D2*
X22212D1*
X21877Y53105D2*
X22209D1*
X21877Y53075D2*
X22208D1*
X21877Y53045D2*
X22207D1*
X21878Y53015D2*
X22207D1*
X21882Y52985D2*
X22207D1*
X21889Y52955D2*
X22207D1*
X21897Y52925D2*
X22207D1*
X21902Y52895D2*
X22207D1*
X21905Y52865D2*
X22207D1*
X21906Y52835D2*
X22207D1*
X21907Y52805D2*
X22206D1*
X21907Y52775D2*
X22202D1*
X21907Y52745D2*
X22195D1*
X21907Y52715D2*
X22187D1*
X21907Y52685D2*
X22181D1*
X21907Y52655D2*
X22177D1*
X21787Y52235D2*
X22297D1*
X21787Y52205D2*
X22297D1*
X21787Y52175D2*
X22297D1*
X21787Y52145D2*
X22297D1*
X21787Y52115D2*
X22297D1*
X21787Y52085D2*
X22297D1*
X21787Y52055D2*
X22297D1*
X21787Y52025D2*
X22297D1*
X21787Y51995D2*
X22297D1*
X21787Y51965D2*
X22297D1*
X21787Y51935D2*
X22297D1*
X21787Y51905D2*
X22297D1*
X21787Y51875D2*
X22297D1*
X21787Y51845D2*
X22297D1*
X21787Y51815D2*
X22297D1*
X21787Y51785D2*
X22297D1*
X21787Y51755D2*
X22297D1*
X72569Y55317D2*
X73139D1*
X72569Y55287D2*
X73139D1*
X72569Y55257D2*
X73139D1*
X72569Y55227D2*
X73139D1*
X72569Y55197D2*
X73139D1*
X72569Y55167D2*
X73139D1*
X72569Y55137D2*
X73139D1*
X72569Y55107D2*
X73139D1*
X72569Y55077D2*
X73139D1*
X72569Y55047D2*
X73139D1*
X72569Y55017D2*
X73139D1*
X72569Y54987D2*
X73139D1*
X72569Y54957D2*
X73139D1*
X72569Y54927D2*
X73139D1*
X72569Y54897D2*
X73139D1*
X72569Y54867D2*
X73139D1*
X72569Y54837D2*
X73139D1*
X72569Y54807D2*
X73139D1*
X72569Y54777D2*
X73139D1*
X72569Y54747D2*
X73139D1*
X72569Y54717D2*
X73139D1*
X72569Y54687D2*
X73139D1*
X72569Y54657D2*
X73139D1*
X72569Y54627D2*
X73139D1*
X72569Y54597D2*
X73139D1*
X72571Y54567D2*
X73139D1*
X72574Y54537D2*
X73139D1*
X72582Y54507D2*
X73139D1*
X72589Y54477D2*
X73139D1*
X72594Y54447D2*
X73138D1*
X72597Y54417D2*
X73134D1*
X72598Y54387D2*
X73127D1*
X72599Y54357D2*
X73119D1*
X72599Y54327D2*
X73114D1*
X72599Y54297D2*
X73111D1*
X72599Y54267D2*
X73110D1*
X72599Y54237D2*
X73110D1*
X72599Y54207D2*
X73109D1*
X72599Y54177D2*
X73109D1*
X72599Y54147D2*
X73109D1*
X72601Y54117D2*
X73109D1*
X72604Y54087D2*
X73109D1*
X72612Y54057D2*
X73109D1*
X72619Y54027D2*
X73109D1*
X72624Y53997D2*
X73108D1*
X72627Y53967D2*
X73104D1*
X72628Y53937D2*
X73097D1*
X72629Y53907D2*
X73089D1*
X72629Y53877D2*
X73084D1*
X72629Y53847D2*
X73081D1*
X72629Y53817D2*
X73080D1*
X72629Y53787D2*
X73080D1*
X72629Y53757D2*
X73079D1*
X72629Y53727D2*
X73079D1*
X72631Y53697D2*
X73079D1*
X72634Y53667D2*
X73079D1*
X72642Y53637D2*
X73079D1*
X72649Y53607D2*
X73079D1*
X72654Y53577D2*
X73079D1*
X72657Y53547D2*
X73078D1*
X72658Y53517D2*
X73074D1*
X72659Y53487D2*
X73067D1*
X72659Y53457D2*
X73059D1*
X72659Y53427D2*
X73054D1*
X72659Y53397D2*
X73051D1*
X72659Y53367D2*
X73050D1*
X72659Y53337D2*
X73050D1*
X72659Y53307D2*
X73049D1*
X72661Y53277D2*
X73049D1*
X72664Y53247D2*
X73049D1*
X72672Y53217D2*
X73049D1*
X72679Y53187D2*
X73049D1*
X72684Y53157D2*
X73049D1*
X72687Y53127D2*
X73049D1*
X72688Y53097D2*
X73049D1*
X72689Y53067D2*
X73048D1*
X72689Y53037D2*
X73044D1*
X72689Y53007D2*
X73037D1*
X72689Y52977D2*
X73029D1*
X72689Y52947D2*
X73024D1*
X72689Y52917D2*
X73021D1*
X72689Y52887D2*
X73020D1*
X72689Y52857D2*
X73020D1*
X72691Y52827D2*
X73019D1*
X72694Y52797D2*
X73019D1*
X72702Y52767D2*
X73019D1*
X72709Y52737D2*
X73019D1*
X72714Y52707D2*
X73019D1*
X72717Y52677D2*
X73019D1*
X72718Y52647D2*
X73019D1*
X72719Y52617D2*
X73018D1*
X72719Y52587D2*
X73014D1*
X72719Y52557D2*
X73007D1*
X72719Y52527D2*
X72999D1*
X72719Y52497D2*
X72994D1*
X72719Y52467D2*
X72989D1*
X72599Y52047D2*
X73109D1*
X72599Y52017D2*
X73109D1*
X72599Y51987D2*
X73109D1*
X72599Y51957D2*
X73109D1*
X72599Y51927D2*
X73109D1*
X72599Y51897D2*
X73109D1*
X72599Y51867D2*
X73109D1*
X72599Y51837D2*
X73109D1*
X72599Y51807D2*
X73109D1*
X72599Y51777D2*
X73109D1*
X72599Y51747D2*
X73109D1*
X72599Y51717D2*
X73109D1*
X72599Y51687D2*
X73109D1*
X72599Y51657D2*
X73109D1*
X72599Y51627D2*
X73109D1*
X72599Y51597D2*
X73109D1*
X72599Y51567D2*
X73109D1*
X53094Y13710D2*
X53304D1*
X55614D2*
X55824D1*
X47694Y13680D2*
X47874D1*
X48474D2*
X48624D1*
X50154D2*
X50244D1*
X51264D2*
X51384D1*
X53026D2*
X53372D1*
X53874D2*
X54474D1*
X54924D2*
X55044D1*
X55546D2*
X55892D1*
X56394D2*
X56514D1*
X57084D2*
X57174D1*
X57834D2*
X57954D1*
X58524D2*
X58614D1*
X58884D2*
X59364D1*
X47694Y13650D2*
X47878D1*
X48459D2*
X48624D1*
X50154D2*
X50244D1*
X51264D2*
X51384D1*
X52970D2*
X53428D1*
X53874D2*
X54531D1*
X54924D2*
X55044D1*
X55490D2*
X55948D1*
X56394D2*
X56539D1*
X57084D2*
X57174D1*
X57834D2*
X57954D1*
X58524D2*
X58614D1*
X58884D2*
X59421D1*
X47694Y13620D2*
X47886D1*
X48446D2*
X48624D1*
X50154D2*
X50244D1*
X51264D2*
X51384D1*
X52925D2*
X53472D1*
X53874D2*
X54578D1*
X54924D2*
X55044D1*
X55445D2*
X55992D1*
X56394D2*
X56562D1*
X57084D2*
X57174D1*
X57834D2*
X57954D1*
X58524D2*
X58614D1*
X58884D2*
X59468D1*
X47694Y13590D2*
X47895D1*
X48435D2*
X48624D1*
X50154D2*
X50244D1*
X51264D2*
X51384D1*
X52889D2*
X53106D1*
X53292D2*
X53509D1*
X53874D2*
X54612D1*
X54924D2*
X55044D1*
X55409D2*
X55626D1*
X55812D2*
X56029D1*
X56394D2*
X56583D1*
X57084D2*
X57174D1*
X57834D2*
X57954D1*
X58524D2*
X58614D1*
X58884D2*
X59502D1*
X47694Y13560D2*
X47904D1*
X48424D2*
X48624D1*
X50154D2*
X50244D1*
X51264D2*
X51384D1*
X52857D2*
X53040D1*
X53357D2*
X53541D1*
X53874D2*
X53994D1*
X54438D2*
X54638D1*
X54924D2*
X55044D1*
X55377D2*
X55560D1*
X55877D2*
X56061D1*
X56394D2*
X56604D1*
X57084D2*
X57174D1*
X57834D2*
X57954D1*
X58524D2*
X58614D1*
X58884D2*
X58974D1*
X59393D2*
X59528D1*
X47694Y13530D2*
X47914D1*
X48414D2*
X48624D1*
X50154D2*
X50244D1*
X51264D2*
X51384D1*
X52830D2*
X52990D1*
X53407D2*
X53568D1*
X53874D2*
X53994D1*
X54484D2*
X54657D1*
X54924D2*
X55044D1*
X55350D2*
X55510D1*
X55927D2*
X56088D1*
X56394D2*
X56624D1*
X57084D2*
X57174D1*
X57834D2*
X57954D1*
X58524D2*
X58614D1*
X58884D2*
X58974D1*
X59419D2*
X59547D1*
X47694Y13500D2*
X47924D1*
X48404D2*
X48624D1*
X50154D2*
X50244D1*
X51264D2*
X51384D1*
X52807D2*
X52952D1*
X53446D2*
X53590D1*
X53874D2*
X53994D1*
X54519D2*
X54670D1*
X54924D2*
X55044D1*
X55327D2*
X55472D1*
X55966D2*
X56110D1*
X56394D2*
X56644D1*
X57084D2*
X57174D1*
X57834D2*
X57954D1*
X58524D2*
X58614D1*
X58884D2*
X58974D1*
X59440D2*
X59560D1*
X47694Y13470D2*
X47784D1*
X47845D2*
X47934D1*
X48394D2*
X48624D1*
X50154D2*
X50244D1*
X51264D2*
X51384D1*
X52790D2*
X52922D1*
X53475D2*
X53608D1*
X53874D2*
X53994D1*
X54546D2*
X54677D1*
X54924D2*
X55044D1*
X55310D2*
X55442D1*
X55995D2*
X56128D1*
X56394D2*
X56664D1*
X57084D2*
X57174D1*
X57834D2*
X57954D1*
X58524D2*
X58614D1*
X58884D2*
X58974D1*
X59457D2*
X59567D1*
X47694Y13440D2*
X47784D1*
X47849D2*
X47944D1*
X48384D2*
X48624D1*
X49044D2*
X49224D1*
X49824D2*
X50004D1*
X50153D2*
X50244D1*
X50664D2*
X50874D1*
X51264D2*
X51384D1*
X52776D2*
X52898D1*
X53496D2*
X53621D1*
X53874D2*
X53994D1*
X54555D2*
X54681D1*
X54924D2*
X55044D1*
X55296D2*
X55418D1*
X56016D2*
X56141D1*
X56394D2*
X56684D1*
X57084D2*
X57174D1*
X57834D2*
X57954D1*
X58524D2*
X58614D1*
X58884D2*
X58974D1*
X59469D2*
X59571D1*
X47694Y13410D2*
X47784D1*
X47856D2*
X47954D1*
X48374D2*
X48443D1*
X48504D2*
X48624D1*
X48990D2*
X49281D1*
X49780D2*
X50055D1*
X50148D2*
X50244D1*
X50620D2*
X50918D1*
X51264D2*
X51384D1*
X51594D2*
X51714D1*
X52765D2*
X52880D1*
X53510D2*
X53633D1*
X53874D2*
X53994D1*
X54559D2*
X54683D1*
X54924D2*
X55044D1*
X55285D2*
X55400D1*
X56030D2*
X56153D1*
X56394D2*
X56514D1*
X56580D2*
X56704D1*
X57084D2*
X57174D1*
X57834D2*
X57954D1*
X58524D2*
X58614D1*
X58884D2*
X58974D1*
X59475D2*
X59573D1*
X47694Y13380D2*
X47784D1*
X47865D2*
X47964D1*
X48364D2*
X48439D1*
X48504D2*
X48624D1*
X48943D2*
X49329D1*
X49742D2*
X50117D1*
X50138D2*
X50244D1*
X50581D2*
X50956D1*
X51264D2*
X51384D1*
X51594D2*
X51714D1*
X52754D2*
X52867D1*
X53522D2*
X53643D1*
X53874D2*
X53994D1*
X54559D2*
X54682D1*
X54924D2*
X55044D1*
X55274D2*
X55387D1*
X56042D2*
X56163D1*
X56394D2*
X56514D1*
X56591D2*
X56724D1*
X57084D2*
X57174D1*
X57834D2*
X57954D1*
X58524D2*
X58614D1*
X58884D2*
X58974D1*
X59468D2*
X59572D1*
X47694Y13350D2*
X47784D1*
X47874D2*
X47974D1*
X48354D2*
X48431D1*
X48504D2*
X48624D1*
X48907D2*
X49366D1*
X49712D2*
X50244D1*
X50548D2*
X50989D1*
X51264D2*
X51384D1*
X51594D2*
X51714D1*
X52745D2*
X52860D1*
X53532D2*
X53653D1*
X53874D2*
X53994D1*
X54544D2*
X54679D1*
X54924D2*
X55044D1*
X55265D2*
X55380D1*
X56052D2*
X56173D1*
X56394D2*
X56514D1*
X56607D2*
X56744D1*
X57084D2*
X57174D1*
X57834D2*
X57954D1*
X58524D2*
X58614D1*
X58884D2*
X58974D1*
X59455D2*
X59567D1*
X47694Y13320D2*
X47784D1*
X47884D2*
X47983D1*
X48344D2*
X48423D1*
X48504D2*
X48624D1*
X48881D2*
X49051D1*
X49218D2*
X49396D1*
X49688D2*
X49860D1*
X49998D2*
X50244D1*
X50520D2*
X50664D1*
X50874D2*
X51016D1*
X51264D2*
X51384D1*
X51594D2*
X51714D1*
X52739D2*
X52855D1*
X53540D2*
X53658D1*
X53874D2*
X53994D1*
X54519D2*
X54670D1*
X54924D2*
X55044D1*
X55259D2*
X55375D1*
X56060D2*
X56178D1*
X56394D2*
X56514D1*
X56625D2*
X56764D1*
X57084D2*
X57174D1*
X57834D2*
X57954D1*
X58524D2*
X58614D1*
X58884D2*
X58974D1*
X59438D2*
X59556D1*
X47694Y13290D2*
X47784D1*
X47894D2*
X47990D1*
X48334D2*
X48414D1*
X48504D2*
X48624D1*
X48860D2*
X49007D1*
X49264D2*
X49419D1*
X49670D2*
X49813D1*
X50044D2*
X50244D1*
X50498D2*
X50634D1*
X50903D2*
X51036D1*
X51264D2*
X51384D1*
X52736D2*
X52850D1*
X53546D2*
X53662D1*
X53874D2*
X53994D1*
X54482D2*
X54657D1*
X54924D2*
X55044D1*
X55256D2*
X55370D1*
X56066D2*
X56182D1*
X56394D2*
X56514D1*
X56644D2*
X56784D1*
X57084D2*
X57174D1*
X57834D2*
X57954D1*
X58524D2*
X58614D1*
X58884D2*
X58974D1*
X59400D2*
X59539D1*
X47694Y13260D2*
X47784D1*
X47904D2*
X47997D1*
X48324D2*
X48404D1*
X48504D2*
X48624D1*
X48843D2*
X48976D1*
X49300D2*
X49437D1*
X49656D2*
X49778D1*
X50079D2*
X50244D1*
X50480D2*
X50605D1*
X50929D2*
X51050D1*
X51264D2*
X51384D1*
X52735D2*
X52842D1*
X53555D2*
X53663D1*
X53874D2*
X53994D1*
X54435D2*
X54639D1*
X54924D2*
X55044D1*
X55255D2*
X55362D1*
X56075D2*
X56183D1*
X56394D2*
X56514D1*
X56664D2*
X56804D1*
X57084D2*
X57174D1*
X57834D2*
X58614D1*
X58884D2*
X58974D1*
X59354D2*
X59517D1*
X47694Y13230D2*
X47784D1*
X47914D2*
X48005D1*
X48314D2*
X48394D1*
X48504D2*
X48624D1*
X48828D2*
X48953D1*
X49327D2*
X49450D1*
X49645D2*
X49752D1*
X50103D2*
X50244D1*
X50467D2*
X50580D1*
X50950D2*
X51062D1*
X51264D2*
X51384D1*
X52734D2*
X52834D1*
X53563D2*
X53663D1*
X53874D2*
X54611D1*
X54924D2*
X55044D1*
X55254D2*
X55354D1*
X56083D2*
X56183D1*
X56394D2*
X56514D1*
X56684D2*
X56824D1*
X57084D2*
X57174D1*
X57834D2*
X58614D1*
X58884D2*
X59488D1*
X47694Y13200D2*
X47784D1*
X47924D2*
X48014D1*
X48304D2*
X48384D1*
X48504D2*
X48624D1*
X48817D2*
X48937D1*
X49346D2*
X49458D1*
X49634D2*
X49741D1*
X50119D2*
X50244D1*
X50459D2*
X50562D1*
X50968D2*
X51072D1*
X51264D2*
X51384D1*
X52734D2*
X52829D1*
X53569D2*
X53664D1*
X53874D2*
X54573D1*
X54924D2*
X55044D1*
X55254D2*
X55349D1*
X56089D2*
X56184D1*
X56394D2*
X56514D1*
X56704D2*
X56844D1*
X57084D2*
X57174D1*
X57834D2*
X58614D1*
X58884D2*
X59454D1*
X47694Y13170D2*
X47784D1*
X47934D2*
X48024D1*
X48294D2*
X48374D1*
X48504D2*
X48624D1*
X48810D2*
X48925D1*
X49360D2*
X49461D1*
X49625D2*
X49732D1*
X50132D2*
X50244D1*
X50451D2*
X50552D1*
X50980D2*
X51078D1*
X51264D2*
X51384D1*
X52734D2*
X52827D1*
X53570D2*
X53664D1*
X53874D2*
X54524D1*
X54924D2*
X55044D1*
X55254D2*
X55347D1*
X56090D2*
X56184D1*
X56394D2*
X56514D1*
X56724D2*
X56864D1*
X57084D2*
X57174D1*
X57834D2*
X58614D1*
X58884D2*
X59494D1*
X47694Y13140D2*
X47784D1*
X47944D2*
X48034D1*
X48284D2*
X48364D1*
X48504D2*
X48624D1*
X48806D2*
X48914D1*
X49367D2*
X49463D1*
X49619D2*
X49723D1*
X50142D2*
X50244D1*
X50443D2*
X50547D1*
X50988D2*
X51081D1*
X51264D2*
X51384D1*
X52734D2*
X52830D1*
X53568D2*
X53664D1*
X53874D2*
X54470D1*
X54924D2*
X55044D1*
X55254D2*
X55350D1*
X56088D2*
X56184D1*
X56394D2*
X56514D1*
X56744D2*
X56884D1*
X57084D2*
X57174D1*
X57834D2*
X57954D1*
X58524D2*
X58614D1*
X58884D2*
X59532D1*
X47694Y13110D2*
X47784D1*
X47954D2*
X48044D1*
X48274D2*
X48354D1*
X48504D2*
X48624D1*
X48805D2*
X48905D1*
X49371D2*
X49463D1*
X49616D2*
X49714D1*
X50148D2*
X50244D1*
X50434D2*
X51083D1*
X51264D2*
X51384D1*
X52734D2*
X52836D1*
X53561D2*
X53664D1*
X53874D2*
X53994D1*
X54258D2*
X54414D1*
X54924D2*
X55044D1*
X55254D2*
X55356D1*
X56081D2*
X56184D1*
X56394D2*
X56514D1*
X56764D2*
X56904D1*
X57084D2*
X57174D1*
X57834D2*
X57954D1*
X58524D2*
X58614D1*
X58884D2*
X58974D1*
X59387D2*
X59562D1*
X47694Y13080D2*
X47784D1*
X47964D2*
X48054D1*
X48264D2*
X48344D1*
X48504D2*
X48624D1*
X48804D2*
X48899D1*
X49373D2*
X49464D1*
X49615D2*
X49709D1*
X50151D2*
X50244D1*
X50429D2*
X51083D1*
X51264D2*
X51384D1*
X52734D2*
X52844D1*
X53554D2*
X53664D1*
X53874D2*
X53994D1*
X54304D2*
X54456D1*
X54924D2*
X55044D1*
X55254D2*
X55364D1*
X56074D2*
X56184D1*
X56394D2*
X56514D1*
X56784D2*
X56924D1*
X57084D2*
X57174D1*
X57834D2*
X57954D1*
X58524D2*
X58614D1*
X58884D2*
X58974D1*
X59430D2*
X59584D1*
X47694Y13050D2*
X47784D1*
X47974D2*
X48064D1*
X48254D2*
X48334D1*
X48504D2*
X48624D1*
X48804D2*
X48897D1*
X49373D2*
X49464D1*
X49614D2*
X49707D1*
X50153D2*
X50244D1*
X50426D2*
X51084D1*
X51264D2*
X51384D1*
X52735D2*
X52849D1*
X53549D2*
X53663D1*
X53874D2*
X53994D1*
X54340D2*
X54491D1*
X54924D2*
X55044D1*
X55255D2*
X55369D1*
X56069D2*
X56183D1*
X56394D2*
X56514D1*
X56804D2*
X56944D1*
X57084D2*
X57174D1*
X57834D2*
X57954D1*
X58524D2*
X58614D1*
X58884D2*
X58974D1*
X59462D2*
X59600D1*
X47694Y13020D2*
X47784D1*
X47984D2*
X48074D1*
X48244D2*
X48324D1*
X48504D2*
X48624D1*
X48804D2*
X48900D1*
X49374D2*
X49464D1*
X49614D2*
X49710D1*
X50153D2*
X50244D1*
X50426D2*
X51084D1*
X51264D2*
X51384D1*
X52739D2*
X52853D1*
X53545D2*
X53659D1*
X53874D2*
X53994D1*
X54368D2*
X54518D1*
X54924D2*
X55044D1*
X55259D2*
X55373D1*
X56065D2*
X56179D1*
X56394D2*
X56514D1*
X56824D2*
X56964D1*
X57084D2*
X57174D1*
X57834D2*
X57954D1*
X58524D2*
X58614D1*
X58884D2*
X58974D1*
X59484D2*
X59612D1*
X47694Y12990D2*
X47784D1*
X47994D2*
X48084D1*
X48234D2*
X48314D1*
X48504D2*
X48624D1*
X48805D2*
X48906D1*
X49373D2*
X49464D1*
X49615D2*
X49716D1*
X50152D2*
X50244D1*
X50429D2*
X50544D1*
X51264D2*
X51384D1*
X52746D2*
X52858D1*
X53539D2*
X53651D1*
X53874D2*
X53994D1*
X54392D2*
X54541D1*
X54924D2*
X55044D1*
X55266D2*
X55378D1*
X56059D2*
X56171D1*
X56394D2*
X56514D1*
X56844D2*
X56985D1*
X57083D2*
X57174D1*
X57834D2*
X57954D1*
X58524D2*
X58614D1*
X58884D2*
X58974D1*
X59499D2*
X59622D1*
X47694Y12960D2*
X47784D1*
X48004D2*
X48094D1*
X48224D2*
X48304D1*
X48504D2*
X48624D1*
X48809D2*
X48915D1*
X49369D2*
X49464D1*
X49619D2*
X49725D1*
X50149D2*
X50244D1*
X50436D2*
X50545D1*
X51264D2*
X51384D1*
X52755D2*
X52867D1*
X53531D2*
X53643D1*
X53874D2*
X53994D1*
X54417D2*
X54563D1*
X54924D2*
X55044D1*
X55275D2*
X55387D1*
X56051D2*
X56163D1*
X56394D2*
X56514D1*
X56864D2*
X57011D1*
X57078D2*
X57174D1*
X57834D2*
X57954D1*
X58524D2*
X58614D1*
X58884D2*
X58974D1*
X59506D2*
X59628D1*
X47694Y12930D2*
X47784D1*
X48014D2*
X48105D1*
X48212D2*
X48294D1*
X48504D2*
X48624D1*
X48816D2*
X48924D1*
X49360D2*
X49463D1*
X49626D2*
X49734D1*
X50140D2*
X50244D1*
X50445D2*
X50550D1*
X51264D2*
X51384D1*
X52764D2*
X52880D1*
X53518D2*
X53634D1*
X53874D2*
X53994D1*
X54441D2*
X54583D1*
X54924D2*
X55044D1*
X55284D2*
X55400D1*
X56038D2*
X56154D1*
X56394D2*
X56514D1*
X56884D2*
X57045D1*
X57068D2*
X57174D1*
X57834D2*
X57954D1*
X58524D2*
X58614D1*
X58884D2*
X58974D1*
X59506D2*
X59630D1*
X47694Y12900D2*
X47784D1*
X48024D2*
X48120D1*
X48197D2*
X48284D1*
X48504D2*
X48624D1*
X48825D2*
X48935D1*
X49347D2*
X49459D1*
X49635D2*
X49745D1*
X50128D2*
X50244D1*
X50454D2*
X50562D1*
X50994D2*
X51024D1*
X51264D2*
X51384D1*
X52775D2*
X52897D1*
X53500D2*
X53622D1*
X53874D2*
X53994D1*
X54461D2*
X54604D1*
X54924D2*
X55044D1*
X55295D2*
X55417D1*
X56020D2*
X56142D1*
X56394D2*
X56514D1*
X56904D2*
X57174D1*
X57834D2*
X57954D1*
X58524D2*
X58614D1*
X58884D2*
X58974D1*
X59499D2*
X59628D1*
X47694Y12870D2*
X47784D1*
X48034D2*
X48144D1*
X48174D2*
X48274D1*
X48504D2*
X48624D1*
X48834D2*
X48951D1*
X49328D2*
X49450D1*
X49644D2*
X49761D1*
X50110D2*
X50244D1*
X50465D2*
X50584D1*
X50972D2*
X51052D1*
X51264D2*
X51384D1*
X52789D2*
X52920D1*
X53477D2*
X53608D1*
X53874D2*
X53994D1*
X54479D2*
X54624D1*
X54924D2*
X55044D1*
X55309D2*
X55440D1*
X55997D2*
X56128D1*
X56394D2*
X56514D1*
X56924D2*
X57174D1*
X57834D2*
X57954D1*
X58524D2*
X58614D1*
X58884D2*
X58974D1*
X59486D2*
X59620D1*
X47694Y12840D2*
X47784D1*
X48044D2*
X48264D1*
X48504D2*
X48624D1*
X48845D2*
X48972D1*
X49303D2*
X49438D1*
X49655D2*
X49782D1*
X50087D2*
X50244D1*
X50478D2*
X50613D1*
X50948D2*
X51060D1*
X51264D2*
X51384D1*
X52807D2*
X52950D1*
X53448D2*
X53591D1*
X53874D2*
X53994D1*
X54496D2*
X54644D1*
X54924D2*
X55044D1*
X55327D2*
X55470D1*
X55968D2*
X56111D1*
X56394D2*
X56514D1*
X56944D2*
X57174D1*
X57834D2*
X57954D1*
X58524D2*
X58614D1*
X58884D2*
X58974D1*
X59464D2*
X59609D1*
X47694Y12810D2*
X47784D1*
X48054D2*
X48254D1*
X48504D2*
X48624D1*
X48859D2*
X49036D1*
X49235D2*
X49420D1*
X49669D2*
X49846D1*
X50033D2*
X50244D1*
X50493D2*
X50681D1*
X50883D2*
X51052D1*
X51264D2*
X51384D1*
X52830D2*
X52995D1*
X53403D2*
X53568D1*
X53874D2*
X53994D1*
X54515D2*
X54664D1*
X54924D2*
X55044D1*
X55350D2*
X55515D1*
X55923D2*
X56088D1*
X56394D2*
X56514D1*
X56964D2*
X57174D1*
X57834D2*
X57954D1*
X58524D2*
X58614D1*
X58884D2*
X58974D1*
X59429D2*
X59595D1*
X47694Y12780D2*
X47784D1*
X48064D2*
X48244D1*
X48504D2*
X48624D1*
X48878D2*
X49134D1*
X49135D2*
X49397D1*
X49688D2*
X49944D1*
X49952D2*
X50244D1*
X50513D2*
X50782D1*
X50784D2*
X51040D1*
X51264D2*
X51384D1*
X52856D2*
X53076D1*
X53321D2*
X53541D1*
X53874D2*
X53994D1*
X54535D2*
X54684D1*
X54924D2*
X55044D1*
X55376D2*
X55596D1*
X55841D2*
X56061D1*
X56394D2*
X56514D1*
X56984D2*
X57174D1*
X57834D2*
X57954D1*
X58524D2*
X58614D1*
X58884D2*
X58974D1*
X59384D2*
X59578D1*
X47694Y12750D2*
X47784D1*
X48074D2*
X48234D1*
X48504D2*
X48624D1*
X48906D2*
X49369D1*
X49716D2*
X50244D1*
X50540D2*
X51011D1*
X51264D2*
X51384D1*
X51594D2*
X51714D1*
X52886D2*
X53206D1*
X53192D2*
X53511D1*
X53874D2*
X53994D1*
X54554D2*
X54703D1*
X54924D2*
X55044D1*
X55406D2*
X55726D1*
X55712D2*
X56031D1*
X56394D2*
X56514D1*
X57004D2*
X57174D1*
X57834D2*
X57954D1*
X58524D2*
X58614D1*
X58884D2*
X59553D1*
X47694Y12720D2*
X47784D1*
X48084D2*
X48224D1*
X48504D2*
X48624D1*
X48945D2*
X49331D1*
X49755D2*
X50088D1*
X50154D2*
X50244D1*
X50575D2*
X50973D1*
X51264D2*
X51384D1*
X51594D2*
X51714D1*
X52922D2*
X53476D1*
X53874D2*
X53994D1*
X54575D2*
X54719D1*
X54924D2*
X55044D1*
X55442D2*
X55996D1*
X56394D2*
X56514D1*
X57023D2*
X57174D1*
X57834D2*
X57954D1*
X58524D2*
X58614D1*
X58884D2*
X59514D1*
X47694Y12690D2*
X47784D1*
X48098D2*
X48213D1*
X48504D2*
X48624D1*
X48992D2*
X49281D1*
X49802D2*
X50048D1*
X50154D2*
X50244D1*
X50618D2*
X50925D1*
X51264D2*
X51384D1*
X51594D2*
X51714D1*
X52968D2*
X53429D1*
X53874D2*
X53994D1*
X54598D2*
X54732D1*
X54924D2*
X55044D1*
X55488D2*
X55949D1*
X56394D2*
X56514D1*
X57040D2*
X57174D1*
X57834D2*
X57954D1*
X58524D2*
X58614D1*
X58884D2*
X59458D1*
X47694Y12660D2*
X47784D1*
X48114D2*
X48204D1*
X48504D2*
X48624D1*
X49044D2*
X49224D1*
X49854D2*
X50004D1*
X50154D2*
X50244D1*
X50664D2*
X50874D1*
X51264D2*
X51384D1*
X51594D2*
X51714D1*
X53027D2*
X53370D1*
X53874D2*
X53994D1*
X54624D2*
X54744D1*
X54924D2*
X55044D1*
X55547D2*
X55890D1*
X56394D2*
X56514D1*
X57054D2*
X57174D1*
X57834D2*
X57954D1*
X58524D2*
X58614D1*
X58884D2*
X59394D1*
X53094Y12630D2*
X53304D1*
X55614D2*
X55824D1*
X47694Y12180D2*
X48234D1*
X50904D2*
X50994D1*
X51234D2*
X51324D1*
X52764D2*
X53274D1*
X53694D2*
X53874D1*
X54294D2*
X54924D1*
X55524D2*
X55584D1*
X56334D2*
X56394D1*
X47694Y12150D2*
X48291D1*
X50004D2*
X50034D1*
X50894D2*
X50980D1*
X51224D2*
X51310D1*
X52764D2*
X53274D1*
X53641D2*
X53927D1*
X54294D2*
X54923D1*
X55498D2*
X55584D1*
X56308D2*
X56394D1*
X47694Y12120D2*
X48338D1*
X49976D2*
X50034D1*
X50885D2*
X50971D1*
X51215D2*
X51301D1*
X52764D2*
X53274D1*
X53597D2*
X53970D1*
X54294D2*
X54917D1*
X55476D2*
X55584D1*
X56286D2*
X56394D1*
X47694Y12090D2*
X48372D1*
X49956D2*
X50034D1*
X50879D2*
X50966D1*
X51209D2*
X51296D1*
X52763D2*
X53274D1*
X53566D2*
X54002D1*
X54294D2*
X54905D1*
X55454D2*
X55584D1*
X56264D2*
X56394D1*
X47694Y12060D2*
X47814D1*
X48223D2*
X48398D1*
X49949D2*
X50034D1*
X50875D2*
X50960D1*
X51205D2*
X51290D1*
X52759D2*
X52853D1*
X53543D2*
X53694D1*
X53863D2*
X54024D1*
X54778D2*
X54887D1*
X55430D2*
X55584D1*
X56240D2*
X56394D1*
X47694Y12030D2*
X47814D1*
X48262D2*
X48417D1*
X49946D2*
X50034D1*
X50870D2*
X50952D1*
X51200D2*
X51282D1*
X52752D2*
X52849D1*
X53529D2*
X53665D1*
X53902D2*
X54040D1*
X54756D2*
X54865D1*
X55407D2*
X55584D1*
X56217D2*
X56394D1*
X47694Y12000D2*
X47814D1*
X48291D2*
X48430D1*
X49945D2*
X50034D1*
X50862D2*
X50944D1*
X51192D2*
X51274D1*
X52744D2*
X52842D1*
X53520D2*
X53640D1*
X53929D2*
X54052D1*
X54735D2*
X54845D1*
X55385D2*
X55584D1*
X56195D2*
X56394D1*
X47694Y11970D2*
X47814D1*
X48312D2*
X48437D1*
X49944D2*
X50034D1*
X50854D2*
X50939D1*
X51184D2*
X51269D1*
X52739D2*
X52834D1*
X53517D2*
X53622D1*
X53950D2*
X54062D1*
X54714D2*
X54824D1*
X55364D2*
X55584D1*
X56174D2*
X56394D1*
X47694Y11940D2*
X47814D1*
X48327D2*
X48441D1*
X48834D2*
X49074D1*
X49644D2*
X49764D1*
X49944D2*
X50034D1*
X50849D2*
X50936D1*
X51178D2*
X51266D1*
X52735D2*
X52827D1*
X53515D2*
X53611D1*
X53956D2*
X54070D1*
X54694D2*
X54804D1*
X55344D2*
X55428D1*
X55494D2*
X55584D1*
X56154D2*
X56238D1*
X56304D2*
X56394D1*
X47694Y11910D2*
X47814D1*
X48339D2*
X48443D1*
X48776D2*
X49116D1*
X49464D2*
X49524D1*
X49608D2*
X50184D1*
X50846D2*
X50934D1*
X51174D2*
X51265D1*
X51534D2*
X51654D1*
X52730D2*
X52821D1*
X53514D2*
X53610D1*
X53958D2*
X54067D1*
X54674D2*
X54785D1*
X55324D2*
X55416D1*
X55494D2*
X55584D1*
X56134D2*
X56226D1*
X56304D2*
X56394D1*
X47694Y11880D2*
X47814D1*
X48336D2*
X48443D1*
X48730D2*
X49151D1*
X49464D2*
X49538D1*
X49568D2*
X50184D1*
X50634D2*
X51384D1*
X51534D2*
X51654D1*
X52722D2*
X52814D1*
X53515D2*
X53620D1*
X53948D2*
X54061D1*
X54654D2*
X54768D1*
X55304D2*
X55397D1*
X55494D2*
X55584D1*
X56114D2*
X56207D1*
X56304D2*
X56394D1*
X47694Y11850D2*
X47814D1*
X48330D2*
X48444D1*
X48695D2*
X49177D1*
X49464D2*
X49794D1*
X49854D2*
X50184D1*
X50634D2*
X51384D1*
X51534D2*
X51654D1*
X52714D2*
X52807D1*
X52914D2*
X53094D1*
X53520D2*
X53643D1*
X53932D2*
X54051D1*
X54635D2*
X54752D1*
X55284D2*
X55375D1*
X55494D2*
X55584D1*
X56094D2*
X56185D1*
X56304D2*
X56394D1*
X47694Y11820D2*
X47814D1*
X48321D2*
X48443D1*
X48670D2*
X48805D1*
X49033D2*
X49196D1*
X49464D2*
X49645D1*
X49764D2*
X49794D1*
X49854D2*
X50184D1*
X50634D2*
X51384D1*
X51534D2*
X51654D1*
X52709D2*
X52814D1*
X52840D2*
X53147D1*
X53530D2*
X53695D1*
X53874D2*
X54036D1*
X54618D2*
X54737D1*
X55264D2*
X55355D1*
X55494D2*
X55584D1*
X56074D2*
X56165D1*
X56304D2*
X56394D1*
X47694Y11790D2*
X47814D1*
X48306D2*
X48439D1*
X48652D2*
X48779D1*
X49072D2*
X49210D1*
X49464D2*
X49619D1*
X49944D2*
X50034D1*
X50634D2*
X51384D1*
X52705D2*
X53190D1*
X53557D2*
X53775D1*
X53780D2*
X54010D1*
X54602D2*
X54721D1*
X55243D2*
X55334D1*
X55494D2*
X55584D1*
X56053D2*
X56144D1*
X56304D2*
X56394D1*
X47694Y11760D2*
X47814D1*
X48280D2*
X48430D1*
X48637D2*
X48756D1*
X49099D2*
X49217D1*
X49464D2*
X49597D1*
X49944D2*
X50034D1*
X50814D2*
X50910D1*
X51143D2*
X51304D1*
X52700D2*
X53222D1*
X53593D2*
X53975D1*
X54588D2*
X54706D1*
X55220D2*
X55314D1*
X55494D2*
X55584D1*
X56030D2*
X56124D1*
X56304D2*
X56394D1*
X47694Y11730D2*
X47814D1*
X48242D2*
X48418D1*
X48658D2*
X48735D1*
X49119D2*
X49221D1*
X49464D2*
X49580D1*
X49944D2*
X50034D1*
X50809D2*
X50892D1*
X51139D2*
X51243D1*
X52694D2*
X52890D1*
X53087D2*
X53245D1*
X53634D2*
X53934D1*
X54575D2*
X54691D1*
X55197D2*
X55294D1*
X55494D2*
X55584D1*
X56007D2*
X56104D1*
X56304D2*
X56394D1*
X47694Y11700D2*
X47814D1*
X48195D2*
X48400D1*
X48684D2*
X48714D1*
X49126D2*
X49223D1*
X49464D2*
X49567D1*
X49944D2*
X50034D1*
X50802D2*
X50882D1*
X51132D2*
X51219D1*
X52691D2*
X52842D1*
X53130D2*
X53264D1*
X53594D2*
X53974D1*
X54565D2*
X54676D1*
X55175D2*
X55274D1*
X55494D2*
X55584D1*
X55985D2*
X56084D1*
X56304D2*
X56394D1*
X47694Y11670D2*
X48375D1*
X49076D2*
X49223D1*
X49464D2*
X49560D1*
X49944D2*
X50034D1*
X50794D2*
X50876D1*
X51124D2*
X51210D1*
X52709D2*
X52801D1*
X53162D2*
X53279D1*
X53556D2*
X54012D1*
X54553D2*
X54661D1*
X55154D2*
X55254D1*
X55494D2*
X55584D1*
X55964D2*
X56064D1*
X56304D2*
X56394D1*
X47694Y11640D2*
X48339D1*
X48994D2*
X49224D1*
X49464D2*
X49556D1*
X49944D2*
X50034D1*
X50789D2*
X50870D1*
X51119D2*
X51202D1*
X52734D2*
X52764D1*
X53184D2*
X53291D1*
X53525D2*
X53700D1*
X53868D2*
X54044D1*
X54540D2*
X54647D1*
X55134D2*
X55234D1*
X55494D2*
X55584D1*
X55944D2*
X56044D1*
X56304D2*
X56394D1*
X47694Y11610D2*
X48291D1*
X48892D2*
X49224D1*
X49464D2*
X49555D1*
X49944D2*
X50034D1*
X50786D2*
X50862D1*
X51116D2*
X51193D1*
X53199D2*
X53298D1*
X53503D2*
X53653D1*
X53914D2*
X54068D1*
X54527D2*
X54635D1*
X55114D2*
X55213D1*
X55494D2*
X55584D1*
X55924D2*
X56023D1*
X56304D2*
X56394D1*
X47694Y11580D2*
X48234D1*
X48797D2*
X49224D1*
X49464D2*
X49554D1*
X49944D2*
X50034D1*
X50785D2*
X50853D1*
X51115D2*
X51184D1*
X53207D2*
X53301D1*
X53488D2*
X53618D1*
X53949D2*
X54087D1*
X54515D2*
X54625D1*
X55094D2*
X55189D1*
X55494D2*
X55584D1*
X55904D2*
X55999D1*
X56304D2*
X56394D1*
X47694Y11550D2*
X47814D1*
X48726D2*
X49224D1*
X49464D2*
X49554D1*
X49944D2*
X50034D1*
X50784D2*
X50844D1*
X51114D2*
X51178D1*
X53211D2*
X53303D1*
X53475D2*
X53592D1*
X53973D2*
X54100D1*
X54505D2*
X54614D1*
X55075D2*
X55162D1*
X55494D2*
X55584D1*
X55885D2*
X55972D1*
X56304D2*
X56394D1*
X47694Y11520D2*
X47814D1*
X48671D2*
X49049D1*
X49134D2*
X49224D1*
X49464D2*
X49554D1*
X49944D2*
X50034D1*
X50634D2*
X51384D1*
X53213D2*
X53303D1*
X53465D2*
X53582D1*
X53989D2*
X54107D1*
X54494D2*
X54604D1*
X55060D2*
X55134D1*
X55494D2*
X55584D1*
X55870D2*
X55944D1*
X56304D2*
X56394D1*
X47694Y11490D2*
X47814D1*
X48646D2*
X48920D1*
X49133D2*
X49224D1*
X49464D2*
X49554D1*
X49944D2*
X50034D1*
X50634D2*
X51384D1*
X53212D2*
X53304D1*
X53459D2*
X53577D1*
X54001D2*
X54111D1*
X54485D2*
X54594D1*
X55051D2*
X55734D1*
X55861D2*
X56544D1*
X47694Y11460D2*
X47814D1*
X48629D2*
X48824D1*
X49129D2*
X49224D1*
X49464D2*
X49554D1*
X49944D2*
X50034D1*
X50634D2*
X51384D1*
X53209D2*
X53304D1*
X53457D2*
X53575D1*
X54010D2*
X54113D1*
X54478D2*
X54584D1*
X55047D2*
X55734D1*
X55857D2*
X56544D1*
X47694Y11430D2*
X47814D1*
X48616D2*
X48755D1*
X49120D2*
X49224D1*
X49464D2*
X49554D1*
X49944D2*
X50034D1*
X50634D2*
X51384D1*
X52674D2*
X52764D1*
X53200D2*
X53303D1*
X53460D2*
X53576D1*
X54006D2*
X54112D1*
X54471D2*
X54575D1*
X55045D2*
X55734D1*
X55855D2*
X56544D1*
X47694Y11400D2*
X47814D1*
X48606D2*
X48729D1*
X49107D2*
X49224D1*
X49464D2*
X49554D1*
X49944D2*
X50034D1*
X50724D2*
X50814D1*
X51054D2*
X51144D1*
X52675D2*
X52775D1*
X53188D2*
X53299D1*
X53466D2*
X53580D1*
X53995D2*
X54109D1*
X54462D2*
X54569D1*
X55044D2*
X55734D1*
X55854D2*
X56544D1*
X47694Y11370D2*
X47814D1*
X48600D2*
X48722D1*
X49088D2*
X49224D1*
X49464D2*
X49554D1*
X49944D2*
X50035D1*
X50724D2*
X50813D1*
X51054D2*
X51143D1*
X52679D2*
X52791D1*
X53169D2*
X53290D1*
X53475D2*
X53590D1*
X53981D2*
X54100D1*
X54454D2*
X54565D1*
X55494D2*
X55584D1*
X56304D2*
X56394D1*
X47694Y11340D2*
X47814D1*
X48601D2*
X48718D1*
X49062D2*
X49224D1*
X49464D2*
X49554D1*
X49944D2*
X50039D1*
X50723D2*
X50809D1*
X51053D2*
X51139D1*
X52687D2*
X52812D1*
X53146D2*
X53278D1*
X53485D2*
X53617D1*
X53946D2*
X54088D1*
X54449D2*
X54560D1*
X55494D2*
X55584D1*
X56304D2*
X56394D1*
X47694Y11310D2*
X47814D1*
X48608D2*
X48781D1*
X48990D2*
X49225D1*
X49464D2*
X49554D1*
X49944D2*
X50060D1*
X50719D2*
X50802D1*
X51049D2*
X51132D1*
X52700D2*
X52881D1*
X53087D2*
X53260D1*
X53500D2*
X53683D1*
X53883D2*
X54070D1*
X54446D2*
X54552D1*
X55494D2*
X55584D1*
X56304D2*
X56394D1*
X47694Y11280D2*
X47814D1*
X48620D2*
X48884D1*
X48879D2*
X49229D1*
X49464D2*
X49554D1*
X49945D2*
X50101D1*
X50712D2*
X50794D1*
X51042D2*
X51124D1*
X52719D2*
X52990D1*
X52996D2*
X53237D1*
X53522D2*
X53783D1*
X53785D2*
X54047D1*
X54445D2*
X54544D1*
X55494D2*
X55584D1*
X56304D2*
X56394D1*
X47694Y11250D2*
X47814D1*
X48639D2*
X49236D1*
X49464D2*
X49554D1*
X49948D2*
X50138D1*
X50704D2*
X50789D1*
X51034D2*
X51119D1*
X51534D2*
X51654D1*
X52746D2*
X53209D1*
X53549D2*
X54020D1*
X54443D2*
X54539D1*
X55494D2*
X55584D1*
X56304D2*
X56394D1*
X47694Y11220D2*
X47814D1*
X48666D2*
X49063D1*
X49139D2*
X49244D1*
X49464D2*
X49554D1*
X49963D2*
X50166D1*
X50699D2*
X50786D1*
X51029D2*
X51116D1*
X51534D2*
X51654D1*
X52785D2*
X53171D1*
X53587D2*
X53987D1*
X54438D2*
X54536D1*
X55494D2*
X55584D1*
X56304D2*
X56394D1*
X47694Y11190D2*
X47814D1*
X48702D2*
X49012D1*
X49150D2*
X49249D1*
X49464D2*
X49554D1*
X49996D2*
X50176D1*
X50696D2*
X50785D1*
X51026D2*
X51115D1*
X51534D2*
X51654D1*
X52832D2*
X53121D1*
X53636D2*
X53947D1*
X54428D2*
X54535D1*
X55494D2*
X55584D1*
X56304D2*
X56394D1*
X47694Y11160D2*
X47814D1*
X48744D2*
X48954D1*
X49164D2*
X49254D1*
X49464D2*
X49554D1*
X50034D2*
X50184D1*
X50694D2*
X50784D1*
X51024D2*
X51114D1*
X51534D2*
X51654D1*
X52884D2*
X53064D1*
X53694D2*
X53904D1*
X54414D2*
X54534D1*
X55494D2*
X55584D1*
X56304D2*
X56394D1*
X33934Y12960D2*
X34144D1*
X39034D2*
X39244D1*
X41134D2*
X41344D1*
X42574D2*
X42784D1*
X43624D2*
X43834D1*
X33866Y12930D2*
X34212D1*
X34654D2*
X35374D1*
X35614D2*
X36334D1*
X36574D2*
X36754D1*
X37354D2*
X37504D1*
X37744D2*
X38464D1*
X38965D2*
X39306D1*
X39754D2*
X39874D1*
X40444D2*
X40534D1*
X41065D2*
X41406D1*
X42505D2*
X42846D1*
X43556D2*
X43902D1*
X44404D2*
X44584D1*
X45184D2*
X45334D1*
X33811Y12900D2*
X34267D1*
X34654D2*
X35374D1*
X35614D2*
X36334D1*
X36574D2*
X36758D1*
X37339D2*
X37504D1*
X37744D2*
X38464D1*
X38906D2*
X39360D1*
X39754D2*
X39899D1*
X40444D2*
X40534D1*
X41006D2*
X41460D1*
X42446D2*
X42900D1*
X43500D2*
X43958D1*
X44404D2*
X44588D1*
X45169D2*
X45334D1*
X33770Y12870D2*
X34307D1*
X34654D2*
X35374D1*
X35614D2*
X36334D1*
X36574D2*
X36766D1*
X37326D2*
X37504D1*
X37744D2*
X38464D1*
X38858D2*
X39402D1*
X39754D2*
X39922D1*
X40444D2*
X40534D1*
X40958D2*
X41502D1*
X42398D2*
X42942D1*
X43455D2*
X44002D1*
X44404D2*
X44596D1*
X45156D2*
X45334D1*
X33742Y12840D2*
X33911D1*
X34167D2*
X34336D1*
X34654D2*
X35374D1*
X35614D2*
X36334D1*
X36574D2*
X36775D1*
X37315D2*
X37504D1*
X37744D2*
X38464D1*
X38821D2*
X39010D1*
X39238D2*
X39433D1*
X39754D2*
X39943D1*
X40444D2*
X40534D1*
X40921D2*
X41110D1*
X41338D2*
X41533D1*
X42361D2*
X42550D1*
X42778D2*
X42973D1*
X43419D2*
X43636D1*
X43822D2*
X44039D1*
X44404D2*
X44605D1*
X45145D2*
X45334D1*
X33722Y12810D2*
X33867D1*
X34210D2*
X34357D1*
X34654D2*
X34774D1*
X35614D2*
X35734D1*
X36574D2*
X36784D1*
X37304D2*
X37504D1*
X37744D2*
X37864D1*
X38791D2*
X38962D1*
X39285D2*
X39456D1*
X39754D2*
X39964D1*
X40444D2*
X40534D1*
X40891D2*
X41062D1*
X41385D2*
X41556D1*
X42331D2*
X42502D1*
X42825D2*
X42996D1*
X43387D2*
X43570D1*
X43887D2*
X44071D1*
X44404D2*
X44614D1*
X45134D2*
X45334D1*
X33708Y12780D2*
X33836D1*
X34242D2*
X34375D1*
X34654D2*
X34774D1*
X35614D2*
X35734D1*
X36574D2*
X36794D1*
X37294D2*
X37504D1*
X37744D2*
X37864D1*
X38767D2*
X38922D1*
X39324D2*
X39474D1*
X39754D2*
X39984D1*
X40444D2*
X40534D1*
X40867D2*
X41022D1*
X41424D2*
X41574D1*
X42307D2*
X42462D1*
X42864D2*
X43014D1*
X43360D2*
X43520D1*
X43937D2*
X44098D1*
X44404D2*
X44624D1*
X45124D2*
X45334D1*
X33700Y12750D2*
X33813D1*
X34264D2*
X34390D1*
X34654D2*
X34774D1*
X35614D2*
X35734D1*
X36574D2*
X36804D1*
X37284D2*
X37504D1*
X37744D2*
X37864D1*
X38746D2*
X38888D1*
X39355D2*
X39489D1*
X39754D2*
X40004D1*
X40444D2*
X40534D1*
X40846D2*
X40988D1*
X41455D2*
X41589D1*
X42286D2*
X42428D1*
X42895D2*
X43029D1*
X43337D2*
X43482D1*
X43976D2*
X44120D1*
X44404D2*
X44634D1*
X45114D2*
X45334D1*
X33696Y12720D2*
X33797D1*
X34279D2*
X34401D1*
X34654D2*
X34774D1*
X35614D2*
X35734D1*
X36574D2*
X36664D1*
X36725D2*
X36814D1*
X37274D2*
X37504D1*
X37744D2*
X37864D1*
X38729D2*
X38861D1*
X39380D2*
X39501D1*
X39754D2*
X40024D1*
X40444D2*
X40534D1*
X40829D2*
X40961D1*
X41480D2*
X41601D1*
X42269D2*
X42401D1*
X42920D2*
X43041D1*
X43320D2*
X43452D1*
X44005D2*
X44138D1*
X44404D2*
X44494D1*
X44555D2*
X44644D1*
X45104D2*
X45334D1*
X33695Y12690D2*
X33792D1*
X34288D2*
X34408D1*
X34654D2*
X34774D1*
X35614D2*
X35734D1*
X36574D2*
X36664D1*
X36729D2*
X36824D1*
X37264D2*
X37504D1*
X37744D2*
X37864D1*
X38716D2*
X38842D1*
X39402D2*
X39508D1*
X39754D2*
X40044D1*
X40444D2*
X40534D1*
X40816D2*
X40942D1*
X41502D2*
X41608D1*
X42256D2*
X42382D1*
X42942D2*
X43048D1*
X43306D2*
X43428D1*
X44026D2*
X44151D1*
X44404D2*
X44494D1*
X44559D2*
X44654D1*
X45094D2*
X45334D1*
X33695Y12660D2*
X33800D1*
X34294D2*
X34414D1*
X34654D2*
X34774D1*
X35614D2*
X35734D1*
X36574D2*
X36664D1*
X36736D2*
X36834D1*
X37254D2*
X37323D1*
X37384D2*
X37504D1*
X37744D2*
X37864D1*
X38705D2*
X38827D1*
X39424D2*
X39514D1*
X39754D2*
X39874D1*
X39940D2*
X40064D1*
X40444D2*
X40534D1*
X40805D2*
X40927D1*
X41524D2*
X41614D1*
X42245D2*
X42367D1*
X42964D2*
X43054D1*
X43295D2*
X43410D1*
X44040D2*
X44163D1*
X44404D2*
X44494D1*
X44566D2*
X44664D1*
X45084D2*
X45153D1*
X45214D2*
X45334D1*
X33699Y12630D2*
X33813D1*
X34654D2*
X34774D1*
X35614D2*
X35734D1*
X36574D2*
X36664D1*
X36745D2*
X36844D1*
X37244D2*
X37319D1*
X37384D2*
X37504D1*
X37744D2*
X37864D1*
X38694D2*
X38815D1*
X39754D2*
X39874D1*
X39951D2*
X40084D1*
X40444D2*
X40534D1*
X40794D2*
X40915D1*
X42234D2*
X42355D1*
X43284D2*
X43397D1*
X44052D2*
X44173D1*
X44404D2*
X44494D1*
X44575D2*
X44674D1*
X45074D2*
X45149D1*
X45214D2*
X45334D1*
X33707Y12600D2*
X33848D1*
X34654D2*
X34774D1*
X35614D2*
X35734D1*
X36574D2*
X36664D1*
X36754D2*
X36854D1*
X37234D2*
X37311D1*
X37384D2*
X37504D1*
X37744D2*
X37864D1*
X38685D2*
X38805D1*
X39754D2*
X39874D1*
X39967D2*
X40104D1*
X40444D2*
X40534D1*
X40785D2*
X40905D1*
X42225D2*
X42345D1*
X43275D2*
X43390D1*
X44062D2*
X44183D1*
X44404D2*
X44494D1*
X44584D2*
X44684D1*
X45064D2*
X45141D1*
X45214D2*
X45334D1*
X33720Y12570D2*
X33901D1*
X34654D2*
X34774D1*
X35614D2*
X35734D1*
X36574D2*
X36664D1*
X36764D2*
X36863D1*
X37224D2*
X37303D1*
X37384D2*
X37504D1*
X37744D2*
X37864D1*
X38679D2*
X38799D1*
X39754D2*
X39874D1*
X39985D2*
X40124D1*
X40444D2*
X40534D1*
X40779D2*
X40899D1*
X42219D2*
X42339D1*
X43269D2*
X43385D1*
X44070D2*
X44188D1*
X44404D2*
X44494D1*
X44594D2*
X44693D1*
X45054D2*
X45133D1*
X45214D2*
X45334D1*
X33738Y12540D2*
X33975D1*
X34654D2*
X34774D1*
X35614D2*
X35734D1*
X36574D2*
X36664D1*
X36774D2*
X36870D1*
X37214D2*
X37294D1*
X37384D2*
X37504D1*
X37744D2*
X37864D1*
X38676D2*
X38796D1*
X39754D2*
X39874D1*
X40004D2*
X40144D1*
X40444D2*
X40534D1*
X40776D2*
X40896D1*
X42216D2*
X42336D1*
X43266D2*
X43380D1*
X44076D2*
X44192D1*
X44404D2*
X44494D1*
X44604D2*
X44700D1*
X45044D2*
X45124D1*
X45214D2*
X45334D1*
X33763Y12510D2*
X34065D1*
X34654D2*
X34774D1*
X35614D2*
X35734D1*
X36574D2*
X36664D1*
X36784D2*
X36877D1*
X37204D2*
X37284D1*
X37384D2*
X37504D1*
X37744D2*
X37864D1*
X38675D2*
X38795D1*
X39754D2*
X39874D1*
X40024D2*
X40164D1*
X40444D2*
X40534D1*
X40775D2*
X40895D1*
X42215D2*
X42335D1*
X43265D2*
X43372D1*
X44085D2*
X44193D1*
X44404D2*
X44494D1*
X44614D2*
X44707D1*
X45034D2*
X45114D1*
X45214D2*
X45334D1*
X33799Y12480D2*
X34155D1*
X34654D2*
X35344D1*
X35614D2*
X36304D1*
X36574D2*
X36664D1*
X36794D2*
X36885D1*
X37194D2*
X37274D1*
X37384D2*
X37504D1*
X37744D2*
X38434D1*
X38674D2*
X38794D1*
X39754D2*
X39874D1*
X40044D2*
X40184D1*
X40444D2*
X40534D1*
X40774D2*
X40894D1*
X42214D2*
X42334D1*
X43264D2*
X43364D1*
X44093D2*
X44193D1*
X44404D2*
X44494D1*
X44624D2*
X44715D1*
X45024D2*
X45104D1*
X45214D2*
X45334D1*
X33853Y12450D2*
X34234D1*
X34654D2*
X35344D1*
X35614D2*
X36304D1*
X36574D2*
X36664D1*
X36804D2*
X36894D1*
X37184D2*
X37264D1*
X37384D2*
X37504D1*
X37744D2*
X38434D1*
X38674D2*
X38794D1*
X39754D2*
X39874D1*
X40064D2*
X40204D1*
X40444D2*
X40534D1*
X40774D2*
X40894D1*
X42214D2*
X42334D1*
X43264D2*
X43359D1*
X44099D2*
X44194D1*
X44404D2*
X44494D1*
X44634D2*
X44724D1*
X45014D2*
X45094D1*
X45214D2*
X45334D1*
X33926Y12420D2*
X34294D1*
X34654D2*
X35344D1*
X35614D2*
X36304D1*
X36574D2*
X36664D1*
X36814D2*
X36904D1*
X37174D2*
X37254D1*
X37384D2*
X37504D1*
X37744D2*
X38434D1*
X38674D2*
X38794D1*
X39754D2*
X39874D1*
X40084D2*
X40224D1*
X40444D2*
X40534D1*
X40774D2*
X40894D1*
X42214D2*
X42334D1*
X43264D2*
X43357D1*
X44100D2*
X44194D1*
X44404D2*
X44494D1*
X44644D2*
X44734D1*
X45004D2*
X45084D1*
X45214D2*
X45334D1*
X34012Y12390D2*
X34340D1*
X34654D2*
X35344D1*
X35614D2*
X36304D1*
X36574D2*
X36664D1*
X36824D2*
X36914D1*
X37164D2*
X37244D1*
X37384D2*
X37504D1*
X37744D2*
X38434D1*
X38674D2*
X38794D1*
X39754D2*
X39874D1*
X40104D2*
X40244D1*
X40444D2*
X40534D1*
X40774D2*
X40894D1*
X42214D2*
X42334D1*
X43264D2*
X43360D1*
X44098D2*
X44194D1*
X44404D2*
X44494D1*
X44654D2*
X44744D1*
X44994D2*
X45074D1*
X45214D2*
X45334D1*
X34099Y12360D2*
X34374D1*
X34654D2*
X34774D1*
X35614D2*
X35734D1*
X36574D2*
X36664D1*
X36834D2*
X36924D1*
X37154D2*
X37234D1*
X37384D2*
X37504D1*
X37744D2*
X37864D1*
X38674D2*
X38794D1*
X39754D2*
X39874D1*
X40124D2*
X40264D1*
X40444D2*
X40534D1*
X40774D2*
X40894D1*
X42214D2*
X42334D1*
X43264D2*
X43366D1*
X44091D2*
X44194D1*
X44404D2*
X44494D1*
X44664D2*
X44754D1*
X44984D2*
X45064D1*
X45214D2*
X45334D1*
X34175Y12330D2*
X34398D1*
X34654D2*
X34774D1*
X35614D2*
X35734D1*
X36574D2*
X36664D1*
X36844D2*
X36934D1*
X37144D2*
X37224D1*
X37384D2*
X37504D1*
X37744D2*
X37864D1*
X38674D2*
X38794D1*
X39754D2*
X39874D1*
X40144D2*
X40284D1*
X40444D2*
X40534D1*
X40774D2*
X40894D1*
X42214D2*
X42334D1*
X43264D2*
X43374D1*
X44084D2*
X44194D1*
X44404D2*
X44494D1*
X44674D2*
X44764D1*
X44974D2*
X45054D1*
X45214D2*
X45334D1*
X34234Y12300D2*
X34417D1*
X34654D2*
X34774D1*
X35614D2*
X35734D1*
X36574D2*
X36664D1*
X36854D2*
X36944D1*
X37134D2*
X37214D1*
X37384D2*
X37504D1*
X37744D2*
X37864D1*
X38675D2*
X38795D1*
X39754D2*
X39874D1*
X40164D2*
X40304D1*
X40444D2*
X40534D1*
X40775D2*
X40895D1*
X42215D2*
X42335D1*
X43265D2*
X43379D1*
X44079D2*
X44193D1*
X44404D2*
X44494D1*
X44684D2*
X44774D1*
X44964D2*
X45044D1*
X45214D2*
X45334D1*
X34281Y12270D2*
X34430D1*
X34654D2*
X34774D1*
X35614D2*
X35734D1*
X36574D2*
X36664D1*
X36864D2*
X36954D1*
X37124D2*
X37204D1*
X37384D2*
X37504D1*
X37744D2*
X37864D1*
X38679D2*
X38799D1*
X39754D2*
X39874D1*
X40184D2*
X40324D1*
X40444D2*
X40534D1*
X40779D2*
X40899D1*
X42219D2*
X42339D1*
X43269D2*
X43383D1*
X44075D2*
X44189D1*
X44404D2*
X44494D1*
X44694D2*
X44784D1*
X44954D2*
X45034D1*
X45214D2*
X45334D1*
X34302Y12240D2*
X34437D1*
X34654D2*
X34774D1*
X35614D2*
X35734D1*
X36574D2*
X36664D1*
X36874D2*
X36964D1*
X37114D2*
X37194D1*
X37384D2*
X37504D1*
X37744D2*
X37864D1*
X38686D2*
X38806D1*
X39454D2*
X39484D1*
X39754D2*
X39874D1*
X40204D2*
X40345D1*
X40443D2*
X40534D1*
X40786D2*
X40906D1*
X41554D2*
X41584D1*
X42226D2*
X42346D1*
X42994D2*
X43024D1*
X43276D2*
X43388D1*
X44069D2*
X44181D1*
X44404D2*
X44494D1*
X44704D2*
X44794D1*
X44944D2*
X45024D1*
X45214D2*
X45334D1*
X33634Y12210D2*
X33754D1*
X34314D2*
X34441D1*
X34654D2*
X34774D1*
X35614D2*
X35734D1*
X36574D2*
X36664D1*
X36884D2*
X36974D1*
X37104D2*
X37184D1*
X37384D2*
X37504D1*
X37744D2*
X37864D1*
X38695D2*
X38815D1*
X39435D2*
X39515D1*
X39754D2*
X39874D1*
X40224D2*
X40371D1*
X40438D2*
X40534D1*
X40795D2*
X40915D1*
X41535D2*
X41615D1*
X42235D2*
X42355D1*
X42975D2*
X43055D1*
X43285D2*
X43397D1*
X44061D2*
X44173D1*
X44404D2*
X44494D1*
X44714D2*
X44804D1*
X44934D2*
X45014D1*
X45214D2*
X45334D1*
X33648Y12180D2*
X33765D1*
X34320D2*
X34442D1*
X34654D2*
X34774D1*
X35614D2*
X35734D1*
X36574D2*
X36664D1*
X36894D2*
X36985D1*
X37092D2*
X37174D1*
X37384D2*
X37504D1*
X37744D2*
X37864D1*
X38704D2*
X38825D1*
X39418D2*
X39528D1*
X39754D2*
X39874D1*
X40244D2*
X40405D1*
X40428D2*
X40534D1*
X40804D2*
X40925D1*
X41518D2*
X41628D1*
X42244D2*
X42365D1*
X42958D2*
X43068D1*
X43294D2*
X43410D1*
X44048D2*
X44164D1*
X44404D2*
X44494D1*
X44724D2*
X44815D1*
X44922D2*
X45004D1*
X45214D2*
X45334D1*
X33657Y12150D2*
X33779D1*
X34321D2*
X34438D1*
X34654D2*
X34774D1*
X35614D2*
X35734D1*
X36574D2*
X36664D1*
X36904D2*
X37000D1*
X37077D2*
X37164D1*
X37384D2*
X37504D1*
X37744D2*
X37864D1*
X38715D2*
X38840D1*
X39401D2*
X39525D1*
X39754D2*
X39874D1*
X40264D2*
X40534D1*
X40815D2*
X40940D1*
X41501D2*
X41625D1*
X42255D2*
X42380D1*
X42941D2*
X43065D1*
X43305D2*
X43427D1*
X44030D2*
X44152D1*
X44404D2*
X44494D1*
X44734D2*
X44830D1*
X44907D2*
X44994D1*
X45214D2*
X45334D1*
X33666Y12120D2*
X33797D1*
X34319D2*
X34430D1*
X34654D2*
X34774D1*
X35614D2*
X35734D1*
X36574D2*
X36664D1*
X36914D2*
X37024D1*
X37054D2*
X37154D1*
X37384D2*
X37504D1*
X37744D2*
X37864D1*
X38729D2*
X38861D1*
X39381D2*
X39517D1*
X39754D2*
X39874D1*
X40284D2*
X40534D1*
X40829D2*
X40961D1*
X41481D2*
X41617D1*
X42269D2*
X42401D1*
X42921D2*
X43057D1*
X43319D2*
X43450D1*
X44007D2*
X44138D1*
X44404D2*
X44494D1*
X44744D2*
X44854D1*
X44884D2*
X44984D1*
X45214D2*
X45334D1*
X33676Y12090D2*
X33822D1*
X34308D2*
X34419D1*
X34654D2*
X34774D1*
X35614D2*
X35734D1*
X36574D2*
X36664D1*
X36924D2*
X37144D1*
X37384D2*
X37504D1*
X37744D2*
X37864D1*
X38746D2*
X38889D1*
X39356D2*
X39504D1*
X39754D2*
X39874D1*
X40304D2*
X40534D1*
X40846D2*
X40989D1*
X41456D2*
X41604D1*
X42286D2*
X42429D1*
X42896D2*
X43044D1*
X43337D2*
X43480D1*
X43978D2*
X44121D1*
X44404D2*
X44494D1*
X44754D2*
X44974D1*
X45214D2*
X45334D1*
X33689Y12060D2*
X33853D1*
X34280D2*
X34405D1*
X34654D2*
X34774D1*
X35614D2*
X35734D1*
X36574D2*
X36664D1*
X36934D2*
X37134D1*
X37384D2*
X37504D1*
X37744D2*
X37864D1*
X38765D2*
X38930D1*
X39325D2*
X39489D1*
X39754D2*
X39874D1*
X40324D2*
X40534D1*
X40865D2*
X41030D1*
X41425D2*
X41589D1*
X42305D2*
X42470D1*
X42865D2*
X43029D1*
X43360D2*
X43525D1*
X43933D2*
X44098D1*
X44404D2*
X44494D1*
X44764D2*
X44964D1*
X45214D2*
X45334D1*
X33707Y12030D2*
X33938D1*
X34197D2*
X34390D1*
X34654D2*
X34774D1*
X35614D2*
X35734D1*
X36574D2*
X36664D1*
X36944D2*
X37124D1*
X37384D2*
X37504D1*
X37744D2*
X37864D1*
X38785D2*
X39004D1*
X39245D2*
X39470D1*
X39754D2*
X39874D1*
X40344D2*
X40534D1*
X40885D2*
X41104D1*
X41345D2*
X41570D1*
X42325D2*
X42544D1*
X42785D2*
X43010D1*
X43386D2*
X43606D1*
X43851D2*
X44071D1*
X44404D2*
X44494D1*
X44774D2*
X44954D1*
X45214D2*
X45334D1*
X33731Y12000D2*
X34070D1*
X34066D2*
X34370D1*
X34654D2*
X35404D1*
X35614D2*
X36364D1*
X36574D2*
X36664D1*
X36954D2*
X37114D1*
X37384D2*
X37504D1*
X37744D2*
X38494D1*
X38810D2*
X39125D1*
X39123D2*
X39443D1*
X39754D2*
X39874D1*
X40364D2*
X40534D1*
X40910D2*
X41225D1*
X41223D2*
X41543D1*
X41854D2*
X41974D1*
X42350D2*
X42665D1*
X42663D2*
X42983D1*
X43416D2*
X43736D1*
X43722D2*
X44041D1*
X44404D2*
X44494D1*
X44784D2*
X44944D1*
X45214D2*
X45334D1*
X33764Y11970D2*
X34340D1*
X34654D2*
X35404D1*
X35614D2*
X36364D1*
X36574D2*
X36664D1*
X36964D2*
X37104D1*
X37384D2*
X37504D1*
X37744D2*
X38494D1*
X38844D2*
X39407D1*
X39754D2*
X39874D1*
X40383D2*
X40534D1*
X40944D2*
X41507D1*
X41854D2*
X41974D1*
X42384D2*
X42947D1*
X43452D2*
X44006D1*
X44404D2*
X44494D1*
X44794D2*
X44934D1*
X45214D2*
X45334D1*
X33809Y11940D2*
X34297D1*
X34654D2*
X35404D1*
X35614D2*
X36364D1*
X36574D2*
X36664D1*
X36978D2*
X37093D1*
X37384D2*
X37504D1*
X37744D2*
X38494D1*
X38888D2*
X39361D1*
X39754D2*
X39874D1*
X40400D2*
X40534D1*
X40988D2*
X41461D1*
X41854D2*
X41974D1*
X42428D2*
X42901D1*
X43498D2*
X43959D1*
X44404D2*
X44494D1*
X44808D2*
X44923D1*
X45214D2*
X45334D1*
X33868Y11910D2*
X34239D1*
X34654D2*
X35404D1*
X35614D2*
X36364D1*
X36574D2*
X36664D1*
X36994D2*
X37084D1*
X37384D2*
X37504D1*
X37744D2*
X38494D1*
X38943D2*
X39305D1*
X39754D2*
X39874D1*
X40414D2*
X40534D1*
X41043D2*
X41405D1*
X41854D2*
X41974D1*
X42483D2*
X42845D1*
X43557D2*
X43900D1*
X44404D2*
X44494D1*
X44824D2*
X44914D1*
X45214D2*
X45334D1*
X33934Y11880D2*
X34174D1*
X39004D2*
X39244D1*
X41104D2*
X41344D1*
X42544D2*
X42784D1*
X43624D2*
X43834D1*
X47694Y10680D2*
X48294D1*
X48744D2*
X49464D1*
X49614D2*
X49734D1*
X50394D2*
X50514D1*
X50844D2*
X51054D1*
X47694Y10650D2*
X48351D1*
X48744D2*
X49464D1*
X49619D2*
X49738D1*
X50383D2*
X50499D1*
X50786D2*
X51107D1*
X47694Y10620D2*
X48398D1*
X48744D2*
X49464D1*
X49627D2*
X49746D1*
X50373D2*
X50486D1*
X50740D2*
X51150D1*
X47694Y10590D2*
X48432D1*
X48744D2*
X49464D1*
X49639D2*
X49755D1*
X50364D2*
X50475D1*
X50705D2*
X51182D1*
X47694Y10560D2*
X47814D1*
X48258D2*
X48458D1*
X48744D2*
X48864D1*
X49651D2*
X49764D1*
X50353D2*
X50464D1*
X50680D2*
X50851D1*
X51054D2*
X51205D1*
X47694Y10530D2*
X47814D1*
X48304D2*
X48477D1*
X48744D2*
X48864D1*
X49663D2*
X49775D1*
X50340D2*
X50454D1*
X50661D2*
X50807D1*
X51082D2*
X51224D1*
X47694Y10500D2*
X47814D1*
X48339D2*
X48490D1*
X48744D2*
X48864D1*
X49673D2*
X49788D1*
X50327D2*
X50443D1*
X50648D2*
X50776D1*
X51107D2*
X51239D1*
X47694Y10470D2*
X47814D1*
X48366D2*
X48497D1*
X48744D2*
X48864D1*
X49684D2*
X49801D1*
X50315D2*
X50430D1*
X50640D2*
X50753D1*
X51125D2*
X51251D1*
X47694Y10440D2*
X47814D1*
X48375D2*
X48501D1*
X48744D2*
X48864D1*
X49694D2*
X49813D1*
X50305D2*
X50417D1*
X50636D2*
X50737D1*
X51135D2*
X51258D1*
X47694Y10410D2*
X47814D1*
X48379D2*
X48503D1*
X48744D2*
X48864D1*
X49704D2*
X49823D1*
X50294D2*
X50405D1*
X50634D2*
X50724D1*
X51140D2*
X51260D1*
X47694Y10380D2*
X47814D1*
X48379D2*
X48502D1*
X48744D2*
X48864D1*
X49715D2*
X49834D1*
X50284D2*
X50394D1*
X51141D2*
X51258D1*
X47694Y10350D2*
X47814D1*
X48364D2*
X48499D1*
X48744D2*
X48864D1*
X49728D2*
X49844D1*
X50274D2*
X50383D1*
X51138D2*
X51251D1*
X47694Y10320D2*
X47814D1*
X48339D2*
X48490D1*
X48744D2*
X48864D1*
X49741D2*
X49854D1*
X50264D2*
X50370D1*
X51130D2*
X51242D1*
X47694Y10290D2*
X47814D1*
X48302D2*
X48477D1*
X48744D2*
X48864D1*
X49753D2*
X49864D1*
X50254D2*
X50357D1*
X51118D2*
X51232D1*
X47694Y10260D2*
X47814D1*
X48255D2*
X48459D1*
X48744D2*
X48864D1*
X49763D2*
X49874D1*
X50244D2*
X50345D1*
X51100D2*
X51219D1*
X47694Y10230D2*
X48431D1*
X48744D2*
X49434D1*
X49774D2*
X49884D1*
X50233D2*
X50335D1*
X51078D2*
X51201D1*
X47694Y10200D2*
X48393D1*
X48744D2*
X49434D1*
X49784D2*
X49894D1*
X50220D2*
X50324D1*
X51051D2*
X51183D1*
X47694Y10170D2*
X48344D1*
X48744D2*
X49434D1*
X49794D2*
X49904D1*
X50207D2*
X50314D1*
X51023D2*
X51162D1*
X47694Y10140D2*
X48290D1*
X48744D2*
X49434D1*
X49805D2*
X49914D1*
X50195D2*
X50304D1*
X50993D2*
X51138D1*
X47694Y10110D2*
X47814D1*
X48078D2*
X48234D1*
X48744D2*
X48864D1*
X49818D2*
X49924D1*
X50185D2*
X50293D1*
X50962D2*
X51111D1*
X47694Y10080D2*
X47814D1*
X48124D2*
X48276D1*
X48744D2*
X48864D1*
X49831D2*
X49934D1*
X50174D2*
X50280D1*
X50929D2*
X51082D1*
X47694Y10050D2*
X47814D1*
X48160D2*
X48311D1*
X48744D2*
X48864D1*
X49843D2*
X49944D1*
X50164D2*
X50267D1*
X50892D2*
X51048D1*
X47694Y10020D2*
X47814D1*
X48188D2*
X48338D1*
X48744D2*
X48864D1*
X49853D2*
X49954D1*
X50154D2*
X50255D1*
X50854D2*
X51011D1*
X47694Y9990D2*
X47814D1*
X48212D2*
X48361D1*
X48744D2*
X48864D1*
X49865D2*
X49964D1*
X50144D2*
X50244D1*
X50819D2*
X50974D1*
X47694Y9960D2*
X47814D1*
X48237D2*
X48383D1*
X48744D2*
X48864D1*
X49878D2*
X49974D1*
X50134D2*
X50233D1*
X50786D2*
X50939D1*
X47694Y9930D2*
X47814D1*
X48261D2*
X48403D1*
X48744D2*
X48864D1*
X49891D2*
X49984D1*
X50124D2*
X50220D1*
X50755D2*
X50906D1*
X47694Y9900D2*
X47814D1*
X48281D2*
X48424D1*
X48744D2*
X48864D1*
X49903D2*
X49994D1*
X50114D2*
X50207D1*
X50725D2*
X50875D1*
X47694Y9870D2*
X47814D1*
X48299D2*
X48444D1*
X48744D2*
X48864D1*
X49913D2*
X50006D1*
X50104D2*
X50195D1*
X50699D2*
X50844D1*
X47694Y9840D2*
X47814D1*
X48316D2*
X48464D1*
X48744D2*
X48864D1*
X49924D2*
X50022D1*
X50093D2*
X50185D1*
X50676D2*
X50814D1*
X47694Y9810D2*
X47814D1*
X48335D2*
X48484D1*
X48744D2*
X48864D1*
X49934D2*
X50056D1*
X50080D2*
X50174D1*
X50655D2*
X50784D1*
X47694Y9780D2*
X47814D1*
X48355D2*
X48504D1*
X48744D2*
X48864D1*
X49944D2*
X50164D1*
X50635D2*
X50754D1*
X47694Y9750D2*
X47814D1*
X48374D2*
X48523D1*
X48744D2*
X49494D1*
X49955D2*
X50154D1*
X50620D2*
X51264D1*
X47694Y9720D2*
X47814D1*
X48395D2*
X48539D1*
X48744D2*
X49494D1*
X49969D2*
X50144D1*
X50611D2*
X51264D1*
X47694Y9690D2*
X47814D1*
X48418D2*
X48552D1*
X48744D2*
X49494D1*
X49985D2*
X50133D1*
X50607D2*
X51264D1*
X47694Y9660D2*
X47814D1*
X48444D2*
X48564D1*
X48744D2*
X49494D1*
X50004D2*
X50124D1*
X50604D2*
X51264D1*
X21757Y55505D2*
Y55475D1*
Y55445D1*
Y55415D1*
Y55385D1*
Y55355D1*
Y55325D1*
Y55295D1*
Y55265D1*
Y55235D1*
Y55205D1*
Y55175D1*
Y55145D1*
Y55115D1*
Y55085D1*
Y55055D1*
Y55025D1*
Y54995D1*
Y54965D1*
Y54935D1*
Y54905D1*
Y54875D1*
Y54845D1*
Y54815D1*
Y54785D1*
X21758Y54755D1*
X21762Y54725D1*
X21769Y54695D1*
X21777Y54665D1*
X21782Y54635D1*
X21785Y54605D1*
X21786Y54575D1*
X21787Y54545D1*
Y54515D1*
Y54485D1*
Y54455D1*
Y54425D1*
Y54395D1*
Y54365D1*
Y54335D1*
X21788Y54305D1*
X21792Y54275D1*
X21799Y54245D1*
X21807Y54215D1*
X21812Y54185D1*
X21815Y54155D1*
X21816Y54125D1*
X21817Y54095D1*
Y54065D1*
Y54035D1*
Y54005D1*
Y53975D1*
Y53945D1*
Y53915D1*
X21818Y53885D1*
X21822Y53855D1*
X21829Y53825D1*
X21837Y53795D1*
X21842Y53765D1*
X21845Y53735D1*
X21846Y53705D1*
X21847Y53675D1*
Y53645D1*
Y53615D1*
Y53585D1*
Y53555D1*
Y53525D1*
Y53495D1*
X21848Y53465D1*
X21852Y53435D1*
X21859Y53405D1*
X21867Y53375D1*
X21872Y53345D1*
X21875Y53315D1*
X21876Y53285D1*
X21877Y53255D1*
Y53225D1*
Y53195D1*
Y53165D1*
Y53135D1*
Y53105D1*
Y53075D1*
Y53045D1*
X21878Y53015D1*
X21882Y52985D1*
X21889Y52955D1*
X21897Y52925D1*
X21902Y52895D1*
X21905Y52865D1*
X21906Y52835D1*
X21907Y52805D1*
Y52775D1*
Y52745D1*
Y52715D1*
Y52685D1*
Y52655D1*
X22327Y55505D2*
Y55475D1*
Y55445D1*
Y55415D1*
Y55385D1*
Y55355D1*
Y55325D1*
Y55295D1*
Y55265D1*
Y55235D1*
Y55205D1*
Y55175D1*
Y55145D1*
Y55115D1*
Y55085D1*
Y55055D1*
Y55025D1*
Y54995D1*
Y54965D1*
Y54935D1*
Y54905D1*
Y54875D1*
Y54845D1*
Y54815D1*
Y54785D1*
Y54755D1*
Y54725D1*
Y54695D1*
Y54665D1*
X22326Y54635D1*
X22322Y54605D1*
X22315Y54575D1*
X22307Y54545D1*
X22302Y54515D1*
X22299Y54485D1*
X22298Y54455D1*
X22297Y54425D1*
Y54395D1*
Y54365D1*
Y54335D1*
Y54305D1*
Y54275D1*
Y54245D1*
Y54215D1*
X22296Y54185D1*
X22292Y54155D1*
X22285Y54125D1*
X22277Y54095D1*
X22272Y54065D1*
X22269Y54035D1*
X22268Y54005D1*
X22267Y53975D1*
Y53945D1*
Y53915D1*
Y53885D1*
Y53855D1*
Y53825D1*
Y53795D1*
Y53765D1*
X22266Y53735D1*
X22262Y53705D1*
X22255Y53675D1*
X22247Y53645D1*
X22242Y53615D1*
X22239Y53585D1*
X22238Y53555D1*
X22237Y53525D1*
Y53495D1*
Y53465D1*
Y53435D1*
Y53405D1*
Y53375D1*
Y53345D1*
Y53315D1*
Y53285D1*
X22236Y53255D1*
X22232Y53225D1*
X22225Y53195D1*
X22217Y53165D1*
X22212Y53135D1*
X22209Y53105D1*
X22208Y53075D1*
X22207Y53045D1*
Y53015D1*
Y52985D1*
Y52955D1*
Y52925D1*
Y52895D1*
Y52865D1*
Y52835D1*
X22206Y52805D1*
X22202Y52775D1*
X22195Y52745D1*
X22187Y52715D1*
X22181Y52685D1*
X22177Y52655D1*
X21787Y52235D2*
Y52205D1*
Y52175D1*
Y52145D1*
Y52115D1*
Y52085D1*
Y52055D1*
Y52025D1*
Y51995D1*
Y51965D1*
Y51935D1*
Y51905D1*
Y51875D1*
Y51845D1*
Y51815D1*
Y51785D1*
Y51755D1*
X22297Y52235D2*
Y52205D1*
Y52175D1*
Y52145D1*
Y52115D1*
Y52085D1*
Y52055D1*
Y52025D1*
Y51995D1*
Y51965D1*
Y51935D1*
Y51905D1*
Y51875D1*
Y51845D1*
Y51815D1*
Y51785D1*
Y51755D1*
X72569Y55317D2*
Y55287D1*
Y55257D1*
Y55227D1*
Y55197D1*
Y55167D1*
Y55137D1*
Y55107D1*
Y55077D1*
Y55047D1*
Y55017D1*
Y54987D1*
Y54957D1*
Y54927D1*
Y54897D1*
Y54867D1*
Y54837D1*
Y54807D1*
Y54777D1*
Y54747D1*
Y54717D1*
Y54687D1*
Y54657D1*
Y54627D1*
Y54597D1*
X72571Y54567D1*
X72574Y54537D1*
X72582Y54507D1*
X72589Y54477D1*
X72594Y54447D1*
X72597Y54417D1*
X72598Y54387D1*
X72599Y54357D1*
Y54327D1*
Y54297D1*
Y54267D1*
Y54237D1*
Y54207D1*
Y54177D1*
Y54147D1*
X72601Y54117D1*
X72604Y54087D1*
X72612Y54057D1*
X72619Y54027D1*
X72624Y53997D1*
X72627Y53967D1*
X72628Y53937D1*
X72629Y53907D1*
Y53877D1*
Y53847D1*
Y53817D1*
Y53787D1*
Y53757D1*
Y53727D1*
X72631Y53697D1*
X72634Y53667D1*
X72642Y53637D1*
X72649Y53607D1*
X72654Y53577D1*
X72657Y53547D1*
X72658Y53517D1*
X72659Y53487D1*
Y53457D1*
Y53427D1*
Y53397D1*
Y53367D1*
Y53337D1*
Y53307D1*
X72661Y53277D1*
X72664Y53247D1*
X72672Y53217D1*
X72679Y53187D1*
X72684Y53157D1*
X72687Y53127D1*
X72688Y53097D1*
X72689Y53067D1*
Y53037D1*
Y53007D1*
Y52977D1*
Y52947D1*
Y52917D1*
Y52887D1*
Y52857D1*
X72691Y52827D1*
X72694Y52797D1*
X72702Y52767D1*
X72709Y52737D1*
X72714Y52707D1*
X72717Y52677D1*
X72718Y52647D1*
X72719Y52617D1*
Y52587D1*
Y52557D1*
Y52527D1*
Y52497D1*
Y52467D1*
X73139Y55317D2*
Y55287D1*
Y55257D1*
Y55227D1*
Y55197D1*
Y55167D1*
Y55137D1*
Y55107D1*
Y55077D1*
Y55047D1*
Y55017D1*
Y54987D1*
Y54957D1*
Y54927D1*
Y54897D1*
Y54867D1*
Y54837D1*
Y54807D1*
Y54777D1*
Y54747D1*
Y54717D1*
Y54687D1*
Y54657D1*
Y54627D1*
Y54597D1*
Y54567D1*
Y54537D1*
Y54507D1*
Y54477D1*
X73138Y54447D1*
X73134Y54417D1*
X73127Y54387D1*
X73119Y54357D1*
X73114Y54327D1*
X73111Y54297D1*
X73110Y54267D1*
Y54237D1*
X73109Y54207D1*
Y54177D1*
Y54147D1*
Y54117D1*
Y54087D1*
Y54057D1*
Y54027D1*
X73108Y53997D1*
X73104Y53967D1*
X73097Y53937D1*
X73089Y53907D1*
X73084Y53877D1*
X73081Y53847D1*
X73080Y53817D1*
Y53787D1*
X73079Y53757D1*
Y53727D1*
Y53697D1*
Y53667D1*
Y53637D1*
Y53607D1*
Y53577D1*
X73078Y53547D1*
X73074Y53517D1*
X73067Y53487D1*
X73059Y53457D1*
X73054Y53427D1*
X73051Y53397D1*
X73050Y53367D1*
Y53337D1*
X73049Y53307D1*
Y53277D1*
Y53247D1*
Y53217D1*
Y53187D1*
Y53157D1*
Y53127D1*
Y53097D1*
X73048Y53067D1*
X73044Y53037D1*
X73037Y53007D1*
X73029Y52977D1*
X73024Y52947D1*
X73021Y52917D1*
X73020Y52887D1*
Y52857D1*
X73019Y52827D1*
Y52797D1*
Y52767D1*
Y52737D1*
Y52707D1*
Y52677D1*
Y52647D1*
X73018Y52617D1*
X73014Y52587D1*
X73007Y52557D1*
X72999Y52527D1*
X72994Y52497D1*
X72989Y52467D1*
X72599Y52047D2*
Y52017D1*
Y51987D1*
Y51957D1*
Y51927D1*
Y51897D1*
Y51867D1*
Y51837D1*
Y51807D1*
Y51777D1*
Y51747D1*
Y51717D1*
Y51687D1*
Y51657D1*
Y51627D1*
Y51597D1*
Y51567D1*
X73109Y52047D2*
Y52017D1*
Y51987D1*
Y51957D1*
Y51927D1*
Y51897D1*
Y51867D1*
Y51837D1*
Y51807D1*
Y51777D1*
Y51747D1*
Y51717D1*
Y51687D1*
Y51657D1*
Y51627D1*
Y51597D1*
Y51567D1*
X53094Y13710D2*
X53026Y13680D1*
X52970Y13650D1*
X52925Y13620D1*
X52889Y13590D1*
X52857Y13560D1*
X52830Y13530D1*
X52807Y13500D1*
X52790Y13470D1*
X52776Y13440D1*
X52765Y13410D1*
X52754Y13380D1*
X52745Y13350D1*
X52739Y13320D1*
X52736Y13290D1*
X52735Y13260D1*
X52734Y13230D1*
Y13200D1*
Y13170D1*
Y13140D1*
Y13110D1*
Y13080D1*
X52735Y13050D1*
X52739Y13020D1*
X52746Y12990D1*
X52755Y12960D1*
X52764Y12930D1*
X52775Y12900D1*
X52789Y12870D1*
X52807Y12840D1*
X52830Y12810D1*
X52856Y12780D1*
X52886Y12750D1*
X52922Y12720D1*
X52968Y12690D1*
X53027Y12660D1*
X53094Y12630D1*
X53304Y13710D2*
X53372Y13680D1*
X53428Y13650D1*
X53472Y13620D1*
X53509Y13590D1*
X53541Y13560D1*
X53568Y13530D1*
X53590Y13500D1*
X53608Y13470D1*
X53621Y13440D1*
X53633Y13410D1*
X53643Y13380D1*
X53653Y13350D1*
X53658Y13320D1*
X53662Y13290D1*
X53663Y13260D1*
Y13230D1*
X53664Y13200D1*
Y13170D1*
Y13140D1*
Y13110D1*
Y13080D1*
X53663Y13050D1*
X53659Y13020D1*
X53651Y12990D1*
X53643Y12960D1*
X53634Y12930D1*
X53622Y12900D1*
X53608Y12870D1*
X53591Y12840D1*
X53568Y12810D1*
X53541Y12780D1*
X53511Y12750D1*
X53476Y12720D1*
X53429Y12690D1*
X53370Y12660D1*
X53304Y12630D1*
X55614Y13710D2*
X55546Y13680D1*
X55490Y13650D1*
X55445Y13620D1*
X55409Y13590D1*
X55377Y13560D1*
X55350Y13530D1*
X55327Y13500D1*
X55310Y13470D1*
X55296Y13440D1*
X55285Y13410D1*
X55274Y13380D1*
X55265Y13350D1*
X55259Y13320D1*
X55256Y13290D1*
X55255Y13260D1*
X55254Y13230D1*
Y13200D1*
Y13170D1*
Y13140D1*
Y13110D1*
Y13080D1*
X55255Y13050D1*
X55259Y13020D1*
X55266Y12990D1*
X55275Y12960D1*
X55284Y12930D1*
X55295Y12900D1*
X55309Y12870D1*
X55327Y12840D1*
X55350Y12810D1*
X55376Y12780D1*
X55406Y12750D1*
X55442Y12720D1*
X55488Y12690D1*
X55547Y12660D1*
X55614Y12630D1*
X55824Y13710D2*
X55892Y13680D1*
X55948Y13650D1*
X55992Y13620D1*
X56029Y13590D1*
X56061Y13560D1*
X56088Y13530D1*
X56110Y13500D1*
X56128Y13470D1*
X56141Y13440D1*
X56153Y13410D1*
X56163Y13380D1*
X56173Y13350D1*
X56178Y13320D1*
X56182Y13290D1*
X56183Y13260D1*
Y13230D1*
X56184Y13200D1*
Y13170D1*
Y13140D1*
Y13110D1*
Y13080D1*
X56183Y13050D1*
X56179Y13020D1*
X56171Y12990D1*
X56163Y12960D1*
X56154Y12930D1*
X56142Y12900D1*
X56128Y12870D1*
X56111Y12840D1*
X56088Y12810D1*
X56061Y12780D1*
X56031Y12750D1*
X55996Y12720D1*
X55949Y12690D1*
X55890Y12660D1*
X55824Y12630D1*
X47694Y13680D2*
Y13650D1*
Y13620D1*
Y13590D1*
Y13560D1*
Y13530D1*
Y13500D1*
Y13470D1*
Y13440D1*
Y13410D1*
Y13380D1*
Y13350D1*
Y13320D1*
Y13290D1*
Y13260D1*
Y13230D1*
Y13200D1*
Y13170D1*
Y13140D1*
Y13110D1*
Y13080D1*
Y13050D1*
Y13020D1*
Y12990D1*
Y12960D1*
Y12930D1*
Y12900D1*
Y12870D1*
Y12840D1*
Y12810D1*
Y12780D1*
Y12750D1*
Y12720D1*
Y12690D1*
Y12660D1*
X47874Y13680D2*
X47878Y13650D1*
X47886Y13620D1*
X47895Y13590D1*
X47904Y13560D1*
X47914Y13530D1*
X47924Y13500D1*
X47934Y13470D1*
X47944Y13440D1*
X47954Y13410D1*
X47964Y13380D1*
X47974Y13350D1*
X47983Y13320D1*
X47990Y13290D1*
X47997Y13260D1*
X48005Y13230D1*
X48014Y13200D1*
X48024Y13170D1*
X48034Y13140D1*
X48044Y13110D1*
X48054Y13080D1*
X48064Y13050D1*
X48074Y13020D1*
X48084Y12990D1*
X48094Y12960D1*
X48105Y12930D1*
X48120Y12900D1*
X48144Y12870D1*
X48174Y12840D1*
X48474Y13680D2*
X48459Y13650D1*
X48446Y13620D1*
X48435Y13590D1*
X48424Y13560D1*
X48414Y13530D1*
X48404Y13500D1*
X48394Y13470D1*
X48384Y13440D1*
X48374Y13410D1*
X48364Y13380D1*
X48354Y13350D1*
X48344Y13320D1*
X48334Y13290D1*
X48324Y13260D1*
X48314Y13230D1*
X48304Y13200D1*
X48294Y13170D1*
X48284Y13140D1*
X48274Y13110D1*
X48264Y13080D1*
X48254Y13050D1*
X48244Y13020D1*
X48234Y12990D1*
X48224Y12960D1*
X48212Y12930D1*
X48197Y12900D1*
X48174Y12870D1*
X48144Y12840D1*
X48624Y13680D2*
Y13650D1*
Y13620D1*
Y13590D1*
Y13560D1*
Y13530D1*
Y13500D1*
Y13470D1*
Y13440D1*
Y13410D1*
Y13380D1*
Y13350D1*
Y13320D1*
Y13290D1*
Y13260D1*
Y13230D1*
Y13200D1*
Y13170D1*
Y13140D1*
Y13110D1*
Y13080D1*
Y13050D1*
Y13020D1*
Y12990D1*
Y12960D1*
Y12930D1*
Y12900D1*
Y12870D1*
Y12840D1*
Y12810D1*
Y12780D1*
Y12750D1*
Y12720D1*
Y12690D1*
Y12660D1*
X50154Y13680D2*
Y13650D1*
Y13620D1*
Y13590D1*
Y13560D1*
Y13530D1*
Y13500D1*
Y13470D1*
X50153Y13440D1*
X50148Y13410D1*
X50138Y13380D1*
X50124Y13350D1*
X50244Y13680D2*
Y13650D1*
Y13620D1*
Y13590D1*
Y13560D1*
Y13530D1*
Y13500D1*
Y13470D1*
Y13440D1*
Y13410D1*
Y13380D1*
Y13350D1*
Y13320D1*
Y13290D1*
Y13260D1*
Y13230D1*
Y13200D1*
Y13170D1*
Y13140D1*
Y13110D1*
Y13080D1*
Y13050D1*
Y13020D1*
Y12990D1*
Y12960D1*
Y12930D1*
Y12900D1*
Y12870D1*
Y12840D1*
Y12810D1*
Y12780D1*
Y12750D1*
Y12720D1*
Y12690D1*
Y12660D1*
X51264Y13680D2*
Y13650D1*
Y13620D1*
Y13590D1*
Y13560D1*
Y13530D1*
Y13500D1*
Y13470D1*
Y13440D1*
Y13410D1*
Y13380D1*
Y13350D1*
Y13320D1*
Y13290D1*
Y13260D1*
Y13230D1*
Y13200D1*
Y13170D1*
Y13140D1*
Y13110D1*
Y13080D1*
Y13050D1*
Y13020D1*
Y12990D1*
Y12960D1*
Y12930D1*
Y12900D1*
Y12870D1*
Y12840D1*
Y12810D1*
Y12780D1*
Y12750D1*
Y12720D1*
Y12690D1*
Y12660D1*
X51384Y13680D2*
Y13650D1*
Y13620D1*
Y13590D1*
Y13560D1*
Y13530D1*
Y13500D1*
Y13470D1*
Y13440D1*
Y13410D1*
Y13380D1*
Y13350D1*
Y13320D1*
Y13290D1*
Y13260D1*
Y13230D1*
Y13200D1*
Y13170D1*
Y13140D1*
Y13110D1*
Y13080D1*
Y13050D1*
Y13020D1*
Y12990D1*
Y12960D1*
Y12930D1*
Y12900D1*
Y12870D1*
Y12840D1*
Y12810D1*
Y12780D1*
Y12750D1*
Y12720D1*
Y12690D1*
Y12660D1*
X53874Y13680D2*
Y13650D1*
Y13620D1*
Y13590D1*
Y13560D1*
Y13530D1*
Y13500D1*
Y13470D1*
Y13440D1*
Y13410D1*
Y13380D1*
Y13350D1*
Y13320D1*
Y13290D1*
Y13260D1*
Y13230D1*
Y13200D1*
Y13170D1*
Y13140D1*
Y13110D1*
Y13080D1*
Y13050D1*
Y13020D1*
Y12990D1*
Y12960D1*
Y12930D1*
Y12900D1*
Y12870D1*
Y12840D1*
Y12810D1*
Y12780D1*
Y12750D1*
Y12720D1*
Y12690D1*
Y12660D1*
X54474Y13680D2*
X54531Y13650D1*
X54578Y13620D1*
X54612Y13590D1*
X54638Y13560D1*
X54657Y13530D1*
X54670Y13500D1*
X54677Y13470D1*
X54681Y13440D1*
X54683Y13410D1*
X54682Y13380D1*
X54679Y13350D1*
X54670Y13320D1*
X54657Y13290D1*
X54639Y13260D1*
X54611Y13230D1*
X54573Y13200D1*
X54524Y13170D1*
X54470Y13140D1*
X54414Y13110D1*
X54456Y13080D1*
X54491Y13050D1*
X54518Y13020D1*
X54541Y12990D1*
X54563Y12960D1*
X54583Y12930D1*
X54604Y12900D1*
X54624Y12870D1*
X54644Y12840D1*
X54664Y12810D1*
X54684Y12780D1*
X54703Y12750D1*
X54719Y12720D1*
X54732Y12690D1*
X54744Y12660D1*
X54924Y13680D2*
Y13650D1*
Y13620D1*
Y13590D1*
Y13560D1*
Y13530D1*
Y13500D1*
Y13470D1*
Y13440D1*
Y13410D1*
Y13380D1*
Y13350D1*
Y13320D1*
Y13290D1*
Y13260D1*
Y13230D1*
Y13200D1*
Y13170D1*
Y13140D1*
Y13110D1*
Y13080D1*
Y13050D1*
Y13020D1*
Y12990D1*
Y12960D1*
Y12930D1*
Y12900D1*
Y12870D1*
Y12840D1*
Y12810D1*
Y12780D1*
Y12750D1*
Y12720D1*
Y12690D1*
Y12660D1*
X55044Y13680D2*
Y13650D1*
Y13620D1*
Y13590D1*
Y13560D1*
Y13530D1*
Y13500D1*
Y13470D1*
Y13440D1*
Y13410D1*
Y13380D1*
Y13350D1*
Y13320D1*
Y13290D1*
Y13260D1*
Y13230D1*
Y13200D1*
Y13170D1*
Y13140D1*
Y13110D1*
Y13080D1*
Y13050D1*
Y13020D1*
Y12990D1*
Y12960D1*
Y12930D1*
Y12900D1*
Y12870D1*
Y12840D1*
Y12810D1*
Y12780D1*
Y12750D1*
Y12720D1*
Y12690D1*
Y12660D1*
X56394Y13680D2*
Y13650D1*
Y13620D1*
Y13590D1*
Y13560D1*
Y13530D1*
Y13500D1*
Y13470D1*
Y13440D1*
Y13410D1*
Y13380D1*
Y13350D1*
Y13320D1*
Y13290D1*
Y13260D1*
Y13230D1*
Y13200D1*
Y13170D1*
Y13140D1*
Y13110D1*
Y13080D1*
Y13050D1*
Y13020D1*
Y12990D1*
Y12960D1*
Y12930D1*
Y12900D1*
Y12870D1*
Y12840D1*
Y12810D1*
Y12780D1*
Y12750D1*
Y12720D1*
Y12690D1*
Y12660D1*
X56514Y13680D2*
X56539Y13650D1*
X56562Y13620D1*
X56583Y13590D1*
X56604Y13560D1*
X56624Y13530D1*
X56644Y13500D1*
X56664Y13470D1*
X56684Y13440D1*
X56704Y13410D1*
X56724Y13380D1*
X56744Y13350D1*
X56764Y13320D1*
X56784Y13290D1*
X56804Y13260D1*
X56824Y13230D1*
X56844Y13200D1*
X56864Y13170D1*
X56884Y13140D1*
X56904Y13110D1*
X56924Y13080D1*
X56944Y13050D1*
X56964Y13020D1*
X56985Y12990D1*
X57011Y12960D1*
X57045Y12930D1*
X57084Y12900D1*
Y13680D2*
Y13650D1*
Y13620D1*
Y13590D1*
Y13560D1*
Y13530D1*
Y13500D1*
Y13470D1*
Y13440D1*
Y13410D1*
Y13380D1*
Y13350D1*
Y13320D1*
Y13290D1*
Y13260D1*
Y13230D1*
Y13200D1*
Y13170D1*
Y13140D1*
Y13110D1*
Y13080D1*
Y13050D1*
Y13020D1*
X57083Y12990D1*
X57078Y12960D1*
X57068Y12930D1*
X57054Y12900D1*
X57174Y13680D2*
Y13650D1*
Y13620D1*
Y13590D1*
Y13560D1*
Y13530D1*
Y13500D1*
Y13470D1*
Y13440D1*
Y13410D1*
Y13380D1*
Y13350D1*
Y13320D1*
Y13290D1*
Y13260D1*
Y13230D1*
Y13200D1*
Y13170D1*
Y13140D1*
Y13110D1*
Y13080D1*
Y13050D1*
Y13020D1*
Y12990D1*
Y12960D1*
Y12930D1*
Y12900D1*
Y12870D1*
Y12840D1*
Y12810D1*
Y12780D1*
Y12750D1*
Y12720D1*
Y12690D1*
Y12660D1*
X57834Y13680D2*
Y13650D1*
Y13620D1*
Y13590D1*
Y13560D1*
Y13530D1*
Y13500D1*
Y13470D1*
Y13440D1*
Y13410D1*
Y13380D1*
Y13350D1*
Y13320D1*
Y13290D1*
Y13260D1*
Y13230D1*
Y13200D1*
Y13170D1*
Y13140D1*
Y13110D1*
Y13080D1*
Y13050D1*
Y13020D1*
Y12990D1*
Y12960D1*
Y12930D1*
Y12900D1*
Y12870D1*
Y12840D1*
Y12810D1*
Y12780D1*
Y12750D1*
Y12720D1*
Y12690D1*
Y12660D1*
X57954Y13680D2*
Y13650D1*
Y13620D1*
Y13590D1*
Y13560D1*
Y13530D1*
Y13500D1*
Y13470D1*
Y13440D1*
Y13410D1*
Y13380D1*
Y13350D1*
Y13320D1*
Y13290D1*
Y13260D1*
X58524Y13680D2*
Y13650D1*
Y13620D1*
Y13590D1*
Y13560D1*
Y13530D1*
Y13500D1*
Y13470D1*
Y13440D1*
Y13410D1*
Y13380D1*
Y13350D1*
Y13320D1*
Y13290D1*
Y13260D1*
X58614Y13680D2*
Y13650D1*
Y13620D1*
Y13590D1*
Y13560D1*
Y13530D1*
Y13500D1*
Y13470D1*
Y13440D1*
Y13410D1*
Y13380D1*
Y13350D1*
Y13320D1*
Y13290D1*
Y13260D1*
Y13230D1*
Y13200D1*
Y13170D1*
Y13140D1*
Y13110D1*
Y13080D1*
Y13050D1*
Y13020D1*
Y12990D1*
Y12960D1*
Y12930D1*
Y12900D1*
Y12870D1*
Y12840D1*
Y12810D1*
Y12780D1*
Y12750D1*
Y12720D1*
Y12690D1*
Y12660D1*
X58884Y13680D2*
Y13650D1*
Y13620D1*
Y13590D1*
Y13560D1*
Y13530D1*
Y13500D1*
Y13470D1*
Y13440D1*
Y13410D1*
Y13380D1*
Y13350D1*
Y13320D1*
Y13290D1*
Y13260D1*
Y13230D1*
Y13200D1*
Y13170D1*
Y13140D1*
Y13110D1*
Y13080D1*
Y13050D1*
Y13020D1*
Y12990D1*
Y12960D1*
Y12930D1*
Y12900D1*
Y12870D1*
Y12840D1*
Y12810D1*
Y12780D1*
Y12750D1*
Y12720D1*
Y12690D1*
Y12660D1*
X59364Y13680D2*
X59421Y13650D1*
X59468Y13620D1*
X59502Y13590D1*
X59528Y13560D1*
X59547Y13530D1*
X59560Y13500D1*
X59567Y13470D1*
X59571Y13440D1*
X59573Y13410D1*
X59572Y13380D1*
X59567Y13350D1*
X59556Y13320D1*
X59539Y13290D1*
X59517Y13260D1*
X59488Y13230D1*
X59454Y13200D1*
X59494Y13170D1*
X59532Y13140D1*
X59562Y13110D1*
X59584Y13080D1*
X59600Y13050D1*
X59612Y13020D1*
X59622Y12990D1*
X59628Y12960D1*
X59630Y12930D1*
X59628Y12900D1*
X59620Y12870D1*
X59609Y12840D1*
X59595Y12810D1*
X59578Y12780D1*
X59553Y12750D1*
X59514Y12720D1*
X59458Y12690D1*
X59394Y12660D1*
X53184Y13620D2*
X53106Y13590D1*
X53040Y13560D1*
X52990Y13530D1*
X52952Y13500D1*
X52922Y13470D1*
X52898Y13440D1*
X52880Y13410D1*
X52867Y13380D1*
X52860Y13350D1*
X52855Y13320D1*
X52850Y13290D1*
X52842Y13260D1*
X52834Y13230D1*
X52829Y13200D1*
X52827Y13170D1*
X52830Y13140D1*
X52836Y13110D1*
X52844Y13080D1*
X52849Y13050D1*
X52853Y13020D1*
X52858Y12990D1*
X52867Y12960D1*
X52880Y12930D1*
X52897Y12900D1*
X52920Y12870D1*
X52950Y12840D1*
X52995Y12810D1*
X53076Y12780D1*
X53206Y12750D1*
X53364Y12720D1*
X53214Y13620D2*
X53292Y13590D1*
X53357Y13560D1*
X53407Y13530D1*
X53446Y13500D1*
X53475Y13470D1*
X53496Y13440D1*
X53510Y13410D1*
X53522Y13380D1*
X53532Y13350D1*
X53540Y13320D1*
X53546Y13290D1*
X53555Y13260D1*
X53563Y13230D1*
X53569Y13200D1*
X53570Y13170D1*
X53568Y13140D1*
X53561Y13110D1*
X53554Y13080D1*
X53549Y13050D1*
X53545Y13020D1*
X53539Y12990D1*
X53531Y12960D1*
X53518Y12930D1*
X53500Y12900D1*
X53477Y12870D1*
X53448Y12840D1*
X53403Y12810D1*
X53321Y12780D1*
X53192Y12750D1*
X53034Y12720D1*
X55704Y13620D2*
X55626Y13590D1*
X55560Y13560D1*
X55510Y13530D1*
X55472Y13500D1*
X55442Y13470D1*
X55418Y13440D1*
X55400Y13410D1*
X55387Y13380D1*
X55380Y13350D1*
X55375Y13320D1*
X55370Y13290D1*
X55362Y13260D1*
X55354Y13230D1*
X55349Y13200D1*
X55347Y13170D1*
X55350Y13140D1*
X55356Y13110D1*
X55364Y13080D1*
X55369Y13050D1*
X55373Y13020D1*
X55378Y12990D1*
X55387Y12960D1*
X55400Y12930D1*
X55417Y12900D1*
X55440Y12870D1*
X55470Y12840D1*
X55515Y12810D1*
X55596Y12780D1*
X55726Y12750D1*
X55884Y12720D1*
X55734Y13620D2*
X55812Y13590D1*
X55877Y13560D1*
X55927Y13530D1*
X55966Y13500D1*
X55995Y13470D1*
X56016Y13440D1*
X56030Y13410D1*
X56042Y13380D1*
X56052Y13350D1*
X56060Y13320D1*
X56066Y13290D1*
X56075Y13260D1*
X56083Y13230D1*
X56089Y13200D1*
X56090Y13170D1*
X56088Y13140D1*
X56081Y13110D1*
X56074Y13080D1*
X56069Y13050D1*
X56065Y13020D1*
X56059Y12990D1*
X56051Y12960D1*
X56038Y12930D1*
X56020Y12900D1*
X55997Y12870D1*
X55968Y12840D1*
X55923Y12810D1*
X55841Y12780D1*
X55712Y12750D1*
X55554Y12720D1*
X53994Y13590D2*
Y13560D1*
Y13530D1*
Y13500D1*
Y13470D1*
Y13440D1*
Y13410D1*
Y13380D1*
Y13350D1*
Y13320D1*
Y13290D1*
Y13260D1*
Y13230D1*
X54384Y13590D2*
X54438Y13560D1*
X54484Y13530D1*
X54519Y13500D1*
X54546Y13470D1*
X54555Y13440D1*
X54559Y13410D1*
Y13380D1*
X54544Y13350D1*
X54519Y13320D1*
X54482Y13290D1*
X54435Y13260D1*
X54384Y13230D1*
X58974Y13590D2*
Y13560D1*
Y13530D1*
Y13500D1*
Y13470D1*
Y13440D1*
Y13410D1*
Y13380D1*
Y13350D1*
Y13320D1*
Y13290D1*
Y13260D1*
Y13230D1*
X59364Y13590D2*
X59393Y13560D1*
X59419Y13530D1*
X59440Y13500D1*
X59457Y13470D1*
X59469Y13440D1*
X59475Y13410D1*
X59468Y13380D1*
X59455Y13350D1*
X59438Y13320D1*
X59400Y13290D1*
X59354Y13260D1*
X59304Y13230D1*
X47784Y13500D2*
Y13470D1*
Y13440D1*
Y13410D1*
Y13380D1*
Y13350D1*
Y13320D1*
Y13290D1*
Y13260D1*
Y13230D1*
Y13200D1*
Y13170D1*
Y13140D1*
Y13110D1*
Y13080D1*
Y13050D1*
Y13020D1*
Y12990D1*
Y12960D1*
Y12930D1*
Y12900D1*
Y12870D1*
Y12840D1*
Y12810D1*
Y12780D1*
Y12750D1*
Y12720D1*
Y12690D1*
Y12660D1*
X47844Y13500D2*
X47845Y13470D1*
X47849Y13440D1*
X47856Y13410D1*
X47865Y13380D1*
X47874Y13350D1*
X47884Y13320D1*
X47894Y13290D1*
X47904Y13260D1*
X47914Y13230D1*
X47924Y13200D1*
X47934Y13170D1*
X47944Y13140D1*
X47954Y13110D1*
X47964Y13080D1*
X47974Y13050D1*
X47984Y13020D1*
X47994Y12990D1*
X48004Y12960D1*
X48014Y12930D1*
X48024Y12900D1*
X48034Y12870D1*
X48044Y12840D1*
X48054Y12810D1*
X48064Y12780D1*
X48074Y12750D1*
X48084Y12720D1*
X48098Y12690D1*
X48114Y12660D1*
X49044Y13440D2*
X48990Y13410D1*
X48943Y13380D1*
X48907Y13350D1*
X48881Y13320D1*
X48860Y13290D1*
X48843Y13260D1*
X48828Y13230D1*
X48817Y13200D1*
X48810Y13170D1*
X48806Y13140D1*
X48805Y13110D1*
X48804Y13080D1*
Y13050D1*
Y13020D1*
X48805Y12990D1*
X48809Y12960D1*
X48816Y12930D1*
X48825Y12900D1*
X48834Y12870D1*
X48845Y12840D1*
X48859Y12810D1*
X48878Y12780D1*
X48906Y12750D1*
X48945Y12720D1*
X48992Y12690D1*
X49044Y12660D1*
X49224Y13440D2*
X49281Y13410D1*
X49329Y13380D1*
X49366Y13350D1*
X49396Y13320D1*
X49419Y13290D1*
X49437Y13260D1*
X49450Y13230D1*
X49458Y13200D1*
X49461Y13170D1*
X49463Y13140D1*
Y13110D1*
X49464Y13080D1*
Y13050D1*
Y13020D1*
Y12990D1*
Y12960D1*
X49463Y12930D1*
X49459Y12900D1*
X49450Y12870D1*
X49438Y12840D1*
X49420Y12810D1*
X49397Y12780D1*
X49369Y12750D1*
X49331Y12720D1*
X49281Y12690D1*
X49224Y12660D1*
X49824Y13440D2*
X49780Y13410D1*
X49742Y13380D1*
X49712Y13350D1*
X49688Y13320D1*
X49670Y13290D1*
X49656Y13260D1*
X49645Y13230D1*
X49634Y13200D1*
X49625Y13170D1*
X49619Y13140D1*
X49616Y13110D1*
X49615Y13080D1*
X49614Y13050D1*
Y13020D1*
X49615Y12990D1*
X49619Y12960D1*
X49626Y12930D1*
X49635Y12900D1*
X49644Y12870D1*
X49655Y12840D1*
X49669Y12810D1*
X49688Y12780D1*
X49716Y12750D1*
X49755Y12720D1*
X49802Y12690D1*
X49854Y12660D1*
X50004Y13440D2*
X50055Y13410D1*
X50117Y13380D1*
X50184Y13350D1*
X50664Y13440D2*
X50620Y13410D1*
X50581Y13380D1*
X50548Y13350D1*
X50520Y13320D1*
X50498Y13290D1*
X50480Y13260D1*
X50467Y13230D1*
X50459Y13200D1*
X50451Y13170D1*
X50443Y13140D1*
X50434Y13110D1*
X50429Y13080D1*
X50426Y13050D1*
Y13020D1*
X50429Y12990D1*
X50436Y12960D1*
X50445Y12930D1*
X50454Y12900D1*
X50465Y12870D1*
X50478Y12840D1*
X50493Y12810D1*
X50513Y12780D1*
X50540Y12750D1*
X50575Y12720D1*
X50618Y12690D1*
X50664Y12660D1*
X50874Y13440D2*
X50918Y13410D1*
X50956Y13380D1*
X50989Y13350D1*
X51016Y13320D1*
X51036Y13290D1*
X51050Y13260D1*
X51062Y13230D1*
X51072Y13200D1*
X51078Y13170D1*
X51081Y13140D1*
X51083Y13110D1*
Y13080D1*
X51084Y13050D1*
Y13020D1*
X48444Y13440D2*
X48443Y13410D1*
X48439Y13380D1*
X48431Y13350D1*
X48423Y13320D1*
X48414Y13290D1*
X48404Y13260D1*
X48394Y13230D1*
X48384Y13200D1*
X48374Y13170D1*
X48364Y13140D1*
X48354Y13110D1*
X48344Y13080D1*
X48334Y13050D1*
X48324Y13020D1*
X48314Y12990D1*
X48304Y12960D1*
X48294Y12930D1*
X48284Y12900D1*
X48274Y12870D1*
X48264Y12840D1*
X48254Y12810D1*
X48244Y12780D1*
X48234Y12750D1*
X48224Y12720D1*
X48213Y12690D1*
X48204Y12660D1*
X48504Y13440D2*
Y13410D1*
Y13380D1*
Y13350D1*
Y13320D1*
Y13290D1*
Y13260D1*
Y13230D1*
Y13200D1*
Y13170D1*
Y13140D1*
Y13110D1*
Y13080D1*
Y13050D1*
Y13020D1*
Y12990D1*
Y12960D1*
Y12930D1*
Y12900D1*
Y12870D1*
Y12840D1*
Y12810D1*
Y12780D1*
Y12750D1*
Y12720D1*
Y12690D1*
Y12660D1*
X51594Y13410D2*
Y13380D1*
Y13350D1*
Y13320D1*
X51714Y13410D2*
Y13380D1*
Y13350D1*
Y13320D1*
X56514Y13440D2*
Y13410D1*
Y13380D1*
Y13350D1*
Y13320D1*
Y13290D1*
Y13260D1*
Y13230D1*
Y13200D1*
Y13170D1*
Y13140D1*
Y13110D1*
Y13080D1*
Y13050D1*
Y13020D1*
Y12990D1*
Y12960D1*
Y12930D1*
Y12900D1*
Y12870D1*
Y12840D1*
Y12810D1*
Y12780D1*
Y12750D1*
Y12720D1*
Y12690D1*
Y12660D1*
X56574Y13440D2*
X56580Y13410D1*
X56591Y13380D1*
X56607Y13350D1*
X56625Y13320D1*
X56644Y13290D1*
X56664Y13260D1*
X56684Y13230D1*
X56704Y13200D1*
X56724Y13170D1*
X56744Y13140D1*
X56764Y13110D1*
X56784Y13080D1*
X56804Y13050D1*
X56824Y13020D1*
X56844Y12990D1*
X56864Y12960D1*
X56884Y12930D1*
X56904Y12900D1*
X56924Y12870D1*
X56944Y12840D1*
X56964Y12810D1*
X56984Y12780D1*
X57004Y12750D1*
X57023Y12720D1*
X57040Y12690D1*
X57054Y12660D1*
X49104Y13350D2*
X49051Y13320D1*
X49007Y13290D1*
X48976Y13260D1*
X48953Y13230D1*
X48937Y13200D1*
X48925Y13170D1*
X48914Y13140D1*
X48905Y13110D1*
X48899Y13080D1*
X48897Y13050D1*
X48900Y13020D1*
X48906Y12990D1*
X48915Y12960D1*
X48924Y12930D1*
X48935Y12900D1*
X48951Y12870D1*
X48972Y12840D1*
X49036Y12810D1*
X49134Y12780D1*
X49254Y12750D1*
X49164Y13350D2*
X49218Y13320D1*
X49264Y13290D1*
X49300Y13260D1*
X49327Y13230D1*
X49346Y13200D1*
X49360Y13170D1*
X49367Y13140D1*
X49371Y13110D1*
X49373Y13080D1*
Y13050D1*
X49374Y13020D1*
X49373Y12990D1*
X49369Y12960D1*
X49360Y12930D1*
X49347Y12900D1*
X49328Y12870D1*
X49303Y12840D1*
X49235Y12810D1*
X49135Y12780D1*
X49014Y12750D1*
X49914Y13350D2*
X49860Y13320D1*
X49813Y13290D1*
X49778Y13260D1*
X49752Y13230D1*
X49741Y13200D1*
X49732Y13170D1*
X49723Y13140D1*
X49714Y13110D1*
X49709Y13080D1*
X49707Y13050D1*
X49710Y13020D1*
X49716Y12990D1*
X49725Y12960D1*
X49734Y12930D1*
X49745Y12900D1*
X49761Y12870D1*
X49782Y12840D1*
X49846Y12810D1*
X49944Y12780D1*
X50064Y12750D1*
X49944Y13350D2*
X49998Y13320D1*
X50044Y13290D1*
X50079Y13260D1*
X50103Y13230D1*
X50119Y13200D1*
X50132Y13170D1*
X50142Y13140D1*
X50148Y13110D1*
X50151Y13080D1*
X50153Y13050D1*
Y13020D1*
X50152Y12990D1*
X50149Y12960D1*
X50140Y12930D1*
X50128Y12900D1*
X50110Y12870D1*
X50087Y12840D1*
X50033Y12810D1*
X49952Y12780D1*
X49854Y12750D1*
X50694Y13350D2*
X50664Y13320D1*
X50634Y13290D1*
X50605Y13260D1*
X50580Y13230D1*
X50562Y13200D1*
X50552Y13170D1*
X50547Y13140D1*
X50544Y13110D1*
X50844Y13350D2*
X50874Y13320D1*
X50903Y13290D1*
X50929Y13260D1*
X50950Y13230D1*
X50968Y13200D1*
X50980Y13170D1*
X50988Y13140D1*
X50994Y13110D1*
X57954Y13170D2*
Y13140D1*
Y13110D1*
Y13080D1*
Y13050D1*
Y13020D1*
Y12990D1*
Y12960D1*
Y12930D1*
Y12900D1*
Y12870D1*
Y12840D1*
Y12810D1*
Y12780D1*
Y12750D1*
Y12720D1*
Y12690D1*
Y12660D1*
X58524Y13170D2*
Y13140D1*
Y13110D1*
Y13080D1*
Y13050D1*
Y13020D1*
Y12990D1*
Y12960D1*
Y12930D1*
Y12900D1*
Y12870D1*
Y12840D1*
Y12810D1*
Y12780D1*
Y12750D1*
Y12720D1*
Y12690D1*
Y12660D1*
X53994Y13140D2*
Y13110D1*
Y13080D1*
Y13050D1*
Y13020D1*
Y12990D1*
Y12960D1*
Y12930D1*
Y12900D1*
Y12870D1*
Y12840D1*
Y12810D1*
Y12780D1*
Y12750D1*
Y12720D1*
Y12690D1*
Y12660D1*
X54204Y13140D2*
X54258Y13110D1*
X54304Y13080D1*
X54340Y13050D1*
X54368Y13020D1*
X54392Y12990D1*
X54417Y12960D1*
X54441Y12930D1*
X54461Y12900D1*
X54479Y12870D1*
X54496Y12840D1*
X54515Y12810D1*
X54535Y12780D1*
X54554Y12750D1*
X54575Y12720D1*
X54598Y12690D1*
X54624Y12660D1*
X58974Y13140D2*
Y13110D1*
Y13080D1*
Y13050D1*
Y13020D1*
Y12990D1*
Y12960D1*
Y12930D1*
Y12900D1*
Y12870D1*
Y12840D1*
Y12810D1*
Y12780D1*
Y12750D1*
X59334Y13140D2*
X59387Y13110D1*
X59430Y13080D1*
X59462Y13050D1*
X59484Y13020D1*
X59499Y12990D1*
X59506Y12960D1*
Y12930D1*
X59499Y12900D1*
X59486Y12870D1*
X59464Y12840D1*
X59429Y12810D1*
X59384Y12780D1*
X59334Y12750D1*
X50544Y13020D2*
Y12990D1*
X50545Y12960D1*
X50550Y12930D1*
X50562Y12900D1*
X50584Y12870D1*
X50613Y12840D1*
X50681Y12810D1*
X50782Y12780D1*
X50904Y12750D1*
X50994Y12900D2*
X50972Y12870D1*
X50948Y12840D1*
X50883Y12810D1*
X50784Y12780D1*
X50664Y12750D1*
X51024Y12900D2*
X51052Y12870D1*
X51060Y12840D1*
X51052Y12810D1*
X51040Y12780D1*
X51011Y12750D1*
X50973Y12720D1*
X50925Y12690D1*
X50874Y12660D1*
X51594Y12750D2*
Y12720D1*
Y12690D1*
Y12660D1*
X51714Y12750D2*
Y12720D1*
Y12690D1*
Y12660D1*
X50124Y12750D2*
X50088Y12720D1*
X50048Y12690D1*
X50004Y12660D1*
X50154Y12750D2*
Y12720D1*
Y12690D1*
Y12660D1*
X47694Y12180D2*
Y12150D1*
Y12120D1*
Y12090D1*
Y12060D1*
Y12030D1*
Y12000D1*
Y11970D1*
Y11940D1*
Y11910D1*
Y11880D1*
Y11850D1*
Y11820D1*
Y11790D1*
Y11760D1*
Y11730D1*
Y11700D1*
Y11670D1*
Y11640D1*
Y11610D1*
Y11580D1*
Y11550D1*
Y11520D1*
Y11490D1*
Y11460D1*
Y11430D1*
Y11400D1*
Y11370D1*
Y11340D1*
Y11310D1*
Y11280D1*
Y11250D1*
Y11220D1*
Y11190D1*
Y11160D1*
X48234Y12180D2*
X48291Y12150D1*
X48338Y12120D1*
X48372Y12090D1*
X48398Y12060D1*
X48417Y12030D1*
X48430Y12000D1*
X48437Y11970D1*
X48441Y11940D1*
X48443Y11910D1*
Y11880D1*
X48444Y11850D1*
X48443Y11820D1*
X48439Y11790D1*
X48430Y11760D1*
X48418Y11730D1*
X48400Y11700D1*
X48375Y11670D1*
X48339Y11640D1*
X48291Y11610D1*
X48234Y11580D1*
X50904Y12180D2*
X50894Y12150D1*
X50885Y12120D1*
X50879Y12090D1*
X50875Y12060D1*
X50870Y12030D1*
X50862Y12000D1*
X50854Y11970D1*
X50849Y11940D1*
X50846Y11910D1*
X50844Y11880D1*
X50634D1*
Y11850D1*
Y11820D1*
Y11790D1*
Y11760D1*
X50814D1*
X50809Y11730D1*
X50802Y11700D1*
X50794Y11670D1*
X50789Y11640D1*
X50786Y11610D1*
X50785Y11580D1*
X50784Y11550D1*
Y11520D1*
X50634D1*
Y11490D1*
Y11460D1*
Y11430D1*
Y11400D1*
X50724D1*
Y11370D1*
X50723Y11340D1*
X50719Y11310D1*
X50712Y11280D1*
X50704Y11250D1*
X50699Y11220D1*
X50696Y11190D1*
X50694Y11160D1*
X50994Y12180D2*
X50980Y12150D1*
X50971Y12120D1*
X50966Y12090D1*
X50960Y12060D1*
X50952Y12030D1*
X50944Y12000D1*
X50939Y11970D1*
X50936Y11940D1*
X50934Y11910D1*
X51144Y11880D1*
X51234Y12180D2*
X51224Y12150D1*
X51215Y12120D1*
X51209Y12090D1*
X51205Y12060D1*
X51200Y12030D1*
X51192Y12000D1*
X51184Y11970D1*
X51178Y11940D1*
X51174Y11910D1*
X50964Y11880D1*
X51324Y12180D2*
X51310Y12150D1*
X51301Y12120D1*
X51296Y12090D1*
X51290Y12060D1*
X51282Y12030D1*
X51274Y12000D1*
X51269Y11970D1*
X51266Y11940D1*
X51265Y11910D1*
X51264Y11880D1*
X51384D1*
Y11850D1*
Y11820D1*
Y11790D1*
X51304Y11760D1*
X51243Y11730D1*
X51219Y11700D1*
X51210Y11670D1*
X51202Y11640D1*
X51193Y11610D1*
X51184Y11580D1*
X51178Y11550D1*
X51174Y11520D1*
X51384D1*
Y11490D1*
Y11460D1*
Y11430D1*
Y11400D1*
X51144D1*
X51143Y11370D1*
X51139Y11340D1*
X51132Y11310D1*
X51124Y11280D1*
X51119Y11250D1*
X51116Y11220D1*
X51115Y11190D1*
X51114Y11160D1*
X52764Y12180D2*
Y12150D1*
Y12120D1*
X52763Y12090D1*
X52759Y12060D1*
X52752Y12030D1*
X52744Y12000D1*
X52739Y11970D1*
X52735Y11940D1*
X52730Y11910D1*
X52722Y11880D1*
X52714Y11850D1*
X52709Y11820D1*
X52705Y11790D1*
X52700Y11760D1*
X52694Y11730D1*
X52691Y11700D1*
X52709Y11670D1*
X52734Y11640D1*
X53274Y12180D2*
Y12150D1*
Y12120D1*
Y12090D1*
X53694Y12180D2*
X53641Y12150D1*
X53597Y12120D1*
X53566Y12090D1*
X53543Y12060D1*
X53529Y12030D1*
X53520Y12000D1*
X53517Y11970D1*
X53515Y11940D1*
X53514Y11910D1*
X53515Y11880D1*
X53520Y11850D1*
X53530Y11820D1*
X53557Y11790D1*
X53593Y11760D1*
X53634Y11730D1*
X53594Y11700D1*
X53556Y11670D1*
X53525Y11640D1*
X53503Y11610D1*
X53488Y11580D1*
X53475Y11550D1*
X53465Y11520D1*
X53459Y11490D1*
X53457Y11460D1*
X53460Y11430D1*
X53466Y11400D1*
X53475Y11370D1*
X53485Y11340D1*
X53500Y11310D1*
X53522Y11280D1*
X53549Y11250D1*
X53587Y11220D1*
X53636Y11190D1*
X53694Y11160D1*
X53874Y12180D2*
X53927Y12150D1*
X53970Y12120D1*
X54002Y12090D1*
X54024Y12060D1*
X54040Y12030D1*
X54052Y12000D1*
X54062Y11970D1*
X54070Y11940D1*
X54067Y11910D1*
X54061Y11880D1*
X54051Y11850D1*
X54036Y11820D1*
X54010Y11790D1*
X53975Y11760D1*
X53934Y11730D1*
X53974Y11700D1*
X54012Y11670D1*
X54044Y11640D1*
X54068Y11610D1*
X54087Y11580D1*
X54100Y11550D1*
X54107Y11520D1*
X54111Y11490D1*
X54113Y11460D1*
X54112Y11430D1*
X54109Y11400D1*
X54100Y11370D1*
X54088Y11340D1*
X54070Y11310D1*
X54047Y11280D1*
X54020Y11250D1*
X53987Y11220D1*
X53947Y11190D1*
X53904Y11160D1*
X54294Y12180D2*
Y12150D1*
Y12120D1*
Y12090D1*
X54924Y12180D2*
X54923Y12150D1*
X54917Y12120D1*
X54905Y12090D1*
X54887Y12060D1*
X54865Y12030D1*
X54845Y12000D1*
X54824Y11970D1*
X54804Y11940D1*
X54785Y11910D1*
X54768Y11880D1*
X54752Y11850D1*
X54737Y11820D1*
X54721Y11790D1*
X54706Y11760D1*
X54691Y11730D1*
X54676Y11700D1*
X54661Y11670D1*
X54647Y11640D1*
X54635Y11610D1*
X54625Y11580D1*
X54614Y11550D1*
X54604Y11520D1*
X54594Y11490D1*
X54584Y11460D1*
X54575Y11430D1*
X54569Y11400D1*
X54565Y11370D1*
X54560Y11340D1*
X54552Y11310D1*
X54544Y11280D1*
X54539Y11250D1*
X54536Y11220D1*
X54535Y11190D1*
X54534Y11160D1*
X55524Y12180D2*
X55498Y12150D1*
X55476Y12120D1*
X55454Y12090D1*
X55430Y12060D1*
X55407Y12030D1*
X55385Y12000D1*
X55364Y11970D1*
X55344Y11940D1*
X55324Y11910D1*
X55304Y11880D1*
X55284Y11850D1*
X55264Y11820D1*
X55243Y11790D1*
X55220Y11760D1*
X55197Y11730D1*
X55175Y11700D1*
X55154Y11670D1*
X55134Y11640D1*
X55114Y11610D1*
X55094Y11580D1*
X55075Y11550D1*
X55060Y11520D1*
X55051Y11490D1*
X55047Y11460D1*
X55045Y11430D1*
X55044Y11400D1*
X55584Y12180D2*
Y12150D1*
Y12120D1*
Y12090D1*
Y12060D1*
Y12030D1*
Y12000D1*
Y11970D1*
Y11940D1*
Y11910D1*
Y11880D1*
Y11850D1*
Y11820D1*
Y11790D1*
Y11760D1*
Y11730D1*
Y11700D1*
Y11670D1*
Y11640D1*
Y11610D1*
Y11580D1*
Y11550D1*
Y11520D1*
Y11490D1*
X55734D1*
Y11460D1*
Y11430D1*
Y11400D1*
Y11370D1*
X55584D1*
Y11340D1*
Y11310D1*
Y11280D1*
Y11250D1*
Y11220D1*
Y11190D1*
Y11160D1*
X56334Y12180D2*
X56308Y12150D1*
X56286Y12120D1*
X56264Y12090D1*
X56240Y12060D1*
X56217Y12030D1*
X56195Y12000D1*
X56174Y11970D1*
X56154Y11940D1*
X56134Y11910D1*
X56114Y11880D1*
X56094Y11850D1*
X56074Y11820D1*
X56053Y11790D1*
X56030Y11760D1*
X56007Y11730D1*
X55985Y11700D1*
X55964Y11670D1*
X55944Y11640D1*
X55924Y11610D1*
X55904Y11580D1*
X55885Y11550D1*
X55870Y11520D1*
X55861Y11490D1*
X55857Y11460D1*
X55855Y11430D1*
X55854Y11400D1*
X56394Y12180D2*
Y12150D1*
Y12120D1*
Y12090D1*
Y12060D1*
Y12030D1*
Y12000D1*
Y11970D1*
Y11940D1*
Y11910D1*
Y11880D1*
Y11850D1*
Y11820D1*
Y11790D1*
Y11760D1*
Y11730D1*
Y11700D1*
Y11670D1*
Y11640D1*
Y11610D1*
Y11580D1*
Y11550D1*
Y11520D1*
Y11490D1*
X56544D1*
Y11460D1*
Y11430D1*
Y11400D1*
Y11370D1*
X56394D1*
Y11340D1*
Y11310D1*
Y11280D1*
Y11250D1*
Y11220D1*
Y11190D1*
Y11160D1*
X50004Y12150D2*
X49976Y12120D1*
X49956Y12090D1*
X49949Y12060D1*
X49946Y12030D1*
X49945Y12000D1*
X49944Y11970D1*
Y11940D1*
X49794Y11910D1*
X50034Y12150D2*
Y12120D1*
Y12090D1*
Y12060D1*
Y12030D1*
Y12000D1*
Y11970D1*
Y11940D1*
Y11910D1*
X50184D1*
Y11880D1*
Y11850D1*
Y11820D1*
Y11790D1*
X50034D1*
Y11760D1*
Y11730D1*
Y11700D1*
Y11670D1*
Y11640D1*
Y11610D1*
Y11580D1*
Y11550D1*
Y11520D1*
Y11490D1*
Y11460D1*
Y11430D1*
Y11400D1*
X50035Y11370D1*
X50039Y11340D1*
X50060Y11310D1*
X50101Y11280D1*
X50138Y11250D1*
X50166Y11220D1*
X50176Y11190D1*
X50184Y11160D1*
X47814Y12090D2*
Y12060D1*
Y12030D1*
Y12000D1*
Y11970D1*
Y11940D1*
Y11910D1*
Y11880D1*
Y11850D1*
Y11820D1*
Y11790D1*
Y11760D1*
Y11730D1*
Y11700D1*
Y11670D1*
X48174Y12090D2*
X48223Y12060D1*
X48262Y12030D1*
X48291Y12000D1*
X48312Y11970D1*
X48327Y11940D1*
X48339Y11910D1*
X48336Y11880D1*
X48330Y11850D1*
X48321Y11820D1*
X48306Y11790D1*
X48280Y11760D1*
X48242Y11730D1*
X48195Y11700D1*
X48144Y11670D1*
X52854Y12090D2*
X52853Y12060D1*
X52849Y12030D1*
X52842Y12000D1*
X52834Y11970D1*
X52827Y11940D1*
X52821Y11910D1*
X52814Y11880D1*
X52807Y11850D1*
X52814Y11820D1*
X52824Y11790D1*
X53724Y12090D2*
X53694Y12060D1*
X53665Y12030D1*
X53640Y12000D1*
X53622Y11970D1*
X53611Y11940D1*
X53610Y11910D1*
X53620Y11880D1*
X53643Y11850D1*
X53695Y11820D1*
X53775Y11790D1*
X53874Y11760D1*
X53814Y12090D2*
X53863Y12060D1*
X53902Y12030D1*
X53929Y12000D1*
X53950Y11970D1*
X53956Y11940D1*
X53958Y11910D1*
X53948Y11880D1*
X53932Y11850D1*
X53874Y11820D1*
X53780Y11790D1*
X53664Y11760D1*
X54804Y12090D2*
X54778Y12060D1*
X54756Y12030D1*
X54735Y12000D1*
X54714Y11970D1*
X54694Y11940D1*
X54674Y11910D1*
X54654Y11880D1*
X54635Y11850D1*
X54618Y11820D1*
X54602Y11790D1*
X54588Y11760D1*
X54575Y11730D1*
X54565Y11700D1*
X54553Y11670D1*
X54540Y11640D1*
X54527Y11610D1*
X54515Y11580D1*
X54505Y11550D1*
X54494Y11520D1*
X54485Y11490D1*
X54478Y11460D1*
X54471Y11430D1*
X54462Y11400D1*
X54454Y11370D1*
X54449Y11340D1*
X54446Y11310D1*
X54445Y11280D1*
X54443Y11250D1*
X54438Y11220D1*
X54428Y11190D1*
X54414Y11160D1*
X48834Y11940D2*
X48776Y11910D1*
X48730Y11880D1*
X48695Y11850D1*
X48670Y11820D1*
X48652Y11790D1*
X48637Y11760D1*
X48658Y11730D1*
X48684Y11700D1*
X49074Y11940D2*
X49116Y11910D1*
X49151Y11880D1*
X49177Y11850D1*
X49196Y11820D1*
X49210Y11790D1*
X49217Y11760D1*
X49221Y11730D1*
X49223Y11700D1*
Y11670D1*
X49224Y11640D1*
Y11610D1*
Y11580D1*
Y11550D1*
Y11520D1*
Y11490D1*
Y11460D1*
Y11430D1*
Y11400D1*
Y11370D1*
Y11340D1*
X49225Y11310D1*
X49229Y11280D1*
X49236Y11250D1*
X49244Y11220D1*
X49249Y11190D1*
X49254Y11160D1*
X49644Y11940D2*
X49608Y11910D1*
X49568Y11880D1*
X49524Y11850D1*
X49764Y11940D2*
X49794Y11910D1*
X55434Y11970D2*
X55428Y11940D1*
X55416Y11910D1*
X55397Y11880D1*
X55375Y11850D1*
X55355Y11820D1*
X55334Y11790D1*
X55314Y11760D1*
X55294Y11730D1*
X55274Y11700D1*
X55254Y11670D1*
X55234Y11640D1*
X55213Y11610D1*
X55189Y11580D1*
X55162Y11550D1*
X55134Y11520D1*
X55434Y11490D1*
X55494Y11970D2*
Y11940D1*
Y11910D1*
Y11880D1*
Y11850D1*
Y11820D1*
Y11790D1*
Y11760D1*
Y11730D1*
Y11700D1*
Y11670D1*
Y11640D1*
Y11610D1*
Y11580D1*
Y11550D1*
Y11520D1*
X55164Y11490D1*
X56244Y11970D2*
X56238Y11940D1*
X56226Y11910D1*
X56207Y11880D1*
X56185Y11850D1*
X56165Y11820D1*
X56144Y11790D1*
X56124Y11760D1*
X56104Y11730D1*
X56084Y11700D1*
X56064Y11670D1*
X56044Y11640D1*
X56023Y11610D1*
X55999Y11580D1*
X55972Y11550D1*
X55944Y11520D1*
X56244Y11490D1*
X56304Y11970D2*
Y11940D1*
Y11910D1*
Y11880D1*
Y11850D1*
Y11820D1*
Y11790D1*
Y11760D1*
Y11730D1*
Y11700D1*
Y11670D1*
Y11640D1*
Y11610D1*
Y11580D1*
Y11550D1*
Y11520D1*
X55974Y11490D1*
X49464Y11910D2*
Y11880D1*
Y11850D1*
Y11820D1*
Y11790D1*
Y11760D1*
Y11730D1*
Y11700D1*
Y11670D1*
Y11640D1*
Y11610D1*
Y11580D1*
Y11550D1*
Y11520D1*
Y11490D1*
Y11460D1*
Y11430D1*
Y11400D1*
Y11370D1*
Y11340D1*
Y11310D1*
Y11280D1*
Y11250D1*
Y11220D1*
Y11190D1*
Y11160D1*
X49524Y11910D2*
X49538Y11880D1*
X49554Y11850D1*
X51534Y11910D2*
Y11880D1*
Y11850D1*
Y11820D1*
X51654Y11910D2*
Y11880D1*
Y11850D1*
Y11820D1*
X49794Y11880D2*
Y11850D1*
Y11820D1*
X49854Y11880D2*
Y11850D1*
Y11820D1*
Y11790D1*
X49944D1*
Y11760D1*
Y11730D1*
Y11700D1*
Y11670D1*
Y11640D1*
Y11610D1*
Y11580D1*
Y11550D1*
Y11520D1*
Y11490D1*
Y11460D1*
Y11430D1*
Y11400D1*
Y11370D1*
Y11340D1*
Y11310D1*
X49945Y11280D1*
X49948Y11250D1*
X49963Y11220D1*
X49996Y11190D1*
X50034Y11160D1*
X52914Y11850D2*
X52840Y11820D1*
X52764Y11790D1*
X53094Y11850D2*
X53147Y11820D1*
X53190Y11790D1*
X53222Y11760D1*
X53245Y11730D1*
X53264Y11700D1*
X53279Y11670D1*
X53291Y11640D1*
X53298Y11610D1*
X53301Y11580D1*
X53303Y11550D1*
Y11520D1*
X53304Y11490D1*
Y11460D1*
X53303Y11430D1*
X53299Y11400D1*
X53290Y11370D1*
X53278Y11340D1*
X53260Y11310D1*
X53237Y11280D1*
X53209Y11250D1*
X53171Y11220D1*
X53121Y11190D1*
X53064Y11160D1*
X48834Y11850D2*
X48805Y11820D1*
X48779Y11790D1*
X48756Y11760D1*
X48735Y11730D1*
X48714Y11700D1*
X48984Y11850D2*
X49033Y11820D1*
X49072Y11790D1*
X49099Y11760D1*
X49119Y11730D1*
X49126Y11700D1*
X49076Y11670D1*
X48994Y11640D1*
X48892Y11610D1*
X48797Y11580D1*
X48726Y11550D1*
X48671Y11520D1*
X48646Y11490D1*
X48629Y11460D1*
X48616Y11430D1*
X48606Y11400D1*
X48600Y11370D1*
X48601Y11340D1*
X48608Y11310D1*
X48620Y11280D1*
X48639Y11250D1*
X48666Y11220D1*
X48702Y11190D1*
X48744Y11160D1*
X49674Y11850D2*
X49645Y11820D1*
X49619Y11790D1*
X49597Y11760D1*
X49580Y11730D1*
X49567Y11700D1*
X49560Y11670D1*
X49556Y11640D1*
X49555Y11610D1*
X49554Y11580D1*
Y11550D1*
Y11520D1*
Y11490D1*
Y11460D1*
Y11430D1*
Y11400D1*
Y11370D1*
Y11340D1*
Y11310D1*
Y11280D1*
Y11250D1*
Y11220D1*
Y11190D1*
Y11160D1*
X49734Y11850D2*
X49764Y11820D1*
X50934Y11790D2*
X50910Y11760D1*
X50892Y11730D1*
X50882Y11700D1*
X50876Y11670D1*
X50870Y11640D1*
X50862Y11610D1*
X50853Y11580D1*
X50844Y11550D1*
X51084Y11520D1*
X51144Y11790D2*
X51143Y11760D1*
X51139Y11730D1*
X51132Y11700D1*
X51124Y11670D1*
X51119Y11640D1*
X51116Y11610D1*
X51115Y11580D1*
X51114Y11550D1*
X50874Y11520D1*
X52944Y11760D2*
X52890Y11730D1*
X52842Y11700D1*
X52801Y11670D1*
X52764Y11640D1*
X53034Y11760D2*
X53087Y11730D1*
X53130Y11700D1*
X53162Y11670D1*
X53184Y11640D1*
X53199Y11610D1*
X53207Y11580D1*
X53211Y11550D1*
X53213Y11520D1*
X53212Y11490D1*
X53209Y11460D1*
X53200Y11430D1*
X53188Y11400D1*
X53169Y11370D1*
X53146Y11340D1*
X53087Y11310D1*
X52996Y11280D1*
X52884Y11250D1*
X53754Y11670D2*
X53700Y11640D1*
X53653Y11610D1*
X53618Y11580D1*
X53592Y11550D1*
X53582Y11520D1*
X53577Y11490D1*
X53575Y11460D1*
X53576Y11430D1*
X53580Y11400D1*
X53590Y11370D1*
X53617Y11340D1*
X53683Y11310D1*
X53783Y11280D1*
X53904Y11250D1*
X53814Y11670D2*
X53868Y11640D1*
X53914Y11610D1*
X53949Y11580D1*
X53973Y11550D1*
X53989Y11520D1*
X54001Y11490D1*
X54010Y11460D1*
X54006Y11430D1*
X53995Y11400D1*
X53981Y11370D1*
X53946Y11340D1*
X53883Y11310D1*
X53785Y11280D1*
X53664Y11250D1*
X47814Y11580D2*
Y11550D1*
Y11520D1*
Y11490D1*
Y11460D1*
Y11430D1*
Y11400D1*
Y11370D1*
Y11340D1*
Y11310D1*
Y11280D1*
Y11250D1*
Y11220D1*
Y11190D1*
Y11160D1*
X49194Y11550D2*
X49049Y11520D1*
X48920Y11490D1*
X48824Y11460D1*
X48755Y11430D1*
X48729Y11400D1*
X48722Y11370D1*
X48718Y11340D1*
X48781Y11310D1*
X48884Y11280D1*
X49014Y11250D1*
X49134Y11550D2*
Y11520D1*
X49133Y11490D1*
X49129Y11460D1*
X49120Y11430D1*
X49107Y11400D1*
X49088Y11370D1*
X49062Y11340D1*
X48990Y11310D1*
X48879Y11280D1*
X48744Y11250D1*
X52674Y11430D2*
X52675Y11400D1*
X52679Y11370D1*
X52687Y11340D1*
X52700Y11310D1*
X52719Y11280D1*
X52746Y11250D1*
X52785Y11220D1*
X52832Y11190D1*
X52884Y11160D1*
X52764Y11430D2*
X52775Y11400D1*
X52791Y11370D1*
X52812Y11340D1*
X52881Y11310D1*
X52990Y11280D1*
X53124Y11250D1*
X50814Y11430D2*
Y11400D1*
X50813Y11370D1*
X50809Y11340D1*
X50802Y11310D1*
X50794Y11280D1*
X50789Y11250D1*
X50786Y11220D1*
X50785Y11190D1*
X50784Y11160D1*
X51054Y11430D2*
Y11400D1*
Y11370D1*
X51053Y11340D1*
X51049Y11310D1*
X51042Y11280D1*
X51034Y11250D1*
X51029Y11220D1*
X51026Y11190D1*
X51024Y11160D1*
X55494Y11400D2*
Y11370D1*
Y11340D1*
Y11310D1*
Y11280D1*
Y11250D1*
Y11220D1*
Y11190D1*
Y11160D1*
X56304Y11400D2*
Y11370D1*
Y11340D1*
Y11310D1*
Y11280D1*
Y11250D1*
Y11220D1*
Y11190D1*
Y11160D1*
X51534Y11250D2*
Y11220D1*
Y11190D1*
Y11160D1*
X51654Y11250D2*
Y11220D1*
Y11190D1*
Y11160D1*
X49104Y11250D2*
X49063Y11220D1*
X49012Y11190D1*
X48954Y11160D1*
X49134Y11250D2*
X49139Y11220D1*
X49150Y11190D1*
X49164Y11160D1*
X33934Y12960D2*
X33866Y12930D1*
X33811Y12900D1*
X33770Y12870D1*
X33742Y12840D1*
X33722Y12810D1*
X33708Y12780D1*
X33700Y12750D1*
X33696Y12720D1*
X33695Y12690D1*
Y12660D1*
X33699Y12630D1*
X33707Y12600D1*
X33720Y12570D1*
X33738Y12540D1*
X33763Y12510D1*
X33799Y12480D1*
X33853Y12450D1*
X33926Y12420D1*
X34012Y12390D1*
X34099Y12360D1*
X34175Y12330D1*
X34234Y12300D1*
X34281Y12270D1*
X34302Y12240D1*
X34314Y12210D1*
X34320Y12180D1*
X34321Y12150D1*
X34319Y12120D1*
X34308Y12090D1*
X34280Y12060D1*
X34197Y12030D1*
X34066Y12000D1*
X33904Y11970D1*
X34144Y12960D2*
X34212Y12930D1*
X34267Y12900D1*
X34307Y12870D1*
X34336Y12840D1*
X34357Y12810D1*
X34375Y12780D1*
X34390Y12750D1*
X34401Y12720D1*
X34408Y12690D1*
X34414Y12660D1*
X39034Y12960D2*
X38965Y12930D1*
X38906Y12900D1*
X38858Y12870D1*
X38821Y12840D1*
X38791Y12810D1*
X38767Y12780D1*
X38746Y12750D1*
X38729Y12720D1*
X38716Y12690D1*
X38705Y12660D1*
X38694Y12630D1*
X38685Y12600D1*
X38679Y12570D1*
X38676Y12540D1*
X38675Y12510D1*
X38674Y12480D1*
Y12450D1*
Y12420D1*
Y12390D1*
Y12360D1*
Y12330D1*
X38675Y12300D1*
X38679Y12270D1*
X38686Y12240D1*
X38695Y12210D1*
X38704Y12180D1*
X38715Y12150D1*
X38729Y12120D1*
X38746Y12090D1*
X38765Y12060D1*
X38785Y12030D1*
X38810Y12000D1*
X38844Y11970D1*
X38888Y11940D1*
X38943Y11910D1*
X39004Y11880D1*
X39244Y12960D2*
X39306Y12930D1*
X39360Y12900D1*
X39402Y12870D1*
X39433Y12840D1*
X39456Y12810D1*
X39474Y12780D1*
X39489Y12750D1*
X39501Y12720D1*
X39508Y12690D1*
X39514Y12660D1*
X41134Y12960D2*
X41065Y12930D1*
X41006Y12900D1*
X40958Y12870D1*
X40921Y12840D1*
X40891Y12810D1*
X40867Y12780D1*
X40846Y12750D1*
X40829Y12720D1*
X40816Y12690D1*
X40805Y12660D1*
X40794Y12630D1*
X40785Y12600D1*
X40779Y12570D1*
X40776Y12540D1*
X40775Y12510D1*
X40774Y12480D1*
Y12450D1*
Y12420D1*
Y12390D1*
Y12360D1*
Y12330D1*
X40775Y12300D1*
X40779Y12270D1*
X40786Y12240D1*
X40795Y12210D1*
X40804Y12180D1*
X40815Y12150D1*
X40829Y12120D1*
X40846Y12090D1*
X40865Y12060D1*
X40885Y12030D1*
X40910Y12000D1*
X40944Y11970D1*
X40988Y11940D1*
X41043Y11910D1*
X41104Y11880D1*
X41344Y12960D2*
X41406Y12930D1*
X41460Y12900D1*
X41502Y12870D1*
X41533Y12840D1*
X41556Y12810D1*
X41574Y12780D1*
X41589Y12750D1*
X41601Y12720D1*
X41608Y12690D1*
X41614Y12660D1*
X42574Y12960D2*
X42505Y12930D1*
X42446Y12900D1*
X42398Y12870D1*
X42361Y12840D1*
X42331Y12810D1*
X42307Y12780D1*
X42286Y12750D1*
X42269Y12720D1*
X42256Y12690D1*
X42245Y12660D1*
X42234Y12630D1*
X42225Y12600D1*
X42219Y12570D1*
X42216Y12540D1*
X42215Y12510D1*
X42214Y12480D1*
Y12450D1*
Y12420D1*
Y12390D1*
Y12360D1*
Y12330D1*
X42215Y12300D1*
X42219Y12270D1*
X42226Y12240D1*
X42235Y12210D1*
X42244Y12180D1*
X42255Y12150D1*
X42269Y12120D1*
X42286Y12090D1*
X42305Y12060D1*
X42325Y12030D1*
X42350Y12000D1*
X42384Y11970D1*
X42428Y11940D1*
X42483Y11910D1*
X42544Y11880D1*
X42784Y12960D2*
X42846Y12930D1*
X42900Y12900D1*
X42942Y12870D1*
X42973Y12840D1*
X42996Y12810D1*
X43014Y12780D1*
X43029Y12750D1*
X43041Y12720D1*
X43048Y12690D1*
X43054Y12660D1*
X43624Y12960D2*
X43556Y12930D1*
X43500Y12900D1*
X43455Y12870D1*
X43419Y12840D1*
X43387Y12810D1*
X43360Y12780D1*
X43337Y12750D1*
X43320Y12720D1*
X43306Y12690D1*
X43295Y12660D1*
X43284Y12630D1*
X43275Y12600D1*
X43269Y12570D1*
X43266Y12540D1*
X43265Y12510D1*
X43264Y12480D1*
Y12450D1*
Y12420D1*
Y12390D1*
Y12360D1*
Y12330D1*
X43265Y12300D1*
X43269Y12270D1*
X43276Y12240D1*
X43285Y12210D1*
X43294Y12180D1*
X43305Y12150D1*
X43319Y12120D1*
X43337Y12090D1*
X43360Y12060D1*
X43386Y12030D1*
X43416Y12000D1*
X43452Y11970D1*
X43498Y11940D1*
X43557Y11910D1*
X43624Y11880D1*
X43834Y12960D2*
X43902Y12930D1*
X43958Y12900D1*
X44002Y12870D1*
X44039Y12840D1*
X44071Y12810D1*
X44098Y12780D1*
X44120Y12750D1*
X44138Y12720D1*
X44151Y12690D1*
X44163Y12660D1*
X44173Y12630D1*
X44183Y12600D1*
X44188Y12570D1*
X44192Y12540D1*
X44193Y12510D1*
Y12480D1*
X44194Y12450D1*
Y12420D1*
Y12390D1*
Y12360D1*
Y12330D1*
X44193Y12300D1*
X44189Y12270D1*
X44181Y12240D1*
X44173Y12210D1*
X44164Y12180D1*
X44152Y12150D1*
X44138Y12120D1*
X44121Y12090D1*
X44098Y12060D1*
X44071Y12030D1*
X44041Y12000D1*
X44006Y11970D1*
X43959Y11940D1*
X43900Y11910D1*
X43834Y11880D1*
X34654Y12930D2*
Y12900D1*
Y12870D1*
Y12840D1*
Y12810D1*
Y12780D1*
Y12750D1*
Y12720D1*
Y12690D1*
Y12660D1*
Y12630D1*
Y12600D1*
Y12570D1*
Y12540D1*
Y12510D1*
Y12480D1*
Y12450D1*
Y12420D1*
Y12390D1*
Y12360D1*
Y12330D1*
Y12300D1*
Y12270D1*
Y12240D1*
Y12210D1*
Y12180D1*
Y12150D1*
Y12120D1*
Y12090D1*
Y12060D1*
Y12030D1*
Y12000D1*
Y11970D1*
Y11940D1*
Y11910D1*
X35374Y12930D2*
Y12900D1*
Y12870D1*
Y12840D1*
X35614Y12930D2*
Y12900D1*
Y12870D1*
Y12840D1*
Y12810D1*
Y12780D1*
Y12750D1*
Y12720D1*
Y12690D1*
Y12660D1*
Y12630D1*
Y12600D1*
Y12570D1*
Y12540D1*
Y12510D1*
Y12480D1*
Y12450D1*
Y12420D1*
Y12390D1*
Y12360D1*
Y12330D1*
Y12300D1*
Y12270D1*
Y12240D1*
Y12210D1*
Y12180D1*
Y12150D1*
Y12120D1*
Y12090D1*
Y12060D1*
Y12030D1*
Y12000D1*
Y11970D1*
Y11940D1*
Y11910D1*
X36334Y12930D2*
Y12900D1*
Y12870D1*
Y12840D1*
X36574Y12930D2*
Y12900D1*
Y12870D1*
Y12840D1*
Y12810D1*
Y12780D1*
Y12750D1*
Y12720D1*
Y12690D1*
Y12660D1*
Y12630D1*
Y12600D1*
Y12570D1*
Y12540D1*
Y12510D1*
Y12480D1*
Y12450D1*
Y12420D1*
Y12390D1*
Y12360D1*
Y12330D1*
Y12300D1*
Y12270D1*
Y12240D1*
Y12210D1*
Y12180D1*
Y12150D1*
Y12120D1*
Y12090D1*
Y12060D1*
Y12030D1*
Y12000D1*
Y11970D1*
Y11940D1*
Y11910D1*
X36754Y12930D2*
X36758Y12900D1*
X36766Y12870D1*
X36775Y12840D1*
X36784Y12810D1*
X36794Y12780D1*
X36804Y12750D1*
X36814Y12720D1*
X36824Y12690D1*
X36834Y12660D1*
X36844Y12630D1*
X36854Y12600D1*
X36863Y12570D1*
X36870Y12540D1*
X36877Y12510D1*
X36885Y12480D1*
X36894Y12450D1*
X36904Y12420D1*
X36914Y12390D1*
X36924Y12360D1*
X36934Y12330D1*
X36944Y12300D1*
X36954Y12270D1*
X36964Y12240D1*
X36974Y12210D1*
X36985Y12180D1*
X37000Y12150D1*
X37024Y12120D1*
X37054Y12090D1*
X37354Y12930D2*
X37339Y12900D1*
X37326Y12870D1*
X37315Y12840D1*
X37304Y12810D1*
X37294Y12780D1*
X37284Y12750D1*
X37274Y12720D1*
X37264Y12690D1*
X37254Y12660D1*
X37244Y12630D1*
X37234Y12600D1*
X37224Y12570D1*
X37214Y12540D1*
X37204Y12510D1*
X37194Y12480D1*
X37184Y12450D1*
X37174Y12420D1*
X37164Y12390D1*
X37154Y12360D1*
X37144Y12330D1*
X37134Y12300D1*
X37124Y12270D1*
X37114Y12240D1*
X37104Y12210D1*
X37092Y12180D1*
X37077Y12150D1*
X37054Y12120D1*
X37024Y12090D1*
X37504Y12930D2*
Y12900D1*
Y12870D1*
Y12840D1*
Y12810D1*
Y12780D1*
Y12750D1*
Y12720D1*
Y12690D1*
Y12660D1*
Y12630D1*
Y12600D1*
Y12570D1*
Y12540D1*
Y12510D1*
Y12480D1*
Y12450D1*
Y12420D1*
Y12390D1*
Y12360D1*
Y12330D1*
Y12300D1*
Y12270D1*
Y12240D1*
Y12210D1*
Y12180D1*
Y12150D1*
Y12120D1*
Y12090D1*
Y12060D1*
Y12030D1*
Y12000D1*
Y11970D1*
Y11940D1*
Y11910D1*
X37744Y12930D2*
Y12900D1*
Y12870D1*
Y12840D1*
Y12810D1*
Y12780D1*
Y12750D1*
Y12720D1*
Y12690D1*
Y12660D1*
Y12630D1*
Y12600D1*
Y12570D1*
Y12540D1*
Y12510D1*
Y12480D1*
Y12450D1*
Y12420D1*
Y12390D1*
Y12360D1*
Y12330D1*
Y12300D1*
Y12270D1*
Y12240D1*
Y12210D1*
Y12180D1*
Y12150D1*
Y12120D1*
Y12090D1*
Y12060D1*
Y12030D1*
Y12000D1*
Y11970D1*
Y11940D1*
Y11910D1*
X38464Y12930D2*
Y12900D1*
Y12870D1*
Y12840D1*
X39754Y12930D2*
Y12900D1*
Y12870D1*
Y12840D1*
Y12810D1*
Y12780D1*
Y12750D1*
Y12720D1*
Y12690D1*
Y12660D1*
Y12630D1*
Y12600D1*
Y12570D1*
Y12540D1*
Y12510D1*
Y12480D1*
Y12450D1*
Y12420D1*
Y12390D1*
Y12360D1*
Y12330D1*
Y12300D1*
Y12270D1*
Y12240D1*
Y12210D1*
Y12180D1*
Y12150D1*
Y12120D1*
Y12090D1*
Y12060D1*
Y12030D1*
Y12000D1*
Y11970D1*
Y11940D1*
Y11910D1*
X39874Y12930D2*
X39899Y12900D1*
X39922Y12870D1*
X39943Y12840D1*
X39964Y12810D1*
X39984Y12780D1*
X40004Y12750D1*
X40024Y12720D1*
X40044Y12690D1*
X40064Y12660D1*
X40084Y12630D1*
X40104Y12600D1*
X40124Y12570D1*
X40144Y12540D1*
X40164Y12510D1*
X40184Y12480D1*
X40204Y12450D1*
X40224Y12420D1*
X40244Y12390D1*
X40264Y12360D1*
X40284Y12330D1*
X40304Y12300D1*
X40324Y12270D1*
X40345Y12240D1*
X40371Y12210D1*
X40405Y12180D1*
X40444Y12150D1*
Y12930D2*
Y12900D1*
Y12870D1*
Y12840D1*
Y12810D1*
Y12780D1*
Y12750D1*
Y12720D1*
Y12690D1*
Y12660D1*
Y12630D1*
Y12600D1*
Y12570D1*
Y12540D1*
Y12510D1*
Y12480D1*
Y12450D1*
Y12420D1*
Y12390D1*
Y12360D1*
Y12330D1*
Y12300D1*
Y12270D1*
X40443Y12240D1*
X40438Y12210D1*
X40428Y12180D1*
X40414Y12150D1*
X40534Y12930D2*
Y12900D1*
Y12870D1*
Y12840D1*
Y12810D1*
Y12780D1*
Y12750D1*
Y12720D1*
Y12690D1*
Y12660D1*
Y12630D1*
Y12600D1*
Y12570D1*
Y12540D1*
Y12510D1*
Y12480D1*
Y12450D1*
Y12420D1*
Y12390D1*
Y12360D1*
Y12330D1*
Y12300D1*
Y12270D1*
Y12240D1*
Y12210D1*
Y12180D1*
Y12150D1*
Y12120D1*
Y12090D1*
Y12060D1*
Y12030D1*
Y12000D1*
Y11970D1*
Y11940D1*
Y11910D1*
X44404Y12930D2*
Y12900D1*
Y12870D1*
Y12840D1*
Y12810D1*
Y12780D1*
Y12750D1*
Y12720D1*
Y12690D1*
Y12660D1*
Y12630D1*
Y12600D1*
Y12570D1*
Y12540D1*
Y12510D1*
Y12480D1*
Y12450D1*
Y12420D1*
Y12390D1*
Y12360D1*
Y12330D1*
Y12300D1*
Y12270D1*
Y12240D1*
Y12210D1*
Y12180D1*
Y12150D1*
Y12120D1*
Y12090D1*
Y12060D1*
Y12030D1*
Y12000D1*
Y11970D1*
Y11940D1*
Y11910D1*
X44584Y12930D2*
X44588Y12900D1*
X44596Y12870D1*
X44605Y12840D1*
X44614Y12810D1*
X44624Y12780D1*
X44634Y12750D1*
X44644Y12720D1*
X44654Y12690D1*
X44664Y12660D1*
X44674Y12630D1*
X44684Y12600D1*
X44693Y12570D1*
X44700Y12540D1*
X44707Y12510D1*
X44715Y12480D1*
X44724Y12450D1*
X44734Y12420D1*
X44744Y12390D1*
X44754Y12360D1*
X44764Y12330D1*
X44774Y12300D1*
X44784Y12270D1*
X44794Y12240D1*
X44804Y12210D1*
X44815Y12180D1*
X44830Y12150D1*
X44854Y12120D1*
X44884Y12090D1*
X45184Y12930D2*
X45169Y12900D1*
X45156Y12870D1*
X45145Y12840D1*
X45134Y12810D1*
X45124Y12780D1*
X45114Y12750D1*
X45104Y12720D1*
X45094Y12690D1*
X45084Y12660D1*
X45074Y12630D1*
X45064Y12600D1*
X45054Y12570D1*
X45044Y12540D1*
X45034Y12510D1*
X45024Y12480D1*
X45014Y12450D1*
X45004Y12420D1*
X44994Y12390D1*
X44984Y12360D1*
X44974Y12330D1*
X44964Y12300D1*
X44954Y12270D1*
X44944Y12240D1*
X44934Y12210D1*
X44922Y12180D1*
X44907Y12150D1*
X44884Y12120D1*
X44854Y12090D1*
X45334Y12930D2*
Y12900D1*
Y12870D1*
Y12840D1*
Y12810D1*
Y12780D1*
Y12750D1*
Y12720D1*
Y12690D1*
Y12660D1*
Y12630D1*
Y12600D1*
Y12570D1*
Y12540D1*
Y12510D1*
Y12480D1*
Y12450D1*
Y12420D1*
Y12390D1*
Y12360D1*
Y12330D1*
Y12300D1*
Y12270D1*
Y12240D1*
Y12210D1*
Y12180D1*
Y12150D1*
Y12120D1*
Y12090D1*
Y12060D1*
Y12030D1*
Y12000D1*
Y11970D1*
Y11940D1*
Y11910D1*
X33964Y12870D2*
X33911Y12840D1*
X33867Y12810D1*
X33836Y12780D1*
X33813Y12750D1*
X33797Y12720D1*
X33792Y12690D1*
X33800Y12660D1*
X33813Y12630D1*
X33848Y12600D1*
X33901Y12570D1*
X33975Y12540D1*
X34065Y12510D1*
X34155Y12480D1*
X34234Y12450D1*
X34294Y12420D1*
X34340Y12390D1*
X34374Y12360D1*
X34398Y12330D1*
X34417Y12300D1*
X34430Y12270D1*
X34437Y12240D1*
X34441Y12210D1*
X34442Y12180D1*
X34438Y12150D1*
X34430Y12120D1*
X34419Y12090D1*
X34405Y12060D1*
X34390Y12030D1*
X34370Y12000D1*
X34340Y11970D1*
X34297Y11940D1*
X34239Y11910D1*
X34174Y11880D1*
X34114Y12870D2*
X34167Y12840D1*
X34210Y12810D1*
X34242Y12780D1*
X34264Y12750D1*
X34279Y12720D1*
X34288Y12690D1*
X34294Y12660D1*
X39064Y12870D2*
X39010Y12840D1*
X38962Y12810D1*
X38922Y12780D1*
X38888Y12750D1*
X38861Y12720D1*
X38842Y12690D1*
X38827Y12660D1*
X38815Y12630D1*
X38805Y12600D1*
X38799Y12570D1*
X38796Y12540D1*
X38795Y12510D1*
X38794Y12480D1*
Y12450D1*
Y12420D1*
Y12390D1*
Y12360D1*
Y12330D1*
X38795Y12300D1*
X38799Y12270D1*
X38806Y12240D1*
X38815Y12210D1*
X38825Y12180D1*
X38840Y12150D1*
X38861Y12120D1*
X38889Y12090D1*
X38930Y12060D1*
X39004Y12030D1*
X39125Y12000D1*
X39274Y11970D1*
X39184Y12870D2*
X39238Y12840D1*
X39285Y12810D1*
X39324Y12780D1*
X39355Y12750D1*
X39380Y12720D1*
X39402Y12690D1*
X39424Y12660D1*
X41164Y12870D2*
X41110Y12840D1*
X41062Y12810D1*
X41022Y12780D1*
X40988Y12750D1*
X40961Y12720D1*
X40942Y12690D1*
X40927Y12660D1*
X40915Y12630D1*
X40905Y12600D1*
X40899Y12570D1*
X40896Y12540D1*
X40895Y12510D1*
X40894Y12480D1*
Y12450D1*
Y12420D1*
Y12390D1*
Y12360D1*
Y12330D1*
X40895Y12300D1*
X40899Y12270D1*
X40906Y12240D1*
X40915Y12210D1*
X40925Y12180D1*
X40940Y12150D1*
X40961Y12120D1*
X40989Y12090D1*
X41030Y12060D1*
X41104Y12030D1*
X41225Y12000D1*
X41374Y11970D1*
X41284Y12870D2*
X41338Y12840D1*
X41385Y12810D1*
X41424Y12780D1*
X41455Y12750D1*
X41480Y12720D1*
X41502Y12690D1*
X41524Y12660D1*
X42604Y12870D2*
X42550Y12840D1*
X42502Y12810D1*
X42462Y12780D1*
X42428Y12750D1*
X42401Y12720D1*
X42382Y12690D1*
X42367Y12660D1*
X42355Y12630D1*
X42345Y12600D1*
X42339Y12570D1*
X42336Y12540D1*
X42335Y12510D1*
X42334Y12480D1*
Y12450D1*
Y12420D1*
Y12390D1*
Y12360D1*
Y12330D1*
X42335Y12300D1*
X42339Y12270D1*
X42346Y12240D1*
X42355Y12210D1*
X42365Y12180D1*
X42380Y12150D1*
X42401Y12120D1*
X42429Y12090D1*
X42470Y12060D1*
X42544Y12030D1*
X42665Y12000D1*
X42814Y11970D1*
X42724Y12870D2*
X42778Y12840D1*
X42825Y12810D1*
X42864Y12780D1*
X42895Y12750D1*
X42920Y12720D1*
X42942Y12690D1*
X42964Y12660D1*
X43714Y12870D2*
X43636Y12840D1*
X43570Y12810D1*
X43520Y12780D1*
X43482Y12750D1*
X43452Y12720D1*
X43428Y12690D1*
X43410Y12660D1*
X43397Y12630D1*
X43390Y12600D1*
X43385Y12570D1*
X43380Y12540D1*
X43372Y12510D1*
X43364Y12480D1*
X43359Y12450D1*
X43357Y12420D1*
X43360Y12390D1*
X43366Y12360D1*
X43374Y12330D1*
X43379Y12300D1*
X43383Y12270D1*
X43388Y12240D1*
X43397Y12210D1*
X43410Y12180D1*
X43427Y12150D1*
X43450Y12120D1*
X43480Y12090D1*
X43525Y12060D1*
X43606Y12030D1*
X43736Y12000D1*
X43894Y11970D1*
X43744Y12870D2*
X43822Y12840D1*
X43887Y12810D1*
X43937Y12780D1*
X43976Y12750D1*
X44005Y12720D1*
X44026Y12690D1*
X44040Y12660D1*
X44052Y12630D1*
X44062Y12600D1*
X44070Y12570D1*
X44076Y12540D1*
X44085Y12510D1*
X44093Y12480D1*
X44099Y12450D1*
X44100Y12420D1*
X44098Y12390D1*
X44091Y12360D1*
X44084Y12330D1*
X44079Y12300D1*
X44075Y12270D1*
X44069Y12240D1*
X44061Y12210D1*
X44048Y12180D1*
X44030Y12150D1*
X44007Y12120D1*
X43978Y12090D1*
X43933Y12060D1*
X43851Y12030D1*
X43722Y12000D1*
X43564Y11970D1*
X34774Y12840D2*
Y12810D1*
Y12780D1*
Y12750D1*
Y12720D1*
Y12690D1*
Y12660D1*
Y12630D1*
Y12600D1*
Y12570D1*
Y12540D1*
Y12510D1*
Y12480D1*
X35734Y12840D2*
Y12810D1*
Y12780D1*
Y12750D1*
Y12720D1*
Y12690D1*
Y12660D1*
Y12630D1*
Y12600D1*
Y12570D1*
Y12540D1*
Y12510D1*
Y12480D1*
X37864Y12840D2*
Y12810D1*
Y12780D1*
Y12750D1*
Y12720D1*
Y12690D1*
Y12660D1*
Y12630D1*
Y12600D1*
Y12570D1*
Y12540D1*
Y12510D1*
Y12480D1*
X36664Y12750D2*
Y12720D1*
Y12690D1*
Y12660D1*
Y12630D1*
Y12600D1*
Y12570D1*
Y12540D1*
Y12510D1*
Y12480D1*
Y12450D1*
Y12420D1*
Y12390D1*
Y12360D1*
Y12330D1*
Y12300D1*
Y12270D1*
Y12240D1*
Y12210D1*
Y12180D1*
Y12150D1*
Y12120D1*
Y12090D1*
Y12060D1*
Y12030D1*
Y12000D1*
Y11970D1*
Y11940D1*
Y11910D1*
X36724Y12750D2*
X36725Y12720D1*
X36729Y12690D1*
X36736Y12660D1*
X36745Y12630D1*
X36754Y12600D1*
X36764Y12570D1*
X36774Y12540D1*
X36784Y12510D1*
X36794Y12480D1*
X36804Y12450D1*
X36814Y12420D1*
X36824Y12390D1*
X36834Y12360D1*
X36844Y12330D1*
X36854Y12300D1*
X36864Y12270D1*
X36874Y12240D1*
X36884Y12210D1*
X36894Y12180D1*
X36904Y12150D1*
X36914Y12120D1*
X36924Y12090D1*
X36934Y12060D1*
X36944Y12030D1*
X36954Y12000D1*
X36964Y11970D1*
X36978Y11940D1*
X36994Y11910D1*
X44494Y12750D2*
Y12720D1*
Y12690D1*
Y12660D1*
Y12630D1*
Y12600D1*
Y12570D1*
Y12540D1*
Y12510D1*
Y12480D1*
Y12450D1*
Y12420D1*
Y12390D1*
Y12360D1*
Y12330D1*
Y12300D1*
Y12270D1*
Y12240D1*
Y12210D1*
Y12180D1*
Y12150D1*
Y12120D1*
Y12090D1*
Y12060D1*
Y12030D1*
Y12000D1*
Y11970D1*
Y11940D1*
Y11910D1*
X44554Y12750D2*
X44555Y12720D1*
X44559Y12690D1*
X44566Y12660D1*
X44575Y12630D1*
X44584Y12600D1*
X44594Y12570D1*
X44604Y12540D1*
X44614Y12510D1*
X44624Y12480D1*
X44634Y12450D1*
X44644Y12420D1*
X44654Y12390D1*
X44664Y12360D1*
X44674Y12330D1*
X44684Y12300D1*
X44694Y12270D1*
X44704Y12240D1*
X44714Y12210D1*
X44724Y12180D1*
X44734Y12150D1*
X44744Y12120D1*
X44754Y12090D1*
X44764Y12060D1*
X44774Y12030D1*
X44784Y12000D1*
X44794Y11970D1*
X44808Y11940D1*
X44824Y11910D1*
X37324Y12690D2*
X37323Y12660D1*
X37319Y12630D1*
X37311Y12600D1*
X37303Y12570D1*
X37294Y12540D1*
X37284Y12510D1*
X37274Y12480D1*
X37264Y12450D1*
X37254Y12420D1*
X37244Y12390D1*
X37234Y12360D1*
X37224Y12330D1*
X37214Y12300D1*
X37204Y12270D1*
X37194Y12240D1*
X37184Y12210D1*
X37174Y12180D1*
X37164Y12150D1*
X37154Y12120D1*
X37144Y12090D1*
X37134Y12060D1*
X37124Y12030D1*
X37114Y12000D1*
X37104Y11970D1*
X37093Y11940D1*
X37084Y11910D1*
X37384Y12690D2*
Y12660D1*
Y12630D1*
Y12600D1*
Y12570D1*
Y12540D1*
Y12510D1*
Y12480D1*
Y12450D1*
Y12420D1*
Y12390D1*
Y12360D1*
Y12330D1*
Y12300D1*
Y12270D1*
Y12240D1*
Y12210D1*
Y12180D1*
Y12150D1*
Y12120D1*
Y12090D1*
Y12060D1*
Y12030D1*
Y12000D1*
Y11970D1*
Y11940D1*
Y11910D1*
X39874Y12690D2*
Y12660D1*
Y12630D1*
Y12600D1*
Y12570D1*
Y12540D1*
Y12510D1*
Y12480D1*
Y12450D1*
Y12420D1*
Y12390D1*
Y12360D1*
Y12330D1*
Y12300D1*
Y12270D1*
Y12240D1*
Y12210D1*
Y12180D1*
Y12150D1*
Y12120D1*
Y12090D1*
Y12060D1*
Y12030D1*
Y12000D1*
Y11970D1*
Y11940D1*
Y11910D1*
X39934Y12690D2*
X39940Y12660D1*
X39951Y12630D1*
X39967Y12600D1*
X39985Y12570D1*
X40004Y12540D1*
X40024Y12510D1*
X40044Y12480D1*
X40064Y12450D1*
X40084Y12420D1*
X40104Y12390D1*
X40124Y12360D1*
X40144Y12330D1*
X40164Y12300D1*
X40184Y12270D1*
X40204Y12240D1*
X40224Y12210D1*
X40244Y12180D1*
X40264Y12150D1*
X40284Y12120D1*
X40304Y12090D1*
X40324Y12060D1*
X40344Y12030D1*
X40364Y12000D1*
X40383Y11970D1*
X40400Y11940D1*
X40414Y11910D1*
X45154Y12690D2*
X45153Y12660D1*
X45149Y12630D1*
X45141Y12600D1*
X45133Y12570D1*
X45124Y12540D1*
X45114Y12510D1*
X45104Y12480D1*
X45094Y12450D1*
X45084Y12420D1*
X45074Y12390D1*
X45064Y12360D1*
X45054Y12330D1*
X45044Y12300D1*
X45034Y12270D1*
X45024Y12240D1*
X45014Y12210D1*
X45004Y12180D1*
X44994Y12150D1*
X44984Y12120D1*
X44974Y12090D1*
X44964Y12060D1*
X44954Y12030D1*
X44944Y12000D1*
X44934Y11970D1*
X44923Y11940D1*
X44914Y11910D1*
X45214Y12690D2*
Y12660D1*
Y12630D1*
Y12600D1*
Y12570D1*
Y12540D1*
Y12510D1*
Y12480D1*
Y12450D1*
Y12420D1*
Y12390D1*
Y12360D1*
Y12330D1*
Y12300D1*
Y12270D1*
Y12240D1*
Y12210D1*
Y12180D1*
Y12150D1*
Y12120D1*
Y12090D1*
Y12060D1*
Y12030D1*
Y12000D1*
Y11970D1*
Y11940D1*
Y11910D1*
X35344Y12480D2*
Y12450D1*
Y12420D1*
Y12390D1*
X36304Y12480D2*
Y12450D1*
Y12420D1*
Y12390D1*
X38434Y12480D2*
Y12450D1*
Y12420D1*
Y12390D1*
X34774D2*
Y12360D1*
Y12330D1*
Y12300D1*
Y12270D1*
Y12240D1*
Y12210D1*
Y12180D1*
Y12150D1*
Y12120D1*
Y12090D1*
Y12060D1*
Y12030D1*
Y12000D1*
X35734Y12390D2*
Y12360D1*
Y12330D1*
Y12300D1*
Y12270D1*
Y12240D1*
Y12210D1*
Y12180D1*
Y12150D1*
Y12120D1*
Y12090D1*
Y12060D1*
Y12030D1*
Y12000D1*
X37864Y12390D2*
Y12360D1*
Y12330D1*
Y12300D1*
Y12270D1*
Y12240D1*
Y12210D1*
Y12180D1*
Y12150D1*
Y12120D1*
Y12090D1*
Y12060D1*
Y12030D1*
Y12000D1*
X39454Y12240D2*
X39435Y12210D1*
X39418Y12180D1*
X39401Y12150D1*
X39381Y12120D1*
X39356Y12090D1*
X39325Y12060D1*
X39245Y12030D1*
X39123Y12000D1*
X38974Y11970D1*
X39484Y12240D2*
X39515Y12210D1*
X39528Y12180D1*
X39525Y12150D1*
X39517Y12120D1*
X39504Y12090D1*
X39489Y12060D1*
X39470Y12030D1*
X39443Y12000D1*
X39407Y11970D1*
X39361Y11940D1*
X39305Y11910D1*
X39244Y11880D1*
X41554Y12240D2*
X41535Y12210D1*
X41518Y12180D1*
X41501Y12150D1*
X41481Y12120D1*
X41456Y12090D1*
X41425Y12060D1*
X41345Y12030D1*
X41223Y12000D1*
X41074Y11970D1*
X41584Y12240D2*
X41615Y12210D1*
X41628Y12180D1*
X41625Y12150D1*
X41617Y12120D1*
X41604Y12090D1*
X41589Y12060D1*
X41570Y12030D1*
X41543Y12000D1*
X41507Y11970D1*
X41461Y11940D1*
X41405Y11910D1*
X41344Y11880D1*
X42994Y12240D2*
X42975Y12210D1*
X42958Y12180D1*
X42941Y12150D1*
X42921Y12120D1*
X42896Y12090D1*
X42865Y12060D1*
X42785Y12030D1*
X42663Y12000D1*
X42514Y11970D1*
X43024Y12240D2*
X43055Y12210D1*
X43068Y12180D1*
X43065Y12150D1*
X43057Y12120D1*
X43044Y12090D1*
X43029Y12060D1*
X43010Y12030D1*
X42983Y12000D1*
X42947Y11970D1*
X42901Y11940D1*
X42845Y11910D1*
X42784Y11880D1*
X33634Y12210D2*
X33648Y12180D1*
X33657Y12150D1*
X33666Y12120D1*
X33676Y12090D1*
X33689Y12060D1*
X33707Y12030D1*
X33731Y12000D1*
X33764Y11970D1*
X33809Y11940D1*
X33868Y11910D1*
X33934Y11880D1*
X33754Y12210D2*
X33765Y12180D1*
X33779Y12150D1*
X33797Y12120D1*
X33822Y12090D1*
X33853Y12060D1*
X33938Y12030D1*
X34070Y12000D1*
X34234Y11970D1*
X35404Y12000D2*
Y11970D1*
Y11940D1*
Y11910D1*
X36364Y12000D2*
Y11970D1*
Y11940D1*
Y11910D1*
X38494Y12000D2*
Y11970D1*
Y11940D1*
Y11910D1*
X41854Y12000D2*
Y11970D1*
Y11940D1*
Y11910D1*
X41974Y12000D2*
Y11970D1*
Y11940D1*
Y11910D1*
X47694Y10680D2*
Y10650D1*
Y10620D1*
Y10590D1*
Y10560D1*
Y10530D1*
Y10500D1*
Y10470D1*
Y10440D1*
Y10410D1*
Y10380D1*
Y10350D1*
Y10320D1*
Y10290D1*
Y10260D1*
Y10230D1*
Y10200D1*
Y10170D1*
Y10140D1*
Y10110D1*
Y10080D1*
Y10050D1*
Y10020D1*
Y9990D1*
Y9960D1*
Y9930D1*
Y9900D1*
Y9870D1*
Y9840D1*
Y9810D1*
Y9780D1*
Y9750D1*
Y9720D1*
Y9690D1*
Y9660D1*
X48294Y10680D2*
X48351Y10650D1*
X48398Y10620D1*
X48432Y10590D1*
X48458Y10560D1*
X48477Y10530D1*
X48490Y10500D1*
X48497Y10470D1*
X48501Y10440D1*
X48503Y10410D1*
X48502Y10380D1*
X48499Y10350D1*
X48490Y10320D1*
X48477Y10290D1*
X48459Y10260D1*
X48431Y10230D1*
X48393Y10200D1*
X48344Y10170D1*
X48290Y10140D1*
X48234Y10110D1*
X48276Y10080D1*
X48311Y10050D1*
X48338Y10020D1*
X48361Y9990D1*
X48383Y9960D1*
X48403Y9930D1*
X48424Y9900D1*
X48444Y9870D1*
X48464Y9840D1*
X48484Y9810D1*
X48504Y9780D1*
X48523Y9750D1*
X48539Y9720D1*
X48552Y9690D1*
X48564Y9660D1*
X48744Y10680D2*
Y10650D1*
Y10620D1*
Y10590D1*
Y10560D1*
Y10530D1*
Y10500D1*
Y10470D1*
Y10440D1*
Y10410D1*
Y10380D1*
Y10350D1*
Y10320D1*
Y10290D1*
Y10260D1*
Y10230D1*
Y10200D1*
Y10170D1*
Y10140D1*
Y10110D1*
Y10080D1*
Y10050D1*
Y10020D1*
Y9990D1*
Y9960D1*
Y9930D1*
Y9900D1*
Y9870D1*
Y9840D1*
Y9810D1*
Y9780D1*
Y9750D1*
Y9720D1*
Y9690D1*
Y9660D1*
X49464Y10680D2*
Y10650D1*
Y10620D1*
Y10590D1*
X49614Y10680D2*
X49619Y10650D1*
X49627Y10620D1*
X49639Y10590D1*
X49651Y10560D1*
X49663Y10530D1*
X49673Y10500D1*
X49684Y10470D1*
X49694Y10440D1*
X49704Y10410D1*
X49715Y10380D1*
X49728Y10350D1*
X49741Y10320D1*
X49753Y10290D1*
X49763Y10260D1*
X49774Y10230D1*
X49784Y10200D1*
X49794Y10170D1*
X49805Y10140D1*
X49818Y10110D1*
X49831Y10080D1*
X49843Y10050D1*
X49853Y10020D1*
X49865Y9990D1*
X49878Y9960D1*
X49891Y9930D1*
X49903Y9900D1*
X49913Y9870D1*
X49924Y9840D1*
X49934Y9810D1*
X49944Y9780D1*
X49955Y9750D1*
X49969Y9720D1*
X49985Y9690D1*
X50004Y9660D1*
X49734Y10680D2*
X49738Y10650D1*
X49746Y10620D1*
X49755Y10590D1*
X49764Y10560D1*
X49775Y10530D1*
X49788Y10500D1*
X49801Y10470D1*
X49813Y10440D1*
X49823Y10410D1*
X49834Y10380D1*
X49844Y10350D1*
X49854Y10320D1*
X49864Y10290D1*
X49874Y10260D1*
X49884Y10230D1*
X49894Y10200D1*
X49904Y10170D1*
X49914Y10140D1*
X49924Y10110D1*
X49934Y10080D1*
X49944Y10050D1*
X49954Y10020D1*
X49964Y9990D1*
X49974Y9960D1*
X49984Y9930D1*
X49994Y9900D1*
X50006Y9870D1*
X50022Y9840D1*
X50056Y9810D1*
X50094Y9780D1*
X50394Y10680D2*
X50383Y10650D1*
X50373Y10620D1*
X50364Y10590D1*
X50353Y10560D1*
X50340Y10530D1*
X50327Y10500D1*
X50315Y10470D1*
X50305Y10440D1*
X50294Y10410D1*
X50284Y10380D1*
X50274Y10350D1*
X50264Y10320D1*
X50254Y10290D1*
X50244Y10260D1*
X50233Y10230D1*
X50220Y10200D1*
X50207Y10170D1*
X50195Y10140D1*
X50185Y10110D1*
X50174Y10080D1*
X50164Y10050D1*
X50154Y10020D1*
X50144Y9990D1*
X50134Y9960D1*
X50124Y9930D1*
X50114Y9900D1*
X50104Y9870D1*
X50093Y9840D1*
X50080Y9810D1*
X50064Y9780D1*
X50514Y10680D2*
X50499Y10650D1*
X50486Y10620D1*
X50475Y10590D1*
X50464Y10560D1*
X50454Y10530D1*
X50443Y10500D1*
X50430Y10470D1*
X50417Y10440D1*
X50405Y10410D1*
X50394Y10380D1*
X50383Y10350D1*
X50370Y10320D1*
X50357Y10290D1*
X50345Y10260D1*
X50335Y10230D1*
X50324Y10200D1*
X50314Y10170D1*
X50304Y10140D1*
X50293Y10110D1*
X50280Y10080D1*
X50267Y10050D1*
X50255Y10020D1*
X50244Y9990D1*
X50233Y9960D1*
X50220Y9930D1*
X50207Y9900D1*
X50195Y9870D1*
X50185Y9840D1*
X50174Y9810D1*
X50164Y9780D1*
X50154Y9750D1*
X50144Y9720D1*
X50133Y9690D1*
X50124Y9660D1*
X50844Y10680D2*
X50786Y10650D1*
X50740Y10620D1*
X50705Y10590D1*
X50680Y10560D1*
X50661Y10530D1*
X50648Y10500D1*
X50640Y10470D1*
X50636Y10440D1*
X50634Y10410D1*
X51054Y10680D2*
X51107Y10650D1*
X51150Y10620D1*
X51182Y10590D1*
X51205Y10560D1*
X51224Y10530D1*
X51239Y10500D1*
X51251Y10470D1*
X51258Y10440D1*
X51260Y10410D1*
X51258Y10380D1*
X51251Y10350D1*
X51242Y10320D1*
X51232Y10290D1*
X51219Y10260D1*
X51201Y10230D1*
X51183Y10200D1*
X51162Y10170D1*
X51138Y10140D1*
X51111Y10110D1*
X51082Y10080D1*
X51048Y10050D1*
X51011Y10020D1*
X50974Y9990D1*
X50939Y9960D1*
X50906Y9930D1*
X50875Y9900D1*
X50844Y9870D1*
X50814Y9840D1*
X50784Y9810D1*
X50754Y9780D1*
X50724Y9750D1*
X47814Y10590D2*
Y10560D1*
Y10530D1*
Y10500D1*
Y10470D1*
Y10440D1*
Y10410D1*
Y10380D1*
Y10350D1*
Y10320D1*
Y10290D1*
Y10260D1*
Y10230D1*
X48204Y10590D2*
X48258Y10560D1*
X48304Y10530D1*
X48339Y10500D1*
X48366Y10470D1*
X48375Y10440D1*
X48379Y10410D1*
Y10380D1*
X48364Y10350D1*
X48339Y10320D1*
X48302Y10290D1*
X48255Y10260D1*
X48204Y10230D1*
X48864Y10590D2*
Y10560D1*
Y10530D1*
Y10500D1*
Y10470D1*
Y10440D1*
Y10410D1*
Y10380D1*
Y10350D1*
Y10320D1*
Y10290D1*
Y10260D1*
Y10230D1*
X50904Y10590D2*
X50851Y10560D1*
X50807Y10530D1*
X50776Y10500D1*
X50753Y10470D1*
X50737Y10440D1*
X50724Y10410D1*
X51024Y10590D2*
X51054Y10560D1*
X51082Y10530D1*
X51107Y10500D1*
X51125Y10470D1*
X51135Y10440D1*
X51140Y10410D1*
X51141Y10380D1*
X51138Y10350D1*
X51130Y10320D1*
X51118Y10290D1*
X51100Y10260D1*
X51078Y10230D1*
X51051Y10200D1*
X51023Y10170D1*
X50993Y10140D1*
X50962Y10110D1*
X50929Y10080D1*
X50892Y10050D1*
X50854Y10020D1*
X50819Y9990D1*
X50786Y9960D1*
X50755Y9930D1*
X50725Y9900D1*
X50699Y9870D1*
X50676Y9840D1*
X50655Y9810D1*
X50635Y9780D1*
X50620Y9750D1*
X50611Y9720D1*
X50607Y9690D1*
X50604Y9660D1*
X49434Y10230D2*
Y10200D1*
Y10170D1*
Y10140D1*
X47814D2*
Y10110D1*
Y10080D1*
Y10050D1*
Y10020D1*
Y9990D1*
Y9960D1*
Y9930D1*
Y9900D1*
Y9870D1*
Y9840D1*
Y9810D1*
Y9780D1*
Y9750D1*
Y9720D1*
Y9690D1*
Y9660D1*
X48024Y10140D2*
X48078Y10110D1*
X48124Y10080D1*
X48160Y10050D1*
X48188Y10020D1*
X48212Y9990D1*
X48237Y9960D1*
X48261Y9930D1*
X48281Y9900D1*
X48299Y9870D1*
X48316Y9840D1*
X48335Y9810D1*
X48355Y9780D1*
X48374Y9750D1*
X48395Y9720D1*
X48418Y9690D1*
X48444Y9660D1*
X48864Y10140D2*
Y10110D1*
Y10080D1*
Y10050D1*
Y10020D1*
Y9990D1*
Y9960D1*
Y9930D1*
Y9900D1*
Y9870D1*
Y9840D1*
Y9810D1*
Y9780D1*
Y9750D1*
X49494D2*
Y9720D1*
Y9690D1*
Y9660D1*
X51264Y9750D2*
Y9720D1*
Y9690D1*
Y9660D1*
X33124Y54194D2*
D33*
X33039Y54366D1*
X32866Y54539D1*
X32695Y54624D1*
X32350D1*
X32177Y54539D1*
X32006Y54366D1*
X31919Y54194D1*
X31833Y53936D1*
Y53504D1*
X31919Y53247D1*
X32006Y53074D1*
X32177Y52903D1*
X32350Y52816D1*
X32695D1*
X32866Y52903D1*
X33039Y53074D1*
X33124Y53247D1*
X35291Y52816D2*
X34600Y54624D1*
X33912Y52816D1*
X34170Y53418D2*
X35032D1*
X36078Y54624D2*
Y53333D1*
X36164Y53074D1*
X36337Y52903D1*
X36595Y52816D1*
X36767D1*
X37025Y52903D1*
X37198Y53074D1*
X37284Y53333D1*
Y54624D1*
X38674D2*
Y52816D1*
X38071Y54624D2*
X39277D1*
X40064D2*
Y52816D1*
X41369Y54624D2*
X41196Y54539D1*
X41025Y54366D1*
X40937Y54194D1*
X40852Y53936D1*
Y53504D1*
X40937Y53247D1*
X41025Y53074D1*
X41196Y52903D1*
X41369Y52816D1*
X41713D1*
X41884Y52903D1*
X42058Y53074D1*
X42143Y53247D1*
X42229Y53504D1*
Y53936D1*
X42143Y54194D1*
X42058Y54366D1*
X41884Y54539D1*
X41713Y54624D1*
X41369D1*
X44222D2*
Y52816D1*
X43016Y54624D1*
Y52816D1*
X45097Y54021D2*
X45009Y53934D1*
X45097Y53848D1*
X45182Y53934D1*
X45097Y54021D1*
Y52989D2*
X45009Y52901D1*
X45097Y52816D1*
X45182Y52901D1*
X45097Y52989D1*
X48994Y54068D2*
D32*
Y52661D1*
X49932Y54068D2*
Y52661D1*
X48994Y53398D2*
X49932D1*
X50699Y53599D2*
X50566Y53532D1*
X50431Y53398D1*
X50364Y53197D1*
Y53063D1*
X50431Y52862D1*
X50566Y52729D1*
X50699Y52661D1*
X50900D1*
X51035Y52729D1*
X51168Y52862D1*
X51236Y53063D1*
Y53197D1*
X51168Y53398D1*
X51035Y53532D1*
X50900Y53599D1*
X50699D1*
X51869Y54068D2*
Y52929D1*
X51936Y52729D1*
X52070Y52661D1*
X52203D1*
X51668Y53599D2*
X52137D1*
X54934Y53867D2*
X54801Y54001D1*
X54600Y54068D1*
X54332D1*
X54131Y54001D1*
X53997Y53867D1*
Y53734D1*
X54065Y53599D1*
X54131Y53532D1*
X54264Y53466D1*
X54667Y53331D1*
X54801Y53265D1*
X54868Y53197D1*
X54934Y53063D1*
Y52862D1*
X54801Y52729D1*
X54600Y52661D1*
X54332D1*
X54131Y52729D1*
X53997Y52862D1*
X55367Y53599D2*
Y52929D1*
X55433Y52729D1*
X55568Y52661D1*
X55769D1*
X55902Y52729D1*
X56103Y52929D1*
Y53599D2*
Y52661D1*
X56536Y53599D2*
Y52661D1*
Y53197D2*
X56604Y53398D1*
X56737Y53532D1*
X56871Y53599D1*
X57073D1*
X58040Y54068D2*
X57907D1*
X57773Y54001D1*
X57706Y53800D1*
Y52661D1*
X57505Y53599D2*
X57974D1*
X59276D2*
Y52661D1*
Y53398D2*
X59143Y53532D1*
X59008Y53599D1*
X58809D1*
X58674Y53532D1*
X58541Y53398D1*
X58473Y53197D1*
Y53063D1*
X58541Y52862D1*
X58674Y52729D1*
X58809Y52661D1*
X59008D1*
X59143Y52729D1*
X59276Y52862D1*
X60513Y53398D2*
X60378Y53532D1*
X60244Y53599D1*
X60044D1*
X59909Y53532D1*
X59776Y53398D1*
X59708Y53197D1*
Y53063D1*
X59776Y52862D1*
X59909Y52729D1*
X60044Y52661D1*
X60244D1*
X60378Y52729D1*
X60513Y52862D1*
X60945Y53197D2*
X61748D1*
Y53331D1*
X61682Y53466D1*
X61615Y53532D1*
X61481Y53599D1*
X61279D1*
X61146Y53532D1*
X61012Y53398D1*
X60945Y53197D1*
Y53063D1*
X61012Y52862D1*
X61146Y52729D1*
X61279Y52661D1*
X61481D1*
X61615Y52729D1*
X61748Y52862D1*
X63610Y54066D2*
Y53130D1*
Y52796D2*
X63541Y52728D1*
X63610Y52661D1*
X63676Y52728D1*
X63610Y52796D1*
X25583Y23896D2*
D34*
X25237Y24800D1*
X24893Y23896D1*
X25023Y24197D2*
X25453D1*
X25861Y24800D2*
Y23896D1*
X26162D1*
X26291Y23939D1*
X26378Y24025D1*
X26421Y24111D1*
X26463Y24240D1*
Y24456D1*
X26421Y24585D1*
X26378Y24671D1*
X26291Y24757D1*
X26162Y24800D1*
X25861D1*
X26741D2*
Y24154D1*
X26784Y24025D1*
X26871Y23939D1*
X27000Y23896D1*
X27086D1*
X27215Y23939D1*
X27301Y24025D1*
X27344Y24154D1*
Y24800D1*
X27622D2*
Y23896D1*
X28138D1*
X28718Y24800D2*
Y23896D1*
X28416Y24800D2*
X29019D1*
X30775Y24671D2*
X30689Y24757D1*
X30560Y24800D1*
X30388D1*
X30259Y24757D1*
X30172Y24671D1*
Y24585D1*
X30216Y24498D1*
X30259Y24456D1*
X30344Y24413D1*
X30603Y24326D1*
X30689Y24284D1*
X30732Y24240D1*
X30775Y24154D1*
Y24025D1*
X30689Y23939D1*
X30560Y23896D1*
X30388D1*
X30259Y23939D1*
X30172Y24025D1*
X31053Y24800D2*
Y24154D1*
X31096Y24025D1*
X31182Y23939D1*
X31311Y23896D1*
X31397D1*
X31526Y23939D1*
X31613Y24025D1*
X31656Y24154D1*
Y24800D1*
X31934Y24326D2*
X32322D1*
X32450Y24369D1*
X32494Y24413D1*
X32536Y24498D1*
Y24628D1*
X32494Y24713D1*
X32450Y24757D1*
X32322Y24800D1*
X31934D1*
Y23896D1*
X33373Y24800D2*
X32814D1*
Y23896D1*
X33373D1*
X32814Y24369D2*
X33159D1*
X33651D2*
X34038D1*
X34168Y24413D1*
X34211Y24456D1*
X34254Y24541D1*
Y24628D1*
X34211Y24713D1*
X34168Y24757D1*
X34038Y24800D1*
X33651D1*
Y23896D1*
X33953Y24369D2*
X34254Y23896D1*
X34532Y24800D2*
X34876Y23896D1*
X35221Y24800D1*
X35498D2*
Y23896D1*
X36379Y24671D2*
X36294Y24757D1*
X36164Y24800D1*
X35992D1*
X35863Y24757D1*
X35776Y24671D1*
Y24585D1*
X35820Y24498D1*
X35863Y24456D1*
X35949Y24413D1*
X36207Y24326D1*
X36294Y24284D1*
X36337Y24240D1*
X36379Y24154D1*
Y24025D1*
X36294Y23939D1*
X36164Y23896D1*
X35992D1*
X35863Y23939D1*
X35776Y24025D1*
X36657Y24800D2*
Y23896D1*
X37194Y24800D2*
X37107Y24757D1*
X37022Y24671D1*
X36978Y24585D1*
X36935Y24456D1*
Y24240D1*
X36978Y24111D1*
X37022Y24025D1*
X37107Y23939D1*
X37194Y23896D1*
X37366D1*
X37451Y23939D1*
X37538Y24025D1*
X37581Y24111D1*
X37624Y24240D1*
Y24456D1*
X37581Y24585D1*
X37538Y24671D1*
X37451Y24757D1*
X37366Y24800D1*
X37194D1*
X38504D2*
Y23896D1*
X37901Y24800D1*
Y23896D1*
X39657Y24369D2*
X40044D1*
X40173Y24413D1*
X40217Y24456D1*
X40260Y24541D1*
Y24628D1*
X40217Y24713D1*
X40173Y24757D1*
X40044Y24800D1*
X39657D1*
Y23896D1*
X39958Y24369D2*
X40260Y23896D1*
X41097Y24800D2*
X40538D1*
Y23896D1*
X41097D1*
X40538Y24369D2*
X40882D1*
X41634Y24800D2*
X41548Y24758D1*
X41461Y24672D1*
X41419Y24585D1*
X41375Y24456D1*
Y24241D1*
X41419Y24111D1*
X41461Y24026D1*
X41548Y23939D1*
X41634Y23897D1*
X41806D1*
X41892Y23939D1*
X41978Y24026D1*
X42021Y24111D1*
X42064Y24241D1*
Y24456D1*
X42021Y24585D1*
X41978Y24672D1*
X41892Y24758D1*
X41806Y24800D1*
X41634D1*
X41763Y24069D2*
X42021Y23810D1*
X42342Y24800D2*
Y24154D1*
X42385Y24025D1*
X42472Y23939D1*
X42601Y23896D1*
X42686D1*
X42816Y23939D1*
X42902Y24025D1*
X42945Y24154D1*
Y24800D1*
X43223D2*
Y23896D1*
X43501Y24369D2*
X43888D1*
X44017Y24413D1*
X44061Y24456D1*
X44104Y24541D1*
Y24628D1*
X44061Y24713D1*
X44017Y24757D1*
X43888Y24800D1*
X43501D1*
Y23896D1*
X43802Y24369D2*
X44104Y23896D1*
X44941Y24800D2*
X44382D1*
Y23896D1*
X44941D1*
X44382Y24369D2*
X44726D1*
X45219Y24800D2*
Y23896D1*
X45520D1*
X45649Y23939D1*
X45736Y24025D1*
X45779Y24111D1*
X45822Y24240D1*
Y24456D1*
X45779Y24585D1*
X45736Y24671D1*
X45649Y24757D1*
X45520Y24800D1*
X45219D1*
X46142Y23982D2*
X46099Y23938D1*
X46142Y23896D1*
X46186Y23938D1*
X46142Y23982D1*
X47984Y24585D2*
X47942Y24671D1*
X47855Y24757D1*
X47770Y24800D1*
X47597D1*
X47511Y24757D1*
X47425Y24671D1*
X47382Y24585D1*
X47339Y24456D1*
Y24240D1*
X47382Y24111D1*
X47425Y24025D1*
X47511Y23939D1*
X47597Y23896D1*
X47770D1*
X47855Y23939D1*
X47942Y24025D1*
X47984Y24111D1*
X48262Y24800D2*
Y23896D1*
X48865Y24800D2*
Y23896D1*
X48262Y24369D2*
X48865D1*
X49143Y24800D2*
Y23896D1*
X49421Y24800D2*
Y23896D1*
X49937D1*
X50215Y24800D2*
Y23896D1*
X50517D1*
X50646Y23939D1*
X50733Y24025D1*
X50775Y24111D1*
X50818Y24240D1*
Y24456D1*
X50775Y24585D1*
X50733Y24671D1*
X50646Y24757D1*
X50517Y24800D1*
X50215D1*
X51096Y24369D2*
X51483D1*
X51612Y24413D1*
X51656Y24456D1*
X51699Y24541D1*
Y24628D1*
X51656Y24713D1*
X51612Y24757D1*
X51483Y24800D1*
X51096D1*
Y23896D1*
X51397Y24369D2*
X51699Y23896D1*
X52536Y24800D2*
X51977D1*
Y23896D1*
X52536D1*
X51977Y24369D2*
X52321D1*
X53417Y24800D2*
Y23896D1*
X52814Y24800D1*
Y23896D1*
X54569Y24800D2*
Y24154D1*
X54612Y24025D1*
X54699Y23939D1*
X54828Y23896D1*
X54914D1*
X55043Y23939D1*
X55130Y24025D1*
X55172Y24154D1*
Y24800D1*
X56053D2*
Y23896D1*
X55450Y24800D1*
Y23896D1*
X56331Y24800D2*
Y23896D1*
X56632D1*
X56762Y23939D1*
X56848Y24025D1*
X56891Y24111D1*
X56934Y24240D1*
Y24456D1*
X56891Y24585D1*
X56848Y24671D1*
X56762Y24757D1*
X56632Y24800D1*
X56331D1*
X57771D2*
X57212D1*
Y23896D1*
X57771D1*
X57212Y24369D2*
X57556D1*
X58049D2*
X58436D1*
X58565Y24413D1*
X58609Y24456D1*
X58652Y24541D1*
Y24628D1*
X58609Y24713D1*
X58565Y24757D1*
X58436Y24800D1*
X58049D1*
Y23896D1*
X58350Y24369D2*
X58652Y23896D1*
X59804Y24627D2*
X59891Y24671D1*
X60020Y24799D1*
Y23896D1*
X60513Y24799D2*
X60385Y24756D1*
X60341Y24671D1*
Y24584D1*
X60385Y24498D1*
X60470Y24455D1*
X60642Y24412D1*
X60772Y24369D1*
X60857Y24283D1*
X60900Y24197D1*
Y24068D1*
X60857Y23982D1*
X60815Y23938D1*
X60685Y23896D1*
X60513D1*
X60385Y23938D1*
X60341Y23982D1*
X60298Y24068D1*
Y24197D1*
X60341Y24283D1*
X60428Y24369D1*
X60556Y24412D1*
X60728Y24455D1*
X60815Y24498D1*
X60857Y24584D1*
Y24671D1*
X60815Y24756D1*
X60685Y24799D1*
X60513D1*
X62741Y23896D2*
Y24800D1*
X62397Y23896D1*
X62053Y24800D1*
Y23896D1*
X63019Y24800D2*
Y24154D1*
X63062Y24025D1*
X63148Y23939D1*
X63278Y23896D1*
X63363D1*
X63493Y23939D1*
X63579Y24025D1*
X63622Y24154D1*
Y24800D1*
X64503Y24671D2*
X64417Y24757D1*
X64288Y24800D1*
X64116D1*
X63986Y24757D1*
X63900Y24671D1*
Y24585D1*
X63944Y24498D1*
X63986Y24456D1*
X64072Y24413D1*
X64331Y24326D1*
X64417Y24284D1*
X64460Y24240D1*
X64503Y24154D1*
Y24025D1*
X64417Y23939D1*
X64288Y23896D1*
X64116D1*
X63986Y23939D1*
X63900Y24025D1*
X65082Y24800D2*
Y23896D1*
X64781Y24800D2*
X65384D1*
X66536D2*
Y23896D1*
X66924D1*
X67054Y23939D1*
X67096Y23982D1*
X67139Y24068D1*
Y24197D1*
X67096Y24284D1*
X67054Y24326D1*
X66924Y24369D1*
X67054Y24413D1*
X67096Y24456D1*
X67139Y24541D1*
Y24628D1*
X67096Y24713D1*
X67054Y24757D1*
X66924Y24800D1*
X66536D1*
Y24369D2*
X66924D1*
X67976Y24800D2*
X67417D1*
Y23896D1*
X67976D1*
X67417Y24369D2*
X67761D1*
X69732Y24671D2*
X69646Y24757D1*
X69517Y24800D1*
X69345D1*
X69215Y24757D1*
X69129Y24671D1*
Y24585D1*
X69173Y24498D1*
X69215Y24456D1*
X69301Y24413D1*
X69560Y24326D1*
X69646Y24284D1*
X69689Y24240D1*
X69732Y24154D1*
Y24025D1*
X69646Y23939D1*
X69517Y23896D1*
X69345D1*
X69215Y23939D1*
X69129Y24025D1*
X70010Y24800D2*
Y24154D1*
X70052Y24025D1*
X70139Y23939D1*
X70268Y23896D1*
X70354D1*
X70483Y23939D1*
X70570Y24025D1*
X70613Y24154D1*
Y24800D1*
X70891Y24326D2*
X71278D1*
X71407Y24369D1*
X71451Y24413D1*
X71493Y24498D1*
Y24628D1*
X71451Y24713D1*
X71407Y24757D1*
X71278Y24800D1*
X70891D1*
Y23896D1*
X72330Y24800D2*
X71771D1*
Y23896D1*
X72330D1*
X71771Y24369D2*
X72116D1*
X72608D2*
X72995D1*
X73125Y24413D1*
X73168Y24456D1*
X73211Y24541D1*
Y24628D1*
X73168Y24713D1*
X73125Y24757D1*
X72995Y24800D1*
X72608D1*
Y23896D1*
X72910Y24369D2*
X73211Y23896D1*
X73489Y24800D2*
X73833Y23896D1*
X74178Y24800D1*
X74455D2*
Y23896D1*
X75336Y24671D2*
X75251Y24757D1*
X75121Y24800D1*
X74949D1*
X74820Y24757D1*
X74733Y24671D1*
Y24585D1*
X74777Y24498D1*
X74820Y24456D1*
X74905Y24413D1*
X75164Y24326D1*
X75251Y24284D1*
X75293Y24240D1*
X75336Y24154D1*
Y24025D1*
X75251Y23939D1*
X75121Y23896D1*
X74949D1*
X74820Y23939D1*
X74733Y24025D1*
X76173Y24800D2*
X75614D1*
Y23896D1*
X76173D1*
X75614Y24369D2*
X75958D1*
X76451Y24800D2*
Y23896D1*
X76753D1*
X76882Y23939D1*
X76968Y24025D1*
X77011Y24111D1*
X77054Y24240D1*
Y24456D1*
X77011Y24585D1*
X76968Y24671D1*
X76882Y24757D1*
X76753Y24800D1*
X76451D1*
X24893Y21300D2*
Y20396D1*
X25195D1*
X25324Y20439D1*
X25411Y20525D1*
X25453Y20611D1*
X25496Y20740D1*
Y20956D1*
X25453Y21085D1*
X25411Y21171D1*
X25324Y21257D1*
X25195Y21300D1*
X24893D1*
X26033D2*
X25946Y21257D1*
X25861Y21171D1*
X25817Y21085D1*
X25774Y20956D1*
Y20740D1*
X25817Y20611D1*
X25861Y20525D1*
X25946Y20439D1*
X26033Y20396D1*
X26205D1*
X26290Y20439D1*
X26377Y20525D1*
X26420Y20611D1*
X26462Y20740D1*
Y20956D1*
X26420Y21085D1*
X26377Y21171D1*
X26290Y21257D1*
X26205Y21300D1*
X26033D1*
X28218D2*
Y20396D1*
X27615Y21300D1*
Y20396D1*
X28755Y21300D2*
X28668Y21257D1*
X28583Y21171D1*
X28539Y21085D1*
X28496Y20956D1*
Y20740D1*
X28539Y20611D1*
X28583Y20525D1*
X28668Y20439D1*
X28755Y20396D1*
X28927D1*
X29012Y20439D1*
X29099Y20525D1*
X29142Y20611D1*
X29184Y20740D1*
Y20956D1*
X29142Y21085D1*
X29099Y21171D1*
X29012Y21257D1*
X28927Y21300D1*
X28755D1*
X29764D2*
Y20396D1*
X29462Y21300D2*
X30065D1*
X31519D2*
Y20396D1*
X31218Y21300D2*
X31821D1*
X32357D2*
X32271Y21257D1*
X32185Y21171D1*
X32141Y21085D1*
X32099Y20956D1*
Y20740D1*
X32141Y20611D1*
X32185Y20525D1*
X32271Y20439D1*
X32357Y20396D1*
X32529D1*
X32615Y20439D1*
X32702Y20525D1*
X32744Y20611D1*
X32787Y20740D1*
Y20956D1*
X32744Y21085D1*
X32702Y21171D1*
X32615Y21257D1*
X32529Y21300D1*
X32357D1*
X33065D2*
Y20654D1*
X33108Y20525D1*
X33194Y20439D1*
X33324Y20396D1*
X33409D1*
X33539Y20439D1*
X33625Y20525D1*
X33668Y20654D1*
Y21300D1*
X34592Y21085D2*
X34549Y21171D1*
X34462Y21257D1*
X34377Y21300D1*
X34205D1*
X34118Y21257D1*
X34032Y21171D1*
X33989Y21085D1*
X33946Y20956D1*
Y20740D1*
X33989Y20611D1*
X34032Y20525D1*
X34118Y20439D1*
X34205Y20396D1*
X34377D1*
X34462Y20439D1*
X34549Y20525D1*
X34592Y20611D1*
X34869Y21300D2*
Y20396D1*
X35472Y21300D2*
Y20396D1*
X34869Y20869D2*
X35472D1*
X36625Y21300D2*
Y20654D1*
X36668Y20525D1*
X36754Y20439D1*
X36884Y20396D1*
X36969D1*
X37099Y20439D1*
X37185Y20525D1*
X37228Y20654D1*
Y21300D1*
X38109D2*
Y20396D1*
X37506Y21300D1*
Y20396D1*
X38688Y21300D2*
Y20396D1*
X38387Y21300D2*
X38989D1*
X39267D2*
Y20396D1*
X39545Y21300D2*
Y20396D1*
X40062D1*
X41214Y21127D2*
X41301Y21171D1*
X41430Y21299D1*
Y20396D1*
X41967Y21299D2*
X41837Y21256D1*
X41751Y21127D1*
X41708Y20912D1*
Y20783D1*
X41751Y20568D1*
X41837Y20438D1*
X41967Y20396D1*
X42052D1*
X42182Y20438D1*
X42267Y20568D1*
X42311Y20783D1*
Y20912D1*
X42267Y21127D1*
X42182Y21256D1*
X42052Y21299D1*
X41967D1*
X42267Y21127D2*
X41751Y20568D1*
X44152Y20396D2*
Y21300D1*
X43808Y20396D1*
X43464Y21300D1*
Y20396D1*
X44430Y21300D2*
Y20396D1*
X45311Y21300D2*
Y20396D1*
X44708Y21300D1*
Y20396D1*
X45589Y21300D2*
Y20654D1*
X45632Y20525D1*
X45718Y20439D1*
X45847Y20396D1*
X45933D1*
X46062Y20439D1*
X46149Y20525D1*
X46192Y20654D1*
Y21300D1*
X46771D2*
Y20396D1*
X46470Y21300D2*
X47072D1*
X47909D2*
X47350D1*
Y20396D1*
X47909D1*
X47350Y20869D2*
X47695D1*
X48790Y21171D2*
X48705Y21257D1*
X48575Y21300D1*
X48403D1*
X48274Y21257D1*
X48187Y21171D1*
Y21085D1*
X48231Y20998D1*
X48274Y20956D1*
X48359Y20913D1*
X48618Y20826D1*
X48705Y20784D1*
X48747Y20740D1*
X48790Y20654D1*
Y20525D1*
X48705Y20439D1*
X48575Y20396D1*
X48403D1*
X48274Y20439D1*
X48187Y20525D1*
X50632Y20396D2*
X50287Y21300D1*
X49943Y20396D1*
X50072Y20697D2*
X50503D1*
X51470Y21300D2*
X50910D1*
Y20396D1*
Y20869D2*
X51255D1*
X52050Y21300D2*
Y20396D1*
X51748Y21300D2*
X52351D1*
X53188D2*
X52629D1*
Y20396D1*
X53188D1*
X52629Y20869D2*
X52973D1*
X53466D2*
X53853D1*
X53982Y20913D1*
X54026Y20956D1*
X54069Y21041D1*
Y21128D1*
X54026Y21213D1*
X53982Y21257D1*
X53853Y21300D1*
X53466D1*
Y20396D1*
X53768Y20869D2*
X54069Y20396D1*
X55523Y21300D2*
Y20396D1*
X55222Y21300D2*
X55825D1*
X56102D2*
Y20654D1*
X56145Y20525D1*
X56232Y20439D1*
X56361Y20396D1*
X56447D1*
X56576Y20439D1*
X56663Y20525D1*
X56705Y20654D1*
Y21300D1*
X56983Y20869D2*
X57370D1*
X57500Y20913D1*
X57543Y20956D1*
X57586Y21041D1*
Y21128D1*
X57543Y21213D1*
X57500Y21257D1*
X57370Y21300D1*
X56983D1*
Y20396D1*
X57285Y20869D2*
X57586Y20396D1*
X58467Y21300D2*
Y20396D1*
X57864Y21300D1*
Y20396D1*
X58745Y21300D2*
Y20396D1*
X59626Y21300D2*
Y20396D1*
X59023Y21300D1*
Y20396D1*
X60549Y21085D2*
X60506Y21171D1*
X60420Y21257D1*
X60334Y21300D1*
X60162D1*
X60076Y21257D1*
X59990Y21171D1*
X59946Y21085D1*
X59904Y20956D1*
Y20740D1*
X59946Y20611D1*
X59990Y20525D1*
X60076Y20439D1*
X60162Y20396D1*
X60334D1*
X60420Y20439D1*
X60506Y20525D1*
X60549Y20611D1*
Y20740D1*
X60334D1*
X61961Y21300D2*
X61874Y21257D1*
X61788Y21171D1*
X61745Y21085D1*
X61702Y20956D1*
Y20740D1*
X61745Y20611D1*
X61788Y20525D1*
X61874Y20439D1*
X61961Y20396D1*
X62133D1*
X62218Y20439D1*
X62305Y20525D1*
X62348Y20611D1*
X62390Y20740D1*
Y20956D1*
X62348Y21085D1*
X62305Y21171D1*
X62218Y21257D1*
X62133Y21300D1*
X61961D1*
X63228D2*
X62668D1*
Y20396D1*
Y20869D2*
X63012D1*
X64066Y21300D2*
X63506D1*
Y20396D1*
Y20869D2*
X63850D1*
X65219Y20826D2*
X65607D1*
X65735Y20869D1*
X65779Y20913D1*
X65822Y20998D1*
Y21128D1*
X65779Y21213D1*
X65735Y21257D1*
X65607Y21300D1*
X65219D1*
Y20396D1*
X66359Y21300D2*
X66272Y21257D1*
X66186Y21171D1*
X66143Y21085D1*
X66100Y20956D1*
Y20740D1*
X66143Y20611D1*
X66186Y20525D1*
X66272Y20439D1*
X66359Y20396D1*
X66531D1*
X66616Y20439D1*
X66703Y20525D1*
X66746Y20611D1*
X66788Y20740D1*
Y20956D1*
X66746Y21085D1*
X66703Y21171D1*
X66616Y21257D1*
X66531Y21300D1*
X66359D1*
X67066D2*
X67282Y20396D1*
X67497Y21300D1*
X67712Y20396D1*
X67928Y21300D1*
X68765D2*
X68206D1*
Y20396D1*
X68765D1*
X68206Y20869D2*
X68550D1*
X69043D2*
X69430D1*
X69559Y20913D1*
X69603Y20956D1*
X69646Y21041D1*
Y21128D1*
X69603Y21213D1*
X69559Y21257D1*
X69430Y21300D1*
X69043D1*
Y20396D1*
X69344Y20869D2*
X69646Y20396D1*
X25496Y22921D2*
X25411Y23007D1*
X25281Y23050D1*
X25109D1*
X24980Y23007D1*
X24893Y22921D1*
Y22835D1*
X24937Y22748D1*
X24980Y22706D1*
X25065Y22663D1*
X25324Y22576D1*
X25411Y22534D1*
X25453Y22490D1*
X25496Y22404D1*
Y22275D1*
X25411Y22189D1*
X25281Y22146D1*
X25109D1*
X24980Y22189D1*
X24893Y22275D1*
X25774Y23050D2*
Y22404D1*
X25817Y22275D1*
X25903Y22189D1*
X26033Y22146D1*
X26118D1*
X26248Y22189D1*
X26334Y22275D1*
X26377Y22404D1*
Y23050D1*
X26655Y22619D2*
X27042D1*
X27171Y22663D1*
X27215Y22706D1*
X27258Y22791D1*
Y22878D1*
X27215Y22963D1*
X27171Y23007D1*
X27042Y23050D1*
X26655D1*
Y22146D1*
X26956Y22619D2*
X27258Y22146D1*
X28096Y23050D2*
X27536D1*
Y22146D1*
Y22619D2*
X27880D1*
X29063Y22146D2*
X28718Y23050D1*
X28374Y22146D1*
X28503Y22447D2*
X28934D1*
X29987Y22835D2*
X29944Y22921D1*
X29857Y23007D1*
X29772Y23050D1*
X29600D1*
X29513Y23007D1*
X29428Y22921D1*
X29384Y22835D1*
X29341Y22706D1*
Y22490D1*
X29384Y22361D1*
X29428Y22275D1*
X29513Y22189D1*
X29600Y22146D1*
X29772D1*
X29857Y22189D1*
X29944Y22275D1*
X29987Y22361D1*
X30824Y23050D2*
X30265D1*
Y22146D1*
X30824D1*
X30265Y22619D2*
X30609D1*
X31976Y23050D2*
Y22146D1*
X32364D1*
X32494Y22189D1*
X32536Y22232D1*
X32579Y22318D1*
Y22447D1*
X32536Y22534D1*
X32494Y22576D1*
X32364Y22619D1*
X32494Y22663D1*
X32536Y22706D1*
X32579Y22791D1*
Y22878D1*
X32536Y22963D1*
X32494Y23007D1*
X32364Y23050D1*
X31976D1*
Y22619D2*
X32364D1*
X33416Y23050D2*
X32857D1*
Y22146D1*
X33416D1*
X32857Y22619D2*
X33201D1*
X34340Y22835D2*
X34297Y22921D1*
X34210Y23007D1*
X34125Y23050D1*
X33953D1*
X33866Y23007D1*
X33781Y22921D1*
X33737Y22835D1*
X33694Y22706D1*
Y22490D1*
X33737Y22361D1*
X33781Y22275D1*
X33866Y22189D1*
X33953Y22146D1*
X34125D1*
X34210Y22189D1*
X34297Y22275D1*
X34340Y22361D1*
X34876Y23050D2*
X34790Y23007D1*
X34704Y22921D1*
X34660Y22835D1*
X34618Y22706D1*
Y22490D1*
X34660Y22361D1*
X34704Y22275D1*
X34790Y22189D1*
X34876Y22146D1*
X35048D1*
X35134Y22189D1*
X35221Y22275D1*
X35263Y22361D1*
X35306Y22490D1*
Y22706D1*
X35263Y22835D1*
X35221Y22921D1*
X35134Y23007D1*
X35048Y23050D1*
X34876D1*
X36272Y22146D2*
Y23050D1*
X35928Y22146D1*
X35584Y23050D1*
Y22146D1*
X37110Y23050D2*
X36550D1*
Y22146D1*
X37110D1*
X36550Y22619D2*
X36895D1*
X37990Y22921D2*
X37905Y23007D1*
X37775Y23050D1*
X37603D1*
X37474Y23007D1*
X37387Y22921D1*
Y22835D1*
X37431Y22748D1*
X37474Y22706D1*
X37560Y22663D1*
X37818Y22576D1*
X37905Y22534D1*
X37948Y22490D1*
X37990Y22404D1*
Y22275D1*
X37905Y22189D1*
X37775Y22146D1*
X37603D1*
X37474Y22189D1*
X37387Y22275D1*
X39143Y23050D2*
X39487Y22146D1*
X39831Y23050D1*
X40668D2*
X40109D1*
Y22146D1*
X40668D1*
X40109Y22619D2*
X40454D1*
X40946D2*
X41333D1*
X41463Y22663D1*
X41506Y22706D1*
X41549Y22791D1*
Y22878D1*
X41506Y22963D1*
X41463Y23007D1*
X41333Y23050D1*
X40946D1*
Y22146D1*
X41248Y22619D2*
X41549Y22146D1*
X41827Y23050D2*
X42171Y22619D1*
Y22146D1*
X42516Y23050D2*
X42171Y22619D1*
X43668Y23050D2*
Y22146D1*
X44271Y23050D2*
Y22146D1*
X43668Y22619D2*
X44271D1*
X44808Y23050D2*
X44721Y23007D1*
X44636Y22921D1*
X44592Y22835D1*
X44549Y22706D1*
Y22490D1*
X44592Y22361D1*
X44636Y22275D1*
X44721Y22189D1*
X44808Y22146D1*
X44980D1*
X45065Y22189D1*
X45152Y22275D1*
X45195Y22361D1*
X45238Y22490D1*
Y22706D1*
X45195Y22835D1*
X45152Y22921D1*
X45065Y23007D1*
X44980Y23050D1*
X44808D1*
X45817D2*
Y22146D1*
X45515Y23050D2*
X46118D1*
X47960Y22146D2*
X47615Y23050D1*
X47271Y22146D1*
X47400Y22447D2*
X47831D1*
X48841Y23050D2*
Y22146D1*
X48238Y23050D1*
Y22146D1*
X49119Y23050D2*
Y22146D1*
X49421D1*
X49550Y22189D1*
X49637Y22275D1*
X49679Y22361D1*
X49722Y22490D1*
Y22706D1*
X49679Y22835D1*
X49637Y22921D1*
X49550Y23007D1*
X49421Y23050D1*
X49119D1*
X51563Y22146D2*
Y23050D1*
X51219Y22146D1*
X50875Y23050D1*
Y22146D1*
X52531D2*
X52185Y23050D1*
X51841Y22146D1*
X51970Y22447D2*
X52401D1*
X52808Y23050D2*
X53153Y22619D1*
Y22146D1*
X53497Y23050D2*
X53153Y22619D1*
X55295Y22835D2*
X55253Y22921D1*
X55166Y23007D1*
X55080Y23050D1*
X54908D1*
X54822Y23007D1*
X54736Y22921D1*
X54692Y22835D1*
X54650Y22706D1*
Y22490D1*
X54692Y22361D1*
X54736Y22275D1*
X54822Y22189D1*
X54908Y22146D1*
X55080D1*
X55166Y22189D1*
X55253Y22275D1*
X55295Y22361D1*
X56263Y22146D2*
X55917Y23050D1*
X55573Y22146D1*
X55703Y22447D2*
X56133D1*
X56541Y23050D2*
Y22404D1*
X56583Y22275D1*
X56670Y22189D1*
X56799Y22146D1*
X56885D1*
X57014Y22189D1*
X57101Y22275D1*
X57143Y22404D1*
Y23050D1*
X58024Y22921D2*
X57939Y23007D1*
X57809Y23050D1*
X57637D1*
X57508Y23007D1*
X57421Y22921D1*
Y22835D1*
X57465Y22748D1*
X57508Y22706D1*
X57593Y22663D1*
X57852Y22576D1*
X57939Y22534D1*
X57981Y22490D1*
X58024Y22404D1*
Y22275D1*
X57939Y22189D1*
X57809Y22146D1*
X57637D1*
X57508Y22189D1*
X57421Y22275D1*
X58861Y23050D2*
X58302D1*
Y22146D1*
X58861D1*
X58302Y22619D2*
X58646D1*
X60617Y22921D2*
X60531Y23007D1*
X60402Y23050D1*
X60230D1*
X60100Y23007D1*
X60014Y22921D1*
Y22835D1*
X60058Y22748D1*
X60100Y22706D1*
X60186Y22663D1*
X60445Y22576D1*
X60531Y22534D1*
X60574Y22490D1*
X60617Y22404D1*
Y22275D1*
X60531Y22189D1*
X60402Y22146D1*
X60230D1*
X60100Y22189D1*
X60014Y22275D1*
X61454Y23050D2*
X60895D1*
Y22146D1*
X61454D1*
X60895Y22619D2*
X61239D1*
X61732Y23050D2*
X62076Y22146D1*
X62420Y23050D1*
X63257D2*
X62698D1*
Y22146D1*
X63257D1*
X62698Y22619D2*
X63042D1*
X63535D2*
X63922D1*
X64051Y22663D1*
X64095Y22706D1*
X64138Y22791D1*
Y22878D1*
X64095Y22963D1*
X64051Y23007D1*
X63922Y23050D1*
X63535D1*
Y22146D1*
X63837Y22619D2*
X64138Y22146D1*
X64975Y23050D2*
X64416D1*
Y22146D1*
X64975D1*
X64416Y22619D2*
X64760D1*
X66128Y23050D2*
Y22146D1*
X66516D1*
X66645Y22189D1*
X66688Y22232D1*
X66731Y22318D1*
Y22447D1*
X66688Y22534D1*
X66645Y22576D1*
X66516Y22619D1*
X66645Y22663D1*
X66688Y22706D1*
X66731Y22791D1*
Y22878D1*
X66688Y22963D1*
X66645Y23007D1*
X66516Y23050D1*
X66128D1*
Y22619D2*
X66516D1*
X67008Y23050D2*
Y22404D1*
X67051Y22275D1*
X67138Y22189D1*
X67267Y22146D1*
X67353D1*
X67482Y22189D1*
X67569Y22275D1*
X67611Y22404D1*
Y23050D1*
X67889Y22619D2*
X68276D1*
X68406Y22663D1*
X68449Y22706D1*
X68492Y22791D1*
Y22878D1*
X68449Y22963D1*
X68406Y23007D1*
X68276Y23050D1*
X67889D1*
Y22146D1*
X68191Y22619D2*
X68492Y22146D1*
X69373Y23050D2*
Y22146D1*
X68770Y23050D1*
Y22146D1*
X70254Y22921D2*
X70168Y23007D1*
X70039Y23050D1*
X69867D1*
X69737Y23007D1*
X69651Y22921D1*
Y22835D1*
X69695Y22748D1*
X69737Y22706D1*
X69823Y22663D1*
X70082Y22576D1*
X70168Y22534D1*
X70211Y22490D1*
X70254Y22404D1*
Y22275D1*
X70168Y22189D1*
X70039Y22146D1*
X69867D1*
X69737Y22189D1*
X69651Y22275D1*
X24893Y19550D2*
Y18904D1*
X24936Y18775D1*
X25023Y18689D1*
X25152Y18646D1*
X25237D1*
X25367Y18689D1*
X25453Y18775D1*
X25496Y18904D1*
Y19550D1*
X26377Y19421D2*
X26291Y19507D1*
X26162Y19550D1*
X25990D1*
X25861Y19507D1*
X25774Y19421D1*
Y19335D1*
X25818Y19248D1*
X25861Y19206D1*
X25946Y19163D1*
X26205Y19076D1*
X26291Y19034D1*
X26334Y18990D1*
X26377Y18904D1*
Y18775D1*
X26291Y18689D1*
X26162Y18646D1*
X25990D1*
X25861Y18689D1*
X25774Y18775D1*
X27214Y19550D2*
X26655D1*
Y18646D1*
X27214D1*
X26655Y19119D2*
X26999D1*
X28668Y19550D2*
Y18646D1*
X28367Y19550D2*
X28970D1*
X29247D2*
Y18646D1*
X29850Y19550D2*
Y18646D1*
X29247Y19119D2*
X29850D1*
X30128Y19550D2*
Y18646D1*
X31009Y19421D2*
X30923Y19507D1*
X30794Y19550D1*
X30622D1*
X30493Y19507D1*
X30406Y19421D1*
Y19335D1*
X30450Y19248D1*
X30493Y19206D1*
X30578Y19163D1*
X30837Y19076D1*
X30923Y19034D1*
X30966Y18990D1*
X31009Y18904D1*
Y18775D1*
X30923Y18689D1*
X30794Y18646D1*
X30622D1*
X30493Y18689D1*
X30406Y18775D1*
X32162Y19076D2*
X32550D1*
X32678Y19119D1*
X32722Y19163D1*
X32765Y19248D1*
Y19378D1*
X32722Y19463D1*
X32678Y19507D1*
X32550Y19550D1*
X32162D1*
Y18646D1*
X33043Y19119D2*
X33430D1*
X33559Y19163D1*
X33603Y19206D1*
X33645Y19291D1*
Y19378D1*
X33603Y19463D1*
X33559Y19507D1*
X33430Y19550D1*
X33043D1*
Y18646D1*
X33344Y19119D2*
X33645Y18646D1*
X34182Y19550D2*
X34095Y19507D1*
X34010Y19421D1*
X33966Y19335D1*
X33923Y19206D1*
Y18990D1*
X33966Y18861D1*
X34010Y18775D1*
X34095Y18689D1*
X34182Y18646D1*
X34354D1*
X34440Y18689D1*
X34526Y18775D1*
X34569Y18861D1*
X34612Y18990D1*
Y19206D1*
X34569Y19335D1*
X34526Y19421D1*
X34440Y19507D1*
X34354Y19550D1*
X34182D1*
X34890D2*
Y18646D1*
X35191D1*
X35320Y18689D1*
X35407Y18775D1*
X35450Y18861D1*
X35493Y18990D1*
Y19206D1*
X35450Y19335D1*
X35407Y19421D1*
X35320Y19507D1*
X35191Y19550D1*
X34890D1*
X35770D2*
Y18904D1*
X35813Y18775D1*
X35900Y18689D1*
X36029Y18646D1*
X36115D1*
X36244Y18689D1*
X36331Y18775D1*
X36373Y18904D1*
Y19550D1*
X37297Y19335D2*
X37254Y19421D1*
X37168Y19507D1*
X37082Y19550D1*
X36910D1*
X36823Y19507D1*
X36738Y19421D1*
X36694Y19335D1*
X36651Y19206D1*
Y18990D1*
X36694Y18861D1*
X36738Y18775D1*
X36823Y18689D1*
X36910Y18646D1*
X37082D1*
X37168Y18689D1*
X37254Y18775D1*
X37297Y18861D1*
X37876Y19550D2*
Y18646D1*
X37575Y19550D2*
X38178D1*
X40020Y18646D2*
X39675Y19550D1*
X39330Y18646D1*
X39460Y18947D2*
X39890D1*
X40599Y19550D2*
Y18646D1*
X40298Y19550D2*
X40901D1*
X42053D2*
X42398Y19119D1*
Y18646D1*
X42742Y19550D2*
X42398Y19119D1*
X43278Y19550D2*
X43192Y19507D1*
X43106Y19421D1*
X43062Y19335D1*
X43020Y19206D1*
Y18990D1*
X43062Y18861D1*
X43106Y18775D1*
X43192Y18689D1*
X43278Y18646D1*
X43450D1*
X43536Y18689D1*
X43623Y18775D1*
X43665Y18861D1*
X43708Y18990D1*
Y19206D1*
X43665Y19335D1*
X43623Y19421D1*
X43536Y19507D1*
X43450Y19550D1*
X43278D1*
X43986D2*
Y18904D1*
X44029Y18775D1*
X44115Y18689D1*
X44245Y18646D1*
X44330D1*
X44460Y18689D1*
X44546Y18775D1*
X44589Y18904D1*
Y19550D1*
X44867Y19119D2*
X45254D1*
X45383Y19163D1*
X45427Y19206D1*
X45470Y19291D1*
Y19378D1*
X45427Y19463D1*
X45383Y19507D1*
X45254Y19550D1*
X44867D1*
Y18646D1*
X45168Y19119D2*
X45470Y18646D1*
X46881Y19550D2*
X46795Y19507D1*
X46709Y19421D1*
X46665Y19335D1*
X46622Y19206D1*
Y18990D1*
X46665Y18861D1*
X46709Y18775D1*
X46795Y18689D1*
X46881Y18646D1*
X47053D1*
X47139Y18689D1*
X47225Y18775D1*
X47268Y18861D1*
X47311Y18990D1*
Y19206D1*
X47268Y19335D1*
X47225Y19421D1*
X47139Y19507D1*
X47053Y19550D1*
X46881D1*
X47589D2*
X47805Y18646D1*
X48020Y19550D1*
X48234Y18646D1*
X48450Y19550D1*
X49331D2*
Y18646D1*
X48728Y19550D1*
Y18646D1*
X50484Y19119D2*
X50871D1*
X51000Y19163D1*
X51044Y19206D1*
X51087Y19291D1*
Y19378D1*
X51044Y19463D1*
X51000Y19507D1*
X50871Y19550D1*
X50484D1*
Y18646D1*
X50785Y19119D2*
X51087Y18646D1*
X51365Y19550D2*
Y18646D1*
X52245Y19421D2*
X52160Y19507D1*
X52030Y19550D1*
X51858D1*
X51729Y19507D1*
X51642Y19421D1*
Y19335D1*
X51686Y19248D1*
X51729Y19206D1*
X51815Y19163D1*
X52073Y19076D1*
X52160Y19034D1*
X52203Y18990D1*
X52245Y18904D1*
Y18775D1*
X52160Y18689D1*
X52030Y18646D1*
X51858D1*
X51729Y18689D1*
X51642Y18775D1*
X52523Y19550D2*
Y18646D1*
X53126Y19550D2*
X52523Y18947D1*
X52738Y19163D2*
X53126Y18646D1*
X24893Y17369D2*
X25280D1*
X25410Y17413D1*
X25453Y17456D1*
X25496Y17541D1*
Y17628D1*
X25453Y17713D1*
X25410Y17757D1*
X25280Y17800D1*
X24893D1*
Y16896D1*
X25195Y17369D2*
X25496Y16896D1*
X25774Y17800D2*
Y16896D1*
X26655Y17671D2*
X26569Y17757D1*
X26440Y17800D1*
X26268D1*
X26138Y17757D1*
X26052Y17671D1*
Y17585D1*
X26096Y17498D1*
X26138Y17456D1*
X26224Y17413D1*
X26483Y17326D1*
X26569Y17284D1*
X26612Y17240D1*
X26655Y17154D1*
Y17025D1*
X26569Y16939D1*
X26440Y16896D1*
X26268D1*
X26138Y16939D1*
X26052Y17025D1*
X26933Y17800D2*
Y16896D1*
X27536Y17800D2*
X26933Y17197D1*
X27148Y17413D2*
X27536Y16896D1*
X28947Y17800D2*
X28860Y17757D1*
X28775Y17671D1*
X28731Y17585D1*
X28688Y17456D1*
Y17240D1*
X28731Y17111D1*
X28775Y17025D1*
X28860Y16939D1*
X28947Y16896D1*
X29119D1*
X29205Y16939D1*
X29291Y17025D1*
X29334Y17111D1*
X29377Y17240D1*
Y17456D1*
X29334Y17585D1*
X29291Y17671D1*
X29205Y17757D1*
X29119Y17800D1*
X28947D1*
X30215D2*
X29655D1*
Y16896D1*
Y17369D2*
X29999D1*
X31928Y17800D2*
X31367D1*
Y16896D1*
Y17369D2*
X31712D1*
X32206Y17800D2*
Y16896D1*
X32483Y17369D2*
X32870D1*
X33000Y17413D1*
X33044Y17456D1*
X33086Y17541D1*
Y17628D1*
X33044Y17713D1*
X33000Y17757D1*
X32870Y17800D1*
X32483D1*
Y16896D1*
X32785Y17369D2*
X33086Y16896D1*
X33923Y17800D2*
X33364D1*
Y16896D1*
X33923D1*
X33364Y17369D2*
X33708D1*
X34244Y16982D2*
X34201Y16938D1*
X34244Y16896D1*
X34288Y16938D1*
X34244Y16982D1*
X35440Y17800D2*
Y16896D1*
X35742D1*
X35871Y16939D1*
X35958Y17025D1*
X36001Y17111D1*
X36043Y17240D1*
Y17456D1*
X36001Y17585D1*
X35958Y17671D1*
X35871Y17757D1*
X35742Y17800D1*
X35440D1*
X36580D2*
X36493Y17757D1*
X36408Y17671D1*
X36364Y17585D1*
X36321Y17456D1*
Y17240D1*
X36364Y17111D1*
X36408Y17025D1*
X36493Y16939D1*
X36580Y16896D1*
X36752D1*
X36838Y16939D1*
X36924Y17025D1*
X36967Y17111D1*
X37010Y17240D1*
Y17456D1*
X36967Y17585D1*
X36924Y17671D1*
X36838Y17757D1*
X36752Y17800D1*
X36580D1*
X38765D2*
Y16896D1*
X38162Y17800D1*
Y16896D1*
X39302Y17800D2*
X39215Y17757D1*
X39130Y17671D1*
X39086Y17585D1*
X39043Y17456D1*
Y17240D1*
X39086Y17111D1*
X39130Y17025D1*
X39215Y16939D1*
X39302Y16896D1*
X39474D1*
X39560Y16939D1*
X39646Y17025D1*
X39689Y17111D1*
X39732Y17240D1*
Y17456D1*
X39689Y17585D1*
X39646Y17671D1*
X39560Y17757D1*
X39474Y17800D1*
X39302D1*
X40311D2*
Y16896D1*
X40010Y17800D2*
X40612D1*
X41765D2*
Y16896D1*
X42281D1*
X43119Y17800D2*
X42559D1*
Y16896D1*
X43119D1*
X42559Y17369D2*
X42904D1*
X44086Y16896D2*
X43741Y17800D1*
X43396Y16896D1*
X43526Y17197D2*
X43957D1*
X44364Y17800D2*
X44708Y16896D1*
X45052Y17800D1*
X45889D2*
X45330D1*
Y16896D1*
X45889D1*
X45330Y17369D2*
X45674D1*
X47042Y17800D2*
Y17154D1*
X47085Y17025D1*
X47171Y16939D1*
X47301Y16896D1*
X47386D1*
X47515Y16939D1*
X47602Y17025D1*
X47645Y17154D1*
Y17800D1*
X48526D2*
Y16896D1*
X47923Y17800D1*
Y16896D1*
X49493D2*
X49148Y17800D1*
X48804Y16896D1*
X48933Y17197D2*
X49364D1*
X50072Y17800D2*
Y16896D1*
X49771Y17800D2*
X50374D1*
X50953D2*
Y16896D1*
X50652Y17800D2*
X51255D1*
X52092D2*
X51532D1*
Y16896D1*
X52092D1*
X51532Y17369D2*
X51877D1*
X52972Y17800D2*
Y16896D1*
X52369Y17800D1*
Y16896D1*
X53250Y17800D2*
Y16896D1*
X53552D1*
X53681Y16939D1*
X53768Y17025D1*
X53810Y17111D1*
X53853Y17240D1*
Y17456D1*
X53810Y17585D1*
X53768Y17671D1*
X53681Y17757D1*
X53552Y17800D1*
X53250D1*
X54690D2*
X54131D1*
Y16896D1*
X54690D1*
X54131Y17369D2*
X54475D1*
X54968Y17800D2*
Y16896D1*
X55269D1*
X55399Y16939D1*
X55485Y17025D1*
X55528Y17111D1*
X55571Y17240D1*
Y17456D1*
X55528Y17585D1*
X55485Y17671D1*
X55399Y17757D1*
X55269Y17800D1*
X54968D1*
X24686Y33699D2*
D35*
X25070Y32091D1*
X25452Y33699D1*
X25834Y32091D1*
X26218Y33699D1*
X28143Y32091D2*
X27530Y33699D1*
X26918Y32091D1*
X27148Y32627D2*
X27914D1*
X28843Y32933D2*
X29531D1*
X29761Y33011D1*
X29839Y33087D1*
X29915Y33239D1*
Y33393D1*
X29839Y33545D1*
X29761Y33622D1*
X29531Y33699D1*
X28843D1*
Y32091D1*
X29379Y32933D2*
X29915Y32091D1*
X31687Y33699D2*
Y32091D1*
X30615Y33699D1*
Y32091D1*
X32387Y33699D2*
Y32091D1*
X34158Y33699D2*
Y32091D1*
X33087Y33699D1*
Y32091D1*
X36006Y33316D2*
X35930Y33469D1*
X35776Y33622D1*
X35624Y33699D1*
X35318D1*
X35164Y33622D1*
X35012Y33469D1*
X34934Y33316D1*
X34858Y33087D1*
Y32703D1*
X34934Y32475D1*
X35012Y32321D1*
X35164Y32169D1*
X35318Y32091D1*
X35624D1*
X35776Y32169D1*
X35930Y32321D1*
X36006Y32475D1*
Y32703D1*
X35624D1*
X36784Y33163D2*
X36706Y33085D1*
X36784Y33009D1*
X36860Y33085D1*
X36784Y33163D1*
Y32245D2*
X36706Y32167D1*
X36784Y32091D1*
X36860Y32167D1*
X36784Y32245D1*
X53729Y8303D2*
D37*
Y7499D1*
X54265Y8303D2*
Y7499D1*
X53729Y7920D2*
X54265D1*
X55009Y8303D2*
X54512D1*
Y7499D1*
X55009D1*
X54512Y7920D2*
X54818D1*
X55869Y7499D2*
X55562Y8303D1*
X55256Y7499D1*
X55371Y7767D2*
X55754D1*
X56384Y8303D2*
Y7499D1*
X56116Y8303D2*
X56652D1*
X57906D2*
X57829Y8265D1*
X57753Y8188D1*
X57714Y8112D1*
X57676Y7997D1*
Y7805D1*
X57714Y7691D1*
X57753Y7614D1*
X57829Y7538D1*
X57906Y7499D1*
X58059D1*
X58135Y7538D1*
X58212Y7614D1*
X58250Y7691D1*
X58288Y7805D1*
Y7997D1*
X58250Y8112D1*
X58212Y8188D1*
X58135Y8265D1*
X58059Y8303D1*
X57906D1*
X59071D2*
Y7499D1*
X58535Y8303D1*
Y7499D1*
X25583Y29521D2*
D34*
X25237Y30425D1*
X24893Y29521D1*
X25023Y29822D2*
X25453D1*
X25861Y30425D2*
Y29779D1*
X25903Y29650D1*
X25990Y29564D1*
X26119Y29521D1*
X26205D1*
X26334Y29564D1*
X26421Y29650D1*
X26463Y29779D1*
Y30425D1*
X27043D2*
Y29521D1*
X26741Y30425D2*
X27344D1*
X27881D2*
X27794Y30382D1*
X27709Y30296D1*
X27665Y30210D1*
X27622Y30081D1*
Y29865D1*
X27665Y29736D1*
X27709Y29650D1*
X27794Y29564D1*
X27881Y29521D1*
X28053D1*
X28138Y29564D1*
X28225Y29650D1*
X28268Y29736D1*
X28311Y29865D1*
Y30081D1*
X28268Y30210D1*
X28225Y30296D1*
X28138Y30382D1*
X28053Y30425D1*
X27881D1*
X29277Y29521D2*
Y30425D1*
X28933Y29521D1*
X28588Y30425D1*
Y29521D1*
X30244D2*
X29899Y30425D1*
X29555Y29521D1*
X29684Y29822D2*
X30115D1*
X30824Y30425D2*
Y29521D1*
X30522Y30425D2*
X31125D1*
X31403D2*
Y29521D1*
X32327Y30210D2*
X32284Y30296D1*
X32197Y30382D1*
X32112Y30425D1*
X31940D1*
X31853Y30382D1*
X31767Y30296D1*
X31724Y30210D1*
X31681Y30081D1*
Y29865D1*
X31724Y29736D1*
X31767Y29650D1*
X31853Y29564D1*
X31940Y29521D1*
X32112D1*
X32197Y29564D1*
X32284Y29650D1*
X32327Y29736D1*
X34168Y29521D2*
Y30425D1*
X33823Y29521D1*
X33479Y30425D1*
Y29521D1*
X35135D2*
X34790Y30425D1*
X34446Y29521D1*
X34575Y29822D2*
X35006D1*
X36059Y30210D2*
X36016Y30296D1*
X35929Y30382D1*
X35844Y30425D1*
X35672D1*
X35585Y30382D1*
X35499Y30296D1*
X35456Y30210D1*
X35413Y30081D1*
Y29865D1*
X35456Y29736D1*
X35499Y29650D1*
X35585Y29564D1*
X35672Y29521D1*
X35844D1*
X35929Y29564D1*
X36016Y29650D1*
X36059Y29736D1*
X36337Y30425D2*
Y29521D1*
X36939Y30425D2*
Y29521D1*
X36337Y29994D2*
X36939D1*
X37217Y30425D2*
Y29521D1*
X38098Y30425D2*
Y29521D1*
X37495Y30425D1*
Y29521D1*
X38935Y30425D2*
X38376D1*
Y29521D1*
X38935D1*
X38376Y29994D2*
X38720D1*
X40733Y30210D2*
X40691Y30296D1*
X40604Y30382D1*
X40519Y30425D1*
X40346D1*
X40260Y30382D1*
X40174Y30296D1*
X40131Y30210D1*
X40088Y30081D1*
Y29865D1*
X40131Y29736D1*
X40174Y29650D1*
X40260Y29564D1*
X40346Y29521D1*
X40519D1*
X40604Y29564D1*
X40691Y29650D1*
X40733Y29736D1*
X41701Y29521D2*
X41356Y30425D1*
X41011Y29521D1*
X41141Y29822D2*
X41571D1*
X42582Y30425D2*
Y29521D1*
X41979Y30425D1*
Y29521D1*
X44337Y30296D2*
X44252Y30382D1*
X44122Y30425D1*
X43950D1*
X43821Y30382D1*
X43734Y30296D1*
Y30210D1*
X43778Y30123D1*
X43821Y30081D1*
X43906Y30038D1*
X44165Y29951D1*
X44252Y29909D1*
X44294Y29865D1*
X44337Y29779D1*
Y29650D1*
X44252Y29564D1*
X44122Y29521D1*
X43950D1*
X43821Y29564D1*
X43734Y29650D1*
X44917Y30425D2*
Y29521D1*
X44615Y30425D2*
X45218D1*
X46185Y29521D2*
X45840Y30425D1*
X45496Y29521D1*
X45625Y29822D2*
X46056D1*
X46463Y29994D2*
X46850D1*
X46980Y30038D1*
X47023Y30081D1*
X47066Y30166D1*
Y30253D1*
X47023Y30338D1*
X46980Y30382D1*
X46850Y30425D1*
X46463D1*
Y29521D1*
X46765Y29994D2*
X47066Y29521D1*
X47645Y30425D2*
Y29521D1*
X47344Y30425D2*
X47947D1*
X49100D2*
Y29779D1*
X49142Y29650D1*
X49229Y29564D1*
X49358Y29521D1*
X49444D1*
X49573Y29564D1*
X49660Y29650D1*
X49703Y29779D1*
Y30425D1*
X50583D2*
Y29521D1*
X49980Y30425D1*
Y29521D1*
X51420Y30425D2*
X50861D1*
Y29521D1*
X51420D1*
X50861Y29994D2*
X51205D1*
X51698Y30425D2*
X52301Y29521D1*
Y30425D2*
X51698Y29521D1*
X52579Y29951D2*
X52967D1*
X53095Y29994D1*
X53139Y30038D1*
X53182Y30123D1*
Y30253D1*
X53139Y30338D1*
X53095Y30382D1*
X52967Y30425D1*
X52579D1*
Y29521D1*
X54019Y30425D2*
X53460D1*
Y29521D1*
X54019D1*
X53460Y29994D2*
X53804D1*
X54942Y30210D2*
X54900Y30296D1*
X54813Y30382D1*
X54728Y30425D1*
X54555D1*
X54469Y30382D1*
X54383Y30296D1*
X54340Y30210D1*
X54297Y30081D1*
Y29865D1*
X54340Y29736D1*
X54383Y29650D1*
X54469Y29564D1*
X54555Y29521D1*
X54728D1*
X54813Y29564D1*
X54900Y29650D1*
X54942Y29736D1*
X55522Y30425D2*
Y29521D1*
X55220Y30425D2*
X55823D1*
X56660D2*
X56101D1*
Y29521D1*
X56660D1*
X56101Y29994D2*
X56445D1*
X56938Y30425D2*
Y29521D1*
X57240D1*
X57369Y29564D1*
X57455Y29650D1*
X57498Y29736D1*
X57541Y29865D1*
Y30081D1*
X57498Y30210D1*
X57455Y30296D1*
X57369Y30382D1*
X57240Y30425D1*
X56938D1*
X57819D2*
Y29521D1*
X58335D1*
X58613Y30425D2*
X58957Y29994D1*
Y29521D1*
X59302Y30425D2*
X58957Y29994D1*
X59622Y29607D2*
X59580Y29563D1*
X59622Y29521D1*
X59666Y29563D1*
X59622Y29607D1*
X24893Y28076D2*
X25281D1*
X25410Y28119D1*
X25453Y28163D1*
X25496Y28248D1*
Y28378D1*
X25453Y28463D1*
X25410Y28507D1*
X25281Y28550D1*
X24893D1*
Y27646D1*
X26463D2*
X26118Y28550D1*
X25774Y27646D1*
X25903Y27947D2*
X26334D1*
X26741Y28550D2*
X27086Y28119D1*
Y27646D1*
X27430Y28550D2*
X27086Y28119D1*
X29272Y27646D2*
X28927Y28550D1*
X28583Y27646D1*
X28712Y27947D2*
X29143D1*
X29851Y28550D2*
Y27646D1*
X29550Y28550D2*
X30153D1*
X30732D2*
Y27646D1*
X30431Y28550D2*
X31034D1*
X31871D2*
X31311D1*
Y27646D1*
X31871D1*
X31311Y28119D2*
X31656D1*
X32751Y28550D2*
Y27646D1*
X32148Y28550D1*
Y27646D1*
X33331Y28550D2*
Y27646D1*
X33029Y28550D2*
X33632D1*
X33910D2*
Y27646D1*
X34447Y28550D2*
X34360Y28507D1*
X34274Y28421D1*
X34231Y28335D1*
X34188Y28206D1*
Y27990D1*
X34231Y27861D1*
X34274Y27775D1*
X34360Y27689D1*
X34447Y27646D1*
X34619D1*
X34704Y27689D1*
X34791Y27775D1*
X34834Y27861D1*
X34876Y27990D1*
Y28206D1*
X34834Y28335D1*
X34791Y28421D1*
X34704Y28507D1*
X34619Y28550D1*
X34447D1*
X35757D2*
Y27646D1*
X35154Y28550D1*
Y27646D1*
X36078Y27732D2*
X36035Y27688D1*
X36078Y27646D1*
X36122Y27688D1*
X36078Y27732D1*
X37274Y28550D2*
Y27646D1*
X37877Y28550D2*
X37274Y27947D1*
X37489Y28163D2*
X37877Y27646D1*
X38714Y28550D2*
X38155D1*
Y27646D1*
X38714D1*
X38155Y28119D2*
X38499D1*
X39551Y28550D2*
X38992D1*
Y27646D1*
X39551D1*
X38992Y28119D2*
X39336D1*
X39829Y28076D2*
X40217D1*
X40345Y28119D1*
X40389Y28163D1*
X40432Y28248D1*
Y28378D1*
X40389Y28463D1*
X40345Y28507D1*
X40217Y28550D1*
X39829D1*
Y27646D1*
X42230Y28335D2*
X42188Y28421D1*
X42101Y28507D1*
X42016Y28550D1*
X41843D1*
X41757Y28507D1*
X41671Y28421D1*
X41628Y28335D1*
X41585Y28206D1*
Y27990D1*
X41628Y27861D1*
X41671Y27775D1*
X41757Y27689D1*
X41843Y27646D1*
X42016D1*
X42101Y27689D1*
X42188Y27775D1*
X42230Y27861D1*
X42508Y28550D2*
Y27646D1*
X43025D1*
X43862Y28550D2*
X43303D1*
Y27646D1*
X43862D1*
X43303Y28119D2*
X43647D1*
X44829Y27646D2*
X44484Y28550D1*
X44140Y27646D1*
X44269Y27947D2*
X44700D1*
X45107Y28119D2*
X45494D1*
X45623Y28163D1*
X45667Y28206D1*
X45710Y28291D1*
Y28378D1*
X45667Y28463D1*
X45623Y28507D1*
X45494Y28550D1*
X45107D1*
Y27646D1*
X45408Y28119D2*
X45710Y27646D1*
X46863Y28550D2*
X47078Y27646D1*
X47293Y28550D1*
X47508Y27646D1*
X47724Y28550D1*
X48002D2*
Y27646D1*
X48605Y28550D2*
Y27646D1*
X48002Y28119D2*
X48605D1*
X49442Y28550D2*
X48883D1*
Y27646D1*
X49442D1*
X48883Y28119D2*
X49227D1*
X50323Y28550D2*
Y27646D1*
X49720Y28550D1*
Y27646D1*
X52164D2*
Y28550D1*
X51820Y27646D1*
X51475Y28550D1*
Y27646D1*
X53131D2*
X52786Y28550D1*
X52442Y27646D1*
X52571Y27947D2*
X53002D1*
X54055Y28335D2*
X54012Y28421D1*
X53925Y28507D1*
X53840Y28550D1*
X53668D1*
X53581Y28507D1*
X53496Y28421D1*
X53452Y28335D1*
X53409Y28206D1*
Y27990D1*
X53452Y27861D1*
X53496Y27775D1*
X53581Y27689D1*
X53668Y27646D1*
X53840D1*
X53925Y27689D1*
X54012Y27775D1*
X54055Y27861D1*
X54333Y28550D2*
Y27646D1*
X54935Y28550D2*
Y27646D1*
X54333Y28119D2*
X54935D1*
X55213Y28550D2*
Y27646D1*
X56094Y28550D2*
Y27646D1*
X55491Y28550D1*
Y27646D1*
X56931Y28550D2*
X56372D1*
Y27646D1*
X56931D1*
X56372Y28119D2*
X56716D1*
X58084Y28550D2*
Y27646D1*
X58965Y28421D2*
X58879Y28507D1*
X58750Y28550D1*
X58578D1*
X58448Y28507D1*
X58362Y28421D1*
Y28335D1*
X58406Y28248D1*
X58448Y28206D1*
X58534Y28163D1*
X58793Y28076D1*
X58879Y28034D1*
X58922Y27990D1*
X58965Y27904D1*
Y27775D1*
X58879Y27689D1*
X58750Y27646D1*
X58578D1*
X58448Y27689D1*
X58362Y27775D1*
X60117Y28076D2*
X60505D1*
X60634Y28119D1*
X60678Y28163D1*
X60720Y28248D1*
Y28378D1*
X60678Y28463D1*
X60634Y28507D1*
X60505Y28550D1*
X60117D1*
Y27646D1*
X61257Y28550D2*
X61170Y28507D1*
X61085Y28421D1*
X61041Y28335D1*
X60998Y28206D1*
Y27990D1*
X61041Y27861D1*
X61085Y27775D1*
X61170Y27689D1*
X61257Y27646D1*
X61429D1*
X61515Y27689D1*
X61601Y27775D1*
X61644Y27861D1*
X61687Y27990D1*
Y28206D1*
X61644Y28335D1*
X61601Y28421D1*
X61515Y28507D1*
X61429Y28550D1*
X61257D1*
X61965D2*
X62180Y27646D1*
X62395Y28550D1*
X62610Y27646D1*
X62826Y28550D1*
X63663D2*
X63104D1*
Y27646D1*
X63663D1*
X63104Y28119D2*
X63448D1*
X63941D2*
X64328D1*
X64457Y28163D1*
X64501Y28206D1*
X64544Y28291D1*
Y28378D1*
X64501Y28463D1*
X64457Y28507D1*
X64328Y28550D1*
X63941D1*
Y27646D1*
X64242Y28119D2*
X64544Y27646D1*
X65381Y28550D2*
X64822D1*
Y27646D1*
X65381D1*
X64822Y28119D2*
X65166D1*
X65659Y28550D2*
Y27646D1*
X65960D1*
X66090Y27689D1*
X66176Y27775D1*
X66219Y27861D1*
X66262Y27990D1*
Y28206D1*
X66219Y28335D1*
X66176Y28421D1*
X66090Y28507D1*
X65960Y28550D1*
X65659D1*
X66582Y27732D2*
X66540Y27688D1*
X66582Y27646D1*
X66626Y27688D1*
X66582Y27732D1*
X24768Y26675D2*
Y25771D1*
X25371Y26675D2*
X24768Y26072D1*
X24983Y26288D2*
X25371Y25771D1*
X26208Y26675D2*
X25649D1*
Y25771D1*
X26208D1*
X25649Y26244D2*
X25993D1*
X27045Y26675D2*
X26486D1*
Y25771D1*
X27045D1*
X26486Y26244D2*
X26830D1*
X27323Y26201D2*
X27711D1*
X27839Y26244D1*
X27883Y26288D1*
X27926Y26373D1*
Y26503D1*
X27883Y26588D1*
X27839Y26632D1*
X27711Y26675D1*
X27323D1*
Y25771D1*
X29079Y26675D2*
Y25771D1*
X29467D1*
X29596Y25814D1*
X29639Y25857D1*
X29682Y25943D1*
Y26072D1*
X29639Y26159D1*
X29596Y26201D1*
X29467Y26244D1*
X29596Y26288D1*
X29639Y26331D1*
X29682Y26416D1*
Y26503D1*
X29639Y26588D1*
X29596Y26632D1*
X29467Y26675D1*
X29079D1*
Y26244D2*
X29467D1*
X30218Y26675D2*
X30132Y26632D1*
X30046Y26546D1*
X30002Y26460D1*
X29959Y26331D1*
Y26115D1*
X30002Y25986D1*
X30046Y25900D1*
X30132Y25814D1*
X30218Y25771D1*
X30390D1*
X30476Y25814D1*
X30562Y25900D1*
X30605Y25986D1*
X30648Y26115D1*
Y26331D1*
X30605Y26460D1*
X30562Y26546D1*
X30476Y26632D1*
X30390Y26675D1*
X30218D1*
X30926D2*
Y25771D1*
X31227D1*
X31357Y25814D1*
X31443Y25900D1*
X31486Y25986D1*
X31529Y26115D1*
Y26331D1*
X31486Y26460D1*
X31443Y26546D1*
X31357Y26632D1*
X31227Y26675D1*
X30926D1*
X31807D2*
X32151Y26244D1*
Y25771D1*
X32495Y26675D2*
X32151Y26244D1*
X33648Y26201D2*
X34036D1*
X34164Y26244D1*
X34208Y26288D1*
X34251Y26373D1*
Y26503D1*
X34208Y26588D1*
X34164Y26632D1*
X34036Y26675D1*
X33648D1*
Y25771D1*
X35218D2*
X34873Y26675D1*
X34529Y25771D1*
X34658Y26072D2*
X35089D1*
X35496Y26244D2*
X35883D1*
X36012Y26288D1*
X36056Y26331D1*
X36099Y26416D1*
Y26503D1*
X36056Y26588D1*
X36012Y26632D1*
X35883Y26675D1*
X35496D1*
Y25771D1*
X35797Y26244D2*
X36099Y25771D1*
X36678Y26675D2*
Y25771D1*
X36377Y26675D2*
X36980D1*
X37860Y26546D2*
X37775Y26632D1*
X37645Y26675D1*
X37473D1*
X37344Y26632D1*
X37257Y26546D1*
Y26460D1*
X37301Y26373D1*
X37344Y26331D1*
X37430Y26288D1*
X37688Y26201D1*
X37775Y26159D1*
X37818Y26115D1*
X37860Y26029D1*
Y25900D1*
X37775Y25814D1*
X37645Y25771D1*
X37473D1*
X37344Y25814D1*
X37257Y25900D1*
X39702Y25771D2*
X39357Y26675D1*
X39013Y25771D1*
X39142Y26072D2*
X39573D1*
X40583Y26675D2*
Y25771D1*
X39980Y26675D1*
Y25771D1*
X40861Y26675D2*
Y25771D1*
X41163D1*
X41292Y25814D1*
X41378Y25900D1*
X41421Y25986D1*
X41464Y26115D1*
Y26331D1*
X41421Y26460D1*
X41378Y26546D1*
X41292Y26632D1*
X41163Y26675D1*
X40861D1*
X42617D2*
Y25771D1*
X43133D1*
X43670Y26675D2*
X43583Y26632D1*
X43498Y26546D1*
X43454Y26460D1*
X43411Y26331D1*
Y26115D1*
X43454Y25986D1*
X43498Y25900D1*
X43583Y25814D1*
X43670Y25771D1*
X43842D1*
X43927Y25814D1*
X44014Y25900D1*
X44057Y25986D1*
X44099Y26115D1*
Y26331D1*
X44057Y26460D1*
X44014Y26546D1*
X43927Y26632D1*
X43842Y26675D1*
X43670D1*
X44636D2*
X44549Y26632D1*
X44464Y26546D1*
X44420Y26460D1*
X44377Y26331D1*
Y26115D1*
X44420Y25986D1*
X44464Y25900D1*
X44549Y25814D1*
X44636Y25771D1*
X44808D1*
X44894Y25814D1*
X44980Y25900D1*
X45023Y25986D1*
X45066Y26115D1*
Y26331D1*
X45023Y26460D1*
X44980Y26546D1*
X44894Y26632D1*
X44808Y26675D1*
X44636D1*
X45947Y26546D2*
X45861Y26632D1*
X45732Y26675D1*
X45560D1*
X45430Y26632D1*
X45344Y26546D1*
Y26460D1*
X45387Y26373D1*
X45430Y26331D1*
X45516Y26288D1*
X45774Y26201D1*
X45861Y26159D1*
X45904Y26115D1*
X45947Y26029D1*
Y25900D1*
X45861Y25814D1*
X45732Y25771D1*
X45560D1*
X45430Y25814D1*
X45344Y25900D1*
X46784Y26675D2*
X46224D1*
Y25771D1*
X46784D1*
X46224Y26244D2*
X46569D1*
X48626Y25771D2*
X48281Y26675D1*
X47936Y25771D1*
X48066Y26072D2*
X48496D1*
X48904Y26244D2*
X49291D1*
X49420Y26288D1*
X49464Y26331D1*
X49507Y26416D1*
Y26503D1*
X49464Y26588D1*
X49420Y26632D1*
X49291Y26675D1*
X48904D1*
Y25771D1*
X49205Y26244D2*
X49507Y25771D1*
X50086Y26675D2*
Y25771D1*
X49784Y26675D2*
X50387D1*
X50665D2*
Y25771D1*
X51589Y26460D2*
X51546Y26546D1*
X51459Y26632D1*
X51374Y26675D1*
X51202D1*
X51115Y26632D1*
X51030Y26546D1*
X50986Y26460D1*
X50943Y26331D1*
Y26115D1*
X50986Y25986D1*
X51030Y25900D1*
X51115Y25814D1*
X51202Y25771D1*
X51374D1*
X51459Y25814D1*
X51546Y25900D1*
X51589Y25986D1*
X51867Y26675D2*
Y25771D1*
X52383D1*
X53220Y26675D2*
X52661D1*
Y25771D1*
X53220D1*
X52661Y26244D2*
X53005D1*
X54101Y26546D2*
X54015Y26632D1*
X53886Y26675D1*
X53714D1*
X53584Y26632D1*
X53498Y26546D1*
Y26460D1*
X53542Y26373D1*
X53584Y26331D1*
X53670Y26288D1*
X53929Y26201D1*
X54015Y26159D1*
X54058Y26115D1*
X54101Y26029D1*
Y25900D1*
X54015Y25814D1*
X53886Y25771D1*
X53714D1*
X53584Y25814D1*
X53498Y25900D1*
X55899Y26460D2*
X55856Y26546D1*
X55770Y26632D1*
X55684Y26675D1*
X55512D1*
X55426Y26632D1*
X55340Y26546D1*
X55296Y26460D1*
X55254Y26331D1*
Y26115D1*
X55296Y25986D1*
X55340Y25900D1*
X55426Y25814D1*
X55512Y25771D1*
X55684D1*
X55770Y25814D1*
X55856Y25900D1*
X55899Y25986D1*
X56177Y26675D2*
Y25771D1*
X56693D1*
X57530Y26675D2*
X56971D1*
Y25771D1*
X57530D1*
X56971Y26244D2*
X57316D1*
X58498Y25771D2*
X58153Y26675D1*
X57808Y25771D1*
X57938Y26072D2*
X58368D1*
X58776Y26244D2*
X59163D1*
X59292Y26288D1*
X59336Y26331D1*
X59379Y26416D1*
Y26503D1*
X59336Y26588D1*
X59292Y26632D1*
X59163Y26675D1*
X58776D1*
Y25771D1*
X59077Y26244D2*
X59379Y25771D1*
X60790Y26675D2*
X60703Y26632D1*
X60618Y26546D1*
X60574Y26460D1*
X60531Y26331D1*
Y26115D1*
X60574Y25986D1*
X60618Y25900D1*
X60703Y25814D1*
X60790Y25771D1*
X60962D1*
X61048Y25814D1*
X61134Y25900D1*
X61177Y25986D1*
X61220Y26115D1*
Y26331D1*
X61177Y26460D1*
X61134Y26546D1*
X61048Y26632D1*
X60962Y26675D1*
X60790D1*
X62058D2*
X61498D1*
Y25771D1*
Y26244D2*
X61842D1*
X63899Y25771D2*
Y26675D1*
X63555Y25771D1*
X63210Y26675D1*
Y25771D1*
X64435Y26675D2*
X64349Y26632D1*
X64263Y26546D1*
X64220Y26460D1*
X64177Y26331D1*
Y26115D1*
X64220Y25986D1*
X64263Y25900D1*
X64349Y25814D1*
X64435Y25771D1*
X64608D1*
X64693Y25814D1*
X64780Y25900D1*
X64822Y25986D1*
X64865Y26115D1*
Y26331D1*
X64822Y26460D1*
X64780Y26546D1*
X64693Y26632D1*
X64608Y26675D1*
X64435D1*
X65143D2*
X65487Y25771D1*
X65832Y26675D1*
X66109D2*
Y25771D1*
X66990Y26675D2*
Y25771D1*
X66387Y26675D1*
Y25771D1*
X67914Y26460D2*
X67871Y26546D1*
X67785Y26632D1*
X67699Y26675D1*
X67527D1*
X67440Y26632D1*
X67355Y26546D1*
X67311Y26460D1*
X67268Y26331D1*
Y26115D1*
X67311Y25986D1*
X67355Y25900D1*
X67440Y25814D1*
X67527Y25771D1*
X67699D1*
X67785Y25814D1*
X67871Y25900D1*
X67914Y25986D1*
Y26115D1*
X67699D1*
X69067Y26201D2*
X69455D1*
X69583Y26244D1*
X69627Y26288D1*
X69669Y26373D1*
Y26503D1*
X69627Y26588D1*
X69583Y26632D1*
X69455Y26675D1*
X69067D1*
Y25771D1*
X70637D2*
X70292Y26675D1*
X69947Y25771D1*
X70077Y26072D2*
X70507D1*
X70915Y26244D2*
X71302D1*
X71431Y26288D1*
X71475Y26331D1*
X71518Y26416D1*
Y26503D1*
X71475Y26588D1*
X71431Y26632D1*
X71302Y26675D1*
X70915D1*
Y25771D1*
X71216Y26244D2*
X71518Y25771D1*
X72097Y26675D2*
Y25771D1*
X71795Y26675D2*
X72398D1*
X73279Y26546D2*
X73194Y26632D1*
X73064Y26675D1*
X72892D1*
X72763Y26632D1*
X72676Y26546D1*
Y26460D1*
X72720Y26373D1*
X72763Y26331D1*
X72848Y26288D1*
X73107Y26201D1*
X73194Y26159D1*
X73236Y26115D1*
X73279Y26029D1*
Y25900D1*
X73194Y25814D1*
X73064Y25771D1*
X72892D1*
X72763Y25814D1*
X72676Y25900D1*
X73600Y25857D2*
X73557Y25813D1*
X73600Y25771D1*
X73644Y25813D1*
X73600Y25857D1*
M02*
