M48
INCH
T01C0.038
T02C0.126
%
T01
X+049119Y+086372
X+049994Y+086497
X+050994Y+086497
X+051994Y+086372
X+052869Y+086122
X+053744Y+085747
X+048619Y+085622
X+047494Y+049622
X+048244Y+049247
X+048869Y+048622
X+049119Y+047872
X+049119Y+046997
X+049744Y+046497
X+046619Y+049622
T02
X+047244Y+088587
X+011444Y+067917
X+047244Y+047247
X+041614Y+006317
X+047244Y+005907
X+052874Y+006317
X+083044Y+026577
X+083044Y+067917
X+011444Y+026577
T00
M30
