G04 DipTrace 2.3.1.0*
%INBoardOutline.gbr*%
%MOIN*%
%ADD11C,0.0055*%
%FSLAX44Y44*%
G04*
G70*
G90*
G75*
G01*
%LNBoardOutline*%
%LPD*%
X90491Y44955D2*
D11*
X90540Y46270D1*
X90551Y47247D1*
X90531Y48563D1*
X90471Y49878D1*
X90371Y51190D1*
X90232Y52499D1*
X90052Y53803D1*
X89833Y55100D1*
X89575Y56391D1*
X89278Y57673D1*
X88941Y58945D1*
X88567Y60207D1*
X88154Y61457D1*
X87703Y62693D1*
X87215Y63916D1*
X86690Y65122D1*
X86129Y66313D1*
X85531Y67486D1*
X84899Y68640D1*
X84231Y69774D1*
X83530Y70888D1*
X82795Y71979D1*
X82027Y73048D1*
X81227Y74093D1*
X80395Y75113D1*
X79533Y76108D1*
X78641Y77076D1*
X77720Y78016D1*
X76771Y78928D1*
X75795Y79810D1*
X74792Y80663D1*
X73764Y81484D1*
X72712Y82275D1*
X71636Y83032D1*
X70537Y83757D1*
X69417Y84448D1*
X68276Y85104D1*
X67116Y85726D1*
X65938Y86312D1*
X64742Y86862D1*
X63530Y87375D1*
X62303Y87852D1*
X61062Y88291D1*
X59809Y88691D1*
X58544Y89054D1*
X57268Y89378D1*
X55983Y89663D1*
X54690Y89909D1*
X53391Y90116D1*
X52085Y90283D1*
X50775Y90410D1*
X49462Y90497D1*
X48147Y90545D1*
X46831Y90552D1*
X45515Y90520D1*
X44201Y90447D1*
X42889Y90335D1*
X41582Y90182D1*
X40280Y89991D1*
X38984Y89759D1*
X37696Y89489D1*
X36417Y89179D1*
X35148Y88831D1*
X33890Y88444D1*
X32644Y88019D1*
X31412Y87557D1*
X30195Y87057D1*
X28993Y86520D1*
X27808Y85948D1*
X26641Y85339D1*
X25493Y84696D1*
X24365Y84017D1*
X23258Y83305D1*
X22174Y82560D1*
X21112Y81781D1*
X20075Y80971D1*
X19063Y80130D1*
X18076Y79259D1*
X17117Y78358D1*
X16186Y77428D1*
X15283Y76470D1*
X14410Y75485D1*
X13567Y74475D1*
X12755Y73439D1*
X11975Y72379D1*
X11228Y71295D1*
X10514Y70190D1*
X9833Y69063D1*
X9188Y67916D1*
X8577Y66750D1*
X8003Y65566D1*
X7464Y64365D1*
X6962Y63149D1*
X6498Y61917D1*
X6071Y60672D1*
X5682Y59415D1*
X5331Y58146D1*
X5019Y56868D1*
X4747Y55580D1*
X4513Y54285D1*
X4319Y52983D1*
X4164Y51676D1*
X4050Y50365D1*
X3975Y49051D1*
X3940Y47736D1*
X3945Y46420D1*
X3990Y45104D1*
X4075Y43791D1*
X4200Y42481D1*
X4365Y41175D1*
X4569Y39875D1*
X4813Y38581D1*
X5096Y37296D1*
X5418Y36020D1*
X5778Y34754D1*
X6177Y33500D1*
X6614Y32258D1*
X7088Y31031D1*
X7599Y29818D1*
X8147Y28621D1*
X8731Y27442D1*
X9351Y26281D1*
X10005Y25139D1*
X10694Y24018D1*
X11417Y22918D1*
X12173Y21840D1*
X12961Y20786D1*
X13781Y19757D1*
X14632Y18753D1*
X15513Y17775D1*
X16423Y16824D1*
X17362Y15902D1*
X18328Y15008D1*
X19321Y14144D1*
X20340Y13311D1*
X21383Y12509D1*
X22451Y11739D1*
X23541Y11002D1*
X24654Y10299D1*
X25787Y9630D1*
X26940Y8995D1*
X28112Y8396D1*
X29301Y7832D1*
X30507Y7305D1*
X31728Y6815D1*
X32964Y6362D1*
X34213Y5947D1*
X35474Y5570D1*
X36746Y5232D1*
X38028Y4932D1*
X39318Y4672D1*
X40615Y4450D1*
X41918Y4269D1*
X43227Y4127D1*
X44539Y4025D1*
X45854Y3962D1*
X47170Y3940D1*
X48486Y3958D1*
X49800Y4015D1*
X51113Y4113D1*
X52422Y4251D1*
X53726Y4428D1*
X55024Y4644D1*
X56315Y4901D1*
X57598Y5196D1*
X58871Y5530D1*
X60133Y5902D1*
X61383Y6313D1*
X62621Y6762D1*
X63844Y7248D1*
X65052Y7770D1*
X66243Y8330D1*
X67417Y8925D1*
X68572Y9556D1*
X69707Y10221D1*
X70822Y10921D1*
X71915Y11654D1*
X72985Y12420D1*
X74032Y13218D1*
X75053Y14048D1*
X76049Y14909D1*
X77019Y15799D1*
X77960Y16718D1*
X78874Y17665D1*
X79758Y18640D1*
X80612Y19641D1*
X81436Y20668D1*
X82228Y21719D1*
X82987Y22794D1*
X83714Y23892D1*
X84407Y25011D1*
X85065Y26150D1*
X85689Y27309D1*
X86277Y28486D1*
X86829Y29681D1*
X87344Y30892D1*
X87823Y32118D1*
X88264Y33358D1*
X88667Y34611D1*
X89032Y35876D1*
X89358Y37151D1*
X89645Y38435D1*
X89894Y39728D1*
X90102Y41027D1*
X90272Y42332D1*
X90401Y43642D1*
X90491Y44955D1*
M02*
